<svg width="113" height="302" viewBox="0 0 113 302" fill="none" xmlns="http://www.w3.org/2000/svg">
  <path fill-rule="evenodd" clip-rule="evenodd"
    d="M110.484 295.89C111.247 292.423 107.758 291.251 105.558 290.479C103.983 289.481 98.1452 286.026 93.6283 281.76C89.9323 278.269 87.4162 273.795 86.3688 273.369C86.3688 273.369 85.2907 272.758 85.1788 272.305C84.5227 269.647 85.0699 267.169 85.1788 265.558C87.2815 265.019 88.9664 264.347 90.2266 263.406C90.594 263.526 91.1449 263.679 91.3091 263.154C92.448 255.735 92.9396 248.404 93.8662 240.979C97.3735 212.7 97.7692 179.663 91.7351 153.834C91.6717 152.554 91.7861 151.398 91.9031 150.298C92.719 150.212 93.2123 149.44 93.8785 148.98C94.9125 148.177 96.1369 147.56 96.0864 146.158C96.332 145.976 96.3034 145.874 96.1823 145.643C96.971 142.331 93.4529 138.841 92.458 136.111C94.2666 118.838 91.8057 102.516 93.1786 85.2389C94.9126 84.5304 93.7468 80.1022 93.6283 78.2757C92.6677 66.5088 86.4032 54.8749 75.1222 51.0308C74.4773 50.9031 73.508 50.1834 72.9744 50.6667C71.9431 50.2678 70.571 51.0543 69.7728 50.1488L69.7808 50.1429C69.1088 49.233 68.8075 48.0762 68.5866 46.9824C68.6236 47.2906 68.6853 47.5963 68.7612 47.8951C66.8165 42.5433 66.3265 41.1123 60.0657 40.8603C57.2455 40.8235 53.5279 40.9061 51.8835 43.5325C51.2096 44.7534 51.4155 46.1553 50.9973 47.4404C50.2296 49.7987 46.9159 48.6591 45.1762 49.8837C31.2526 54.2441 19.8318 63.1446 16.0778 77.4304C15.3104 79.1523 14.4399 80.8659 13.7983 82.6429C13.699 82.9067 13.4259 83.7993 14.0819 84.21L14.3992 84.4087C10.22 103.482 9.9427 119.553 23.9833 132.268C25.0369 137.732 22.3264 145.193 23.3683 150.498C22.7746 151.32 23.5274 151.983 24.2864 152.036C24.3596 152.075 24.6553 152.202 24.736 152.238C23.5281 168.888 28.5994 191.327 30.8348 200.184C31.1391 205.501 29.2804 209.869 25.4567 212.767C21.2321 215.308 12.88 226.782 14.4283 238.819C12.6188 239.165 10.8225 239.356 9.08646 240.02C1.49053 238.711 1.56586 253.009 1.08186 258.036C0.262151 266.454 -0.247323 278.654 7.94252 284.042C10.1001 285.571 14.4748 287.36 16.7166 284.914C17.4513 284.052 17.6352 283.22 17.3462 282.34C21.048 277.233 20.0504 270.553 20.3905 264.564C21.464 264.5 22.5871 264.992 23.6254 264.813C24.6912 263.896 20.8032 264.146 20.3999 264.092C20.4412 263.168 20.5173 262.196 20.6155 261.265C21.2254 261.384 22.0066 261.67 22.593 261.692C22.9401 261.774 23.1854 261.307 22.9759 261.066C22.5182 260.639 21.3513 260.705 20.6947 260.645C20.8055 259.865 20.9412 259.046 21.0918 258.292C21.8952 258.264 22.7247 258.763 23.4854 258.661C22.9097 258.286 21.829 258.4 21.1273 258.152C21.5836 255.724 22.5135 253.419 23.378 251.148C25.4991 252.003 27.329 252.036 29.3997 251.78C30.2467 251.907 30.6597 251.738 30.7969 250.704L30.7428 250.638C32.384 241.049 37.6802 231.907 47.5177 221.54C49.4608 219.416 51.6567 216.916 53.1197 214.121C56.0596 208.304 56.5617 201.884 58.8269 195.843C60.9418 189.771 63.8335 183.962 66.5486 178.206C66.9468 181.156 67.4816 184.182 68.0376 187.075C70.4846 197.326 70.2474 208.264 68.4466 218.572C65.7821 233.009 67.0664 247.514 66.4738 262.054C66.4819 262.892 66.5884 263.654 66.4624 264.527C66.4457 264.594 66.4783 264.674 66.5598 264.672L66.7136 264.676C67.9942 265.592 69.7628 265.757 71.2676 266.254C71.8996 266.742 71.7216 267.516 71.7795 268.119C71.9448 270.72 72.1562 273.33 71.8939 276.011C70.7327 278.183 69.2907 277.734 68.9957 280.797C68.7375 284.293 68.2807 288.011 70.0244 291.124L69.3647 291.235C68.3856 293.241 68.9833 294.544 71.2844 295.392C82.6444 299.741 98.6295 303.69 110.484 300.407C110.699 300.616 111.013 300.399 111.258 300.071C111.493 299.756 111.665 299.338 111.627 299.096C111.424 298.031 111.703 296.087 110.484 295.89Z"
    fill="white" />
  <path fill-rule="evenodd" clip-rule="evenodd"
    d="M75.4293 14.4034C71.6157 4.607 64.7414 -2.56559 53.1522 1.93947C52.8198 1.71847 52.386 1.6592 51.9703 1.91798C45.6572 5.78852 41.1111 11.9939 39.141 18.9912C37.942 19.2138 36.7769 19.6021 35.7363 20.2387C33.4746 21.6224 31.953 23.8241 30.5267 25.9685C30.0978 26.6131 30.495 27.6805 31.301 27.8268C31.6511 27.8906 31.9981 27.9284 32.3432 27.9384C32.2592 28.2361 32.1486 28.5238 32.0078 28.7877C31.498 29.7428 32.4611 30.7569 33.3637 30.4957C33.4639 30.5475 33.5688 30.59 33.6776 30.622C33.6899 31.1631 33.9747 31.8874 34.5382 31.9967C35.4497 32.1876 36.6609 31.5065 36.4458 30.5112C36.7212 30.5585 36.9955 30.5644 37.2629 30.5316C37.2929 31.0499 37.2835 31.5908 37.3568 32.0689C37.5964 34.322 39.902 35.8356 42.1008 35.1501C42.2356 35.8522 42.394 36.8386 43.1022 37.2195C43.9301 39.4873 45.3598 42.0755 47.7014 43.1088C47.493 43.6303 47.606 44.2647 48.2339 44.6137C52.5201 46.9997 57.6647 47.807 62.5105 46.92C64.4472 46.8074 66.3341 46.3801 68.1452 45.4697C69.4659 44.8059 70.6801 43.9629 71.8653 43.0938C73.0512 42.2244 74.3191 41.3779 75.2657 40.2491C76.2937 39.0231 76.7723 37.5807 77.0829 36.0455C78.506 29.0769 78.0145 22.2346 75.4293 15.5964C72.2292 7.37933 78.6282 22.6209 75.4293 14.4034Z"
    fill="white" />
  <path fill-rule="evenodd" clip-rule="evenodd"
    d="M56.9926 0.0304656C58.9443 -0.10406 60.9316 0.217171 62.7902 0.791787C65.7545 1.70796 68.4768 3.3248 70.7134 5.42968C73.0185 7.59891 74.7233 10.2734 75.7599 13.2274C77.0099 16.7898 77.197 20.5935 77.5489 24.3123C77.7266 26.1912 78.0195 28.0414 78.324 29.9021L78.3722 30.196C78.6696 32.0088 78.837 33.8423 78.4261 35.6523C77.7429 38.6606 75.6951 41.2141 73.2642 43.101C68.2706 46.9771 60.4969 49.3402 54.6827 45.7735C53.7832 45.2216 54.6356 43.8104 55.5137 44.3854C56.1317 44.7903 56.7864 45.1452 57.4885 45.3902C60.422 46.4138 63.6437 46.0492 66.543 45.097C69.4 44.1587 72.1415 42.5733 74.2497 40.4578C76.464 38.2356 77.6912 35.4908 77.5139 32.3676C77.4082 30.5094 76.9746 28.6855 76.734 26.8424C76.5208 25.2099 76.393 23.5686 76.2457 21.9296L76.1917 21.34C75.8793 18.0007 75.4307 14.5697 73.8746 11.5385C72.5657 8.98829 70.6491 6.71957 68.3445 4.96746C65.9318 3.13312 63.05 1.85021 60.0264 1.3717C56.4707 0.809039 53.0669 1.83221 50.1008 3.73695C47.4702 5.42618 45.2086 7.68358 43.4744 10.245C42.6335 11.4869 41.9171 12.8132 41.2984 14.1734C40.7155 15.4549 40.3135 16.7981 39.8447 18.119C40.2305 18.1077 40.6227 18.1222 41.0209 18.1652C43.0636 18.3862 44.9667 19.4199 46.1783 21.0497C47.6589 23.0414 47.2587 25.4861 47.837 27.7511C47.8818 27.9269 47.8057 28.099 47.6514 28.1963C46.7746 28.7496 45.6011 28.768 44.7524 28.1449C44.0159 27.6042 43.6701 26.6265 43.9683 25.7723C44.0072 25.6609 44.1733 25.6806 44.1779 25.8C44.234 27.2538 45.6153 28.3733 46.9693 27.6815C46.3885 25.7284 46.6942 23.5471 45.5062 21.7829C43.4036 18.6606 39.0525 18.5315 35.9964 20.2917C34.3881 21.2179 33.115 22.6105 32.167 24.1683L31.8939 24.6205C31.5306 25.2247 31.1457 25.9082 31.0704 26.5736C31.0269 26.9576 31.172 27.3184 31.6232 27.125C31.9882 26.9685 32.2708 26.6035 32.4876 26.2896C32.8573 25.7544 33.7069 26.2168 33.4015 26.7868L33.3912 26.8054C32.9467 27.5743 32.673 28.4216 32.6228 29.3044L32.61 29.5488C32.6016 29.727 32.5956 29.9802 32.6342 29.9895C32.6805 30.0006 33.0021 29.6381 33.0557 29.5879C33.3137 29.3459 33.5793 29.1482 33.9385 29.0838C34.4106 28.9993 34.8869 29.5696 34.4771 29.9435L34.46 29.9586C34.0942 30.269 34.1105 30.8881 34.5145 31.1784C35.0847 31.5881 35.7867 30.9193 35.8694 30.3687L35.8722 30.3484C35.9454 29.7534 36.7916 29.7324 36.8376 30.3484C36.9374 31.6852 35.3074 32.8056 34.0673 32.1312C33.5769 31.8647 33.2651 31.3766 33.1674 30.8536C33.0109 30.9343 32.842 30.9903 32.6635 31.0058C32.0823 31.056 31.669 30.657 31.5751 30.1214C31.4656 29.4975 31.5305 28.8294 31.6988 28.1815C31.3832 28.2558 31.0512 28.2274 30.7174 28.0393C29.7077 27.4704 29.9976 26.205 30.3789 25.3506C32.0065 21.7039 35.3785 18.395 39.5562 18.1323C39.5791 17.4889 39.6684 16.8806 39.8145 16.2364C41.2435 9.93463 45.8725 4.09935 51.8989 1.37201C53.5093 0.643185 55.2171 0.152925 56.9926 0.0304656ZM41.1894 25.2035L41.2467 25.1909C41.8978 25.0539 43.6112 24.893 43.4047 25.9628C43.3949 26.0131 43.32 26.0069 43.3067 25.9628C43.1044 25.2902 41.7303 25.8281 41.3292 25.99C40.7761 26.2131 40.2305 26.5423 39.7789 26.9249C38.7902 27.7627 38.1275 28.9435 38.0267 30.2259C37.9267 31.498 38.3047 32.8721 39.2445 33.7922C39.7052 34.2432 40.2933 34.5494 40.9539 34.572C41.5474 34.5921 42.2031 34.141 42.7507 34.4052C42.8587 34.4572 42.9442 34.6002 42.9344 34.7179C42.916 34.9407 42.8139 35.1142 42.6619 35.2487C43.5788 36.8801 44.3291 38.6068 45.4986 40.0903C46.0855 40.8345 46.7505 41.5238 47.5035 42.1104C47.8615 42.3893 48.2506 42.6342 48.6519 42.8494C49.1222 43.1018 49.5291 43.2597 49.8647 43.6873C50.1509 44.0519 49.8646 44.7569 49.3928 44.8198C48.2818 44.9676 47.2022 44.0906 46.3866 43.4336C45.5718 42.7772 44.8675 41.9675 44.2855 41.1084C43.1679 39.4586 42.4034 37.5124 42.0977 35.5434C41.7428 35.6533 41.3432 35.6868 41.0427 35.6875C40.2429 35.6893 39.4792 35.4083 38.8507 34.9336C36.5499 33.196 36.2941 29.6284 37.9178 27.3786C38.6948 26.3021 39.8755 25.5067 41.1894 25.2035ZM41.2033 29.3413C41.7369 29.2955 42.27 29.3778 42.7714 29.5554L42.9781 29.6285C43.4148 29.7844 43.8796 29.9678 44.195 30.2874C44.6768 30.7759 44.1971 31.6225 43.5107 31.4352C42.7518 31.2282 42.135 30.6042 41.3763 30.3424C40.6982 30.1085 39.9301 30.1416 39.3282 30.5445C39.2488 30.5977 39.1443 30.4927 39.1962 30.4154C39.6566 29.731 40.3834 29.4114 41.2033 29.3413Z"
    fill="#2B2B2B" />
  <path fill-rule="evenodd" clip-rule="evenodd"
    d="M69.4333 36.657C69.8052 36.0162 70.915 36.1204 71.0846 36.8677C71.4288 38.3827 69.5785 39.7818 68.1733 39.8167C66.7768 39.8513 65.2099 38.6907 65.412 37.2248C65.462 36.8622 65.958 36.9062 66.1271 37.1336L66.1928 37.2208C66.6521 37.8233 67.2581 38.4469 68.1105 38.3C68.4638 38.2392 68.7846 38.0237 68.9982 37.7463C69.2557 37.4115 69.2274 37.0118 69.4333 36.657ZM60.5535 25.5731C60.7428 25.5222 60.9338 25.5419 61.1015 25.6116C61.4759 25.6786 61.7886 25.9834 61.8986 26.3314C61.9072 26.3615 61.9169 26.3913 61.9276 26.4207L61.9443 26.4647L61.8994 26.3531C61.9201 26.463 62.0117 26.5784 62.0447 26.6887C62.0852 26.8243 62.0951 26.9783 62.0814 27.1275C62.2005 27.1287 62.3195 27.1326 62.4383 27.1427L62.5531 27.1527C63.1951 27.211 63.9 27.3179 64.2806 27.8595C64.4944 28.1639 64.2937 28.712 63.901 28.7706C63.2965 28.8609 62.7757 28.5343 62.1732 28.4689C61.6037 28.407 61.0077 28.4424 60.4456 28.5429C59.285 28.75 58.2185 29.2094 57.0874 29.4976L56.9335 29.5358L56.9337 29.535C56.7399 29.5807 56.5198 29.3176 56.7116 29.1637C57.6177 28.4369 58.7778 27.8479 59.9206 27.4892C59.7541 27.2306 59.7026 26.89 59.8164 26.6124C59.8341 26.5549 59.8559 26.4989 59.879 26.4432L59.9271 26.3284C59.9318 26.2743 59.9424 26.2209 59.9578 26.1685L59.9603 26.1525L59.9617 26.1535C60.0468 25.8835 60.269 25.6498 60.5535 25.5731ZM72.1129 25.6149C72.3607 25.3728 72.7089 25.4086 72.9675 25.5991L73.0019 25.6254C73.2456 25.7311 73.4474 25.9622 73.5798 26.1763C73.7174 26.3987 73.8088 26.6252 73.8124 26.87C74.4122 26.8719 74.9869 27.0476 75.4273 27.5205C75.5695 27.6731 75.6666 27.9085 75.5884 28.1154L75.5417 28.2385C75.3939 28.6293 74.729 28.8543 74.503 28.3947L74.4926 28.3723C74.2525 27.8266 73.3307 27.8839 72.8409 27.9396C72.4994 27.9787 72.1622 28.0616 71.8325 28.1544C71.7163 28.1871 71.6011 28.2226 71.4861 28.2588L71.3711 28.2953C71.3098 28.3146 70.9902 28.4841 71.189 28.444C71.2424 28.4332 71.2827 28.5092 71.2281 28.5347C70.9912 28.6453 70.7384 28.425 70.7542 28.1765C70.7816 27.7451 71.4832 27.5086 71.8208 27.3598L71.841 27.3508C71.9704 27.2924 72.1061 27.2364 72.246 27.1845C72.1673 27.0701 72.1023 26.9431 72.0482 26.8068C71.997 26.6781 71.9629 26.553 71.9441 26.4162C71.9257 26.3493 71.9257 26.2824 71.9441 26.2154L71.9469 26.1962C71.9374 26.152 71.9328 26.1062 71.9335 26.0602L71.9315 26.0423H71.9335C71.9401 25.8811 72.0057 25.7196 72.1129 25.6149ZM68.1539 30.209C69.106 30.4962 70.6767 31.2787 70.1805 32.4865C69.4878 33.5957 67.6505 32.7805 66.7602 32.4221C65.9604 32.1635 65.5439 33.258 66.3173 33.5879C72.7084 36.0566 72.6849 29.5411 68.3857 29.6368C67.9123 29.6473 67.8974 30.1135 68.1539 30.209ZM59.6979 21.7133L59.8603 21.6671C60.7042 21.4284 61.5657 21.0162 62.3149 21.6593C62.6091 21.9119 62.6697 22.4366 62.4592 22.7516C61.9796 23.4693 61.2684 23.3597 60.4939 23.4209C59.9042 23.4674 59.3233 23.6366 58.7729 23.8479C58.323 24.0208 57.9058 24.2641 57.5119 24.5355C57.1249 24.8023 56.8605 25.2194 56.4635 25.4596C56.3181 25.5476 56.1501 25.457 56.0978 25.3143C55.9127 24.8078 56.2255 24.1769 56.4902 23.7454C56.8133 23.2189 57.3042 22.7883 57.832 22.4626C58.4099 22.1058 59.049 21.8998 59.6979 21.7133ZM71.9946 21.1684C73.421 21.168 74.7936 21.9426 75.5914 23.0782C75.8625 23.464 75.6638 24.0355 75.2747 24.2577C74.8381 24.5071 74.3713 24.3275 74.0836 23.9702L74.0666 23.9485C73.609 23.3536 73.0192 22.885 72.32 22.58C71.9789 22.4311 71.6017 22.3103 71.2327 22.249L71.1134 22.2291C70.9463 22.2017 70.7524 22.1756 70.6013 22.2012C70.5203 22.2116 70.4459 22.2377 70.3774 22.2775C70.4104 22.3478 70.3253 22.4325 70.2467 22.3903C69.8922 22.2002 69.9357 21.8611 70.2285 21.5976C70.6427 21.2247 71.4597 21.1685 71.9946 21.1684Z"
    fill="#2B2B2B" />
  <path fill-rule="evenodd" clip-rule="evenodd"
    d="M110.971 299.373C100.763 303.848 82.2272 298.201 72.197 294.934C69.4926 293.981 68.5917 293.794 69.3494 290.75C70.7673 293.421 73.8165 294.067 76.7379 294.602C86.6336 296.805 96.7222 300.872 107.305 298.887C108.859 298.649 110.396 297.827 110.848 296.312C111.126 296.954 110.954 297.824 111.066 298.53C111.086 298.812 111.093 299.116 110.971 299.373ZM69.6849 282.725C69.8692 280.93 70.164 279.035 71.2101 277.449C71.0963 280.014 72.6735 284.372 76.1292 282.92C77.108 282.414 77.6567 281.394 78.2863 280.575C80.3795 277.88 83.0635 275.54 86.0955 273.84C87.7821 274.123 88.5074 277.134 89.5945 278.395C88.3826 278.922 86.1864 280.124 85.9643 281.367C87.4776 280.87 88.8704 279.944 90.4575 279.619C90.9657 280.304 91.5046 280.968 92.0704 281.61C91.331 281.928 88.3501 283.399 88.3697 284.134C89.9815 283.878 91.5435 283.107 93.1641 282.791C93.8849 283.489 94.5408 284.24 95.2583 284.94C94.1743 285.376 93.0296 285.863 92.4378 286.879C92.4097 286.925 92.479 286.977 92.517 286.932C93.3289 285.976 94.7262 285.801 95.937 285.586C97.7949 287.294 99.8751 288.801 102.203 289.928C104.533 291.172 108.073 291.456 109 294.154C109.741 296.852 107.429 297.14 105.296 297.33C103.138 297.63 100.964 297.675 98.8203 297.5C92.118 297.228 85.7821 295.301 79.4484 293.618C71.7045 292.226 69.1917 291.099 69.6849 282.725ZM72.4354 267.019C76.5383 267.565 80.7528 267.229 84.7603 266.262C84.4831 267.385 84.2947 268.526 84.1796 269.673H84.1887C84.1479 270.039 84.0452 270.511 84.0416 270.96C84.0677 271.62 84.0578 272.426 84.4677 272.975C81.5007 275.118 78.6043 277.505 76.5436 280.493C75.18 282.925 73.3654 281.445 72.9146 279.497C72.625 276.052 72.7613 272.766 72.6178 269.462L72.6049 269.464C72.5675 268.648 72.515 267.833 72.4354 267.019ZM71.9559 266.951C71.9375 267.07 71.9213 267.188 71.904 267.308C71.8822 267.182 71.8671 267.055 71.8356 266.931C71.8758 266.938 71.9158 266.945 71.9559 266.951ZM69.8892 265.208C69.2031 265.004 68.5212 264.787 67.8415 264.563C67.6745 264.511 67.3971 264.495 67.3081 264.331C69.8382 259.182 68.3543 253.2 68.4734 247.698C67.59 232.693 71.1141 217.954 71.6181 203.04C71.5781 194.587 68.57 186.533 67.0427 178.277C68.6046 175.014 70.0605 171.714 71.4728 168.394C71.5183 168.294 71.3439 168.231 71.2875 168.321C69.6224 170.82 67.9641 173.319 66.4205 175.887C58.9496 186.757 55.5903 199.152 52.0521 211.512C50.9052 214.328 49.0646 216.809 47.0202 219.117C38.538 228.064 30.6207 238.27 28.6446 250.359C20.7726 250.103 18.4985 245.387 15.7495 239.438C15.757 239.415 15.7646 239.393 15.7723 239.371C15.6735 239.203 15.6052 239.023 15.551 238.836C15.5262 238.855 15.5013 238.876 15.4762 238.896C13.64 235.467 16.2383 228.319 17.629 224.741C19.4512 220.765 21.9044 217.066 25.139 213.992C27.5215 211.926 29.9875 209.674 31.0087 206.711C32.7127 202.078 31.2082 196.902 30.2531 192.246C27.9453 180.7 25.707 162.937 26.0613 151.148C29.0109 147.718 34.1837 148.057 38.3212 147.242C39.5299 148.353 40.5608 149.662 42.0697 150.381C43.8257 151.981 45.5373 153.658 46.8274 155.618C48.2648 158.295 50.0814 160.62 52.6299 162.422C53.9178 163.416 55.7745 164.857 57.575 164.249C58.853 163.842 59.5632 162.587 60.8216 162.166C62.3338 161.865 63.24 161.756 64.1321 160.43C65.2085 160.222 66.235 159.707 65.9206 158.488C66.2026 158.581 66.4844 158.671 66.7618 158.765C67.3245 158.955 67.9314 158.364 67.7439 157.847C67.28 156.78 66.7423 155.728 66.5614 154.575C66.3717 149.436 65.0144 148.021 60.1798 145.961C62.1148 145.867 64.0107 146.329 65.8469 146.842C75.0121 150.115 81.0227 152.133 90.5727 148.023C95.2177 185.775 95.1406 224.268 89.4312 261.891C83.9842 265.824 76.3921 265.719 69.8892 265.208ZM14.9044 243.43C14.9228 243.275 14.9433 243.122 14.965 242.967C16.1129 246.012 18.0793 248.906 21.0072 250.67C19.8863 252.035 17.7031 252.441 16.23 251.324C13.6609 249.443 14.732 246.04 14.9044 243.43ZM19.7888 257.627C18.6486 257.541 13.7716 257.377 13.1864 258.124C13.8454 258.396 14.7515 258.246 15.4605 258.276C16.8372 258.331 18.2107 258.45 19.5732 258.638C19.4712 259.157 19.3791 259.675 19.3033 260.194C17.9288 260.322 15.2523 260.381 14.3798 261.319C15.9363 261.562 17.5569 261.344 19.1189 261.646C19.043 262.358 18.9878 263.07 18.9467 263.782C18.3244 263.847 14.6649 264.439 14.6682 265.001C16.0382 265.178 17.4897 264.944 18.886 265.077C18.5834 269.345 19.609 282.236 13.634 283.024C8.41022 282.756 6.11867 274.489 5.40877 270.523C3.83471 261.283 4.10473 251.432 7.22445 242.525C8.33868 240.048 11.3718 239.619 13.9365 239.491C14.0339 239.91 14.1304 240.321 14.2388 240.736C13.1266 243.198 12.7723 245.97 12.7418 248.634C12.9771 252.464 17.816 255.311 21.3303 252.781C20.6734 254.348 20.1662 255.978 19.7888 257.627ZM12.8768 285.174C2.53008 283.002 0.832555 271.302 1.54376 262.7C2.12358 256.711 1.42669 244.085 7.08824 240.567C-0.228668 247.089 0.406655 291.49 16.6219 283.74C16.2176 284.991 14.1385 285.352 12.8768 285.174ZM24.5442 152.6C24.6104 152.578 24.6754 152.55 24.735 152.515C24.7198 153.992 24.7437 155.47 24.799 156.945C24.6927 155.498 24.6082 154.049 24.5442 152.6ZM23.6918 130.105C9.88195 116.668 12.517 101.432 15.6889 84.649C20.8084 85.246 25.9563 86.4451 30.5666 88.6467C28.9406 96.0545 28.8364 102.769 28.1362 110.286C27.9248 111.215 28.1633 113.005 29.5119 112.592C41.9071 122.202 43.3478 141.949 59.6141 147.659C66.2437 150.29 63.446 152.426 65.6367 157.394C64.4313 157.178 63.356 156.192 62.8378 155.248C62.5811 154.779 61.833 155.192 62.0835 155.659C62.6232 156.666 63.5295 157.476 64.6038 157.982C64.4714 158.236 64.4259 158.521 64.4118 158.789C62.4769 159.176 63.021 160.072 61.7139 160.5C60.8585 160.73 60.0357 160.829 59.2965 161.335C56.7805 163.623 56.1562 163.455 53.4559 161.442C53.4929 161.26 49.8182 157.755 48.68 155.796C47.7315 154.162 46.7385 152.516 45.2849 151.252C38.1663 144.135 30.5827 137.419 23.6918 130.105ZM91.5352 85.4164C90.8295 94.9167 91.0116 103.403 91.1635 112.918C91.2512 119.319 91.2923 125.721 91.0647 132.119C85.2946 117.557 87.0606 101.756 86.241 86.4504C87.9462 85.8958 89.778 85.6535 91.5352 85.4164ZM50.1721 48.8988C50.1516 48.9337 50.1299 48.9686 50.1082 49.0025C49.9651 49.012 49.8209 49.0247 49.6746 49.0406C49.8405 48.9919 50.0064 48.9464 50.1721 48.8988ZM69.8348 50.0156C69.8293 49.9999 69.8239 49.9842 69.8196 49.9696C69.8326 49.9769 69.8455 49.9853 69.8596 49.9936C69.8489 49.9999 69.8423 50.0072 69.8348 50.0156ZM111.976 297.519C111.948 296.762 111.937 295.784 111.028 295.515C111.44 292.251 108.665 290.393 105.752 289.488C103.267 288.004 100.45 286.968 98.1668 285.178C99.2269 284.984 100.287 284.749 101.229 284.299C101.94 283.959 101.598 282.828 100.827 282.933C99.4621 283.109 98.2362 283.786 96.9538 284.257C96.2253 283.673 95.5197 283.063 94.8531 282.417C95.6833 282.26 96.7392 282.318 97.2227 281.513C97.3734 281.261 97.3061 281 97.1241 280.806C96.2829 279.975 94.6156 280.805 93.5706 281.047C93.0689 280.482 92.5842 279.906 92.1084 279.323C92.8976 279.252 94.9506 279.393 94.5485 278.121C93.7778 277.126 92.1204 277.723 91.0059 277.928C89.5924 276.231 89.1371 273.627 86.928 272.693C86.8489 272.282 86.2983 272.313 85.9308 272.435C85.6986 271.353 85.574 270.5 85.5194 269.673L85.4923 269.671C85.4682 268.463 85.5157 267.251 85.5894 266.047C87.2293 265.604 88.8564 265.022 90.22 264.067C90.8467 264.247 91.6065 264.04 91.7367 263.321C92.8705 255.961 93.3746 248.509 94.297 241.123C97.6605 213.92 98.3933 180.718 92.1669 153.843C92.1181 152.825 92.1919 151.806 92.297 150.795C93.0395 150.601 93.4818 149.893 94.0964 149.484C95.2389 148.574 96.401 148.065 96.5062 146.479C96.737 146.264 96.7641 145.939 96.6374 145.657C96.9333 144.028 96.4974 142.411 95.6096 141.004C94.6363 139.4 93.717 137.782 92.9052 136.099C94.6807 119.137 92.2721 102.697 93.5891 85.6503C95.2779 84.7771 94.2178 79.9253 94.0607 78.308C93.0742 67.6868 87.9957 55.9595 77.1981 51.5416C76.4404 50.9172 75.3824 50.7055 74.4567 50.3615C73.8313 50.0609 72.8134 49.8005 72.3852 50.5001C71.9311 50.2937 70.4687 50.136 69.9679 49.7783C69.8747 49.7116 69.8151 49.6386 69.801 49.5571C69.7641 49.5581 69.7208 49.5507 69.6742 49.5412C69.2125 48.904 68.7723 44.4661 68.2032 44.7826C67.5821 46.3067 68.0124 48.0287 68.6065 49.5677C69.0162 50.9288 69.5778 54.4301 71.7543 53.5346C72.1295 53.3526 71.8974 52.8795 71.5614 52.8414C70.5295 52.5535 70.2996 51.0727 69.9007 50.2048C70.3733 50.588 72.5262 51.1627 72.7615 51.2844C77.4313 61.7501 49.1966 61.2008 46.9767 53.9855C45.3939 51.4929 46.7599 50.1424 49.5815 49.7423C47.5077 51.9925 50.1332 52.4921 51.1315 50.2853C52.0865 48.7051 52.5212 46.7851 52.1949 44.9667C52.3629 44.3285 52.505 43.4754 51.5271 43.6469C51.4936 43.5622 51.4404 43.6289 51.4611 43.6892C51.1044 44.2438 51.3527 45.0408 51.2259 45.6812C51.1186 46.729 50.8139 47.7557 50.2969 48.6828C49.3376 48.8617 48.3825 49.0533 47.4319 49.2628C46.8617 48.1314 43.1631 50.3879 42.1702 50.6536C28.9791 54.4586 18.9479 64.5919 15.4467 77.3734C14.6652 79.0754 13.8217 80.7858 13.1822 82.5406C12.896 83.3006 12.896 84.2436 13.6819 84.7358C9.85218 101.89 8.91778 119.762 23.3859 132.628C23.7142 134.021 23.4953 135.499 23.4856 136.917C23.6069 140.147 20.7798 151.218 24.0634 152.65C23.1039 166.992 26.7018 186.506 30.189 200.342C30.4468 205.097 28.9781 209.423 25.0247 212.424C17.5084 217.91 14.342 227.069 13.4629 235.797C13.3383 236.691 13.4608 237.601 13.6668 238.48C12.0375 238.776 10.5124 238.969 8.93079 239.552C0.207944 237.92 0.830261 256.219 0.162525 261.649C-0.360065 269.676 -0.0337852 279.298 7.52052 284.554C10.0603 286.319 14.5437 288.015 17.0185 285.341C17.7187 284.523 18.1003 283.566 17.8249 282.521C21.3728 277.448 20.5349 270.964 20.8004 265.191C21.7294 265.223 22.7419 265.627 23.6569 265.405C24.3615 265.223 24.4514 264.34 23.8552 263.989C22.9944 263.512 21.8248 263.693 20.8622 263.662C20.8916 263.109 20.9339 262.557 20.9881 262.004C21.9018 262.222 23.2112 262.746 23.4833 261.499C23.5929 260.364 22.124 260.277 21.2092 260.228C21.2732 259.799 21.3447 259.373 21.426 258.947C22.1263 259.016 22.8654 259.452 23.5539 259.244C23.944 259.094 24.0795 258.708 23.7944 258.396C23.2645 257.889 22.3581 257.991 21.6569 257.833C22.0828 255.796 22.8525 253.847 23.594 251.898C24.936 252.354 26.3895 252.654 27.8215 252.54C28.564 252.387 29.3749 252.344 30.125 252.442C30.9596 252.227 31.1525 251.355 31.2621 250.644C31.2458 250.619 31.2295 250.594 31.2111 250.572C33.1395 239.607 40.0576 230.134 47.8145 221.973C49.951 219.638 52.0464 217.21 53.4978 214.437C56.4464 208.641 56.9753 202.12 59.231 196.098C61.1313 190.631 63.671 185.387 66.161 180.136C67.1593 187.052 69.0238 193.855 69.2374 200.868C69.5626 209.74 67.5604 218.484 66.7062 227.286C65.1702 238.87 66.5654 250.527 65.8239 262.12C65.8294 262.94 65.9378 263.712 65.8184 264.533C65.7524 264.987 66.0863 265.272 66.4375 265.281C67.7273 266.108 69.348 266.401 70.8308 266.754C71.2416 267.061 71.0639 267.817 71.1366 268.28C71.1651 268.745 71.1952 269.21 71.224 269.673H71.2274C71.3579 271.631 71.4579 273.327 71.247 275.459C69.7966 277.553 68.7518 277.218 68.3484 280.401C68.1263 283.724 67.6374 287.317 69.1246 290.333C68.459 290.481 68.2064 292.464 68.3062 292.989C68.4753 294.469 69.8118 294.937 71.1039 295.448C80.5465 298.903 100.61 304.59 110.313 300.679C111.008 301.063 111.783 300.31 112.007 299.704C112.304 298.967 112.031 298.252 111.976 297.519Z"
    fill="#2B2B2B" />
  <mask id="path-6-inside-1_289_16031" fill="white">
    <path
      d="M64.1724 157.978L60.7036 153.69C60.7036 153.69 69.8893 152.993 70.7847 154.083C71.3267 154.743 71.5435 158.073 71.5435 158.073V301.65H66.7739V162.36C66.7739 162.36 66.8823 159.062 66.3403 158.513C65.7984 157.963 64.3892 158.073 64.3892 158.073L64.1724 157.978Z" />
  </mask>
  <path
    d="M64.1724 157.978L60.7036 153.69C60.7036 153.69 69.8893 152.993 70.7847 154.083C71.3267 154.743 71.5435 158.073 71.5435 158.073V301.65H66.7739V162.36C66.7739 162.36 66.8823 159.062 66.3403 158.513C65.7984 157.963 64.3892 158.073 64.3892 158.073L64.1724 157.978Z"
    fill="white" />
  <path
    d="M64.1724 157.978L56.3981 164.268L57.9287 166.159L60.1575 167.136L64.1724 157.978ZM60.7036 153.69L59.9472 143.719L40.94 145.161L52.9293 159.98L60.7036 153.69ZM71.5435 301.65V311.65H81.5435V301.65H71.5435ZM66.7739 301.65H56.7739V311.65H66.7739V301.65ZM71.5435 158.073H81.5435V157.748L81.5224 157.423L71.5435 158.073ZM70.7847 154.083L78.511 147.735L70.7847 154.083ZM64.3892 158.073L60.3743 167.231L62.669 168.237L65.1669 168.043L64.3892 158.073ZM66.7739 162.36L56.7793 162.032L56.7739 162.196V162.36H66.7739ZM71.9467 151.688L68.4779 147.401L52.9293 159.98L56.3981 164.268L71.9467 151.688ZM71.5435 291.65H66.7739V311.65H71.5435V291.65ZM61.5435 158.073V301.65H81.5435V158.073H61.5435ZM60.7036 153.69C61.46 163.662 61.4594 163.662 61.4589 163.662C61.4588 163.662 61.4583 163.662 61.458 163.662C61.4575 163.662 61.457 163.662 61.4568 163.662C61.4562 163.662 61.4562 163.662 61.4568 163.662C61.4578 163.662 61.461 163.662 61.4663 163.661C61.4768 163.66 61.4955 163.659 61.5219 163.657C61.5747 163.653 61.658 163.648 61.7677 163.64C61.9877 163.625 62.3107 163.605 62.7039 163.583C63.5012 163.539 64.5373 163.493 65.566 163.477C66.6549 163.46 67.4782 163.481 67.9445 163.523C68.2072 163.546 68.0438 163.55 67.6413 163.448C67.4385 163.397 66.9243 163.257 66.269 162.949C65.7152 162.688 64.3241 161.972 63.0584 160.432L78.511 147.735C77.1333 146.058 75.5656 145.22 74.7788 144.85C73.8906 144.432 73.0873 144.196 72.5475 144.059C71.4713 143.787 70.4434 143.666 69.719 143.602C68.2112 143.467 66.5702 143.459 65.2507 143.479C63.8711 143.501 62.5548 143.561 61.6018 143.614C61.1199 143.64 60.7183 143.666 60.4324 143.685C60.2892 143.694 60.1743 143.702 60.0921 143.708C60.051 143.711 60.018 143.714 59.9937 143.715C59.9815 143.716 59.9715 143.717 59.9638 143.718C59.9599 143.718 59.9566 143.718 59.9538 143.718C59.9524 143.719 59.9512 143.719 59.9501 143.719C59.9495 143.719 59.9488 143.719 59.9485 143.719C59.9478 143.719 59.9472 143.719 60.7036 153.69ZM63.0584 160.432C62.089 159.252 61.69 158.17 61.6092 157.954C61.4704 157.584 61.412 157.335 61.4045 157.304C61.3883 157.236 61.4137 157.336 61.455 157.647C61.4909 157.916 61.5202 158.201 61.5408 158.432C61.5506 158.542 61.5576 158.629 61.5616 158.683C61.5636 158.709 61.5649 158.727 61.5654 158.734C61.5656 158.738 61.5657 158.739 61.5656 158.737C61.5655 158.736 61.5654 158.734 61.5652 158.732C61.5651 158.731 61.5651 158.729 61.565 158.728C61.5649 158.727 61.5648 158.726 61.5648 158.725C61.5648 158.725 61.5647 158.724 61.5647 158.724C61.5647 158.723 61.5646 158.723 71.5435 158.073C81.5224 157.423 81.5223 157.422 81.5223 157.422C81.5222 157.421 81.5222 157.421 81.5222 157.42C81.5221 157.419 81.522 157.418 81.5219 157.417C81.5218 157.414 81.5216 157.412 81.5214 157.409C81.521 157.403 81.5206 157.397 81.5201 157.39C81.5191 157.375 81.5179 157.357 81.5165 157.336C81.5135 157.294 81.5096 157.24 81.5046 157.174C81.4947 157.043 81.4804 156.865 81.4615 156.653C81.4245 156.239 81.3657 155.649 81.2797 155.004C81.1991 154.399 81.0686 153.544 80.8593 152.666C80.7553 152.23 80.591 151.613 80.3366 150.934C80.1402 150.41 79.6159 149.079 78.511 147.735L63.0584 160.432ZM73.461 151.492C71.7612 149.768 69.8919 149.021 68.8681 148.692C67.7557 148.334 66.7721 148.197 66.1383 148.134C65.4662 148.068 64.8908 148.06 64.4956 148.065C64.2893 148.068 64.1095 148.074 63.9632 148.081C63.8896 148.085 63.8231 148.089 63.7646 148.092C63.7352 148.094 63.7077 148.096 63.6822 148.098C63.6695 148.099 63.6572 148.1 63.6454 148.101C63.6395 148.101 63.6337 148.101 63.628 148.102C63.6252 148.102 63.6224 148.102 63.6196 148.103C63.6182 148.103 63.6162 148.103 63.6155 148.103C63.6134 148.103 63.6114 148.103 64.3892 158.073C65.1669 168.043 65.1649 168.043 65.1629 168.043C65.1622 168.043 65.1602 168.043 65.1589 168.043C65.1562 168.043 65.1535 168.044 65.1508 168.044C65.1455 168.044 65.1402 168.045 65.135 168.045C65.1246 168.046 65.1143 168.047 65.1042 168.047C65.0841 168.049 65.0646 168.05 65.0457 168.051C65.008 168.054 64.9723 168.056 64.9383 168.057C64.8713 168.061 64.8058 168.063 64.74 168.064C64.626 168.065 64.4368 168.064 64.1847 168.039C63.971 168.018 63.4413 167.956 62.7455 167.732C62.1384 167.537 60.6485 166.983 59.2197 165.534L73.461 151.492ZM68.4041 148.914L68.1873 148.819L60.1575 167.136L60.3743 167.231L68.4041 148.914ZM76.7739 301.65V162.36H56.7739V301.65H76.7739ZM66.7739 162.36C76.7685 162.689 76.7686 162.688 76.7686 162.687C76.7686 162.687 76.7686 162.686 76.7687 162.685C76.7687 162.684 76.7687 162.683 76.7688 162.682C76.7689 162.679 76.769 162.676 76.7691 162.673C76.7692 162.667 76.7695 162.66 76.7697 162.652C76.7702 162.636 76.7707 162.618 76.7713 162.595C76.7725 162.551 76.7739 162.494 76.7754 162.426C76.7782 162.291 76.7811 162.107 76.7823 161.89C76.7845 161.467 76.7805 160.858 76.7501 160.188C76.7221 159.574 76.6612 158.64 76.4938 157.661C76.4115 157.179 76.2618 156.433 75.9751 155.595C75.7649 154.982 75.1127 153.167 73.461 151.492L59.2197 165.534C58.3828 164.685 57.8829 163.862 57.6104 163.351C57.325 162.816 57.1523 162.363 57.0541 162.076C56.8652 161.524 56.796 161.126 56.7797 161.03C56.7444 160.824 56.758 160.818 56.7707 161.097C56.7809 161.321 56.7837 161.571 56.7826 161.783C56.782 161.883 56.7807 161.962 56.7797 162.009C56.7792 162.032 56.7789 162.046 56.7787 162.051C56.7787 162.053 56.7787 162.053 56.7788 162.05C56.7788 162.048 56.7789 162.046 56.779 162.043C56.779 162.041 56.7791 162.04 56.7791 162.038C56.7792 162.037 56.7792 162.036 56.7792 162.035C56.7792 162.035 56.7793 162.034 56.7793 162.033C56.7793 162.033 56.7793 162.032 66.7739 162.36Z"
    fill="#2B2B2B" mask="url(#path-6-inside-1_289_16031)" />
</svg>
