<svg width="252" height="317" viewBox="0 0 252 317" fill="none" xmlns="http://www.w3.org/2000/svg">
  <path fill-rule="evenodd" clip-rule="evenodd"
    d="M198.314 257.837C195.5 257.324 194.488 260.59 194.366 262.654C193.232 262.149 192.051 261.574 191.026 260.913C189.339 259.835 187.518 257.975 185.526 258.025L185.435 257.52C185.333 256.634 183.528 257.224 183.04 257.536C182.26 257.391 181.402 256.607 180.879 255.89C182.986 255.112 183.91 255.081 183.577 252.38C183.576 251.962 183.473 251.573 183.588 251.2C181.071 240.009 180.58 228.812 180.263 217.404L181.556 217.144C185.648 228.574 189.537 240.567 193.026 252.786C193.113 253.335 193.427 253.342 193.733 253.045C194.791 253.101 195.815 253.055 196.893 252.899L196.879 252.85C197.203 252.852 197.525 252.835 197.823 252.815C198.077 254.454 198.371 256.144 198.314 257.837ZM196.617 251.601C196.688 251.566 197.501 251.208 197.593 251.167L197.613 251.368C197.263 251.504 196.911 251.635 196.557 251.754L196.524 251.643L196.617 251.601ZM161.9 276.078C160.529 276.408 159.076 276.825 157.727 277.217L158.256 275.941C155.215 267.851 152.891 259.306 151.2 250.954C150.002 245.517 148.759 239.894 147.098 234.506C145 226.044 140.474 217.337 130.91 216.612C130.91 216.612 130.749 216.336 130.749 216.336L130.561 216.161C130.094 210.227 129.462 204.313 128.851 198.634C133.969 200.038 138.377 199.581 143.269 199.543C144.854 199.324 146.964 199.783 148.229 199.062C148.229 199.061 149.064 198.214 149.064 198.214C154.619 220.145 156.064 242.745 158.048 264.954C158.116 265.458 158.5 265.629 158.904 265.42C159.37 265.93 160.341 265.734 161.006 265.808C160.448 269.136 161.104 273.104 162.724 275.876L161.9 276.078ZM148.863 274.206C145.441 271.329 141.387 269.903 137.152 270.065C135.666 267.864 133.566 265.226 131.207 264.232C130.102 260.541 130.237 256.492 130.471 253.015C131.018 249.463 129.794 249.049 126.895 249.309C128.141 247.806 128.03 247.443 127.777 245.469C128.604 245.598 131.109 247.233 131.452 246.077C131.868 243.826 132.15 241.87 132.316 240.097C132.404 238.582 131.33 236.99 131.463 235.449C131.069 231.485 131.473 227.05 129.645 223.399C137.05 224.387 138.854 232.457 140.77 238.403C144.713 250.649 147.468 263.153 150.403 275.499L148.863 274.206ZM126.055 246.172C125.879 246.565 125.854 246.941 125.792 247.325C122.309 246.686 122.929 251.796 122.603 254.593C121.949 254.375 121.488 254.307 120.803 254.442C120.702 253.521 121.303 253.111 119.198 253.011C109.386 253.193 105.655 263.442 102.28 271.284C100.713 275.055 98.4874 275.642 95.1802 275.577C92.9619 275.619 90.6933 276.219 88.4267 276.147C96.6674 259.926 99.6656 236.627 96.3193 216.417H96.3214C96.1179 215.138 95.8761 213.806 95.6263 212.518C102.69 212.591 110.908 212.761 117.71 212.468C118.606 213.29 119.711 213.657 120.838 213.665C120.843 214.562 120.94 215.548 121.025 216.443C114.667 216.285 107.613 216.382 101.174 216.476C107.613 216.569 114.7 216.683 121.034 216.501C121.023 218.215 121.196 219.773 122.721 220.602C123.304 224.938 122.551 229.468 123.077 234.511C123.5 237.941 123.152 244.509 126.288 245.599L126.055 246.172ZM81.295 272.537L81.0497 272.966C80.5307 272.789 80.2122 272.828 79.7066 273.221C76.0279 275.207 70.7408 273.363 66.7187 273.231C67.4834 270.723 67.513 266.722 64.0289 266.672C65.1843 255.676 64.406 244.768 64.5843 233.781C70.9286 232.573 70.7153 231.921 64.5532 230.791C64.5147 224.645 64.4683 218.428 64.4722 212.225C64.4714 209.24 64.4438 206.329 64.1707 203.442C64.7445 202.256 64.6168 201.042 64.9129 199.79C66.1633 199.091 68.3298 199.905 69.1076 198.7C72.4738 198.65 75.9022 198.619 79.302 198.438C79.6105 198.447 79.7249 198.161 79.8588 197.953C80.4507 197.797 81.4489 198.153 81.9416 197.901C81.9416 197.901 82.6064 197.044 82.6064 197.044C85.3756 202.689 87.5238 209.342 88.7928 216.078C84.7919 216.121 80.2115 216.109 76.0836 216.089C80.1031 216.386 84.4416 216.564 88.887 216.627C92.3359 233.755 89.8657 257.786 81.295 272.537ZM75.7601 280.66C67.4253 291.144 53.8142 294.638 42.6367 286.211C12.8122 263.558 14.1503 186.778 53.3212 176.157C52.2581 180.171 48.5691 196.833 55.2375 197.308L55.2169 197.254L55.5566 197.066C56.9567 197.55 58.9267 196.878 59.3853 198.82C59.4031 198.824 60.1383 198.888 60.1813 198.892C59.7049 201.304 59.8433 203.806 59.7008 206.257C59.1378 206.042 58.4369 205.915 57.8267 205.966C55.5273 205.859 55.5851 203.35 55.6748 201.604C55.7601 200.75 55.5015 199.773 55.5442 198.971C55.567 198.415 55.5298 197.981 55.3184 197.52C54.6111 199.778 53.9423 202.739 54.3624 205.038C54.9802 207.185 57.7177 208.21 59.6992 207.159C59.6128 214.886 59.5886 222.554 59.5455 230.215C58.244 229.532 57.0564 229.965 55.7104 230.329C54.0116 230.686 51.9962 230.18 50.2928 230.591C50.0964 229.751 49.3032 228.722 48.4681 229.401C47.4054 229.411 46.8213 230.395 46.2937 232.546C45.9649 234.252 46.157 236.528 47.7797 237.347C48.6962 237.841 49.6135 237.49 50.0652 236.48C50.3214 236.583 50.7299 236.895 51.0212 236.795C53.7316 236.138 56.6541 235.474 59.5213 234.855C59.6707 245.676 59.1902 256.418 60.0854 267.268C55.9944 267.614 48.2003 266.519 46.4184 270.113C44.781 270.819 43.6048 272.44 43.6093 274.072C43.5556 276.717 46.4969 277.607 48.7953 277.636C58.0965 278.34 67.3098 279.595 76.6818 279.576L75.7601 280.66ZM92.6172 198.161C98.5332 198.968 104.474 198.962 110.403 199.225C108.468 212.344 111.173 204.722 117.187 212.095C110.315 212.087 102.017 212.005 95.5552 212.166C94.5508 207.222 93.1953 202.502 91.5103 197.995L92.6172 198.161ZM138.417 131.593C141.025 135.231 144.452 138.407 148.298 140.579C144.976 140.824 141.595 141.048 138.32 141.506C137.954 138.357 137.584 135.206 137.213 132.057L138.417 131.593ZM251.397 269.249C251.088 266.152 247.579 265.01 245.012 265.864C243.571 262.041 238.645 262.505 235.475 260.82C229.112 257.743 222.599 251.724 215.233 254.093C214.573 252.281 213.834 250.542 213.038 249.024C213.349 249.181 213.749 249.165 214.03 248.886L214.032 248.888C214.306 248.575 214.571 248.224 214.607 247.838C215.563 246.767 215.963 245.073 216.21 243.81C215.043 239.825 213.626 236.007 212.364 232.064C207.466 217.028 204.02 203.059 200.324 188.68C196.215 177.987 195.112 149.93 180.226 149.876C180.178 149.129 180.152 148.268 179.914 147.588C179.488 148.17 179.312 149.031 179.254 149.77C172.882 149.669 167.375 150.851 163.173 152.672C155.125 152.316 148.072 152.795 138.813 153.887C139.935 151.955 139.186 149.778 139.08 147.648C152.503 148.282 166.146 147.046 179.506 146.307C181.662 146.119 183.95 146.237 186.031 145.696C188.288 145.169 190.431 142.346 188.129 140.197C186.572 139.231 184.636 139.754 182.928 139.669C174.276 139.668 165.422 139.838 157.093 140.143C167.348 134.933 172.522 124.053 178.655 114.773C181.77 109.703 184.096 105.437 185.978 101.342C186.301 100.661 186.391 99.9238 186.197 99.5489C186.125 99.1738 184.962 99.1323 184.647 99.0397C193.176 85.7293 206.275 91.5898 213.279 83.8774C211.952 83.9374 210.626 83.9996 209.3 84.0631L208.995 82.7924C211.498 81.6667 213.869 79.9186 216.459 77.2874C216.458 77.2819 216.456 77.2759 216.453 77.2701C212.158 78.6115 208.155 79.5881 204.215 80.2556L203.74 79.0426C207.28 76.7407 210.429 73.61 212.848 69.9876C208.336 71.9785 204.092 74.8067 199.409 76.6188L198.705 75.517C201.374 72.9681 207.357 69.1472 205.655 65.5794C199.004 68.7756 192.935 72.9127 186.529 76.5241C186.524 73.5939 188.588 68.9859 187.335 66.5428C186.012 64.9129 185.387 66.2997 184.719 67.6037C184.719 67.6037 181.937 72.2733 181.256 73.416C178.702 77.9553 175.114 82.4419 175.196 87.8084C172.976 86.7436 171.23 90.6097 169.787 92.7207C165.732 99.6019 152.009 110.405 148.979 111.876C136.641 100.713 138.48 81.8085 125.365 71.2648C121.159 66.9799 118.051 66.4835 113.092 64.9087C111.914 64.626 110.58 63.6285 109.526 64.5856C107.961 63.2897 106.437 59.1053 105.792 57.3176C105.392 55.5882 104.726 51.3316 103.793 50.5335C102.861 49.7354 87.6719 49.0703 86.3395 49.4693C85.0072 49.8684 85.5401 53.0609 85.5401 53.0609L84.1374 58.8494L84.0167 58.8156C83.9949 58.8239 83.8074 58.9685 83.7838 58.9848C82.7852 58.9775 81.8258 58.5062 80.867 58.5067C79.8564 58.5281 79.0384 59.2165 78.2634 59.8059C76.8788 60.851 75.4472 61.9318 73.764 62.5842C54.2439 68.8103 51.6649 78.1817 45.8246 96.1871C41.0186 96.323 36.9722 95.7235 32.7892 95.4907C31.317 95.6775 31.7955 98.533 31.8404 100.165C31.7015 104.18 34.7071 103.766 37.6883 103.73C39.6599 103.754 41.6441 103.95 43.5946 103.719C41.4938 113.402 37.2683 128.54 41.8923 137.574C45.6365 144.652 48.8142 145.997 51.8441 146.203C52.6203 152.979 51.8474 159.048 51.988 165.6C7.31576 177.62 5.26007 247.391 25.2281 281.363C41.2615 309.122 71.4157 307.602 86.3619 279.974C89.9763 281.942 97.1425 281.806 101.915 281.375C105.67 281.154 106.903 279.564 108.244 276.083C109.743 272.697 111.168 269.356 112.694 265.972C114.15 262.392 117.06 258.278 122.311 258.439C122.287 260.548 121.895 262.925 123.324 264.6C117.998 266.407 121.199 274.831 122.747 278.766C115.432 288.728 117.897 306.189 128.128 313.416C145.027 324.741 161.339 303.321 156.403 286.91C157.212 287.292 158.714 287.821 159.36 286.987C159.623 286.793 159.26 285.93 159.195 285.649C170.528 284.984 181.647 283.654 192.885 282.601C192.503 293.024 202.856 303.296 213.244 303.065C226.801 303.693 234.923 285.857 230.822 274.307C236.007 274.163 241.269 273.728 246.674 272.996C249.63 272.702 251.513 272.003 251.397 269.249Z"
    fill="white" />
  <path fill-rule="evenodd" clip-rule="evenodd"
    d="M85.058 53.5932C84.7367 53.6983 84.7727 53.0106 85.2217 53.0799C85.5941 53.1379 85.7322 53.6376 85.7999 53.9547L85.8106 54.0057C86.4331 56.9167 85.7159 59.9919 84.2532 62.5469C83.8862 63.1445 83.5056 63.9645 82.7782 64.1245C83.1233 66.5867 83.5963 69.0289 84.1825 71.4445C86.2729 72.1761 88.2408 73.2603 90.3273 74.0107C94.3426 75.4363 98.6395 75.8175 102.865 76.1203C105.771 76.2784 108.761 76.1505 111.522 75.1558C112.69 74.8376 113.68 73.7959 114.905 73.7991C114.083 71.5577 113.173 69.3494 112.163 67.1813C109.023 67.1804 106.65 64.1377 105.717 61.4336C105.377 60.3561 105.279 59.2268 105.063 58.1227L104.983 57.7104C104.913 57.343 104.849 56.9734 104.821 56.6009C104.811 56.4626 105.016 55.2481 104.968 55.0752C104.963 55.1256 104.898 55.0856 104.867 55.0831C104.785 54.9809 104.857 54.7759 105.02 54.7838C105.286 54.7759 105.417 55.3519 105.477 55.5088C106.751 58.1195 107.237 61.3282 109.511 63.2882C110.646 62.5729 112.044 63.5096 113.199 63.7968L113.533 63.9023C118.928 65.5996 121.425 66.011 125.758 70.3221C133.161 76.0884 135.342 83.4478 138.256 91.9257L138.428 92.3863C141.229 99.8502 143.491 104.48 149.065 110.595C151.088 109.652 163.656 99.6156 167.971 93.7192L168.099 93.5418C169.342 91.8516 172.171 85.9363 174.487 86.4984C174.695 81.2978 178.159 76.993 180.602 72.6125L184.07 66.7916C184.404 66.2301 184.724 65.4561 185.199 64.9997C186.005 64.2243 187.344 64.9373 187.826 65.7234C189.153 67.9557 187.483 72.2221 187.237 74.83C193.183 71.3912 198.972 67.6295 205.117 64.5489C205.634 64.3001 206.279 64.4903 206.443 65.0876C207.482 69.3754 201.819 72.9642 199.084 75.5295C203.557 73.7347 207.754 71.1797 212.083 69.0406L212.372 68.8986C212.959 68.594 213.755 69.2418 213.339 69.8644C210.889 73.5396 207.722 76.7255 204.027 79.1279C208.15 78.4295 212.205 77.4053 216.209 76.1535C216.861 75.95 217.325 76.8133 216.863 77.2761L216.645 77.4962C214.456 79.69 212.041 81.6454 209.191 82.9269C210.522 82.8629 211.854 82.8005 213.186 82.7405C213.847 82.7114 214.067 83.5202 213.691 83.9578C212.211 85.6776 210.219 86.7938 208.093 87.5271C199.196 89.916 191.727 89.7113 185.725 98.099C187.227 98.369 187.008 100.042 186.534 101.091L186.504 101.155C184.361 105.817 181.825 110.29 179.139 114.66C173.388 123.192 168.663 133.447 159.559 138.919C165.437 138.719 171.319 138.604 177.202 138.556C178.831 138.542 180.461 138.534 182.091 138.532L183.313 138.532C184.929 138.532 187.062 138.193 188.456 139.196C191.134 141.346 189.045 145.311 186.079 145.877C184.211 146.378 182.192 146.303 180.275 146.449C180.641 147.154 180.731 148.022 180.778 148.777C187.512 149.196 191.443 154.472 193.279 160.504C196.961 172.054 199.782 183.863 202.835 195.591L203.181 196.951C206.127 208.512 209.225 220.039 212.921 231.386C214.178 235.316 215.615 239.192 216.773 243.152C216.876 243.504 216.799 243.826 216.623 244.083C216.404 245.629 215.415 248.224 213.751 248.634C214.434 249.975 215.048 251.427 215.569 252.823C223.079 250.827 229.385 256.719 235.697 259.753C238.876 261.414 243.51 260.949 245.298 264.616C248.18 263.896 251.692 265.498 251.984 268.717C252.238 272.031 249.415 272.99 246.645 273.188C241.664 273.864 236.654 274.307 231.63 274.472C234.467 284.026 229.764 297.937 220.065 301.865C207.307 307.241 192.487 296.237 192.16 282.858C181.445 283.872 170.729 285.135 159.99 285.79C160.435 287.318 158.408 287.951 157.243 287.503C160.081 300.378 151.701 316.723 137.749 316.671C119.77 316.55 112.503 291.57 121.92 278.203L121.83 277.971C120.332 274.105 117.514 266.148 122.274 263.858C121.27 262.325 121.522 260.396 121.555 258.663C117.145 258.863 114.866 262.029 113.228 265.767C111.717 269.113 110.278 272.492 108.79 275.849C107.387 279.489 106.003 281.325 101.877 281.567L101.455 281.598C96.8505 281.932 90.7305 282.206 86.5754 280.359C76.7151 298.373 56.0259 309.059 38.1189 296.145C1.35939 270.806 2.71372 175.846 51.2508 164.598C51.2705 162.788 51.2964 160.979 51.3281 159.169C51.2242 158.015 51.2468 156.865 51.3509 155.695L51.3733 155.217C51.5065 152.266 51.5375 149.284 51.1731 146.351C45.2832 145.873 41.7157 138.347 41.1216 137.208C36.5811 128.503 40.7809 112.397 42.6705 103.981C40.8375 104.127 39.1621 103.904 37.3703 103.925L36.7488 103.935C33.4186 103.987 31.182 103.847 31.0977 99.6994C31.1018 98.015 30.3518 94.8922 32.5699 94.3691C33.5719 94.1684 34.755 94.5234 35.7582 94.6221C38.9255 94.8782 42.0969 95.0727 45.2739 95.053C48.0301 87.1635 50.1877 78.7211 55.437 72.0419C59.896 66.3907 67.0281 64.1652 73.4397 61.4947C75.1799 60.8218 76.6494 59.6561 78.1484 58.5295L78.2519 58.4492C78.9963 57.878 79.8057 57.3959 80.7726 57.3699C81.7126 57.3448 82.5869 57.7705 83.5067 57.8326C83.6687 57.7119 83.8799 57.6362 84.0631 57.6874C84.5529 56.334 84.9153 54.9274 85.0938 53.5016L85.0786 53.4359C85.0511 53.3273 85.0405 53.3547 85.0485 53.5201C85.0913 53.5201 85.0978 53.5801 85.058 53.5932ZM137.748 271.577C135.723 271.577 133.779 272.007 131.971 272.792C131.551 275.121 133.47 278.388 134.114 280.734C134.14 281.703 134.317 282.691 134.544 283.649C134.704 286.446 135.889 289.011 136.439 291.658C136.541 292.161 137.312 291.948 137.21 291.446C136.728 289.072 136.084 286.736 135.53 284.379C135.79 284.536 136.231 284.324 136.135 283.937C135.93 283.103 135.93 282.26 135.963 281.414C149.676 283.145 148.874 305.914 134.884 306.228C125.806 306.455 120.747 294.023 125.879 286.579C125.036 284.77 124.124 282.993 123.261 281.18C115.91 293.462 123.608 314.394 137.748 314.01C160.551 313.367 160.562 272.226 137.748 271.577ZM220.077 274.253C222.783 279.294 222.495 286.067 219.062 290.713C215.179 295.994 206.704 295.376 202.9 290.308C201.396 288.501 200.238 286.288 200.17 283.899C200.165 283.372 200.506 282.439 200.046 282.026L197.106 282.34C195.636 282.497 194.166 282.652 192.696 282.803C196.956 294.175 207.426 304.474 220.209 298.778C228.131 294.413 231.066 283.987 229.911 275.479C229.846 275.071 229.993 274.738 230.233 274.513C226.848 274.591 223.448 274.608 220.077 274.253ZM81.2039 187.945C58.609 152.248 28.8453 175.359 21.2264 208.123C15.5047 230.681 17.5354 258.222 29.4819 278.19C43.5112 301.971 67.1883 301.943 81.2035 278.191C91.8108 260.464 94.6008 236.761 91.0881 215.881C91.0893 216.068 91.0238 216.255 90.8884 216.406C95.017 241.471 90.3713 272.485 70.473 287.714C55.7838 298.543 38.608 289.689 30.3619 274.855C14.402 247.958 15.6312 198.638 41.8113 178.42C49.2846 173.099 58.0616 172.089 66.156 175.893C66.2386 175.391 66.5504 175.945 66.6716 176.143C80.5983 183.529 87.4817 199.393 90.6646 215.183C90.8567 215.29 90.9849 215.453 91.0462 215.634C90.6104 213.082 90.0803 210.573 89.4588 208.123C87.5123 200.546 84.7343 193.758 81.2039 187.945ZM132.394 293.007C131.189 292.239 131.763 294.543 132.181 294.971C132.482 295.395 133.079 295.037 132.872 294.568C132.615 294.193 133.072 293.051 132.394 293.007ZM52.3116 176.638C18.51 186.123 16.297 248.463 32.6489 273.488C40.1765 286.967 55.4695 295.454 68.9353 285.543C71.1417 283.985 73.2268 282.05 75.176 279.758C66.5187 279.687 57.8781 278.528 49.2392 277.877L49.0432 277.859C47.735 277.746 46.393 277.684 45.1876 277.12C41.5335 275.332 42.5293 270.742 45.8497 269.14C47.6685 265.56 55.6996 266.358 59.2917 266.168C58.4854 255.876 58.9047 245.523 58.7881 235.207C56.2193 235.765 53.6586 236.351 51.1018 236.969C50.798 237.044 50.4902 237 50.2304 236.871C49.6066 237.855 48.3829 237.965 47.4019 237.468C45.418 236.466 45.1915 233.861 45.5659 231.936L45.6051 231.769C45.9321 230.409 46.586 228.381 48.1813 228.276C49.1873 227.651 50.2817 228.39 50.6488 229.372C52.3331 229.091 53.8602 229.535 55.5025 229.205C56.5909 228.985 57.6888 228.429 58.8081 228.812C58.8469 221.747 58.8714 214.68 58.9467 207.614C56.8356 208.321 54.2593 206.861 53.6466 204.752C53.2322 203.349 53.5986 201.739 53.7931 200.33L53.8298 200.067C53.9548 199.183 54.111 198.26 54.4113 197.404C49.6574 196.748 50.63 186.798 50.9911 183.282C51.4337 180.977 51.7097 178.974 52.3116 176.638ZM130.811 216.756C128.7 216.736 127.191 219.019 128.41 220.837C130.863 223.603 134.408 221.109 138.209 228.566C144.515 243.489 147.424 259.632 151.349 275.292C153.323 277.342 154.522 279.948 155.971 282.382C156.506 283.298 156.669 284.59 157.64 285.169C157.828 285.257 157.979 285.271 158.127 285.249C156.111 284.133 156.534 278.622 156.949 276.618L156.931 276.619C156.748 276.632 156.078 276.778 156.385 276.461L156.712 276.357L157.038 276.253L157.061 276.172C151.391 263.022 150.158 248.342 146.094 234.648L145.732 233.433C144.328 228.752 142.707 223.857 139.155 220.382C139.019 220.375 138.881 220.325 138.753 220.218L138.626 220.106C136.529 218.294 133.952 216.832 131.083 217.096C130.968 217.104 130.949 216.928 131.056 216.901C131.123 216.883 131.191 216.869 131.258 216.854C131.109 216.824 130.959 216.791 130.811 216.756ZM120.726 253.917C120.121 254.158 119.506 253.989 118.822 254.005C118.107 254.022 117.411 254.141 116.724 254.337C105.43 257.6 107.095 274.553 98.8715 276.52C96.8161 276.919 94.747 276.611 92.6855 276.335C91.3703 276.382 90.1618 276.342 88.9029 276.07C88.3114 277.257 87.6918 278.414 87.0469 279.545C88.5455 279.311 90.072 279.372 91.5864 279.345C95.1477 279.401 98.7088 279.256 102.245 278.812C103.504 278.67 104.666 278.32 105.411 277.229C107.092 274.391 108.243 271.235 109.756 268.301L109.955 267.853C112.119 262.99 114.983 257.155 121.072 257.14C121.107 256.789 121.382 256.507 121.693 256.421C121.728 255.915 121.763 255.41 121.8 254.903C121.448 254.566 121.189 254.131 120.726 253.917ZM45.5566 270.466C44.8973 271.573 44.9655 273.515 46.1468 274.283C46.9475 274.737 48.0893 274.687 48.9767 274.751L50.5051 274.863C51.0145 274.901 51.5238 274.938 52.033 274.978L52.7965 275.04C60.0817 275.62 67.3595 276.253 74.6351 276.914L74.668 276.902C74.7693 276.865 74.9282 276.814 74.9282 276.814L75.0413 276.762C75.2029 276.685 75.0071 276.755 74.988 276.764L74.9868 276.765C75.7982 276.243 76.6722 276.841 76.8641 277.632C77.5916 276.658 78.2964 275.633 78.9785 274.553C78.0198 274.833 77.0013 274.875 76.0101 274.812C75.3284 275.586 74.1043 275.302 73.1935 275.284C66.7573 274.77 60.3383 274.029 53.9224 273.31C52.2929 273.12 50.6621 272.929 49.0327 272.737L48.6648 272.704C47.2241 272.567 45.4913 272.291 45.5566 270.466ZM185.664 257.867C184.988 258.601 183.695 258.8 182.833 259.229C181.837 259.725 180.888 260.326 180.035 261.04C176.173 264.614 172.242 270.297 166.196 267.786C164.925 267.295 163.741 266.513 162.947 265.393C162.594 265.567 162.184 265.233 161.826 265.188C162.136 266.855 162.266 268.438 162.737 270.066C162.941 270.779 163.171 271.485 163.455 272.17C163.747 272.872 164.274 273.581 164.254 274.366C168.835 273.389 173.466 272.761 178.109 272.193C179.853 272.129 182.798 271.194 184.241 272.083C185.951 273.146 185.184 275.113 186.096 275.843C187.487 276.522 189.286 276.01 190.792 275.969C197.355 275.412 203.979 275.043 210.531 274.494C214.466 273.773 211.891 272.567 213.586 271.602C213.58 265.559 206.306 266.197 202.04 265.663C200.753 266.175 199.453 266.649 198.136 267.08C197.487 267.293 197.038 266.425 197.488 265.969L198.402 265.041C197.779 264.9 197.159 264.742 196.545 264.56C195.682 264.951 194.775 265.243 193.929 265.675L193.771 265.758C193.195 266.069 192.515 265.436 192.86 264.848C193.127 264.393 193.339 263.926 193.504 263.439C192.697 263.075 191.913 262.658 191.167 262.183L191.018 262.087L188.596 263.438C188.122 263.703 187.408 263.257 187.617 262.687C187.865 261.902 188.599 261.569 189.157 261.043C189.095 260.908 189.058 260.73 189.088 260.593C187.998 259.641 187.046 258.424 185.664 257.867ZM217.946 276.077L217.869 276.089C217.874 276.098 217.878 276.106 217.884 276.114L217.917 276.11L217.885 276.115C217.906 276.147 217.935 276.171 217.973 276.18C217.965 276.157 217.958 276.135 217.953 276.112L217.946 276.077ZM129.538 199.039L129.733 200.857C130.251 205.703 130.743 210.527 131.128 215.379C131.179 215.426 131.221 215.482 131.256 215.541L132.402 215.748C134.403 216.113 136.061 216.491 137.875 217.864C143.92 221.093 145.946 228.204 147.8 234.305C151.864 247.682 153.262 261.809 158.755 274.746C158.917 275.119 158.907 275.453 158.795 275.723C159.747 275.449 160.703 275.195 161.665 274.96C160.373 272.474 159.815 268.752 160.175 265.973L160.034 265.969C159.585 265.957 159.043 265.956 158.685 265.679C157.977 265.877 157.377 265.204 157.31 264.564L157.307 264.534C155.35 242.618 153.929 220.48 148.627 199.056C147.937 199.755 146.692 199.594 145.765 199.635L145.716 199.637C144.88 199.677 144.044 199.709 143.207 199.736L142.844 199.74C138.424 199.804 133.871 200.123 129.538 199.039ZM97.0253 216.619C100.079 235.797 97.3779 258.818 89.4309 274.988C91.3526 274.948 93.2223 274.433 95.1401 274.439C98.5527 274.495 100.218 273.799 101.59 270.553C104.886 263.047 108.179 253.408 117.476 251.983L117.911 251.942C119.209 251.82 121.392 251.687 121.393 253.224C121.561 253.205 121.753 253.223 121.926 253.27C121.954 252.91 121.982 252.551 122.011 252.193L122.035 251.486C122.116 249.251 122.356 246.157 125.145 246.182C125.182 245.936 125.263 245.691 125.362 245.449C122.554 244.065 122.652 236.959 122.337 234.096C122.08 230.023 122.101 225.935 122.193 221.857C122.204 221.452 122.281 220.914 122.124 220.584C120.676 219.637 120.359 218.401 120.311 216.71C112.559 216.906 104.783 216.698 97.0253 216.619ZM130.727 223.895C131.404 225.421 131.451 227.183 131.646 228.827C131.809 230.784 131.924 232.741 132.038 234.7L132.063 235.149C132.103 235.833 132.159 236.497 132.409 237.151L132.466 237.304C132.76 238.09 132.984 238.82 132.903 239.687C132.714 241.714 132.394 243.765 132.024 245.766C131.506 247.462 129.577 246.381 128.479 245.985L128.491 246.098C128.565 246.831 128.562 247.563 128.153 248.128C131.183 248.031 131.399 250.207 131.055 252.636L131.035 252.957C130.824 256.379 130.753 259.965 131.686 263.275C133.261 263.954 134.404 265.229 135.5 266.492C136.144 267.241 136.951 268.036 137.458 268.921C141.732 268.844 145.807 270.362 149.216 273.225L148.813 271.518C146.177 260.324 143.595 249.102 140.064 238.148C138.278 232.965 136.884 225.401 130.727 223.895ZM65.0648 215.125C65.0741 219.997 65.1087 224.868 65.1394 229.741C66.6036 229.947 68.0172 230.37 69.3802 230.979C70.2449 231.365 69.8479 232.536 69.1417 232.803C67.8547 233.29 66.509 233.571 65.1647 233.851C65.0261 244.441 65.7291 255.084 64.6784 265.636C67.8375 266.109 68.0673 269.667 67.4696 272.165C70.9677 272.473 74.4939 273.355 78.0017 272.738C79.0352 272.682 79.6934 271.518 80.6399 271.735C88.9035 257.255 91.5997 234.696 88.2556 216.811C80.5103 216.686 72.7362 216.21 65.0648 215.125ZM62.9464 234.318C62.2136 234.472 61.4822 234.628 60.7494 234.784C60.6409 245.25 61.0823 255.762 60.2551 266.203C60.5647 266.187 60.5004 266.391 60.2364 266.409C60.2205 266.587 60.2031 266.766 60.1858 266.944C60.1365 267.473 59.4117 267.472 59.3624 266.944C59.3518 266.836 59.3424 266.73 59.3331 266.622C57.9368 266.928 56.5192 267.145 55.1121 267.38C53.0391 267.891 48.057 267.559 47.6844 270.253L49.2964 270.393C54.7356 270.868 59.5143 271.315 64.9077 271.884C65.1768 270.23 66.4589 267.785 64.4373 266.735C64.1455 267.012 63.5833 266.888 63.5352 266.363C62.4204 255.725 63.1014 244.997 62.9464 234.318ZM223.223 255.876C216.78 253.302 213.43 256.302 208.268 259.596C205.602 261.102 201.965 261.756 199.282 260.006C198.049 260.077 197.473 258.724 197.575 257.646C197.573 257.571 197.572 257.498 197.572 257.425C196.071 258.328 197.001 260.833 196.681 262.312C199.744 263.272 202.931 263.508 206.112 263.737C210.235 263.829 215.205 265.852 215.689 270.451L215.703 270.591L216.018 270.582C216.018 270.117 216.312 269.638 216.896 269.591L216.934 269.589C225.45 269.053 234.055 269.081 242.528 268.217C243.546 267.928 243.91 267.258 243.637 266.263C242.98 263.867 239.617 263.75 237.636 263.193C235.249 262.521 233.107 261.345 231.005 260.083C230.11 260.334 229.204 260.544 228.291 260.721C227.848 260.807 227.268 260.416 227.471 259.903L227.619 259.529C227.769 259.155 227.952 258.731 228.184 258.37C227.5 257.962 226.81 257.565 226.108 257.193C224.919 257.613 223.792 258.164 222.722 258.845C222.076 259.257 221.415 258.35 221.898 257.819L221.915 257.801C222.473 257.228 222.907 256.584 223.223 255.876ZM180.438 256.663C174.696 259.465 168.604 261.556 162.729 264.089L162.848 264.133C163.054 264.211 163.288 264.316 163.364 264.502C165.573 266.249 168.68 266.962 171.302 265.72C175.085 263.694 176.962 259.329 180.831 257.357C180.673 257.138 180.539 256.903 180.438 256.663ZM125.845 248.928C125.656 248.896 125.098 248.651 124.949 248.716C124.568 249.666 124.556 250.789 124.452 251.802C124.097 255.756 123.369 259.665 122.966 263.605C124.961 263.057 127.013 262.732 129.066 262.687C128.899 261.465 128.764 260.251 128.693 259.021C128.561 256.629 128.658 254.218 129.016 251.848L129.041 251.719C129.43 249.657 129.121 249.565 127.175 248.839C126.757 248.981 126.29 249.005 125.845 248.928ZM169.682 155.677C166.357 152.505 161.4 152.89 157.133 152.873C148.036 152.871 138.958 153.697 129.986 155.163C129.732 155.609 129.019 155.71 128.674 155.379C126.204 155.791 123.742 156.243 121.285 156.726C121.964 161.018 122.507 165.333 123.113 169.635L123.152 169.9C123.419 171.767 123.55 173.856 122.279 175.397C122.243 180.164 122.061 184.947 122.043 189.721C122.743 189.055 123.872 189.131 124.773 188.966C126.617 188.543 128.373 188.237 130.243 188.134C132.126 187.846 134.009 187.559 135.893 187.273C136.183 187.228 136.416 187.353 136.561 187.54C138.972 187.257 141.372 186.773 143.792 186.616L143.648 186.187C142.933 184.028 142.279 181.686 143.308 179.54C143.552 179.037 144.349 179.067 144.602 179.54C145.488 181.2 145.526 183.093 145.867 184.908C146.062 185.949 146.467 187.056 146.655 188.154C147.655 189.805 148.154 191.741 148.805 193.55C155.914 215.957 156.77 239.682 159.447 262.879C163.6 261.158 167.805 259.545 171.973 257.863C174.967 256.401 181.761 255.255 181.426 251.033C181.442 250.687 181.422 250.344 181.382 250.002C181.464 249.867 181.578 249.754 181.712 249.667C180.337 244.266 179.755 238.688 179.403 233.137C178.489 217.878 178.037 202.592 177.571 187.314L177.549 186.667C177.197 176.07 177.084 164.021 169.682 155.677ZM180.852 216.897C181.396 227.077 181.155 237.401 183.592 247.369L183.666 247.671C183.902 248.627 184.528 249.974 184.13 250.974C184.116 252.196 184.547 254.102 183.495 254.965C183.045 255.293 182.467 255.496 181.924 255.703C182.187 256.009 182.556 256.22 182.919 256.345L182.98 256.316C183.988 255.843 185.761 255.523 186.014 256.93C187.922 257.08 189.767 258.904 191.306 259.879C192.093 260.378 192.909 260.817 193.747 261.201C194.013 259.179 195.198 256.617 197.571 256.681C197.571 255.458 197.362 254.251 197.179 253.045C196.076 253.221 194.974 253.295 193.858 253.247C193.118 253.78 192.385 253.193 192.288 252.393C188.869 240.514 185.047 228.587 180.852 216.897ZM211.87 247.829C207.315 249.256 202.316 249.287 197.943 251.254C199.255 253.134 199.761 255.406 200.081 257.638C200.381 257.872 200.582 258.242 200.598 258.642C200.606 258.783 200.593 258.924 200.551 259.057C205.417 260.074 208.986 255.955 212.9 253.873C212.366 251.926 212.11 249.842 211.87 247.829ZM200.094 257.819L200.096 257.847C200.089 258.072 200.265 258 200.094 257.819ZM196.942 251.676C196.868 251.708 196.795 251.744 196.721 251.777C196.797 251.766 196.874 251.755 196.95 251.742C196.948 251.72 196.945 251.698 196.942 251.676ZM185.628 153.051C180.317 149.464 169.726 151.14 163.433 151.562C175.865 152.503 177.923 169.554 178.91 179.368C179.704 189.909 179.999 200.489 180.58 211.045C185.53 224.249 189.548 237.792 193.782 251.24C197.22 249.315 200.98 248.091 204.873 247.456L205.435 247.375C208.696 246.898 212.011 246.303 214.697 244.271C205.08 220.819 201.054 195.503 193.742 171.302C191.595 165.247 190.886 157.302 185.628 153.051ZM214.04 246.863C213.857 246.972 213.669 247.073 213.478 247.168C213.579 247.146 213.686 247.142 213.794 247.157C213.878 247.062 213.967 246.954 214.04 246.863ZM126.719 196.213C125.841 194.745 123.901 193.415 122.18 194.052C124.772 195.633 124.209 200.202 124.4 202.875L124.395 203.026C124.332 205.547 124.546 210.87 123.158 212.668C123.255 213.827 123.256 215.029 123.375 216.196C123.411 216.623 123.327 217.421 123.579 217.798C126.358 219.354 125.01 223.084 125.176 225.673C125.05 230.63 125.397 235.577 125.541 240.529C125.532 241.809 125.407 243.174 125.834 244.4C126.38 243.234 127.937 243.313 128.275 244.493C128.548 244.135 129.096 244.107 129.565 244.171C129.73 242.6 129.984 241.03 130.039 239.458C130.066 238.676 129.605 238.032 129.435 237.285C129.095 234.448 129.482 231.549 129.517 228.697L129.525 228.611C129.635 227.432 129.72 224.512 130.387 223.796C126.07 223.021 124.704 217.593 128.917 215.589C128.86 215.324 128.915 215.044 129.097 214.844C128.738 210.55 128.274 206.261 127.867 201.969C127.693 200.036 127.7 197.948 126.719 196.213ZM48.428 232.803C48.7541 232.362 48.0503 231.885 47.7637 232.354C47.4679 232.853 47.2959 233.464 47.4165 234.04C47.4832 234.359 48.0063 234.448 48.147 234.135C48.268 233.879 48.3107 233.603 48.3708 233.329C48.5322 233.204 48.534 232.968 48.428 232.803ZM50.8857 230.21C50.899 230.286 50.911 230.363 50.9217 230.441C51.0416 230.397 51.1655 230.361 51.2934 230.329C51.1575 230.292 51.0216 230.252 50.8857 230.21ZM61.3554 198.602C61.0276 198.807 60.6399 198.936 60.2336 198.996C60.975 209.14 60.5549 219.356 60.7332 229.526C61.464 229.693 62.2262 229.553 62.9676 229.611C63.1489 220.735 62.8097 211.866 63.3792 202.997C62.8819 201.728 62.5641 200.187 62.9329 198.835C62.4 198.783 61.8724 198.707 61.3554 198.602ZM117.406 212.671C110.833 212.928 104.215 212.814 97.6322 212.733C97.2165 212.721 96.7888 212.718 96.3558 212.716C96.525 213.603 96.6835 214.497 96.8301 215.395C104.622 215.305 112.43 215.122 120.217 215.29L120.184 214.926C120.151 214.559 120.122 214.184 120.112 213.81C119.144 213.737 118.198 213.323 117.406 212.671ZM82.392 197.836C81.9136 198.453 80.8654 198.057 80.171 198.116C79.9938 198.399 79.69 198.608 79.261 198.63C75.9581 198.806 72.6486 198.84 69.3403 198.888C68.3752 200.006 66.66 199.361 65.4179 199.814C65.2656 200.587 65.2578 201.389 65.0821 202.164C65.0075 202.481 64.897 202.781 64.773 203.074C65.0422 206.01 65.0622 208.986 65.0622 211.929C66.6971 211.453 68.4655 211.534 70.1544 211.425C73.8169 211.332 77.4803 211.369 81.1436 211.362C82.762 211.332 84.5919 211.43 86.1706 211.409C86.5748 211.264 87.1468 211.495 87.2298 211.961C87.5326 213.15 86.1854 213.238 85.3805 213.179C84.4092 213.157 83.4379 213.136 82.468 213.116C78.4948 213.018 74.5209 212.945 70.5514 212.766C68.7308 212.617 66.8185 212.665 65.0622 212.12L65.063 214.337C65.0634 214.558 65.064 214.761 65.0648 214.931C72.6772 214.9 80.2938 215.017 87.908 214.948C86.7404 209.025 84.8298 202.984 82.392 197.836ZM180.706 213.716C180.675 214.105 180.814 214.433 180.997 214.768C180.899 214.418 180.801 214.067 180.706 213.716ZM92.4419 198.347C93.902 202.367 95.0971 206.61 96.0178 211.017C102.572 210.875 109.114 210.945 115.667 210.956C113.253 208.123 110.69 208.901 109.488 207.1C108.617 205.703 109.344 201.129 109.572 199.387C104.469 199.171 99.3437 199.145 94.2644 198.568C93.6888 198.492 93.0626 198.44 92.4419 198.347ZM56.3621 196.816C56.2409 196.917 56.109 197.007 55.9691 197.085C56.3196 198.004 55.9604 198.93 56.2701 199.866C56.2831 200.972 56.2269 202.086 56.2822 203.137C56.2778 204.138 56.9005 204.766 57.7984 204.83C58.1235 204.849 58.5539 204.773 58.9975 204.905C59.0857 202.946 59.0091 200.955 59.3306 199.019C59.125 199 58.9229 198.966 58.7293 198.916C58.6997 197.994 57.7977 197.106 56.872 197.577C56.6871 197.331 56.5186 197.072 56.3621 196.816ZM116.028 196.12C115.749 196.153 115.478 196.215 115.218 196.321C115.279 198.822 118.895 197.066 119.389 200.134C119.472 200.857 119.382 201.584 119.358 202.308C119.347 202.679 119.055 203.261 119.459 203.478C119.667 203.779 120.237 203.72 120.187 203.286C120.177 203.207 120.171 203.125 120.166 203.043C120.344 202.728 120.452 202.398 120.51 202.057C120.724 201.946 120.66 201.662 120.565 201.461C120.509 201.027 120.691 200.261 120.215 200.03C120.166 197.144 119.093 196.686 116.41 196.451C116.228 196.432 116.113 196.522 116.061 196.647C115.99 196.493 115.992 196.307 116.028 196.12ZM113.65 158.147C111.73 158.758 109.586 158.885 107.592 159.266C94.7152 161.066 82.3431 166.371 69.2123 166.228C68.7633 166.207 68.3422 166.14 67.9479 166.032C67.9492 166.237 67.9772 166.447 68.0211 166.651C68.2676 166.861 68.4208 167.192 68.4688 167.528C78.3249 172.518 85.765 182.658 90.4313 193.333C96.213 192.547 101.99 191.656 107.784 190.934L108.835 190.798L110.939 190.528C111.963 190.399 113.105 190.074 114.123 190.291C114.588 185.65 114.589 181.123 114.938 176.453C113.915 175.635 114.156 173.889 114.115 172.682C113.882 167.839 113.861 162.989 113.65 158.147ZM120.295 176.714C119.946 176.806 119.586 176.839 119.249 176.79C118.349 177.229 117.017 177.001 116.021 176.899C116.137 177.976 116.237 179.056 116.279 180.139C116.447 184.361 116.381 188.671 116.001 192.89C117.366 192.986 118.731 193.153 120.094 193.264C120.107 187.758 120.364 182.227 120.295 176.714ZM68.2796 180.144C69.3655 184.664 74.2864 191.579 79.2329 191.993C76.2217 187.127 72.7603 183.292 68.9351 180.593C68.7166 180.438 68.4995 180.291 68.2796 180.144ZM112.459 146.022C112.302 146.026 112.144 146.028 111.987 146.025C112.934 147.399 112.765 149.539 111.621 150.748C115.615 153.22 115.489 158.749 115.623 162.898C115.782 166.913 115.996 170.919 116.164 174.929C116.164 174.856 116.404 174.958 116.489 174.973C117.03 175.043 117.577 175.067 118.123 175.043C118.947 174.715 120.034 174.709 120.602 173.914C121.276 173.012 121.122 171.663 121.006 170.619C120.725 168.092 120.345 165.573 120.025 163.051C119.145 157.663 119.255 147.18 112.459 146.022ZM110.971 151.328C107.763 153.339 103.543 152.556 99.9204 152.778C97.273 152.817 94.6243 152.829 91.9757 152.819C83.0548 152.769 74.1393 152.414 65.226 152.047L65.2458 152.417C65.4098 155.375 65.7131 158.337 66.5758 161.18C67.0658 163.127 67.798 163.849 69.8492 163.677C80.8109 163.514 91.2109 159.61 101.895 157.648C105.714 157.012 109.596 156.47 113.43 156.02L113.388 155.781C113.081 154.079 112.585 152.155 110.971 151.328ZM113.302 65.4162C113.454 65.7012 113.542 65.9578 113.474 66.2235C126.313 93.6834 122.923 124.917 129.701 153.878C129.834 153.957 129.909 154.081 129.979 154.211C132.171 153.772 134.379 153.391 136.594 153.062C136.341 152.409 136.732 151.818 137.178 151.394C137.185 151.328 137.274 151.123 137.279 151.123C136.444 140.852 135.228 130.581 134.181 120.32C133.528 113.169 132.336 105.952 132.659 98.7641C132.671 98.6803 132.78 98.7057 132.804 98.7641C134.532 104.976 135.532 114.404 137.259 126.942C149.73 141.554 157.078 144.111 169.071 127.176L169.686 126.271C175.292 118.024 180.761 109.618 185.015 100.585C179.693 100.414 176.82 94.8279 174.546 90.7299C174.162 90.5222 173.905 90.2084 173.695 89.7867C171.893 92.0311 170.467 94.7995 168.643 97.0786C164.114 103.025 153.71 110.399 153.482 110.636L153.438 110.675C152.754 111.3 150.694 113.662 150.058 113.598C147.283 116.168 141.114 104.2 140.372 101.945C138.562 97.5524 137.103 96.2023 135.534 91.7223L135.263 90.9152C133.101 84.442 130.928 77.6228 125.517 73.0982L125.305 72.873C121.842 69.2106 118.474 66.3535 113.302 65.4162ZM179.471 146.498C177.933 146.593 176.395 146.685 174.857 146.776L173.434 146.861C162.211 147.532 150.964 148.362 139.718 147.873C139.823 149.453 140.376 151.09 139.767 152.625C147.526 151.719 155.336 151.161 163.128 151.536C167.759 149.35 173.38 148.664 178.586 148.636C178.674 147.909 178.976 147.088 179.471 146.498ZM100.543 134.086C92.9904 130.717 85.6041 134.147 82.9463 142.296C83.1326 142.449 83.2608 142.719 83.2929 142.991C83.9922 143.924 85.2746 143.895 86.3252 144.027C88.4383 144.306 90.4876 144.987 92.3554 146.018C93.3866 146.581 94.273 147.395 95.3377 147.886L95.9105 148.424C96.8666 149.318 97.8471 150.179 99.1141 150.651C100.426 150.719 98.7313 148.164 98.4554 147.667L98.3528 147.502C97.8 146.626 97.0894 145.627 97.8459 144.632C99.2243 145.292 100.335 146.245 101.444 147.307L101.644 147.502C102.723 148.556 103.964 149.88 105.513 150.052C105.774 150.081 105.965 149.774 105.899 149.547C105.203 147.243 103.17 145.632 101.278 144.249C101.294 143.593 101.751 143.09 102.348 142.947C105.004 144.476 106.859 146.897 109.456 148.465C109.736 148.631 110.03 148.412 110.057 148.12C110.041 146.081 107.961 144.519 106.528 143.311C106.229 143.081 105.924 142.858 105.614 142.642C105.684 142.234 106.058 141.876 106.525 141.81C107.377 142.052 112.484 146.015 112.499 144.183L112.489 144.133C112.353 143.489 111.613 142.091 110.898 142.264C108.25 138.997 104.449 135.6 100.543 134.086ZM80.685 59.1895C78.0163 60.7207 75.4561 62.3785 72.7842 63.8944C69.3787 65.8445 65.7201 67.3583 62.4473 69.5407C52.4817 76.8801 49.5932 92.3494 45.9689 103.631L45.4559 105.822C43.3786 114.706 40.2597 128.857 44.0229 136.098L44.0494 136.155C44.5193 137.151 46.7541 141.19 47.9052 141.908C51.2787 144.011 58.3338 144.726 64.4651 144.314C70.3026 144.043 76.0495 142.927 81.7469 141.754C81.8772 139.793 82.8371 138.154 83.8474 136.557L83.9521 136.392L84.0691 136.218C85.4981 134.121 87.1098 132.421 89.4705 131.495C81.5838 129.136 68.5993 132.172 59.8074 125.996C59.1052 125.503 59.718 124.458 60.4798 124.847C60.9381 125.082 61.4037 125.296 61.8749 125.495C61.4596 124 62.5417 123.109 63.188 121.81L63.2137 121.758C68.7656 110.563 73.1337 97.98 77.0065 86.5743C75.8795 94.5535 74.0612 102.456 71.4825 110.09C73.8457 111.902 75.8181 114.188 77.9485 116.26C80.2304 118.679 82.999 120.736 84.7407 123.61C85.1204 124.279 84.373 124.955 83.7241 124.625C82.1946 123.848 80.9248 122.616 79.751 121.391L79.2741 120.872C76.361 117.693 73.4882 114.421 71.2653 110.716C69.7825 115.009 67.9526 118.568 65.9959 122.615L65.7454 123.135C65.3124 124.03 64.9087 125.029 64.196 125.69C64.6675 126.634 65.8742 126.854 66.8047 127.129C74.3653 129.249 82.3929 127.478 89.9841 129.408L90.4849 129.538C90.9848 129.668 91.4906 129.825 91.7884 130.281C98.4095 130.523 104.857 133.233 110.018 137.411L110.151 137.516C112.325 139.256 114.553 141.552 114.944 144.43C115.017 144.973 114.816 145.74 114.167 145.863C115.423 146.018 116.557 146.665 117.488 147.559C108.608 116.77 82.5916 92.2551 80.685 59.1895ZM108.802 146.716C108.925 146.902 109.037 147.097 109.119 147.299C109.079 147.272 109.04 147.242 109 147.213C109.011 147.113 108.937 147.001 108.865 146.92L108.865 146.919C108.831 146.878 108.799 146.835 108.765 146.793C108.781 146.769 108.792 146.743 108.802 146.716ZM137.798 131.507C138.143 134.434 138.486 137.359 138.827 140.286C141.256 139.966 143.702 139.773 146.146 139.593L146.011 139.509C144.775 138.737 143.635 137.834 142.565 136.846C141.39 135.761 140.27 134.587 139.238 133.364C138.733 132.765 138.254 132.145 137.798 131.507ZM79.9292 100.154C80.3058 103.507 82.3971 106.349 84.3402 108.989C84.849 109.68 83.6923 110.342 83.1897 109.66L82.9875 109.385C80.9454 106.597 78.9918 103.67 78.5968 100.154C78.5013 99.303 79.8347 99.3125 79.9292 100.154ZM204.937 66.8328C198.914 70.611 192.611 73.9233 186.451 77.4703C185.697 77.8974 184.933 77.1951 185.074 76.4143C185.389 74.6818 185.701 72.9493 186.007 71.2162L186.244 69.8727C186.333 69.388 186.702 67.6386 186.35 66.9818C184.822 69.5649 183.244 72.1193 181.658 74.6677L179.926 77.4465C178.073 80.4233 175.999 83.4442 175.262 86.9109C175.711 87.3373 175.943 87.9564 175.999 88.5643C176.516 88.7715 176.871 89.348 176.729 89.9569C178.947 92.6078 180.462 96.4167 184.011 97.5312C188.037 91.7409 194.653 88.3533 201.57 87.5108L202.798 87.2961C205.797 86.7666 208.923 86.1197 211.312 84.2558C208.941 84.37 206.569 84.4793 204.196 84.5817C203.402 84.6163 203.234 83.3659 204.009 83.1996C207.455 82.4585 210.957 80.8824 213.712 78.5519C209.114 80.1721 204.29 81.1337 199.427 81.5116C198.426 81.5232 198.252 80.0788 199.195 79.797C203.481 78.0332 207.323 75.2277 210.27 71.6663L210.364 71.5524L204.188 74.8047C201.613 76.1614 198.858 77.8376 195.851 77.8336C194.977 77.8322 194.782 76.7402 195.431 76.2867L196.277 75.6584C199.128 73.5349 204.529 69.3976 204.937 66.8328Z"
    fill="#2B2B2B" />
  <path fill-rule="evenodd" clip-rule="evenodd"
    d="M118.241 30.9855C117.748 22.8944 115.118 13.7213 107.38 9.7488C90.3212 2.91224 67.892 20.1286 66.7045 37.7165C66.2905 43.737 69.638 50.3156 75.7553 51.9894C77.1154 53.7888 79.1722 54.8876 81.2024 55.8414C105.383 68.3686 121.002 58.1853 118.241 30.9855Z"
    fill="white" />
  <path fill-rule="evenodd" clip-rule="evenodd"
    d="M123.75 25.9525C122.895 23.5825 121.993 21.2307 121.043 18.8971C120.118 16.626 119.283 14.3058 118.134 12.1422C111.275 -0.77954 98.8007 -0.77954 92.3527 0.908851C89.0089 -0.529794 82.7458 -0.123989 79.2639 1.17421C73.6272 3.27585 66.7559 11.5432 64.4067 15.2577C59.2197 23.4589 55.9827 34.3745 59.4281 43.8514C59.8785 45.0899 60.4528 46.2371 61.0994 47.3426C60.6921 47.8939 60.2233 48.416 59.7039 48.929C58.1606 50.4538 56.6172 51.9283 55.284 53.6481C53.9591 55.3571 52.8607 57.1746 52.043 59.1784C50.5012 62.9574 50.427 67.2363 52.4653 70.8422C54.2387 73.9796 57.3803 76.3159 60.9197 76.5388C61.1014 76.564 61.2833 76.5871 61.4661 76.6055C61.9351 77.3768 62.5069 78.0871 63.1595 78.7062C65.1591 80.6053 69.9254 81.5796 72.644 81.642C72.7833 81.7539 72.924 81.8658 73.0647 81.9763C74.7282 83.2836 76.4737 84.6026 78.3833 85.5326C79.6768 86.1635 81.3729 86.6903 82.7224 86.235C83.3346 86.6435 84.339 86.5576 84.946 86.2233C85.9438 85.6744 86.7553 84.6858 87.249 83.6738C88.4461 81.2167 88.1583 78.528 87.8508 75.9031C87.5122 73.0037 87.1865 70.103 86.8556 67.2036C86.5964 64.9363 86.3255 62.6314 85.6351 60.4474C85.2781 59.3157 84.8105 58.2283 84.2061 57.2059C84.2217 57.12 84.2191 57.0342 84.1944 56.9536C83.9964 56.311 83.5873 55.9741 83.1028 55.537C83.0402 55.4811 82.9777 55.4239 82.9165 55.3653C82.6742 55.0896 82.415 54.8333 82.1375 54.6161C82.0307 54.5081 81.9252 54.3989 81.8197 54.2896C80.943 53.3726 80.1145 52.4087 79.3785 51.3759C78.6647 50.3743 78.0199 49.3285 77.4064 48.2631C76.7824 47.1796 76.3695 45.9842 75.7468 44.9085C75.6934 44.8161 75.5579 44.7979 75.4824 44.8747C75.2896 45.0737 75.1658 45.2948 75.1893 45.5276L75.0929 45.542C75.0564 45.1908 74.7321 44.9046 74.2918 44.9813C73.6327 45.0958 73.0908 45.1387 72.5202 44.9202C72.6205 44.2555 72.713 43.5895 72.8042 42.9222C72.9709 41.6943 73.1259 40.4625 73.2588 39.2306C73.5805 39.3074 73.8997 39.418 74.2123 39.5584C74.6578 39.7575 75.0786 40.0254 75.4381 40.3545C75.7924 40.6797 76.0373 41.1181 76.4698 41.3444C76.9674 41.6032 77.5679 41.1753 77.422 40.6134C77.1263 39.4778 75.4524 38.8274 74.4168 38.6128C74.0612 38.5386 73.6978 38.5074 73.3344 38.5152C73.4164 37.7244 73.4894 36.9335 73.5493 36.1413C73.5779 35.7667 73.604 35.3921 73.6287 35.0162C74.4338 34.7729 75.2961 34.7001 76.1337 34.8146C76.4099 35.0344 76.686 35.2516 76.9531 35.4714C77.8011 36.1713 78.6452 36.875 79.4788 37.5917C79.5544 37.6554 79.6287 37.7192 79.7042 37.7842C80.1992 38.2095 80.8166 37.7881 80.7333 37.1858C80.0533 32.2507 83.0806 28.325 86.6251 25.2839C90.5486 21.9162 97.6818 21.524 102.348 15.6907C104.497 16.1275 109.295 17.4246 111.275 20.5751C114.047 24.9899 113.685 28.9455 113.896 33.9535C114.107 38.9653 114.643 44.1931 113.503 49.1347C112.452 53.6912 109.606 57.5844 105.19 59.3743C105.081 59.4185 104.97 59.4614 104.859 59.503C102.576 60.3629 100.084 60.6061 97.6818 60.1534C95.0231 59.6513 92.8034 58.4364 90.5916 56.9418C90.4639 56.8573 90.2776 57.0316 90.374 57.1591C93.2893 61.0171 99.0157 62.3062 103.558 61.2877C103.77 61.2396 103.981 61.1875 104.191 61.1303C103.175 64.0479 103.379 67.2504 104.703 70.0913C105.499 71.8005 106.713 73.2794 108.191 74.4462C109.821 75.7314 111.843 76.7694 112.973 78.5735C114.009 80.2268 113.701 82.0843 111.929 83.0391C111.482 83.281 111.31 84.0628 111.753 84.4062C111.922 84.5362 112.091 84.6689 112.265 84.799C113.257 85.5469 115.984 86.9518 116.425 87.0038C120.346 87.4682 122.983 84.5935 124.672 81.2024C126.656 77.222 126.14 72.3715 123.954 68.5811C122.201 65.5399 118.748 62.5429 120.121 58.694C120.611 57.3191 121.612 56.1471 122.585 55.0883C123.695 53.8825 124.888 52.7534 125.953 51.5047C127.01 50.265 127.948 48.9161 128.472 47.3604C129.237 45.0867 128.856 42.6282 128.282 40.3584C127.051 35.4858 125.452 30.6781 123.75 25.9525Z"
    fill="#2B2B2B" />
  <path fill-rule="evenodd" clip-rule="evenodd"
    d="M100.501 55.7433C99.6258 55.3866 98.8444 54.7916 98.2732 54.0315C98.0746 53.7672 98.0231 53.4882 98.0648 53.233C98.1116 52.946 98.2817 52.6859 98.5135 52.5114C98.7461 52.3364 99.0371 52.2501 99.3183 52.2941C99.5628 52.3324 99.8061 52.466 99.9986 52.7431L100.039 52.7986C100.378 53.2573 100.821 53.6337 101.325 53.8764C101.811 54.1102 102.355 54.2194 102.917 54.1559C103.988 54.0351 104.727 53.4565 105.512 52.6709C105.609 52.5717 105.706 52.4694 105.804 52.3655C105.866 52.2713 105.952 52.2107 106.047 52.1789C106.152 52.1437 106.272 52.1457 106.381 52.1838C106.487 52.2206 106.581 52.2903 106.645 52.3832C106.705 52.4714 106.739 52.5803 106.728 52.7057C106.656 53.5199 106.23 54.2465 105.624 54.817C104.952 55.4507 104.06 55.889 103.221 56.0428C102.297 56.2122 101.355 56.0908 100.501 55.7433ZM103.657 43.1832C104.641 43.7803 106.14 45.1725 105.082 46.6527C103.836 47.9578 102.043 46.4614 101.159 45.7846C100.339 45.2601 99.4187 46.6091 100.179 47.2215C106.565 51.9427 109.156 43.3393 104.155 42.4812C103.604 42.3867 103.4 42.9985 103.657 43.1832ZM92.2139 37.6913C92.3225 36.3442 94.3771 36.0383 94.5815 37.3713C94.7645 38.5654 94.5491 39.6623 94.0104 40.7374C93.4958 41.7645 92.2022 41.2853 92.1044 40.3501C91.9732 39.0964 92.1462 38.5293 92.2139 37.6913ZM107.854 37.0949C108.14 36.7203 108.554 36.4645 109.049 36.6091C110.597 37.0608 110.141 39.2556 109.597 40.3239C109.302 40.9041 108.347 41.0512 107.916 40.5404C107.212 39.7074 106.875 38.0438 107.769 37.2233C107.794 37.1809 107.821 37.1381 107.854 37.0949ZM93.9887 31.7968L94.2332 31.754C94.9898 31.6234 95.9304 31.4978 96.4656 32.1052C96.7495 32.4272 96.8472 33.0259 96.4656 33.3341C95.7945 33.8765 95.0525 33.6663 94.2483 33.7123C93.5855 33.7502 92.9485 33.8598 92.3101 34.042C90.9095 34.4417 89.7683 35.1715 88.5721 35.9727C88.4151 36.0778 88.2549 35.8774 88.3298 35.7308C89.0203 34.3802 90.3585 33.2708 91.6989 32.5945C92.4143 32.2336 93.1972 31.9341 93.9887 31.7968ZM106.442 31.1918L106.629 31.23C108.666 31.6552 111.313 32.5045 112.277 34.5024C112.314 34.7849 112.275 34.8454 112.244 34.885L112.233 34.8982C112.207 34.932 112.186 34.9785 112.064 35.017C112.03 35.0089 111.995 35.0003 111.961 34.9912C111.519 34.8755 111.169 34.7161 110.83 34.5507L110.463 34.3701C110.037 34.1615 109.607 33.9605 109.152 33.8121C108.18 33.4955 107.18 33.2724 106.164 33.1534C105.944 33.1276 105.732 33.0534 105.565 32.9263C105.407 32.8056 105.285 32.6386 105.23 32.4166C105.158 32.1292 105.179 31.9117 105.333 31.6525C105.45 31.4578 105.616 31.3228 105.806 31.2454C106.001 31.1664 106.222 31.1477 106.442 31.1918Z"
    fill="#2B2B2B" />
  <path
    d="M18.1821 194.803C39.9992 150.128 76.6229 161.037 95.8435 194.803C103.37 208.026 98.4407 237.14 98.4407 237.14H12.4679C12.4679 237.14 11.5054 208.475 18.1821 194.803Z"
    fill="#2B2B2B" />
  <path d="M191.686 63.3759H211.426L207.79 94.5443H188.05L191.686 63.3759Z" fill="#2B2B2B" />
  <path d="M192.465 83.1159H198.179L196.621 92.4664H190.907L192.465 83.1159Z" fill="white" />
  <path d="M199.738 83.1159H205.452L203.894 92.4664H198.179L199.738 83.1159Z" fill="white" />
  <path d="M194.543 67.5316H207.79L206.231 76.8822H192.985L194.543 67.5316Z" fill="white" />
  <path d="M2.59711 213.043L8.65846 202.537H135.996L131.955 213.043H2.59711Z" fill="#2B2B2B" stroke="white"
    stroke-width="3" />
</svg>
