<svg width="60" height="62" viewBox="0 0 60 62" fill="none" xmlns="http://www.w3.org/2000/svg">
  <path
    d="M51.179 20.6986C53.8906 19.2675 57.3151 20.2816 58.2492 23.2089C59.728 27.8429 60.0297 32.7921 59.0853 37.6115C57.7842 44.2516 54.1976 50.2376 48.9319 54.5576C43.6663 58.8776 37.0447 61.2664 30.1865 61.3203C23.3284 61.3741 16.6546 59.0897 11.2933 54.8532C5.93212 50.6166 2.21246 44.688 0.763229 38.0695C-0.685997 31.451 0.224126 24.5488 3.33973 18.5298C6.45532 12.5108 11.5852 7.74436 17.8622 5.03625C22.4218 3.06904 27.3835 2.27566 32.2911 2.68746C35.3615 2.9451 37.112 6.08076 36.281 9.04437C35.4583 11.9789 32.3904 13.6022 29.3413 13.677C26.9625 13.7354 24.6013 14.2458 22.3918 15.1991C18.485 16.8847 15.2921 19.8514 13.3529 23.5977C11.4137 27.344 10.8472 31.64 11.7492 35.7594C12.6512 39.8788 14.9664 43.5689 18.3033 46.2058C21.6402 48.8427 25.7941 50.2645 30.0627 50.231C34.3312 50.1975 38.4526 48.7106 41.73 46.0218C45.0075 43.333 47.2398 39.6072 48.0496 35.4743C48.4935 33.2092 48.4951 30.8979 48.0729 28.6598C47.4945 25.5933 48.4242 22.1526 51.179 20.6986Z"
    fill="black" />
  <path
    d="M38.1277 12.878C41.8628 9.34401 41.9739 0 41.9739 0C41.9739 0 42.6795 9.39764 46.5893 12.878C49.9207 15.8436 57.3585 16.0976 57.3585 16.0976C57.3585 16.0976 49.8247 17.5415 46.5893 20.9268C43.1576 24.5176 41.9739 33 41.9739 33C41.9739 33 41.3731 24.5557 38.1277 20.9268C35.0014 17.431 27.3585 16.0976 27.3585 16.0976C27.3585 16.0976 34.8835 15.9477 38.1277 12.878Z"
    fill="black" />
</svg>
