<svg width="323" height="86" viewBox="0 0 323 86" fill="none" xmlns="http://www.w3.org/2000/svg">
  <path
    d="M182.2 45.5789C184.903 44.1597 188.312 45.1682 189.247 48.0814C190.728 52.6928 191.03 57.6183 190.085 62.4144C188.784 69.0197 185.197 74.9744 179.932 79.2718C174.666 83.5691 168.045 85.9455 161.186 85.999C154.328 86.0526 147.654 83.7801 142.293 79.5658C136.932 75.3515 133.212 69.4538 131.763 62.87C130.314 56.2862 131.224 49.4202 134.34 43.4327C137.455 37.4453 142.585 32.7038 148.862 30.0098C153.425 28.0515 158.391 27.2625 163.302 27.6743C166.363 27.9309 168.109 31.0578 167.277 34.0114C166.456 36.9249 163.411 38.5371 160.382 38.6044C157.99 38.6576 155.614 39.1657 153.392 40.1195C149.485 41.7962 146.292 44.7474 144.353 48.474C142.414 52.2007 141.847 56.4742 142.749 60.5721C143.651 64.6699 145.966 68.3407 149.303 70.9637C152.64 73.5868 156.794 75.0012 161.063 74.9679C165.331 74.9345 169.453 73.4555 172.73 70.7807C176.007 68.106 178.24 64.3997 179.05 60.2885C179.49 58.0498 179.495 55.7659 179.081 53.5531C178.506 50.48 179.437 47.0295 182.2 45.5789Z"
    fill="white" />
  <path
    d="M169.128 37.8106C172.863 34.2951 172.974 25 172.974 25C172.974 25 173.679 34.3484 177.589 37.8106C180.921 40.7606 188.358 41.0132 188.358 41.0132C188.358 41.0132 180.825 42.4496 177.589 45.8172C174.157 49.3891 172.974 57.8271 172.974 57.8271C172.974 57.8271 172.373 49.4271 169.128 45.8172C166.001 42.3397 158.358 41.0132 158.358 41.0132C158.358 41.0132 165.883 40.8641 169.128 37.8106Z"
    fill="white" />
  <path
    d="M204.75 66.1029C204.75 77.1971 208.383 86 219.402 86C222.672 86 225.457 85.5176 228 84.3118V72.6147C225.336 73.9412 221.461 74.9059 218.676 72.8559C216.375 71.1676 216.375 66.9471 216.375 62.8471L216.375 32.1731H227.98L228 20.1142H216.375L216.375 4H204.75V20.1142H197V32.1731L204.75 32.1731V66.1029Z"
    fill="white" />
  <path
    d="M240.88 86H252.4V27.88H240.88V86ZM290.13 49.96C283.41 48.64 276.57 47.8 276.57 43.48C276.57 39.52 282.81 38.32 288.45 38.44C295.53 38.56 302.73 41.32 305.37 43.24L309.33 32.44C301.53 28.24 293.61 26.92 288.45 26.92C274.29 26.92 265.05 33.76 265.05 43.36C265.05 52.6 269.49 58.12 288.33 61.48C295.41 62.8 299.61 64.48 299.61 68.8C299.61 72.28 295.17 75.04 287.73 74.92C281.25 74.8 272.25 71.56 267.69 67L263.13 78.28C265.77 80.8 275.28 86 288 86C303 86 311.13 78.88 311.13 67.48C311.13 60.4 307.05 53.2 290.13 49.96Z"
    fill="white" />
  <path
    d="M42.2328 41.5029C47.5119 39.4529 51.8312 33.3029 51.8312 25.2235C51.8312 11.2353 41.5129 4 24.1159 4H0V86H29C45.1972 86 55.6705 74.6647 55.6705 60.6765C55.6705 52.5971 51.7112 43.7941 42.2328 41.5029ZM11.518 15.5765H25.9156C35.034 15.5765 40.3131 18.8324 40.3131 25.7059C40.3131 32.7 35.034 35.8353 25.9156 35.8353H11.518V15.5765ZM27.8352 73.4588H11.518V47.4118H27.8352C37.7935 47.4118 44.1525 51.5118 44.1525 60.4353C44.1525 69.3588 37.7935 73.4588 27.8352 73.4588ZM93.2447 26.1882C76.8075 26.1882 63.4898 39.5735 63.4898 56.0941C63.4898 72.6147 76.8075 86 93.2447 86C109.682 86 123 72.6147 123 56.0941C123 39.5735 109.682 26.1882 93.2447 26.1882ZM93.2447 74.4235C83.2864 74.4235 75.0078 66.1029 75.0078 56.0941C75.0078 46.0853 83.2864 37.7647 93.2447 37.7647C103.203 37.7647 111.482 46.0853 111.482 56.0941C111.482 66.1029 103.203 74.4235 93.2447 74.4235Z"
    fill="white" />
  <circle cx="246.5" cy="12.5" r="8.5" fill="white" />
</svg>
