<svg width="197" height="52" viewBox="0 0 197 52" fill="none" xmlns="http://www.w3.org/2000/svg">
  <path
    d="M115.365 26.3671C117.076 25.4671 119.234 26.1067 119.827 27.9541C120.764 30.8784 120.955 34.0019 120.357 37.0433C119.533 41.232 117.262 45.0082 113.928 47.7333C110.594 50.4585 106.402 51.9654 102.059 51.9994C97.7168 52.0334 93.4911 50.5923 90.0965 47.9198C86.7019 45.2473 84.3467 41.5073 83.4291 37.3322C82.5115 33.1571 83.0877 28.803 85.0605 25.0061C87.0332 21.2092 90.2813 18.2024 94.2557 16.4941C97.1449 15.2522 100.289 14.7519 103.399 15.013C105.337 15.1757 106.443 17.1586 105.915 19.0317C105.396 20.8792 103.468 21.9016 101.55 21.9443C100.035 21.978 98.5308 22.3002 97.1238 22.905C94.6501 23.9683 92.6284 25.8398 91.4005 28.203C90.1727 30.5663 89.814 33.2763 90.3851 35.875C90.9563 38.4736 92.4222 40.8014 94.535 42.4648C96.6479 44.1282 99.278 45.0252 101.981 45.004C104.684 44.9829 107.293 44.0449 109.368 42.3488C111.443 40.6526 112.857 38.3023 113.37 35.6951C113.649 34.2755 113.652 32.8272 113.39 31.4239C113.026 29.4751 113.615 27.287 115.365 26.3671Z"
    fill="#282828" />
  <path
    d="M107.087 21.4409C109.452 19.2115 109.523 13.3171 109.523 13.3171C109.523 13.3171 109.969 19.2453 112.445 21.4409C114.554 23.3116 119.264 23.4718 119.264 23.4718C119.264 23.4718 114.494 24.3826 112.445 26.5182C110.272 28.7833 109.523 34.1343 109.523 34.1343C109.523 34.1343 109.142 28.8074 107.087 26.5182C105.108 24.313 100.268 23.4718 100.268 23.4718C100.268 23.4718 105.033 23.3773 107.087 21.4409Z"
    fill="#282828" />
  <path
    d="M129.643 39.3823C129.643 46.4176 131.943 52 138.92 52C140.99 52 142.754 51.6941 144.364 50.9294V43.5117C142.677 44.3529 140.223 44.9647 138.46 43.6647C137.003 42.5941 137.003 39.9176 137.003 37.3176L137.003 17.8658H144.351L144.364 10.2188H137.003L137.003 0H129.643V10.2188H124.735V17.8658L129.643 17.8658V39.3823Z"
    fill="#282828" />
  <path
    d="M152.519 52H159.813V15.1434H152.519V52ZM183.703 29.1454C179.448 28.3083 175.117 27.7756 175.117 25.0361C175.117 22.5249 179.068 21.7639 182.64 21.84C187.122 21.9161 191.681 23.6664 193.353 24.8839L195.86 18.0351C190.922 15.3717 185.907 14.5347 182.64 14.5347C173.674 14.5347 167.823 18.8722 167.823 24.96C167.823 30.8195 170.635 34.32 182.564 36.4507C187.046 37.2878 189.706 38.3532 189.706 41.0927C189.706 43.2995 186.895 45.0498 182.184 44.9737C178.081 44.8976 172.382 42.8429 169.495 39.9512L166.608 47.1044C168.279 48.7024 174.3 52 182.354 52C191.852 52 197 47.4849 197 40.2556C197 35.7659 194.417 31.2 183.703 29.1454Z"
    fill="#282828" />
  <path
    d="M26.7407 23.7823C30.0833 22.4823 32.8182 18.5823 32.8182 13.4588C32.8182 4.58823 26.2849 0 15.2696 0H0V52H18.3621C28.6178 52 35.2492 44.8117 35.2492 35.9412C35.2492 30.8176 32.7422 25.2353 26.7407 23.7823ZM7.29293 7.34118H16.4091C22.1827 7.34118 25.5253 9.40588 25.5253 13.7647C25.5253 18.2 22.1827 20.1882 16.4091 20.1882H7.29293V7.34118ZM17.6246 44.047H7.29293V27.5294H17.6246C23.9299 27.5294 27.9562 30.1294 27.9562 35.7882C27.9562 41.447 23.9299 44.047 17.6246 44.047ZM59.0402 14.0706C48.6326 14.0706 40.2001 22.5588 40.2001 33.0353C40.2001 43.5117 48.6326 52 59.0402 52C69.4481 52 77.8805 43.5117 77.8805 33.0353C77.8805 22.5588 69.4481 14.0706 59.0402 14.0706ZM59.0402 44.6588C52.7348 44.6588 47.493 39.3823 47.493 33.0353C47.493 26.6882 52.7348 21.4118 59.0402 21.4118C65.3458 21.4118 70.5876 26.6882 70.5876 33.0353C70.5876 39.3823 65.3458 44.6588 59.0402 44.6588Z"
    fill="#282828" />
  <path
    d="M161.46 5.39024C161.46 8.36719 159.05 10.7805 156.078 10.7805C153.105 10.7805 150.696 8.36719 150.696 5.39024C150.696 2.41329 153.105 0 156.078 0C159.05 0 161.46 2.41329 161.46 5.39024Z"
    fill="#282828" />
</svg>
