<svg width="373" height="354" viewBox="0 0 373 354" fill="none" xmlns="http://www.w3.org/2000/svg">
  <rect width="373" height="354" fill="white" />
  <path d="M19 263.965H65L297.5 177H354V323H19V263.965Z" fill="#00AFB9" />
  <line x1="64.5" y1="262" x2="64.5" y2="75" stroke="black" stroke-dasharray="2 2" />
  <line x1="297.5" y1="176" x2="297.5" y2="75" stroke="black" stroke-dasharray="2 2" />
  <path d="M81 75L91 80.7735V69.2265L81 75ZM285 75L275 69.2265V80.7735L285 75ZM90 76H276V74H90V76Z" fill="black" />
  <path
    d="M168.64 63.848V62.12L163.024 59.528L168.64 56.936V55.208L160.864 58.952V60.104L168.64 63.848ZM175.229 56.936L177.533 57.224C177.623 55.946 178.253 54.92 179.549 54.92C180.845 54.92 181.565 55.64 181.565 56.792C181.565 57.602 180.989 58.556 179.837 59.816L174.941 65H184.445V62.696H180.125C182.429 60.284 183.869 58.646 183.869 56.648C183.869 54.074 181.997 52.616 179.549 52.616C176.921 52.616 175.373 54.578 175.229 56.936ZM200.82 55.784C199.596 55.784 198.804 56.252 198.138 56.99C197.598 56.18 196.77 55.784 195.636 55.784C194.718 55.784 193.89 56.234 193.332 56.936V56.072H191.028V65H193.332V60.392C193.332 58.772 194.016 58.088 195.06 58.088C196.086 58.088 196.5 58.718 196.5 60.104V65H198.804V60.392C198.804 58.772 199.488 58.088 200.532 58.088C201.63 58.088 201.972 58.718 201.972 60.104V65H204.276V59.816C204.276 57.116 202.872 55.784 200.82 55.784Z"
    fill="black" />
  <path
    d="M144.922 223.33L142.864 217.675L121.328 215.908L136.689 200.711L134.631 195.056L113.547 216.605L114.919 220.375L144.922 223.33ZM173.986 185.802C170.143 187.2 168.502 189.132 168.502 189.132C170.253 177.754 179.073 170.342 179.073 170.342L166.892 174.775C156.207 189.938 161.052 203.25 161.695 205.018C165.147 214.501 173.838 218.142 182.944 214.828C191.99 211.535 196.324 203.02 193.065 194.067C190.492 186.998 182.678 182.638 173.986 185.802ZM180.199 207.288C175.469 209.01 171.043 207.152 169.671 203.382C168.299 199.612 170.495 195.344 175.225 193.622C180.192 191.814 184.382 193.758 185.754 197.528C187.126 201.298 184.93 205.566 180.199 207.288ZM219.704 174.765C224.671 172.957 227.196 167.569 225.373 162.562C223.572 157.614 218.153 155.05 213.186 156.858C208.16 158.687 205.597 164.156 207.398 169.104C209.221 174.111 214.678 176.594 219.704 174.765ZM228.232 197.277L241.497 147.621L236.767 149.343L223.502 198.999L228.232 197.277ZM217.929 170.074C215.623 170.914 212.965 169.68 212.129 167.383C211.292 165.085 212.536 162.431 214.842 161.592C217.148 160.753 219.807 161.986 220.643 164.284C221.479 166.581 220.235 169.235 217.929 170.074ZM251.931 189.719C256.898 187.911 259.423 182.522 257.601 177.515C255.8 172.567 250.38 170.004 245.413 171.812C240.387 173.641 237.825 179.11 239.626 184.058C241.448 189.065 246.905 191.548 251.931 189.719ZM250.157 185.028C247.851 185.867 245.192 184.633 244.356 182.336C243.52 180.039 244.763 177.385 247.069 176.545C249.375 175.706 252.034 176.94 252.87 179.237C253.706 181.534 252.463 184.188 250.157 185.028Z"
    fill="black" />
</svg>
