<svg width="150" height="318" viewBox="0 0 150 318" fill="none" xmlns="http://www.w3.org/2000/svg">
  <path fill-rule="evenodd" clip-rule="evenodd"
    d="M24.7478 106.909L24.5975 108.702L24.4853 108.492C24.4694 112.109 23.9336 115.766 23.3426 119.375C21.7978 118.105 20.5279 116.984 20.8947 114.815C21.8236 111.724 23.015 108.709 23.9782 105.635L24.1396 106.441L24.7754 106.569L24.7478 106.909ZM135.074 297.471C134.789 296.214 134.479 294.884 134.188 293.623C134.159 293.517 133.893 293.493 133.807 293.464C132.27 289.698 130.924 288.839 127.946 288.327C123.143 287.458 118.404 285.574 113.867 282.782C113.972 282.366 114.262 281.649 114.525 280.883C114.491 280.895 114.456 280.905 114.421 280.912C114.36 280.924 114.302 280.926 114.248 280.923C113.94 281.645 113.605 282.28 113.428 282.514C112.861 282.149 112.231 281.746 111.676 281.358L111.678 281.351C111.184 281.008 110.573 280.585 110.089 280.321C109.998 279.82 109.264 279.665 108.881 279.334C108.137 278.802 107.724 278.528 107.041 279.207C105.568 277.294 104.382 275.271 103.216 272.656C102.486 271.127 102.128 269.435 101.147 268.07C101.166 268.059 101.789 267.865 101.805 267.848C90.6554 243.142 88.8691 215.652 86.4909 189.245C85.9663 183.339 85.4174 177.379 84.3948 171.647C84.2545 170.779 84.1285 169.924 83.6063 169.232C89.8719 164.068 89.9329 154.059 86.8981 146.635C93.8759 127.808 80.1982 107.811 81.2076 88.5959C81.7734 75.562 79.4277 60.46 64.708 57.3327C62.8826 56.2818 60.6943 56.1249 58.9525 56.0966C57.3843 55.3042 57.1372 53.5548 56.5789 52.1166L56.0334 52.12C55.8733 51.4691 55.7149 50.7555 55.5772 50.0997C55.3702 49.6839 55.4929 49.142 54.8407 49.2572C53.3627 47.1168 41.5337 46.0407 41.3993 49.4872C40.9724 49.739 40.888 50.2306 40.7886 50.8275C40.1326 55.0603 35.6134 58.4359 31.5415 57.7552L31.4755 57.6956C14.1401 57.053 7.31574 69.3883 3.92825 86.1995C1.2815 99.2615 -0.400821 113.417 1.67184 126.501C3.69681 132.43 9.83036 135.283 14.5756 138.936C14.0286 140.314 13.9775 141.836 13.9608 143.327C13.8983 145.05 13.773 146.786 13.6207 148.485C13.3087 150.638 12.8035 154.345 15.7342 154.596C16.8695 180.334 19.2408 206.003 15.6173 231.816C12.6092 246.091 13.7608 263.363 17.4801 277.33C17.6947 278.02 18.2458 278.641 18.9498 278.421C19.3073 278.652 19.5866 278.797 19.8822 278.578C20.0563 278.901 20.2472 279.211 20.4536 279.512C20.5317 283.349 20.9666 287.114 20.7686 290.976C20.4733 290.942 19.8238 290.616 19.5715 290.829L19.5354 291.124L19.2951 291.206C18.7922 292.625 18.4766 294.115 18.2432 295.316C17.2255 297.376 15.9254 301.022 16.6504 303.317C16.6152 303.358 16.42 303.585 16.3893 303.619C16.2161 303.718 16.1841 303.851 16.1418 304.003C15.6479 304.189 15.5973 304.753 15.5464 305.33C15.299 306.729 15.6665 308 15.7928 309.369L15.8002 309.36C15.8002 309.36 16.2149 309.84 16.2155 309.841C21.4269 310.158 26.5587 310.24 31.7469 310.426C32.1384 309.676 32.2563 308.662 32.5505 307.838C38.7014 312.339 49.3584 310.617 57.0843 309.512C60.2219 309.059 63.1861 308.632 65.8141 308.49C65.9851 308.466 65.9974 308.392 66.0018 308.324C66.0276 307.294 66.2214 306.238 66.1247 305.238C66.6674 304.711 66.42 303.75 66.0471 302.906C64.6757 299.935 60.9484 299.61 57.9285 299.103C52.2471 298 47.6786 295.926 43.9829 292.755C44.2315 292.53 44.4572 292.309 44.6629 292.093C44.5826 292.039 44.5023 291.986 44.4222 291.932C44.2277 291.846 44.0417 291.759 43.8711 291.649C43.7843 291.697 43.6754 291.707 43.5679 291.647C43.1965 291.438 42.8938 291.132 42.5409 290.897C42.4709 290.998 42.4006 291.1 42.3299 291.207C41.9915 290.851 41.6085 290.447 41.2738 290.073C41.2618 289.969 41.289 289.712 41.1629 289.683C40.2114 289.78 39.1094 290.1 38.114 290.457C36.989 286.759 36.3374 282.757 36.4126 278.978C37.5189 278.978 38.4879 278.968 39.3129 278.441C39.5384 278.502 39.8525 278.633 39.9108 278.278C40.2456 276.831 40.3326 275.299 40.4169 273.817C42.1292 245.787 44.7383 223.263 53.392 199.519C54.223 202.815 55.6182 206.244 56.8879 209.526C62.6643 223.243 66.8257 238.035 70.3929 252.432C71.7964 257.821 73.3221 263.742 74.829 269.075C75.4134 271.639 76.6012 272.577 79.0906 272.557C81.0088 272.647 82.9336 272.619 84.8596 272.484C87.4853 274.878 88.562 278.11 89.3291 281.02C88.69 281.496 87.6757 281.316 86.9285 281.473C86.2842 282.512 86.5071 283.965 86.5222 285.246C86.6233 286.911 86.5372 288.697 87.0217 290.269C87.1083 291.988 87.119 293.871 87.2483 295.87C85.8248 296.696 86.0855 298.52 86.5583 300.265C86.7696 300.709 94.4202 300.621 96.318 300.603C98.5481 300.473 101.728 301.043 102.46 298.597C107.769 301.548 115.846 300.551 122.032 299.682C126.521 299.135 130.588 298.626 134.996 297.698C135.042 297.678 135.106 297.536 135.074 297.471Z"
    fill="white" />
  <path fill-rule="evenodd" clip-rule="evenodd"
    d="M86.9321 281.425C88.1285 282.089 89.0856 283.126 90.3416 283.701C95.7773 286.426 102.659 284.958 106.801 280.589C107.385 280.602 107.854 279.962 107.73 279.386C108.972 279.496 109.952 280.454 110.877 281.21C110.751 282.085 110.809 282.964 111.163 283.802C111.19 283.869 111.31 283.896 111.325 283.802C111.433 283.165 111.543 282.523 111.687 281.894C111.948 282.107 112.213 282.311 112.483 282.513C112.506 283.036 113.052 283.418 113.498 283.237C117.158 285.722 121.295 287.486 125.591 288.517C128.952 289.22 130.698 289.147 132.189 292.689C131.636 292.8 131.093 293.069 130.262 293.271C116.208 294.912 102.025 293.144 87.9486 294.341C87.7603 291.245 87.592 288.15 87.3792 285.056C87.3044 283.942 87.2718 282.819 86.8397 281.778C86.8482 281.65 86.8684 281.525 86.9087 281.427C86.9162 281.426 86.9236 281.426 86.9321 281.425ZM87.4569 273.802C87.5024 273.596 87.3408 273.422 87.1808 273.286C86.997 272.976 86.7878 272.684 86.5392 272.437C91.4205 272.005 96.1006 270.503 100.686 268.954C101.24 272.897 103.206 276.479 105.422 279.733C101.661 283.655 95.5367 284.61 90.6136 282.466C90.942 281.741 90.2374 280.694 90.0582 279.946C89.4407 278.152 88.5952 276.438 87.8626 274.696C87.7373 274.408 87.6056 274.103 87.4569 273.802ZM86.452 273.734C86.485 273.758 86.5189 273.782 86.5519 273.803C86.5721 273.852 86.5912 273.901 86.6114 273.95C86.5604 273.895 86.5083 273.84 86.4563 273.787C86.4552 273.769 86.4541 273.752 86.452 273.734ZM41.3269 290.001C41.4246 290.174 41.5266 290.345 41.6328 290.513C41.4285 290.64 39.8882 293.912 40.7491 293.389C41.2271 292.708 41.705 292.022 42.2202 291.367C42.3636 291.558 42.5112 291.746 42.6642 291.93C42.1341 292.311 42.3402 293.204 43.0423 293.207C43.2934 293.208 43.4881 293.156 43.722 293.069C46.864 296.077 50.9946 297.856 55.1528 298.958C58.5982 300.039 65.088 299.486 65.2633 304.399C64.9128 304.391 64.5372 304.505 64.2702 304.757C49.0587 309.907 33.3429 304.479 18.0002 302.975C18.2118 302.55 17.9423 301.782 17.3809 301.815C17.3756 298.374 18.3263 294.958 19.7028 291.827C27.5092 299.276 33.0987 291.989 40.9732 290.207C41.1251 290.176 41.2419 290.101 41.3269 290.001ZM45.3517 288.664C45.3291 288.664 45.2718 288.657 45.2497 288.664C44.9329 289.733 44.2592 290.696 43.4016 291.387C43.1732 291.178 42.9491 290.964 42.7292 290.748C43.3017 290.083 43.9284 289.468 44.6538 288.948C44.8572 288.809 45.0948 288.648 45.3517 288.664ZM14.9976 151.006C14.7945 150.263 15.0243 149.485 15.0476 148.729C15.2218 146.671 15.4586 144.598 15.4129 142.531C15.3568 141.787 15.341 141.068 15.5064 140.342C15.4561 140.147 15.2821 140.608 15.2303 140.651C15.2196 140.593 15.2058 140.534 15.1941 140.476C15.277 140.381 15.3651 140.299 15.4607 140.219C19.5403 143.594 23.4941 147.121 27.3068 150.795C27.7019 151.174 28.285 151.15 28.6833 150.795C29.5097 150.055 30.3658 149.362 31.2473 148.709C31.5522 149.705 32.0185 150.628 32.5517 151.52C29.0669 151.945 25.6283 151.019 22.1682 150.749C19.8479 150.571 17.519 150.68 15.2143 150.987C15.1548 150.995 15.0614 150.995 14.9976 151.006ZM22.6801 117.963C21.4634 116.911 20.9534 116.224 21.103 114.567C21.8227 112.119 22.7557 109.739 23.5522 107.317C23.6547 107.829 23.6634 108.353 23.7062 108.872C23.4247 111.91 23.2067 114.957 22.6801 117.963ZM23.9173 106.466C23.9003 106.434 23.8833 106.402 23.8653 106.372C23.8918 106.29 23.9184 106.208 23.945 106.126C23.9354 106.24 23.9269 106.353 23.9173 106.466ZM1.97696 125.164C1.9844 123.865 1.81445 122.558 1.73904 121.262C1.11673 110.362 1.87978 99.3823 4.01309 88.6743C6.82649 73.5346 12.0384 58.3317 30.0483 58.023C30.6801 58.5949 30.9018 59.4773 31.2538 60.2354C32.3152 62.3364 33.8742 64.1559 35.6617 65.6757C43.0702 71.7059 62.6624 78.59 64.3833 63.9806C64.3873 63.5269 64.3565 63.048 64.2832 62.5689C64.4458 62.0664 64.3703 61.4367 64.2556 60.8715C64.3332 60.467 64.2142 60.0028 64.0092 59.5662C64.0432 59.5376 64.0751 59.5057 64.1027 59.4707C63.2942 57.9272 61.9082 57.4221 60.3692 56.8408C60.1568 56.6284 60.3448 56.1887 60.6709 56.3034C61.3879 56.5551 62.125 56.7249 62.8727 56.8535C62.9768 56.8716 63.0427 56.9258 63.0756 56.9947C80.5413 62.2816 79.9703 76.6679 79.7019 91.8735C79.9664 108.256 89.4575 123.637 86.6881 140.189C83.4191 120.215 76.989 100.79 75.5296 80.5075C75.4199 78.6885 75.1499 76.8925 74.9449 75.0831C74.8402 74.321 74.7259 72.1864 74.4649 72.5434C73.2183 79.5191 74.1922 86.6864 75.2381 93.6313C77.5442 107.745 81.3544 121.554 83.9329 135.615C85.3556 141.865 85.5084 148.438 79.2389 152.052C72.4625 155.781 64.031 155.032 56.7091 153.52C56.1249 153.383 55.6831 153.687 55.4728 154.105C54.0434 151.11 50.8353 149.636 48.7473 147.179C46.6563 144.499 45.2882 141.329 43.3654 138.529C43.5609 136.825 41.9767 134.139 40.1684 134.103C35.6021 129.336 30.6633 124.923 25.326 121.036C25.2485 120.79 25.0403 120.652 24.8937 120.432C24.6759 120.062 24.5344 119.6 24.5686 119.173C25.3789 114.491 25.5682 109.635 24.3011 105.014C26.5604 97.9935 27.9354 90.7433 29.2251 83.4984C29.3457 83.148 28.759 82.9837 28.6718 83.3455C28.5199 84.1145 28.3744 84.8845 28.232 85.6546C25.6278 95.2672 22.5254 104.72 19.141 114.083C18.7461 115.388 18.3764 116.691 18.5995 118.058C18.7927 118.856 20.0013 118.779 20.1396 117.962C20.41 117.883 20.6492 117.953 20.8608 118.114C20.8629 118.11 20.864 118.107 20.8661 118.105C22.4854 120.42 24.6315 122.334 26.8151 124.146C30.5558 127.327 34.2246 130.592 37.6798 134.082C38.5007 135.143 41.2568 137.037 41.4516 138.472C41.0902 141.026 38.4461 142.238 36.3702 143.236C33.3501 144.704 30.5177 146.562 28.0058 148.79C22.5375 143.734 16.8403 138.913 10.8193 134.526C7.36627 132.04 3.08924 129.576 1.97696 125.164ZM63.2632 59.7032C63.278 59.7851 63.2918 59.8669 63.3056 59.9476C63.2408 59.8573 63.1739 59.7681 63.1028 59.6831C63.1559 59.6905 63.209 59.6969 63.2632 59.7032ZM82.9853 167.622C82.9268 167.449 82.8652 167.277 82.8036 167.105C82.9635 166.337 83.2044 165.617 83.2773 164.81C84.8259 163.236 85.7872 161.093 86.0442 158.906C86.1207 158.264 86.1653 157.648 85.6937 157.145C85.5206 156.96 85.1531 156.94 84.9831 157.145C84.4053 157.841 84.5551 158.889 84.349 159.738C83.9156 161.535 82.9124 163.23 81.4749 164.374C80.6653 165.036 79.6315 165.871 78.7048 166.126C79.428 163.299 81.0194 160.608 81.2304 157.629C81.2911 156.756 81.2359 155.94 81.0224 155.09C80.8637 154.561 80.625 154.101 80.8132 153.55C82.9999 152.138 84.9322 150.105 85.9136 147.648C86.2627 147.687 86.6216 147.532 86.7792 147.143C87.5641 152.952 88.6231 159.086 85.5907 164.412C84.9112 165.62 84.0343 166.716 82.9853 167.622ZM51.7997 154.172C50.9459 153.296 50.177 152.35 49.3918 151.414C48.5581 150.549 47.1362 151.897 48.6079 153.162C51.1727 156.367 51.0814 160.364 49.8634 164.076C49.6531 163.122 49.4853 162.174 49.1698 161.239C48.387 158.918 47.1995 156.755 45.7178 154.809C45.361 154.341 44.4369 154.579 44.6716 155.25C45.4119 157.365 45.7465 159.705 45.4109 161.935C45.2537 162.975 44.8055 163.964 44.7449 165.02C44.7247 165.385 44.9414 166.309 44.3647 166.1C44.1427 166.019 43.9451 165.549 43.8506 165.249C43.3795 163.703 43.4786 162.064 43.2983 160.474C43.0742 158.407 42.729 156.284 41.2473 154.714C40.9223 154.369 40.4422 154.591 40.2882 154.967C39.1168 157.793 40.3286 161.299 38.2457 163.778C38.1416 163.893 37.5468 164.474 37.4501 164.398C37.2866 164.268 37.4629 163.536 37.4905 163.366C38.9227 157.447 34.0549 152.533 32.3157 147.944C35.7782 145.096 41.706 144.185 43.2101 139.517C44.6133 142.616 45.8295 145.896 48.0535 148.525C50.2349 151.136 54.3252 152.858 54.4943 156.671C53.4529 156.066 52.6415 155.021 51.7997 154.172ZM20.4124 277.949C23.0885 277.991 25.7775 278.821 28.4305 278.777C30.8808 278.865 33.3342 278.751 35.7805 278.603C34.8563 282.25 35.2125 286.527 36.4348 290.065C31.6792 292.289 27.3489 295.466 22.1331 292.364C22.0757 291.905 21.9196 291.45 21.7688 291.004C21.8288 290.757 21.8744 290.434 21.6487 290.239C21.6612 286.116 21.2359 281.99 20.4124 277.949ZM114.039 278.004C114.355 278.338 113.229 280.936 112.958 281.375C112.638 281.168 112.32 280.965 112.005 280.749C112.255 280.001 112.593 279.286 113.084 278.633C113.217 278.457 113.74 277.747 114.039 278.004ZM134.403 293.104C134.351 292.878 134.136 292.673 133.901 292.616C133.225 290.87 132.145 289.124 130.471 288.205C129.461 287.681 128.342 287.529 127.24 287.311C122.618 286.409 118.224 284.577 114.21 282.153C114.604 281.038 114.974 279.93 115.21 278.774C115.597 277.48 114.567 276.398 113.277 276.941C112.143 277.451 111.457 279.013 111.119 280.132C110.833 279.935 110.532 279.739 110.222 279.56C110.06 279.109 109.527 278.917 109.116 278.661C108.476 278.233 107.615 277.485 106.845 278.065C105.453 276.208 104.337 274.149 103.395 272.032C102.655 270.54 102.373 268.844 101.337 267.512C101.482 266.59 100.918 265.67 100.541 264.85C100.192 264.101 99.8583 263.343 99.5439 262.579C93.0201 244.823 90.699 225.787 87.9607 207.156C85.9911 194.613 86.2903 181.744 83.5109 169.344C90.2626 163.853 90.1025 153.719 87.1636 146.229C93.4416 128.684 82.7972 111.219 81.5109 93.7428C81.0978 80.989 83.2197 65.6745 69.9617 58.4745C68.283 57.5482 66.4797 56.8006 64.5931 56.4298C62.8474 55.448 60.767 55.2088 58.7906 55.1701C57.6752 54.5643 57.3586 53.174 56.9583 52.0569C56.849 51.6544 56.6036 51.2008 56.5601 50.7887C56.5559 50.7526 56.5006 50.7378 56.4911 50.7792C54.943 54.8597 58.8467 59.1235 62.8182 59.6374C64.6088 65.9526 60.8425 71.5829 54.0554 71.2252C46.1967 70.6358 35.0874 66.2992 32.2466 58.3172C33.4992 58.2938 34.6914 57.903 35.8728 57.5311C36.1457 57.4062 36.5258 57.4249 36.6938 57.1478C39.4094 55.7828 41.5042 53.2153 41.9567 50.197C41.9376 50.212 41.9047 50.2343 41.8526 50.2672C41.8994 50.2375 41.9418 50.2056 41.9801 50.1727C42.0183 49.7096 42.0236 49.2465 41.979 48.7823C41.7708 48.5943 41.4756 48.4924 41.1325 48.5614C40.0873 48.7717 40.0661 49.8732 39.8983 50.6995C39.7475 51.4441 39.4649 52.1292 39.0847 52.7856C37.5358 55.418 34.5726 57.2495 31.4723 56.8514C31.3311 56.724 31.1324 56.6613 30.9402 56.7249C30.954 56.7367 30.9689 56.7484 30.9827 56.759C12.7749 56.0907 6.27885 70.0779 3.10804 85.6868C0.574304 97.1409 -0.42549 108.936 0.164636 120.653C0.308981 122.008 0.13086 125.7 1.01541 126.497C2.95956 132.41 9.0521 135.188 13.6464 138.724C13.1617 140.114 13.151 141.595 13.1259 143.051C13.0537 144.715 12.9422 146.378 12.7903 148.038C12.6533 149.536 12.2614 151.217 12.8041 152.675C13.1504 153.594 13.9255 154.554 14.9507 154.676C15.2264 157.189 15.316 159.731 15.5328 162.246C15.7919 185.277 18.425 208.431 14.79 231.337C13.4506 240.036 12.3484 248.846 13.2608 257.648C13.9456 264.188 15.2408 270.657 16.6638 277.068C16.9231 277.916 17.5933 278.722 18.5386 278.577C18.8645 278.773 19.2612 278.925 19.6146 278.754C19.6642 282.85 20.1949 286.94 19.9014 291.039C19.7049 290.921 19.5062 290.805 19.3065 290.692C19.1917 290.447 18.962 290.21 18.6852 290.357C18.6247 290.329 18.5461 290.382 18.5599 290.445C18.055 291.814 17.715 293.303 17.4349 294.741C16.4519 296.633 15.8555 298.741 15.657 300.872C15.5596 301.703 15.4174 302.778 16.1477 303.373C15.8941 303.382 15.5791 303.403 15.503 303.698C15.1437 304.579 14.5567 309.997 15.8907 309.974C21.0591 310.289 26.2508 310.373 31.4256 310.559C31.7071 310.569 31.9758 310.352 32.048 310.085C32.2126 309.481 32.39 308.88 32.5621 308.277C40.7777 312.786 60.3975 310.159 65.3472 309.152C66.3669 309.152 66.4329 305.976 66.3669 305.008C66.9425 304.278 66.5814 303.057 66.2277 302.286C64.7353 299.048 60.8262 298.702 57.7274 298.184C52.9459 297.263 48.2613 295.456 44.4814 292.329C45.5015 291.361 46.7107 289.762 46.5803 288.303C46.4443 287.668 45.8739 287.315 45.2494 287.353C43.827 287.472 42.7915 288.969 41.9896 289.996C41.8218 289.818 41.6572 289.64 41.4936 289.459C41.4756 289.078 41.2217 288.706 40.7777 288.759C39.8983 288.865 39.0433 289.079 38.2063 289.364C37.9992 288.4 37.6168 287.459 37.4033 286.492C36.8396 284.066 36.7068 281.587 36.6534 279.102C37.6806 279.086 38.2708 279.037 39.0688 278.614C39.5021 278.741 39.9928 278.581 40.1266 278C40.5632 276.112 40.5866 274.162 40.7193 272.234C42.1955 247.776 44.8553 223.143 53.3418 199.996C54.227 202.786 55.3925 205.476 56.3891 208.228C63.3509 226.37 67.6793 245.353 72.7089 264.085C73.1348 265.658 73.5671 267.229 74.01 268.796C74.6284 271.469 75.924 272.7 78.7643 272.689C80.6293 272.776 82.4981 272.755 84.3617 272.631C86.5635 274.713 87.6295 277.495 88.401 280.341C87.8389 280.621 86.1761 280.208 86.1025 280.971C85.4053 282.112 85.7026 283.585 85.6892 284.861C85.7927 286.573 85.7044 288.387 86.2129 290.028C86.2413 291.756 86.3093 293.484 86.401 295.211C84.8803 296.308 85.3355 298.494 85.7531 300.039C85.6668 301.135 94.7287 300.642 96.0197 300.737C98.1453 300.563 101.277 301.225 102.402 298.911C109.452 302.382 119.22 299.91 126.812 299.207C129.487 298.815 132.15 298.351 134.8 297.821C135.184 297.743 135.37 297.304 135.29 296.956C134.999 295.671 134.7 294.388 134.403 293.104Z"
    fill="black" />
  <path
    d="M89.3676 154.86H135.741C138.499 154.86 140.734 156.263 140.734 157.994C140.734 159.724 138.499 161.127 135.741 161.127H89.1138C89.1138 161.127 89.3181 159.296 89.3676 158.072C89.4172 156.848 89.3676 154.86 89.3676 154.86Z"
    fill="#2B2B2B" />
  <path fill-rule="evenodd" clip-rule="evenodd"
    d="M88.6885 161.127C88.6885 161.127 88.7337 160.725 88.787 160.171C88.8473 159.544 88.9179 158.722 88.9444 158.072C88.9719 157.399 88.9692 156.494 88.9611 155.816C88.9545 155.262 88.9444 154.86 88.9444 154.86H135.7C138.48 154.86 140.733 156.263 140.733 157.994C140.733 159.724 138.48 161.127 135.7 161.127H88.6885ZM90.3254 160.171H135.7C137.632 160.171 139.198 159.196 139.198 157.994C139.198 156.791 137.632 155.816 135.7 155.816H90.4969C90.4976 155.876 90.4983 155.938 90.4989 156.002C90.5052 156.653 90.5053 157.468 90.4797 158.096C90.454 158.725 90.3888 159.501 90.3308 160.114C90.329 160.133 90.3272 160.152 90.3254 160.171Z"
    fill="white" />
  <path
    d="M147.073 282.832C147.073 287.319 143.976 290.957 140.156 290.957C136.335 290.957 133.238 287.319 133.238 282.832C133.238 278.344 136.335 274.706 140.156 274.706C143.976 274.706 147.073 278.344 147.073 282.832Z"
    fill="white" />
  <path fill-rule="evenodd" clip-rule="evenodd"
    d="M141.68 273.508C140.749 273.399 139.83 273.482 138.954 273.728C138.63 274.724 139.328 276.255 139.492 277.315C139.45 277.741 139.475 278.182 139.525 278.613C139.442 279.845 139.842 281.03 139.946 282.217C139.964 282.442 140.331 282.39 140.312 282.165C140.224 281.102 140.06 280.046 139.938 278.985C140.049 279.068 140.263 278.999 140.241 278.825C140.194 278.449 140.241 278.08 140.304 277.712C146.514 279.206 144.862 289.118 138.409 288.503C134.22 288.114 132.594 282.407 135.374 279.428C135.089 278.592 134.769 277.766 134.474 276.927C130.4 281.902 132.761 291.467 139.287 292.06C149.813 293.004 152.138 275.018 141.68 273.508Z"
    fill="#2B2B2B" />
  <path
    d="M39.3765 171.846C39.6499 170.672 40.8714 169.932 42.1047 170.192C43.338 170.452 44.1162 171.615 43.8428 172.789L12.715 306.448C12.4415 307.622 11.2201 308.362 9.98676 308.102C8.75344 307.842 7.97528 306.679 8.2487 305.505L39.3765 171.846Z"
    fill="#2B2B2B" />
  <path fill-rule="evenodd" clip-rule="evenodd"
    d="M11.7346 306.241L42.8624 172.582C43.0158 171.924 42.5792 171.271 41.8874 171.125C41.1955 170.979 40.5103 171.395 40.3569 172.053L9.2291 305.712C9.07572 306.371 9.51224 307.023 10.2041 307.169C10.896 307.315 11.5812 306.899 11.7346 306.241ZM42.1047 170.192C40.8714 169.932 39.6499 170.672 39.3765 171.846L8.2487 305.505C7.97528 306.679 8.75344 307.842 9.98676 308.102C11.2201 308.362 12.4415 307.622 12.715 306.448L43.8428 172.789C44.1162 171.615 43.338 170.452 42.1047 170.192Z"
    fill="white" />
  <path
    d="M136.229 157.599C136.229 156.397 137.253 155.422 138.516 155.422C139.779 155.422 140.803 156.397 140.803 157.599V281.551C140.803 282.754 139.779 283.729 138.516 283.729C137.253 283.729 136.229 282.754 136.229 281.551V157.599Z"
    fill="#2B2B2B" />
  <path fill-rule="evenodd" clip-rule="evenodd"
    d="M139.799 281.551V157.599C139.799 156.925 139.225 156.378 138.516 156.378C137.807 156.378 137.233 156.925 137.233 157.599V281.551C137.233 282.226 137.807 282.773 138.516 282.773C139.225 282.773 139.799 282.226 139.799 281.551ZM138.516 155.422C137.253 155.422 136.229 156.397 136.229 157.599V281.551C136.229 282.754 137.253 283.729 138.516 283.729C139.779 283.729 140.803 282.754 140.803 281.551V157.599C140.803 156.397 139.779 155.422 138.516 155.422Z"
    fill="white" />
  <path
    d="M103.903 218.487C103.392 217.42 103.887 216.16 105.009 215.673L136.585 201.975C137.707 201.489 139.03 201.96 139.541 203.027C140.052 204.095 139.557 205.355 138.436 205.841L106.859 219.54C105.738 220.026 104.415 219.555 103.903 218.487Z"
    fill="#2B2B2B" />
  <path fill-rule="evenodd" clip-rule="evenodd"
    d="M137.001 202.845L105.425 216.543C104.808 216.811 104.536 217.504 104.817 218.091C105.098 218.678 105.826 218.937 106.443 218.67L138.019 204.971C138.636 204.704 138.908 204.011 138.627 203.424C138.346 202.836 137.618 202.577 137.001 202.845ZM105.009 215.673C103.887 216.16 103.392 217.42 103.903 218.487C104.415 219.555 105.738 220.026 106.859 219.54L138.436 205.841C139.557 205.355 140.052 204.095 139.541 203.027C139.03 201.96 137.707 201.489 136.585 201.975L105.009 215.673Z"
    fill="white" />
  <path
    d="M111.792 307.574C111.792 312.061 108.695 315.699 104.874 315.699C101.054 315.699 97.9565 312.061 97.9565 307.574C97.9565 303.086 101.054 299.448 104.874 299.448C108.695 299.448 111.792 303.086 111.792 307.574Z"
    fill="white" />
  <path fill-rule="evenodd" clip-rule="evenodd"
    d="M106.4 298.25C105.468 298.141 104.55 298.224 103.674 298.47C103.349 299.466 104.047 300.997 104.211 302.058C104.169 302.483 104.194 302.924 104.245 303.355C104.161 304.587 104.561 305.772 104.665 306.959C104.683 307.184 105.05 307.132 105.031 306.907C104.944 305.844 104.779 304.788 104.657 303.728C104.768 303.81 104.983 303.741 104.961 303.567C104.913 303.191 104.961 302.823 105.024 302.454C111.234 303.948 109.581 313.86 103.128 313.245C98.9392 312.857 97.3131 307.149 100.093 304.17C99.8079 303.334 99.4884 302.508 99.1936 301.669C95.1195 306.644 97.4804 316.209 104.007 316.802C114.532 317.746 116.857 299.76 106.4 298.25Z"
    fill="#2B2B2B" />
  <path
    d="M100.635 174.275C100.635 173.073 101.659 172.098 102.922 172.098C104.185 172.098 105.209 173.073 105.209 174.275V306.724C105.209 307.927 104.185 308.902 102.922 308.902C101.659 308.902 100.635 307.927 100.635 306.724V174.275Z"
    fill="#2B2B2B" />
  <path fill-rule="evenodd" clip-rule="evenodd"
    d="M104.205 306.724V174.275C104.205 173.6 103.631 173.054 102.922 173.054C102.213 173.054 101.639 173.6 101.639 174.275V306.724C101.639 307.399 102.213 307.946 102.922 307.946C103.631 307.946 104.205 307.399 104.205 306.724ZM102.922 172.098C101.659 172.098 100.635 173.073 100.635 174.275V306.724C100.635 307.927 101.659 308.902 102.922 308.902C104.185 308.902 105.209 307.927 105.209 306.724V174.275C105.209 173.073 104.185 172.098 102.922 172.098Z"
    fill="white" />
  <path
    d="M101.053 173.666C100.542 172.598 101.037 171.338 102.159 170.852L137.48 155.529C138.601 155.042 139.925 155.513 140.436 156.581C140.947 157.648 140.452 158.908 139.331 159.395L104.009 174.718C102.888 175.204 101.564 174.733 101.053 173.666Z"
    fill="#2B2B2B" />
  <path fill-rule="evenodd" clip-rule="evenodd"
    d="M137.896 156.399L102.575 171.722C101.958 171.989 101.686 172.682 101.967 173.269C102.248 173.856 102.976 174.115 103.593 173.848L138.914 158.525C139.531 158.257 139.803 157.564 139.522 156.977C139.241 156.39 138.513 156.131 137.896 156.399ZM102.159 170.852C101.037 171.338 100.542 172.598 101.053 173.666C101.564 174.733 102.888 175.204 104.009 174.718L139.331 159.395C140.452 158.908 140.947 157.648 140.436 156.581C139.925 155.513 138.601 155.042 137.48 155.529L102.159 170.852Z"
    fill="white" />
  <path
    d="M38.7715 173.337C38.7715 171.489 40.3451 169.991 42.2862 169.991H101.646C103.587 169.991 105.16 171.489 105.16 173.337C105.16 175.185 103.587 176.683 101.646 176.683H42.2862C40.3451 176.683 38.7715 175.185 38.7715 173.337Z"
    fill="#2B2B2B" />
  <path fill-rule="evenodd" clip-rule="evenodd"
    d="M101.646 170.947H42.2862C40.8997 170.947 39.7757 172.017 39.7757 173.337C39.7757 174.657 40.8997 175.727 42.2862 175.727H101.646C103.032 175.727 104.156 174.657 104.156 173.337C104.156 172.017 103.032 170.947 101.646 170.947ZM42.2862 169.991C40.3451 169.991 38.7715 171.489 38.7715 173.337C38.7715 175.185 40.3451 176.683 42.2862 176.683H101.646C103.587 176.683 105.16 175.185 105.16 173.337C105.16 171.489 103.587 169.991 101.646 169.991H42.2862Z"
    fill="white" />
  <path fill-rule="evenodd" clip-rule="evenodd"
    d="M65.2774 28.1673C65.2352 25.7879 65.1884 23.3609 64.8347 21.0046C64.4889 18.7011 63.5376 16.6188 61.9027 14.9461C58.4302 11.3929 53.3968 10.525 48.7114 9.72967L40.7009 8.36981C38.257 7.95505 35.6498 7.29206 33.1806 7.88027C31.9639 8.17013 30.9307 8.84353 29.9863 9.64024C29.0761 10.4082 28.0974 11.2328 27.4806 12.266C26.8628 13.3006 26.6502 14.5101 26.4494 15.6802C26.2228 16.9995 26.0468 18.3291 25.9218 19.6619C25.6712 22.3321 25.637 25.0224 25.8188 27.6981C25.9068 28.996 26.0469 30.2901 26.2258 31.5785C26.3145 32.2173 26.4147 32.8546 26.528 33.4897C26.5613 33.6769 26.5867 33.8843 26.6209 34.0937C26.3682 34.8124 26.2246 35.5566 26.2362 36.2977C26.2703 38.4806 28.1128 39.8549 29.9703 40.5927C31.0473 41.0206 32.1733 41.3113 33.2315 41.7892C34.3447 42.292 35.1024 43.1069 35.8636 44.0366C37.3152 45.8098 38.9533 47.4034 40.8239 48.733C44.7897 51.552 49.8128 52.8853 54.6247 51.8733C55.7792 51.6305 56.944 51.2535 57.9818 50.6853C59.0775 50.0855 59.9014 49.2164 60.5933 48.1888C61.878 46.281 62.7993 44.1329 63.4962 41.9469C64.2071 39.717 64.7118 37.4831 64.9869 35.158C65.2612 32.8404 65.319 30.4992 65.2774 28.1673Z"
    fill="white" />
  <path fill-rule="evenodd" clip-rule="evenodd"
    d="M39.7149 0.0811805C43.0298 -0.374797 47.6052 1.10721 49.2561 4.09544C57.1378 2.23733 67.0787 2.17647 73.5749 8.36206C80.3534 15.6995 71.8392 25.3741 66.1936 27.5553C66.6047 29.5528 65.9638 42.3501 61.429 48.0583C57.83 52.8949 49.449 55.127 45.5708 49.3501L45.5405 49.3024C45.125 48.6353 45.4829 48.6567 45.9094 49.153C49.707 52.4926 54.8704 52.5496 58.8493 49.0252C66.3063 42.5833 65.5375 26.7882 61.9891 17.6505C51.8849 16.5408 41.0666 19.6032 34.0878 27.2091L34.5597 30.0501C34.6401 30.5342 34.7314 31.0178 34.8011 31.5035C34.8457 31.8147 34.8507 32.1242 34.6351 32.3761C33.9231 33.2078 32.7232 31.9581 31.736 31.461C31.4445 31.42 31.1525 31.4042 30.8662 31.4243C26.1229 32.0353 27.0574 41.2366 32.2707 39.6238C32.7087 39.3509 33.085 39.4342 33.2549 39.8301C34.4975 40.9683 35.3169 42.9983 37.3814 44.9535C38.1098 45.6869 38.7727 46.3005 39.592 46.8888C40.0733 47.3755 41.5254 47.8717 41.0651 48.7045C40.1945 50.5996 35.0611 44.6468 34.1535 43.0006C31.3098 44.1235 28.1585 43.7421 25.2116 43.4676C9.66499 42.6594 11.7404 26.2716 24.4836 15.9251C26.8823 14.1592 29.5288 12.7186 32.2799 11.6101C32.6555 11.4587 32.4914 10.8421 32.1105 10.9955C30.2902 11.7292 28.5157 12.6023 26.8241 13.613L26.8215 13.0088C26.8191 11.9911 26.835 10.9316 27.0118 10.0018C27.1001 9.3575 27.2487 8.66934 27.4775 8.15165C27.7604 6.56449 32.1911 1.11656 39.7149 0.0811805ZM30.6586 33.5368C30.8986 33.3087 31.3467 33.5807 31.5604 33.5739C32.1069 33.6486 32.6261 33.8794 33.031 34.1643C33.2983 34.3141 33.4857 34.4547 33.6422 34.5841L33.6465 34.5829C33.6453 34.5829 33.6438 34.5841 33.6426 34.5844L33.6573 34.5943C33.8853 34.7563 34.7198 35.6686 34.1925 35.4233C34.1532 35.3722 34.113 35.3231 34.0724 35.275C34.0681 35.2816 34.062 35.288 34.0548 35.2943L34.0844 35.3383C34.5325 36.0123 33.7588 35.3022 33.6398 35.1135C33.6342 35.1181 33.6278 35.1212 33.6215 35.1245L33.7765 35.3131C33.7982 35.3399 33.8153 35.3613 33.8294 35.3794L33.8621 35.4109C34.3802 35.9202 34.3964 36.3785 33.7944 35.6256C33.8181 35.6611 33.8371 35.6987 33.8398 35.732L33.8755 35.7775C34.3481 36.3865 33.9637 36.1702 33.7288 35.9101L33.7092 35.8877L33.7132 35.8938C33.9317 36.2304 33.4982 35.9942 33.4216 35.8142L33.4183 35.8061C33.3349 35.7379 33.2835 35.6615 33.2659 35.6422L33.2626 35.639C32.8563 35.2226 32.2672 34.8703 31.7668 34.7102C31.6943 34.6964 31.6209 34.6854 31.5467 34.6775C31.2458 34.6104 30.9416 34.5644 30.6343 34.5396C30.5967 34.5351 30.5585 34.5075 30.5301 34.4718C30.0652 34.4561 30.2087 34.2656 30.4016 34.2302L30.405 34.2296L30.3667 34.2264C30.0684 34.1973 29.8647 34.0903 30.1663 34.0246L30.2045 34.017C30.1998 34.0097 30.1957 34.0023 30.1917 33.995C29.9333 33.9666 30.1019 33.7155 30.2453 33.7763C30.185 33.5791 30.4607 33.6775 30.4951 33.6482C30.5214 33.6191 30.554 33.5934 30.5728 33.592C30.6558 33.5334 30.6156 33.5387 30.6586 33.5368ZM32.2391 30.3434L32.1786 30.3788C32.1296 30.4073 32.0793 30.4264 32.0287 30.4375C32.1001 30.4679 32.1706 30.5007 32.2404 30.5358C32.2393 30.4929 32.2385 30.4501 32.2385 30.4074L32.2391 30.3434Z"
    fill="black" />
  <path fill-rule="evenodd" clip-rule="evenodd"
    d="M57.1523 47.2303C56.4734 47.2358 55.7102 46.981 55.1999 46.7816L55.0668 46.7289C54.6251 46.5519 54.1714 46.3488 53.8331 46.008C53.7249 45.8973 53.6097 45.7719 53.5512 45.6401C53.5169 45.5629 53.5027 45.483 53.5358 45.4036C53.6581 45.3915 53.7741 45.3759 53.8839 45.3558C53.9362 45.3463 53.9863 45.3363 54.0247 45.3361C54.1662 45.3352 54.3063 45.3532 54.4462 45.3709C54.4665 45.3734 54.4867 45.376 54.507 45.3785C54.6159 45.392 54.7243 45.4066 54.8325 45.4211C55.1473 45.4634 55.4604 45.5053 55.7797 45.5206C56.0103 45.5316 56.252 45.5187 56.4959 45.5054C57.1285 45.471 57.7825 45.424 58.2698 45.867C58.3975 45.9831 58.4508 46.1292 58.4508 46.2781C58.4508 46.4591 58.3747 46.6432 58.2585 46.7877C57.9954 47.1149 57.5905 47.2267 57.1523 47.2303ZM60.8544 41.5244C60.5591 41.9675 60.067 42.2524 59.3928 42.2215C58.0527 42.1602 56.4534 41.6546 55.331 40.9235C55.0388 40.7332 54.8492 40.4289 54.8152 40.1029L54.7548 39.5229L54.428 40.0059C54.394 40.0562 54.3596 40.1064 54.3253 40.1566C54.2307 40.2949 54.1361 40.4331 54.0469 40.5748C53.7045 41.1188 53.3906 41.6683 53.1056 42.2446C52.9038 42.6526 52.7563 43.109 52.6083 43.5695C52.3586 44.3469 52.1173 45.1115 51.5837 45.6579C51.503 45.7405 51.3789 45.7701 51.2654 45.7555C51.1653 45.7426 51.0673 45.6936 51.0192 45.5958C50.3816 44.2992 51.2392 42.7367 51.9349 41.6504L52.0085 41.537C52.6536 40.5553 53.7071 39.2562 54.9137 39.0796L55.0519 39.2999L55.2527 39.166C55.5812 38.9469 56.0147 38.9571 56.3943 39.1285L56.774 39.2998C57.4806 39.617 58.1777 39.9096 58.9422 40.0698C58.998 40.0815 59.0536 40.0924 59.1092 40.1025C59.1617 40.1121 59.2145 40.121 59.2675 40.1293C59.2561 40.0772 59.2439 40.0253 59.2316 39.9736C59.2187 39.9188 59.2056 39.864 59.1916 39.8093C59.1772 39.7528 59.1618 39.6967 59.1464 39.6407C59.0851 39.4177 59.0159 39.1967 58.9339 38.9803C58.6252 38.1668 58.1323 37.4059 57.6527 36.6802L57.5963 36.5949C57.5275 36.4909 57.4522 36.3824 57.3743 36.2702C57.0003 35.7316 56.5856 35.1472 56.5562 34.5605C57.0526 34.5918 57.468 34.9002 57.8337 35.1687C58.3355 35.5369 58.8006 35.958 59.2224 36.4156C60.0407 37.3031 60.7751 38.4378 61.0972 39.6108C61.2816 40.2824 61.2005 41.0052 60.8544 41.5244ZM47.7616 34.8329L47.7614 34.809C47.7629 34.1317 48.1574 32.5852 49.1324 32.5852C49.7416 32.5852 50.1114 33.6377 50.1754 34.7226L50.1776 34.7669C50.2059 35.4414 50.0208 36.9157 49.1324 36.9157C48.2347 36.9157 47.7708 35.5193 47.7616 34.8329ZM62.1169 34.6205L62.117 34.5966C62.1156 33.9192 61.7211 32.3728 60.746 32.3728C60.1521 32.3728 59.7857 33.3733 59.7084 34.4289L59.703 34.5102C59.6646 35.1619 59.8377 36.7033 60.746 36.7033C61.6438 36.7033 62.1077 35.3069 62.1169 34.6205ZM51.0455 30.2491C50.9163 30.2643 50.7877 30.2841 50.6592 30.3045C50.2842 30.3643 49.9113 30.436 49.541 30.5195C48.8375 30.6783 48.1398 30.8788 47.4553 31.1054C46.8149 31.3175 46.1844 31.5572 45.554 31.7969C45.5204 31.8097 45.4867 31.8225 45.4531 31.8353C45.2305 31.9199 45.0087 32.0147 44.7862 32.1099C44.4476 32.2547 44.1074 32.4004 43.7603 32.5102C44.6748 31.2457 46.0842 30.3087 47.4402 29.6382C48.2139 29.2556 49.0347 28.9471 49.8604 28.6943L50.3202 28.5562C50.9973 28.3564 51.7376 28.1719 52.3736 28.5702C52.6252 28.7277 52.7857 28.9726 52.8363 29.2373C52.8859 29.497 52.8293 29.7753 52.65 30.0076C52.4938 30.21 52.2992 30.3253 52.092 30.3648C51.8634 30.4084 51.6211 30.3605 51.4005 30.2427C51.2238 30.2295 51.1716 30.2343 51.1194 30.2401L51.0455 30.2491ZM61.2313 30.3778C60.7781 30.2793 60.3294 30.2397 59.8644 30.2539C59.6542 30.2602 59.4508 30.2927 59.2479 30.3254C58.9329 30.3762 58.619 30.4286 58.2796 30.367C58.1025 30.3348 57.9517 30.2313 57.8352 30.096C57.699 29.938 57.6089 29.7359 57.58 29.5439C57.5501 29.3454 57.5798 29.1719 57.6533 29.0186C57.74 28.8376 57.8861 28.685 58.0627 28.5514C58.5971 28.1469 59.5139 28.2441 60.1445 28.3259C60.7677 28.407 61.3875 28.6002 61.9384 28.9071C62.4819 29.2101 62.9544 29.6182 63.3231 30.117C63.6338 30.5374 63.7802 31.0214 63.9314 31.5141C63.2203 30.9175 62.1321 30.5733 61.2313 30.3778Z"
    fill="black" />
</svg>
