<svg width="231" height="316" viewBox="0 0 231 316" fill="none" xmlns="http://www.w3.org/2000/svg">
  <path fill-rule="evenodd" clip-rule="evenodd"
    d="M179.019 259.094C176.317 258.6 175.344 261.742 175.227 263.728C174.138 263.242 173.004 262.689 172.019 262.053C170.399 261.016 168.649 259.227 166.736 259.274L166.649 258.789C166.551 257.937 164.817 258.504 164.349 258.804C163.599 258.665 162.775 257.91 162.272 257.221C164.296 256.472 165.184 256.442 164.864 253.844C164.863 253.442 164.764 253.067 164.874 252.709C162.457 241.942 161.985 231.17 161.681 220.195L162.922 219.945C166.853 230.941 170.589 242.479 173.94 254.234C174.023 254.763 174.325 254.769 174.618 254.483C175.635 254.537 176.618 254.493 177.654 254.344L177.64 254.296C177.952 254.298 178.262 254.282 178.547 254.263C178.791 255.839 179.074 257.465 179.019 259.094ZM177.389 253.094C177.457 253.06 178.238 252.716 178.326 252.676L178.345 252.87C178.01 253.001 177.672 253.127 177.331 253.242L177.3 253.135L177.389 253.094ZM144.044 276.643C142.726 276.96 141.331 277.362 140.035 277.738L140.544 276.511C137.622 268.727 135.39 260.507 133.765 252.472C132.615 247.241 131.421 241.832 129.825 236.648C127.811 228.507 123.463 220.13 114.277 219.433C114.277 219.433 114.122 219.168 114.123 219.168L113.941 218.999C113.493 213.29 112.886 207.6 112.299 202.137C117.215 203.487 121.449 203.048 126.148 203.011C127.671 202.8 129.697 203.242 130.912 202.548C130.912 202.548 131.715 201.733 131.715 201.733C137.05 222.831 138.438 244.575 140.343 265.94C140.408 266.425 140.777 266.59 141.165 266.389C141.613 266.88 142.546 266.691 143.184 266.762C142.648 269.964 143.279 273.781 144.834 276.449L144.044 276.643ZM131.522 274.842C128.235 272.074 124.34 270.702 120.273 270.858C118.846 268.74 116.828 266.202 114.563 265.246C113.501 261.695 113.631 257.8 113.856 254.455C114.381 251.038 113.205 250.639 110.421 250.889C111.618 249.443 111.511 249.094 111.268 247.195C112.063 247.319 114.468 248.892 114.798 247.78C115.197 245.614 115.468 243.732 115.627 242.027C115.712 240.57 114.681 239.038 114.808 237.555C114.429 233.742 114.818 229.475 113.062 225.962C120.175 226.913 121.907 234.677 123.748 240.397C127.535 252.179 130.181 264.208 133 276.086L131.522 274.842ZM109.614 247.871C109.445 248.25 109.421 248.611 109.362 248.98C106.016 248.366 106.612 253.282 106.299 255.972C105.67 255.763 105.227 255.698 104.569 255.828C104.473 254.941 105.05 254.548 103.028 254.45C93.6035 254.626 90.0199 264.486 86.7778 272.03C85.2726 275.658 83.1353 276.223 79.9588 276.16C77.828 276.201 75.649 276.779 73.4719 276.709C81.3872 261.103 84.267 238.688 81.0528 219.246H81.0549C80.8594 218.014 80.6272 216.733 80.3872 215.494C87.1722 215.565 95.0654 215.728 101.599 215.446C102.46 216.237 103.521 216.59 104.603 216.598C104.608 217.461 104.701 218.41 104.783 219.27C98.6764 219.118 91.901 219.212 85.7156 219.302C91.9007 219.391 98.708 219.501 104.791 219.326C104.781 220.975 104.947 222.473 106.412 223.271C106.972 227.443 106.249 231.801 106.754 236.653C107.161 239.953 106.826 246.271 109.838 247.32L109.614 247.871ZM66.6215 273.236L66.3859 273.649C65.8875 273.479 65.5815 273.516 65.0958 273.894C61.5625 275.805 56.4841 274.03 52.6208 273.904C53.3554 271.491 53.3838 267.642 50.0373 267.594C51.1471 257.015 50.3995 246.52 50.5707 235.95C56.6645 234.788 56.4597 234.161 50.5409 233.074C50.5039 227.161 50.4594 221.18 50.4631 215.212C50.4623 212.341 50.4358 209.54 50.1735 206.762C50.7247 205.622 50.6019 204.454 50.8864 203.249C52.0875 202.577 54.1683 203.359 54.9154 202.2C58.1487 202.152 61.4417 202.122 64.7073 201.948C65.0035 201.957 65.1135 201.682 65.2421 201.481C65.8105 201.332 66.7693 201.674 67.2426 201.431C67.2426 201.431 67.8812 200.607 67.8812 200.607C70.5409 206.038 72.6044 212.438 73.8232 218.919C69.9803 218.96 65.5808 218.949 61.616 218.929C65.4767 219.215 69.6439 219.387 73.9137 219.447C77.2264 235.925 74.8538 259.045 66.6215 273.236ZM61.3051 281.051C53.2995 291.137 40.2259 294.499 29.4898 286.391C0.843106 264.598 2.12834 190.731 39.7524 180.513C38.7313 184.375 35.1879 200.404 41.593 200.861L41.5732 200.809L41.8995 200.629C43.2442 201.094 45.1365 200.448 45.5769 202.316C45.5941 202.319 46.3002 202.381 46.3416 202.385C45.8839 204.706 46.0169 207.113 45.88 209.47C45.3393 209.264 44.666 209.142 44.0799 209.19C41.8713 209.087 41.9269 206.674 42.013 204.995C42.0949 204.173 41.8465 203.232 41.8876 202.461C41.9095 201.926 41.8738 201.508 41.6707 201.065C40.9913 203.238 40.349 206.086 40.7525 208.298C41.3459 210.364 43.9752 211.35 45.8784 210.338C45.7955 217.772 45.7722 225.15 45.7309 232.519C44.4807 231.863 43.3401 232.279 42.0472 232.629C40.4155 232.973 38.4797 232.486 36.8435 232.881C36.6549 232.073 35.8931 231.084 35.0909 231.737C34.0702 231.746 33.5092 232.693 33.0024 234.763C32.6866 236.403 32.8711 238.593 34.4297 239.381C35.31 239.856 36.1911 239.519 36.625 238.547C36.871 238.646 37.2634 238.947 37.5432 238.85C40.1465 238.218 42.9536 237.579 45.7076 236.984C45.8511 247.394 45.3896 257.729 46.2494 268.167C42.32 268.499 34.8337 267.447 33.1222 270.904C31.5494 271.583 30.4197 273.143 30.424 274.713C30.3724 277.258 33.1976 278.113 35.4052 278.142C44.3391 278.819 53.1885 280.026 62.1904 280.008L61.3051 281.051ZM77.4966 201.682C83.179 202.458 88.8855 202.452 94.5798 202.706C92.7217 215.326 95.3194 207.994 101.096 215.088C94.4955 215.08 86.5251 215.001 80.3185 215.155C79.3538 210.399 78.0518 205.858 76.4334 201.522L77.4966 201.682ZM121.488 137.639C123.993 141.139 127.285 144.195 130.979 146.285C127.788 146.52 124.54 146.736 121.395 147.177C121.043 144.146 120.688 141.115 120.332 138.086L121.488 137.639ZM230.006 270.073C229.709 267.093 226.338 265.994 223.873 266.816C222.489 263.138 217.758 263.585 214.713 261.963C208.601 259.003 202.345 253.213 195.27 255.491C194.636 253.749 193.926 252.076 193.162 250.615C193.461 250.767 193.845 250.751 194.114 250.482L194.116 250.484C194.38 250.183 194.635 249.846 194.669 249.474C195.587 248.443 195.972 246.814 196.208 245.599C195.087 241.765 193.726 238.092 192.514 234.299C187.81 219.833 184.5 206.394 180.95 192.56C177.003 182.273 175.943 155.281 161.646 155.229C161.599 154.51 161.575 153.681 161.346 153.027C160.937 153.588 160.767 154.415 160.712 155.127C154.592 155.029 149.302 156.167 145.266 157.919C137.536 157.576 130.761 158.037 121.868 159.088C122.946 157.229 122.226 155.135 122.124 153.085C135.017 153.695 148.122 152.506 160.954 151.795C163.025 151.614 165.222 151.728 167.221 151.207C169.389 150.701 171.448 147.985 169.237 145.917C167.741 144.988 165.881 145.491 164.241 145.409C155.93 145.408 147.426 145.571 139.426 145.865C149.276 140.852 154.246 130.385 160.137 121.457C163.129 116.58 165.363 112.476 167.171 108.536C167.48 107.881 167.567 107.172 167.381 106.811C167.312 106.45 166.195 106.41 165.892 106.321C174.084 93.5156 186.666 99.1538 193.393 91.734C192.118 91.7917 190.845 91.8515 189.571 91.9127L189.278 90.6901C191.682 89.6071 193.959 87.9254 196.448 85.394C196.447 85.3887 196.445 85.3829 196.442 85.3773C192.317 86.6678 188.471 87.6074 184.687 88.2495L184.231 87.0826C187.631 84.868 190.656 81.8561 192.979 78.3712C188.645 80.2865 184.569 83.0074 180.071 84.7508L179.394 83.6908C181.958 81.2385 187.705 77.5626 186.07 74.1301C179.682 77.2051 173.853 81.1853 167.7 84.6596C167.694 81.8406 169.677 77.4074 168.473 75.057C167.203 73.489 166.603 74.8231 165.961 76.0776C165.961 76.0776 163.289 80.5701 162.635 81.6694C160.182 86.0365 156.735 90.3529 156.814 95.5159C154.681 94.4914 153.005 98.2109 151.619 100.242C147.724 106.862 134.543 117.255 131.633 118.671C119.782 107.931 121.548 89.7435 108.951 79.5998C104.912 75.4776 101.926 75 97.163 73.4849C96.0308 73.2129 94.7503 72.2533 93.7371 73.174C92.234 71.9273 90.7708 67.9017 90.1506 66.1818C89.7669 64.5181 89.127 60.4229 88.2312 59.6551C87.3354 58.8872 72.7464 58.2474 71.4667 58.6313C70.187 59.0152 70.6989 62.0866 70.6989 62.0866L69.3516 67.6554L69.2356 67.6229C69.2146 67.631 69.0346 67.7701 69.0119 67.7857C68.0528 67.7787 67.1312 67.3253 66.2103 67.3258C65.2397 67.3464 64.4539 68.0087 63.7095 68.5757C62.3796 69.5812 61.0045 70.621 59.3878 71.2486C40.6386 77.2385 38.1614 86.2543 32.5518 103.577C27.9356 103.707 24.049 103.131 20.0312 102.907C18.6171 103.086 19.0767 105.834 19.1199 107.404C18.9864 111.266 21.8733 110.868 24.7367 110.833C26.6305 110.856 28.5364 111.045 30.4098 110.823C28.392 120.138 24.3334 134.702 28.7748 143.393C32.3711 150.203 35.4233 151.497 38.3335 151.695C39.0791 158.214 38.3367 164.052 38.4717 170.356C-4.4363 181.92 -6.4108 249.044 12.7687 281.727C28.1689 308.433 57.1323 306.97 71.4882 280.391C74.9599 282.284 81.843 282.153 86.4269 281.739C90.0342 281.526 91.2179 279.996 92.5064 276.647C93.9461 273.39 95.3149 270.175 96.7803 266.92C98.1792 263.476 100.974 259.518 106.018 259.673C105.994 261.702 105.618 263.989 106.991 265.6C101.875 267.339 104.95 275.443 106.436 279.229C99.4106 288.813 101.778 305.612 111.605 312.564C127.837 323.46 143.504 302.852 138.763 287.064C139.54 287.432 140.983 287.94 141.604 287.138C141.856 286.951 141.507 286.121 141.445 285.851C152.331 285.211 163.011 283.931 173.805 282.918C173.438 292.945 183.382 302.828 193.36 302.606C206.381 303.21 214.182 286.05 210.244 274.939C215.223 274.8 220.278 274.382 225.469 273.678C228.308 273.395 230.117 272.723 230.006 270.073Z"
    fill="white" />
  <path fill-rule="evenodd" clip-rule="evenodd"
    d="M70.2358 62.5987C69.9273 62.6998 69.9618 62.0382 70.3931 62.1049C70.7508 62.1606 70.8834 62.6414 70.9485 62.9465L70.9587 62.9956C71.5566 65.7961 70.8678 68.7546 69.4629 71.2127C69.1103 71.7876 68.7448 72.5765 68.0461 72.7305C68.3775 75.0993 68.8318 77.4487 69.3949 79.7727C71.4028 80.4766 73.293 81.5197 75.297 82.2416C79.1538 83.6131 83.281 83.9799 87.3393 84.2711C90.1312 84.4233 93.003 84.3002 95.655 83.3432C96.7767 83.0371 97.7276 82.0349 98.9043 82.038C98.1147 79.8816 97.2406 77.7572 96.2706 75.6713C93.254 75.6704 90.9752 72.7432 90.0792 70.1416C89.7529 69.105 89.6582 68.0185 89.4509 66.9563L89.374 66.5597C89.3065 66.2063 89.245 65.8507 89.218 65.4923C89.209 65.3592 89.4061 64.1908 89.36 64.0245C89.355 64.073 89.2919 64.0345 89.2628 64.032C89.1834 63.9337 89.2525 63.7365 89.4099 63.7441C89.6646 63.7365 89.7913 64.2907 89.8489 64.4417C91.0726 66.9533 91.5388 70.0402 93.723 71.9259C94.8136 71.2377 96.1564 72.1389 97.2651 72.4152L97.5859 72.5167C102.768 74.1496 105.167 74.5453 109.329 78.6929C116.439 84.2404 118.534 91.3207 121.333 99.4769L121.498 99.92C124.189 107.101 126.361 111.555 131.715 117.438C133.658 116.531 145.73 106.875 149.874 101.202L149.998 101.032C151.191 99.4056 153.908 93.7148 156.133 94.2555C156.333 89.2522 159.66 85.1108 162.007 80.8965L165.338 75.2964C165.659 74.7562 165.966 74.0115 166.422 73.5724C167.196 72.8265 168.482 73.5124 168.945 74.2687C170.22 76.4163 168.616 80.5209 168.38 83.0298C174.091 79.7214 179.651 76.1025 185.554 73.1387C186.05 72.8994 186.67 73.0824 186.827 73.657C187.825 77.7821 182.385 81.2348 179.759 83.7028C184.056 81.976 188.086 79.518 192.244 77.4601L192.522 77.3235C193.086 77.0304 193.85 77.6536 193.451 78.2525C191.098 81.7883 188.056 84.8534 184.507 87.1646C188.466 86.4927 192.362 85.5074 196.208 84.3031C196.833 84.1073 197.28 84.9379 196.836 85.3831L196.626 85.5949C194.524 87.7054 192.204 89.5866 189.467 90.8195C190.746 90.758 192.024 90.6979 193.304 90.6402C193.939 90.6122 194.15 91.3903 193.789 91.8113C192.367 93.4659 190.454 94.5397 188.412 95.2452C179.866 97.5435 172.692 97.3465 166.927 105.416C168.37 105.676 168.159 107.286 167.704 108.295L167.676 108.356C165.617 112.841 163.181 117.144 160.602 121.349C155.077 129.557 150.539 139.423 141.795 144.687C147.441 144.495 153.09 144.384 158.741 144.338C160.306 144.325 161.872 144.317 163.437 144.315L164.611 144.315C166.163 144.315 168.212 143.989 169.551 144.953C172.123 147.022 170.116 150.837 167.268 151.382C165.473 151.864 163.534 151.791 161.693 151.932C162.044 152.61 162.131 153.445 162.176 154.171C168.644 154.575 172.42 159.65 174.183 165.454C177.72 176.566 180.429 187.926 183.362 199.209L183.694 200.518C186.524 211.64 189.499 222.73 193.049 233.647C194.257 237.427 195.637 241.156 196.749 244.966C196.848 245.305 196.775 245.615 196.605 245.861C196.395 247.349 195.445 249.846 193.847 250.24C194.502 251.53 195.092 252.927 195.593 254.27C202.806 252.35 208.863 258.018 214.926 260.937C217.979 262.535 222.431 262.088 224.148 265.616C226.916 264.923 230.289 266.464 230.57 269.561C230.814 272.75 228.102 273.671 225.442 273.862C220.657 274.513 215.845 274.939 211.019 275.097C213.745 284.29 209.227 297.672 199.911 301.452C187.657 306.624 173.422 296.037 173.108 283.166C162.817 284.141 152.524 285.356 142.209 285.986C142.636 287.456 140.689 288.065 139.57 287.635C142.297 300.021 134.247 315.746 120.846 315.696C103.577 315.579 96.5974 291.547 105.642 278.687L105.556 278.464C104.117 274.744 101.41 267.09 105.982 264.886C105.017 263.411 105.259 261.556 105.291 259.889C101.056 260.081 98.8668 263.127 97.2931 266.723C95.8425 269.942 94.4603 273.193 93.0302 276.423C91.6831 279.924 90.3539 281.69 86.3911 281.923L85.985 281.953C81.5627 282.274 75.6843 282.539 71.6933 280.761C62.2224 298.092 42.3503 308.373 25.1504 295.949C-10.1574 271.571 -8.85654 180.213 37.7637 169.392C37.7827 167.651 37.8075 165.91 37.838 164.169C37.7382 163.059 37.7599 161.952 37.8599 160.827L37.8814 160.367C38.0093 157.528 38.0392 154.659 37.6891 151.837C32.0318 151.378 28.6052 144.137 28.0346 143.041C23.6734 134.667 27.7074 119.171 29.5223 111.075C27.7617 111.215 26.1525 111.001 24.4314 111.021L23.8344 111.031C20.6358 111.081 18.4875 110.946 18.4065 106.956C18.4105 105.335 17.6901 102.331 19.8206 101.828C20.783 101.635 21.9194 101.976 22.883 102.071C25.9252 102.317 28.9713 102.505 32.0229 102.486C34.6703 94.8953 36.7427 86.7733 41.7847 80.3475C46.0676 74.9107 52.918 72.7697 59.0764 70.2005C60.7479 69.553 62.1593 68.4316 63.5991 67.3477L63.6985 67.2705C64.4135 66.7209 65.1909 66.2571 66.1197 66.2321C67.0225 66.208 67.8623 66.6175 68.7458 66.6772C68.9015 66.5612 69.1043 66.4883 69.2802 66.5376C69.7507 65.2355 70.0988 63.8823 70.2702 62.5106L70.2557 62.4474C70.2292 62.3429 70.2191 62.3693 70.2267 62.5283C70.2678 62.5283 70.2741 62.5861 70.2358 62.5987ZM120.845 272.313C118.9 272.313 117.033 272.726 115.296 273.481C114.893 275.722 116.735 278.865 117.355 281.122C117.38 282.054 117.549 283.005 117.767 283.926C117.922 286.617 119.06 289.085 119.588 291.632C119.686 292.115 120.426 291.911 120.328 291.427C119.865 289.144 119.247 286.896 118.714 284.629C118.964 284.78 119.388 284.576 119.296 284.204C119.098 283.401 119.099 282.59 119.13 281.776C132.301 283.441 131.531 305.347 118.094 305.649C109.374 305.868 104.515 293.907 109.444 286.745C108.635 285.005 107.758 283.295 106.929 281.551C99.8688 293.368 107.263 313.505 120.845 313.136C142.748 312.517 142.758 272.937 120.845 272.313ZM199.923 274.887C202.522 279.737 202.245 286.253 198.948 290.723C195.218 295.804 187.078 295.209 183.424 290.332C181.98 288.594 180.867 286.465 180.802 284.167C180.797 283.66 181.125 282.763 180.683 282.365L177.859 282.667C176.447 282.818 175.035 282.967 173.623 283.112C177.715 294.053 187.771 303.961 200.05 298.482C207.659 294.282 210.478 284.251 209.368 276.066C209.306 275.674 209.448 275.353 209.678 275.137C206.426 275.212 203.161 275.228 199.923 274.887ZM66.5338 191.853C44.8312 157.51 16.2429 179.745 8.92484 211.265C3.42915 232.968 5.3796 259.464 16.8543 278.675C30.3297 301.553 53.0717 301.526 66.5334 278.675C76.7218 261.621 79.4016 238.817 76.0277 218.729C76.0288 218.909 75.9659 219.09 75.8359 219.234C79.8014 243.348 75.3392 273.186 56.2266 287.838C42.1176 298.256 25.62 289.738 17.6996 275.466C2.36997 249.589 3.55065 202.141 28.6969 182.69C35.875 177.571 44.3054 176.599 52.0802 180.259C52.1595 179.775 52.459 180.308 52.5754 180.499C65.9521 187.605 72.5637 202.867 75.6209 218.058C75.8054 218.161 75.9285 218.318 75.9874 218.492C75.5688 216.037 75.0597 213.623 74.4627 211.265C72.5931 203.976 69.9247 197.446 66.5338 191.853ZM115.703 292.929C114.546 292.19 115.096 294.407 115.498 294.819C115.787 295.227 116.36 294.882 116.161 294.432C115.914 294.071 116.354 292.972 115.703 292.929ZM38.7825 180.975C6.31577 190.101 4.19013 250.075 19.8963 274.151C27.1267 287.118 41.8157 295.284 54.7497 285.748C56.8689 284.25 58.8717 282.388 60.744 280.183C52.4285 280.115 44.1292 279 35.8314 278.373L35.6432 278.356C34.3866 278.247 33.0976 278.188 31.9399 277.645C28.4301 275.925 29.3865 271.509 32.5758 269.968C34.3227 266.524 42.0367 267.292 45.487 267.109C44.7125 257.207 45.1152 247.247 45.0033 237.322C42.5359 237.86 40.0763 238.423 37.6205 239.018C37.3287 239.089 37.0331 239.047 36.7835 238.923C36.1844 239.87 35.0089 239.976 34.0667 239.498C32.1611 238.534 31.9436 236.027 32.3032 234.175L32.3409 234.015C32.6549 232.706 33.2831 230.756 34.8153 230.655C35.7816 230.053 36.8328 230.764 37.1854 231.709C38.8032 231.439 40.2699 231.865 41.8474 231.548C42.8928 231.336 43.9473 230.801 45.0224 231.17C45.0597 224.373 45.0832 217.574 45.1555 210.777C43.1278 211.456 40.6533 210.051 40.0648 208.022C39.6668 206.673 40.0187 205.124 40.2055 203.769L40.2408 203.515C40.3608 202.665 40.5108 201.777 40.7993 200.953C36.2331 200.322 37.1673 190.75 37.5141 187.368C37.9393 185.149 38.2044 183.223 38.7825 180.975ZM114.182 219.571C112.154 219.552 110.705 221.749 111.876 223.497C114.232 226.158 117.636 223.759 121.287 230.934C127.345 245.29 130.139 260.82 133.909 275.887C135.804 277.859 136.956 280.366 138.348 282.708C138.862 283.589 139.019 284.831 139.952 285.389C140.132 285.473 140.277 285.487 140.419 285.466C138.483 284.392 138.889 279.091 139.288 277.163L139.27 277.163C139.094 277.175 138.451 277.316 138.746 277.012L139.06 276.911L139.373 276.811L139.395 276.733C133.949 264.082 132.765 249.959 128.862 236.785L128.514 235.616C127.165 231.113 125.608 226.403 122.196 223.06C122.066 223.053 121.933 223.005 121.811 222.902L121.688 222.795C119.674 221.051 117.199 219.644 114.443 219.898C114.333 219.906 114.315 219.737 114.417 219.71C114.482 219.693 114.547 219.68 114.611 219.666C114.468 219.637 114.324 219.605 114.182 219.571ZM104.495 255.323C103.914 255.554 103.323 255.392 102.667 255.407C101.979 255.424 101.311 255.538 100.651 255.726C89.8035 258.866 91.4029 275.176 83.504 277.068C81.5297 277.452 79.5423 277.156 77.5623 276.89C76.2989 276.935 75.1382 276.897 73.929 276.635C73.3609 277.777 72.7657 278.89 72.1463 279.978C73.5858 279.753 75.052 279.812 76.5065 279.786C79.9272 279.84 83.3477 279.7 86.7443 279.273C87.9536 279.136 89.0695 278.799 89.7852 277.75C91.4002 275.019 92.5056 271.984 93.9582 269.161L94.1493 268.729C96.2283 264.051 98.9787 258.437 104.828 258.423C104.861 258.086 105.125 257.814 105.425 257.731C105.458 257.245 105.491 256.759 105.527 256.271C105.189 255.947 104.94 255.528 104.495 255.323ZM32.2942 271.244C31.661 272.309 31.7265 274.177 32.8611 274.915C33.6303 275.353 34.727 275.304 35.5793 275.366L37.0473 275.474C37.5366 275.51 38.0258 275.546 38.5149 275.585L39.2483 275.644C46.2458 276.202 53.2362 276.811 60.2244 277.447L60.2561 277.435C60.3533 277.4 60.5059 277.351 60.5059 277.351L60.6145 277.301C60.7698 277.226 60.5818 277.294 60.5634 277.303L60.5623 277.304C61.3416 276.802 62.1811 277.376 62.3654 278.138C63.0641 277.201 63.7411 276.214 64.3963 275.175C63.4754 275.445 62.4972 275.485 61.5451 275.425C60.8904 276.169 59.7146 275.896 58.8397 275.879C52.6577 275.385 46.4922 274.671 40.3297 273.98C38.7646 273.797 37.1982 273.613 35.6331 273.428L35.2797 273.396C33.896 273.265 32.2316 272.999 32.2942 271.244ZM166.868 259.122C166.219 259.829 164.977 260.021 164.149 260.433C163.193 260.91 162.281 261.489 161.461 262.176C157.752 265.613 153.976 271.081 148.169 268.665C146.949 268.193 145.811 267.441 145.049 266.363C144.709 266.53 144.316 266.21 143.972 266.166C144.27 267.77 144.395 269.293 144.847 270.859C145.042 271.545 145.264 272.224 145.536 272.883C145.817 273.558 146.323 274.24 146.304 274.996C150.704 274.056 155.152 273.452 159.612 272.905C161.287 272.844 164.115 271.944 165.502 272.799C167.144 273.822 166.407 275.714 167.283 276.417C168.62 277.07 170.347 276.577 171.794 276.538C178.098 276.002 184.46 275.647 190.753 275.119C194.533 274.425 192.06 273.265 193.688 272.337C193.682 266.523 186.696 267.136 182.598 266.622C181.362 267.116 180.113 267.572 178.848 267.986C178.224 268.191 177.794 267.356 178.226 266.917L179.104 266.024C178.505 265.889 177.909 265.737 177.32 265.562C176.491 265.938 175.619 266.219 174.807 266.635L174.656 266.714C174.102 267.013 173.449 266.405 173.78 265.839C174.037 265.401 174.241 264.952 174.399 264.484C173.623 264.133 172.87 263.732 172.154 263.275L172.011 263.183L169.684 264.483C169.229 264.737 168.544 264.308 168.744 263.76C168.983 263.005 169.688 262.685 170.224 262.178C170.164 262.049 170.128 261.877 170.157 261.745C169.11 260.829 168.196 259.659 166.868 259.122ZM197.876 276.642L197.802 276.653C197.807 276.662 197.811 276.67 197.816 276.678L197.848 276.674L197.817 276.679C197.838 276.71 197.866 276.733 197.902 276.742C197.895 276.72 197.888 276.698 197.883 276.675L197.876 276.642ZM112.96 202.526L113.147 204.276C113.644 208.938 114.116 213.578 114.486 218.246C114.535 218.292 114.576 218.345 114.609 218.403L115.71 218.602C117.632 218.953 119.224 219.317 120.967 220.637C126.773 223.744 128.719 230.585 130.5 236.455C134.403 249.324 135.746 262.915 141.023 275.361C141.178 275.72 141.169 276.042 141.061 276.301C141.975 276.038 142.894 275.793 143.818 275.567C142.576 273.175 142.04 269.595 142.386 266.921L142.251 266.917C141.82 266.906 141.299 266.905 140.955 266.638C140.275 266.829 139.699 266.181 139.635 265.566L139.632 265.536C137.752 244.452 136.387 223.154 131.294 202.543C130.632 203.215 129.436 203.061 128.546 203.1L128.498 203.102C127.696 203.14 126.892 203.171 126.088 203.197L125.74 203.201C121.494 203.262 117.122 203.569 112.96 202.526ZM81.7303 219.439C84.6629 237.89 82.0689 260.038 74.4358 275.594C76.2815 275.556 78.0774 275.06 79.9194 275.066C83.1973 275.12 84.7969 274.45 86.1149 271.327C89.2809 264.107 92.4435 254.833 101.373 253.462L101.791 253.422C103.038 253.305 105.135 253.177 105.135 254.656C105.297 254.638 105.482 254.655 105.647 254.7C105.674 254.354 105.701 254.008 105.729 253.664L105.753 252.983C105.83 250.833 106.06 247.857 108.739 247.881C108.775 247.644 108.853 247.409 108.948 247.176C106.251 245.845 106.345 239.008 106.043 236.254C105.796 232.335 105.815 228.402 105.904 224.479C105.915 224.09 105.989 223.571 105.838 223.254C104.447 222.343 104.142 221.154 104.096 219.527C96.6504 219.716 89.1815 219.515 81.7303 219.439ZM114.101 226.439C114.751 227.908 114.796 229.603 114.984 231.184C115.14 233.067 115.25 234.949 115.36 236.834L115.385 237.266C115.422 237.924 115.476 238.563 115.716 239.193L115.771 239.34C116.054 240.096 116.269 240.798 116.191 241.632C116.009 243.583 115.702 245.556 115.346 247.481C114.849 249.112 112.996 248.072 111.942 247.692L111.954 247.8C112.024 248.505 112.021 249.21 111.629 249.753C114.539 249.659 114.746 251.753 114.416 254.09L114.397 254.398C114.194 257.691 114.126 261.141 115.023 264.326C116.535 264.978 117.633 266.205 118.685 267.42C119.305 268.141 120.079 268.906 120.566 269.757C124.672 269.683 128.586 271.143 131.86 273.898L131.473 272.256C128.94 261.486 126.461 250.69 123.07 240.151C121.353 235.166 120.015 227.889 114.101 226.439ZM51.0321 218.002C51.041 222.69 51.0743 227.376 51.1037 232.064C52.5102 232.262 53.868 232.669 55.1771 233.255C56.0077 233.626 55.6263 234.752 54.9481 235.01C53.7118 235.478 52.4193 235.748 51.1281 236.018C50.995 246.206 51.6702 256.445 50.661 266.597C53.6953 267.052 53.9161 270.474 53.342 272.878C56.7019 273.175 60.0889 274.023 63.4582 273.43C64.4508 273.376 65.083 272.255 65.9922 272.465C73.9295 258.534 76.5191 236.83 73.3071 219.625C65.8676 219.504 58.4005 219.046 51.0321 218.002ZM48.9973 236.467C48.2934 236.616 47.5909 236.765 46.887 236.915C46.7829 246.984 47.2068 257.098 46.4122 267.142C46.7097 267.127 46.6478 267.324 46.3943 267.341C46.379 267.512 46.3623 267.684 46.3457 267.855C46.2983 268.365 45.6022 268.363 45.5548 267.855C45.5446 267.751 45.5356 267.649 45.5267 267.546C44.1855 267.84 42.8239 268.048 41.4723 268.275C39.4812 268.767 34.6959 268.447 34.338 271.039L35.8863 271.174C41.1108 271.631 45.7007 272.061 50.8811 272.608C51.1396 271.016 52.3711 268.665 50.4293 267.654C50.1491 267.92 49.609 267.801 49.5628 267.296C48.4921 257.062 49.1461 246.741 48.9973 236.467ZM202.944 257.207C196.756 254.731 193.538 257.617 188.58 260.786C186.019 262.235 182.526 262.864 179.949 261.18C178.765 261.249 178.212 259.948 178.309 258.91C178.308 258.838 178.307 258.768 178.307 258.697C176.865 259.566 177.758 261.976 177.451 263.399C180.392 264.323 183.454 264.549 186.51 264.77C190.469 264.858 195.244 266.805 195.708 271.229L195.721 271.364L196.025 271.355C196.025 270.908 196.307 270.447 196.868 270.402L196.904 270.4C205.083 269.884 213.349 269.911 221.487 269.08C222.465 268.802 222.814 268.157 222.552 267.2C221.921 264.895 218.691 264.783 216.788 264.246C214.496 263.6 212.438 262.469 210.42 261.254C209.559 261.496 208.69 261.698 207.812 261.869C207.387 261.951 206.83 261.575 207.025 261.082L207.167 260.721C207.311 260.362 207.486 259.954 207.71 259.607C207.052 259.214 206.39 258.832 205.716 258.474C204.574 258.879 203.491 259.409 202.463 260.064C201.842 260.46 201.208 259.587 201.672 259.076L201.688 259.059C202.224 258.508 202.641 257.889 202.944 257.207ZM161.849 257.964C156.333 260.66 150.482 262.671 144.84 265.109L144.954 265.151C145.151 265.226 145.377 265.327 145.449 265.506C147.572 267.187 150.555 267.872 153.074 266.678C156.708 264.728 158.51 260.529 162.227 258.632C162.074 258.421 161.946 258.196 161.849 257.964ZM109.412 250.523C109.23 250.492 108.694 250.256 108.551 250.319C108.185 251.232 108.174 252.313 108.073 253.288C107.733 257.091 107.034 260.852 106.647 264.643C108.563 264.116 110.533 263.803 112.505 263.76C112.345 262.585 112.215 261.416 112.147 260.233C112.02 257.932 112.113 255.612 112.458 253.332L112.482 253.208C112.855 251.225 112.558 251.136 110.689 250.437C110.287 250.574 109.84 250.597 109.412 250.523ZM151.518 160.809C148.324 157.758 143.562 158.128 139.464 158.112C130.726 158.11 122.007 158.905 113.39 160.315C113.146 160.745 112.46 160.842 112.129 160.523C109.756 160.919 107.391 161.355 105.032 161.819C105.684 165.948 106.205 170.099 106.787 174.238L106.825 174.493C107.081 176.289 107.208 178.299 105.986 179.781C105.952 184.367 105.777 188.969 105.76 193.562C106.432 192.921 107.517 192.995 108.382 192.836C110.154 192.429 111.84 192.135 113.637 192.035C115.445 191.758 117.253 191.482 119.063 191.207C119.342 191.163 119.566 191.284 119.705 191.464C122.02 191.191 124.326 190.725 126.65 190.575L126.512 190.162C125.825 188.085 125.197 185.832 126.185 183.767C126.419 183.284 127.185 183.312 127.428 183.767C128.28 185.365 128.316 187.186 128.643 188.932C128.831 189.933 129.219 190.998 129.4 192.054C130.36 193.643 130.84 195.505 131.465 197.246C138.294 218.803 139.115 241.627 141.687 263.944C145.676 262.288 149.715 260.737 153.718 259.119C156.594 257.712 163.12 256.61 162.798 252.548C162.813 252.215 162.794 251.885 162.756 251.556C162.834 251.426 162.944 251.317 163.073 251.234C161.752 246.037 161.193 240.671 160.855 235.331C159.977 220.651 159.543 205.945 159.096 191.246L159.074 190.624C158.736 180.429 158.627 168.837 151.518 160.809ZM162.246 219.707C162.77 229.501 162.538 239.433 164.878 249.023L164.95 249.313C165.176 250.233 165.777 251.529 165.396 252.491C165.382 253.667 165.796 255.5 164.785 256.331C164.354 256.646 163.798 256.842 163.277 257.04C163.529 257.335 163.883 257.538 164.232 257.658L164.291 257.63C165.259 257.176 166.962 256.867 167.205 258.221C169.037 258.366 170.81 260.121 172.288 261.059C173.044 261.538 173.828 261.961 174.632 262.331C174.888 260.385 176.026 257.92 178.305 257.982C178.305 256.805 178.105 255.644 177.929 254.484C176.869 254.653 175.811 254.724 174.739 254.678C174.028 255.191 173.324 254.626 173.231 253.857C169.947 242.428 166.276 230.953 162.246 219.707ZM192.04 249.465C187.665 250.838 182.863 250.868 178.662 252.761C179.923 254.569 180.408 256.755 180.716 258.902C181.004 259.127 181.198 259.483 181.213 259.868C181.221 260.003 181.208 260.139 181.168 260.268C185.842 261.246 189.269 257.283 193.029 255.281C192.516 253.407 192.27 251.402 192.04 249.465ZM180.729 259.076L180.73 259.103C180.724 259.32 180.893 259.251 180.729 259.076ZM177.703 253.166C177.631 253.198 177.56 253.232 177.489 253.264C177.563 253.253 177.637 253.243 177.71 253.231C177.708 253.209 177.705 253.188 177.703 253.166ZM166.834 158.283C161.733 154.833 151.56 156.445 145.516 156.851C157.457 157.756 159.433 174.16 160.382 183.601C161.144 193.743 161.428 203.921 161.985 214.077C166.74 226.78 170.599 239.81 174.666 252.747C177.969 250.895 181.58 249.717 185.32 249.107L185.859 249.029C188.991 248.57 192.175 247.997 194.755 246.042C185.518 223.48 181.651 199.124 174.628 175.842C172.565 170.016 171.884 162.373 166.834 158.283ZM194.124 248.536C193.949 248.641 193.768 248.738 193.584 248.83C193.681 248.808 193.784 248.804 193.888 248.819C193.968 248.728 194.054 248.624 194.124 248.536ZM110.252 199.808C109.408 198.395 107.545 197.115 105.892 197.729C108.382 199.25 107.841 203.646 108.024 206.217L108.02 206.362C107.959 208.788 108.165 213.908 106.831 215.638C106.924 216.754 106.926 217.91 107.04 219.032C107.074 219.443 106.993 220.211 107.235 220.574C109.906 222.071 108.611 225.659 108.77 228.15C108.649 232.919 108.982 237.679 109.121 242.442C109.112 243.674 108.992 244.987 109.402 246.166C109.927 245.045 111.421 245.121 111.746 246.256C112.008 245.912 112.535 245.885 112.985 245.946C113.144 244.435 113.388 242.925 113.441 241.412C113.466 240.66 113.024 240.04 112.861 239.321C112.534 236.592 112.906 233.803 112.939 231.059L112.947 230.977C113.052 229.842 113.134 227.033 113.775 226.345C109.628 225.599 108.316 220.377 112.363 218.448C112.308 218.194 112.361 217.925 112.536 217.732C112.191 213.601 111.746 209.474 111.355 205.345C111.187 203.486 111.194 201.477 110.252 199.808ZM35.0527 235.009C35.366 234.585 34.6899 234.127 34.4146 234.577C34.1305 235.058 33.9653 235.646 34.0811 236.2C34.1452 236.507 34.6477 236.592 34.7828 236.291C34.899 236.044 34.9401 235.78 34.9978 235.515C35.1528 235.395 35.1546 235.169 35.0527 235.009ZM37.4132 232.515C37.426 232.588 37.4375 232.662 37.4477 232.737C37.5629 232.694 37.6819 232.66 37.8048 232.629C37.6742 232.593 37.5437 232.555 37.4132 232.515ZM47.4693 202.106C47.1545 202.303 46.7821 202.428 46.3918 202.485C47.1039 212.245 46.7004 222.073 46.8717 231.856C47.5736 232.018 48.3057 231.883 49.0178 231.938C49.1919 223.399 48.8661 214.867 49.4132 206.335C48.9355 205.113 48.6303 203.631 48.9845 202.33C48.4726 202.28 47.9658 202.207 47.4693 202.106ZM101.306 215.641C94.9929 215.888 88.6362 215.779 82.3138 215.701C81.9146 215.689 81.5038 215.687 81.0878 215.684C81.2504 216.538 81.4027 217.398 81.5434 218.262C89.0272 218.175 96.5273 217.999 104.007 218.161L103.975 217.811C103.943 217.458 103.915 217.097 103.905 216.738C102.976 216.667 102.068 216.269 101.306 215.641ZM67.675 201.369C67.2155 201.962 66.2087 201.582 65.5417 201.638C65.3715 201.911 65.0797 202.111 64.6676 202.133C61.4952 202.302 58.3163 202.335 55.1387 202.381C54.2117 203.456 52.5643 202.836 51.3712 203.272C51.2249 204.016 51.2174 204.787 51.0487 205.533C50.9771 205.838 50.8708 206.126 50.7518 206.409C51.0103 209.233 51.0295 212.096 51.0295 214.928C52.5999 214.47 54.2985 214.547 55.9207 214.443C59.4385 214.353 62.9573 214.389 66.4759 214.382C68.0304 214.353 69.788 214.447 71.3043 214.428C71.6926 214.287 72.242 214.51 72.3217 214.959C72.6126 216.102 71.3185 216.187 70.5454 216.13C69.6125 216.109 68.6796 216.089 67.748 216.069C63.9317 215.975 60.1147 215.905 56.302 215.733C54.5533 215.589 52.7165 215.636 51.0295 215.111L51.0303 217.244C51.0307 217.456 51.0313 217.652 51.0321 217.815C58.3438 217.786 65.6597 217.898 72.9731 217.832C71.8517 212.134 70.0165 206.322 67.675 201.369ZM162.106 216.647C162.077 217.021 162.21 217.336 162.385 217.659C162.292 217.322 162.198 216.985 162.106 216.647ZM77.3281 201.861C78.7306 205.728 79.8785 209.81 80.7628 214.05C87.0578 213.913 93.3418 213.98 99.6363 213.991C97.317 211.265 94.8559 212.014 93.7008 210.281C92.8641 208.938 93.5628 204.537 93.7815 202.861C88.8806 202.653 83.9574 202.629 79.0787 202.073C78.5258 202 77.9243 201.95 77.3281 201.861ZM42.6729 200.388C42.5564 200.485 42.4297 200.572 42.2953 200.646C42.632 201.531 42.287 202.421 42.5844 203.323C42.597 204.387 42.543 205.458 42.5961 206.469C42.5919 207.432 43.19 208.036 44.0524 208.098C44.3647 208.116 44.778 208.043 45.2042 208.17C45.2889 206.285 45.2153 204.37 45.5241 202.507C45.3266 202.489 45.1325 202.456 44.9466 202.408C44.9182 201.521 44.0518 200.666 43.1626 201.12C42.985 200.883 42.8231 200.634 42.6729 200.388ZM99.9832 199.718C99.7151 199.75 99.4551 199.81 99.2053 199.912C99.2638 202.317 102.737 200.628 103.212 203.58C103.291 204.276 103.205 204.975 103.182 205.672C103.171 206.028 102.89 206.588 103.279 206.797C103.479 207.087 104.026 207.03 103.978 206.613C103.969 206.536 103.962 206.458 103.957 206.379C104.128 206.076 104.232 205.758 104.288 205.43C104.494 205.323 104.432 205.05 104.341 204.857C104.287 204.439 104.462 203.702 104.005 203.48C103.958 200.704 102.927 200.263 100.35 200.037C100.175 200.019 100.064 200.105 100.014 200.225C99.9464 200.077 99.9483 199.899 99.9832 199.718ZM97.6988 163.186C95.8545 163.773 93.7949 163.896 91.8798 164.262C79.5116 165.994 67.6281 171.097 55.0158 170.96C54.5846 170.94 54.1802 170.876 53.8014 170.772C53.8026 170.969 53.8295 171.171 53.8718 171.367C54.1085 171.569 54.2557 171.888 54.3017 172.211C63.7686 177.011 70.9149 186.767 75.3969 197.037C80.9503 196.281 86.4988 195.423 92.0641 194.729L93.0742 194.598L95.0945 194.338C96.0786 194.214 97.175 193.902 98.1531 194.111C98.5992 189.645 98.6003 185.29 98.9363 180.797C97.9534 180.011 98.1851 178.33 98.1455 177.17C97.9212 172.51 97.9016 167.844 97.6988 163.186ZM104.081 181.048C103.746 181.137 103.4 181.169 103.076 181.121C102.212 181.544 100.933 181.325 99.9754 181.226C100.087 182.263 100.183 183.302 100.224 184.344C100.385 188.406 100.321 192.552 99.9562 196.611C101.267 196.703 102.579 196.864 103.888 196.971C103.9 191.673 104.147 186.353 104.081 181.048ZM54.1201 184.349C55.1631 188.697 59.8896 195.35 64.6408 195.747C61.7486 191.066 58.4238 187.377 54.7497 184.78C54.5398 184.632 54.3312 184.49 54.1201 184.349ZM96.5547 151.521C96.4037 151.525 96.2527 151.526 96.1017 151.524C97.0108 152.845 96.8489 154.904 95.7497 156.068C99.5861 158.446 99.4656 163.765 99.594 167.757C99.7468 171.619 99.952 175.473 100.114 179.331C100.114 179.261 100.344 179.359 100.426 179.373C100.945 179.441 101.471 179.464 101.995 179.441C102.787 179.125 103.83 179.119 104.376 178.355C105.024 177.487 104.876 176.189 104.764 175.185C104.494 172.753 104.129 170.33 103.823 167.904C102.977 162.72 103.083 152.635 96.5547 151.521ZM95.1252 156.626C92.0443 158.56 87.9911 157.807 84.5111 158.021C81.9683 158.058 79.4242 158.069 76.8802 158.06C68.3116 158.012 59.7482 157.67 51.1869 157.317L51.2059 157.673C51.3634 160.519 51.6547 163.369 52.4834 166.104C52.9541 167.977 53.6573 168.672 55.6275 168.506C66.1563 168.35 76.1456 164.593 86.4077 162.706C90.0762 162.094 93.8051 161.573 97.4876 161.14L97.4471 160.91C97.1521 159.272 96.6755 157.421 95.1252 156.626ZM97.3648 73.9731C97.5107 74.2474 97.5947 74.4942 97.5298 74.7498C109.862 101.168 106.605 131.217 113.116 159.079C113.243 159.155 113.316 159.274 113.383 159.399C115.488 158.977 117.609 158.611 119.737 158.293C119.494 157.665 119.869 157.097 120.298 156.689C120.304 156.626 120.39 156.429 120.395 156.429C119.593 146.547 118.424 136.666 117.419 126.794C116.792 119.914 115.647 112.971 115.957 106.056C115.968 105.975 116.073 106 116.096 106.056C117.756 112.032 118.717 121.102 120.376 133.164C132.354 147.223 139.411 149.682 150.931 133.39L151.522 132.52C156.906 124.585 162.159 116.498 166.245 107.808C161.134 107.644 158.375 102.269 156.19 98.3264C155.821 98.1267 155.575 97.8248 155.373 97.4191C153.642 99.5783 152.272 102.242 150.52 104.434C146.169 110.156 136.176 117.25 135.958 117.477L135.916 117.515C135.259 118.116 133.28 120.388 132.669 120.327C130.004 122.799 124.078 111.285 123.365 109.116C121.627 104.89 120.226 103.591 118.718 99.2812L118.459 98.5047C116.382 92.2771 114.295 85.7167 109.097 81.3637L108.894 81.147C105.567 77.6236 102.332 74.8748 97.3648 73.9731ZM160.92 151.979C159.443 152.07 157.965 152.158 156.488 152.247L155.122 152.328C144.342 152.974 133.539 153.772 122.737 153.301C122.838 154.821 123.369 156.396 122.784 157.874C130.236 157.002 137.738 156.465 145.223 156.826C149.671 154.722 155.069 154.063 160.07 154.036C160.155 153.337 160.445 152.547 160.92 151.979ZM85.1088 140.038C77.8547 136.796 70.7601 140.096 68.2073 147.937C68.3862 148.084 68.5093 148.343 68.5402 148.605C69.2119 149.502 70.4437 149.474 71.4527 149.602C73.4824 149.87 75.4507 150.525 77.2448 151.517C78.2353 152.059 79.0867 152.842 80.1094 153.315L80.6596 153.832C81.5779 154.692 82.5196 155.52 83.7366 155.974C84.9972 156.04 83.369 153.581 83.1039 153.104L83.0053 152.945C82.4744 152.102 81.7919 151.141 82.5184 150.183C83.8425 150.819 84.9092 151.735 85.9742 152.758L86.1668 152.944C87.203 153.959 88.3947 155.232 89.8831 155.398C90.1339 155.426 90.3165 155.13 90.2534 154.912C89.5853 152.696 87.6324 151.146 85.8147 149.815C85.8303 149.184 86.269 148.7 86.8429 148.563C89.3942 150.034 91.1753 152.363 93.6698 153.871C93.9388 154.031 94.2212 153.82 94.2476 153.54C94.2321 151.578 92.2343 150.075 90.8573 148.913C90.5709 148.691 90.2779 148.477 89.9794 148.27C90.0472 147.876 90.4063 147.532 90.855 147.469C91.6733 147.701 96.5789 151.514 96.5926 149.752L96.5834 149.704C96.4526 149.084 95.7415 147.739 95.0547 147.905C92.5121 144.762 88.8612 141.494 85.1088 140.038ZM66.0356 67.9827C63.4723 69.4558 61.0132 71.0507 58.4468 72.5091C55.1758 74.3852 51.6616 75.8415 48.5181 77.9412C38.9461 85.0021 36.1716 99.8845 32.6905 110.739L32.1977 112.846C30.2025 121.393 27.2067 135.007 30.8213 141.973L30.8468 142.028C31.2982 142.986 33.4447 146.872 34.5503 147.563C37.7906 149.586 44.5671 150.274 50.4563 149.878C56.0632 149.617 61.5832 148.543 67.0556 147.414C67.1807 145.528 68.1027 143.951 69.0731 142.415L69.1736 142.256L69.2861 142.089C70.6586 140.071 72.2067 138.436 74.4742 137.545C66.8989 135.275 54.4272 138.197 45.9825 132.255C45.308 131.78 45.8966 130.775 46.6283 131.15C47.0686 131.375 47.5157 131.581 47.9683 131.773C47.5694 130.334 48.6088 129.477 49.2296 128.228L49.2542 128.177C54.5869 117.407 58.7825 105.301 62.5024 94.3286C61.4199 102.005 59.6734 109.608 57.1965 116.952C59.4664 118.696 61.3609 120.894 63.4072 122.888C65.599 125.216 68.2582 127.194 69.9311 129.959C70.2958 130.603 69.5779 131.253 68.9547 130.935C67.4855 130.188 66.266 129.003 65.1385 127.824L64.6804 127.325C61.8824 124.267 59.123 121.119 56.9879 117.554C55.5636 121.684 53.806 125.108 51.9265 129.002L51.686 129.502C51.2701 130.363 50.8823 131.324 50.1978 131.96C50.6507 132.869 51.8097 133.08 52.7035 133.345C59.9654 135.385 67.676 133.68 74.9674 135.537L75.4484 135.662C75.9287 135.787 76.4144 135.938 76.7005 136.377C83.0602 136.61 89.2533 139.217 94.2102 143.236L94.338 143.338C96.4265 145.011 98.5664 147.22 98.9414 149.989C99.0118 150.511 98.8185 151.25 98.1953 151.368C99.4021 151.517 100.491 152.139 101.386 152.999C92.8556 123.378 67.8669 99.7938 66.0356 67.9827ZM93.0422 152.188C93.1605 152.368 93.2678 152.555 93.3461 152.75C93.3077 152.723 93.2708 152.694 93.2326 152.667C93.2432 152.57 93.1713 152.463 93.1023 152.384L93.103 152.384C93.07 152.345 93.0391 152.303 93.007 152.263C93.0215 152.239 93.0329 152.214 93.0422 152.188ZM120.894 137.557C121.225 140.372 121.555 143.187 121.882 146.003C124.214 145.695 126.564 145.509 128.912 145.336L128.782 145.255C127.595 144.512 126.5 143.643 125.472 142.693C124.344 141.649 123.268 140.52 122.277 139.344C121.791 138.767 121.331 138.17 120.894 137.557ZM65.3098 107.393C65.6716 110.619 67.6802 113.353 69.5466 115.892C70.0353 116.557 68.9243 117.195 68.4415 116.538L68.2473 116.273C66.2859 113.591 64.4094 110.775 64.03 107.393C63.9383 106.574 65.219 106.583 65.3098 107.393ZM185.381 75.336C179.596 78.9709 173.542 82.1575 167.625 85.5699C166.9 85.9809 166.167 85.3052 166.303 84.554C166.605 82.8872 166.904 81.2204 167.199 79.5531L167.426 78.2606C167.512 77.7942 167.866 76.1112 167.528 75.4794C166.061 77.9644 164.544 80.422 163.021 82.8737L161.358 85.547C159.578 88.4109 157.585 91.3172 156.877 94.6523C157.309 95.0626 157.532 95.6582 157.585 96.243C158.083 96.4424 158.423 96.9971 158.287 97.5828C160.417 100.133 161.872 103.798 165.281 104.87C169.148 99.2992 175.503 96.0401 182.147 95.2295L183.326 95.023C186.207 94.5135 189.21 93.8912 191.504 92.098C189.227 92.2079 186.949 92.313 184.669 92.4115C183.907 92.4448 183.745 91.2418 184.489 91.0819C187.8 90.3689 191.163 88.8526 193.809 86.6105C189.393 88.1692 184.759 89.0943 180.088 89.4579C179.127 89.469 178.96 88.0795 179.865 87.8083C183.982 86.1115 187.673 83.4124 190.503 79.9861L190.593 79.8765L184.662 83.0055C182.188 84.3107 179.542 85.9233 176.653 85.9194C175.814 85.9181 175.627 84.8675 176.25 84.4312L177.063 83.8268C179.802 81.7839 184.989 77.8034 185.381 75.336Z"
    fill="#2B2B2B" />
  <path fill-rule="evenodd" clip-rule="evenodd"
    d="M102.787 31.5931C104.278 30.5988 102.228 27.0843 101.527 26.0354C100.932 24.6783 100.338 23.321 99.7429 21.9638C99.8591 20.8719 98.8242 19.8606 97.7563 20.1568C96.8604 19.4656 95.3102 19.7274 94.8071 20.7429C84.8008 15.9627 67.1552 17.1898 65.7691 30.8137C63.6679 34.6331 61.5828 38.4863 59.6995 42.4184C57.2755 42.4639 56 45.3623 57.3742 47.3123C57.4582 50.4037 59.4053 50.7161 62.021 50.6701C63.0598 50.9828 64.1414 51.1704 64.8995 52.0076C65.4758 52.6391 65.8549 53.4277 66.2207 54.1928C67.9087 57.7227 70.1024 60.8018 73.1342 63.3088C77.8526 67.104 84.3204 69.9363 90.4236 68.3822C103.59 63.735 106.853 43.4394 102.787 31.5931Z"
    fill="white" />
  <path fill-rule="evenodd" clip-rule="evenodd"
    d="M76.3736 10.7811C84.9283 9.10659 94.3692 12.0844 100.031 18.8063C100.43 19.2786 100.364 19.8731 99.9861 20.2466C100.151 20.3907 100.313 20.5384 100.477 20.6863C100.648 20.8421 100.612 21.1418 100.455 21.2887C100.301 21.4331 99.9888 21.4529 99.8531 21.2676L99.6522 20.9958C99.5522 20.86 99.4534 20.7238 99.3584 20.5845C99.2353 20.625 99.1147 20.6682 98.9941 20.7101C100.752 21.9687 102.197 23.6096 103.158 25.5575C104.199 27.6644 104.831 29.8967 105.213 32.2098C105.893 36.3361 105.865 40.5427 105.61 44.7055L105.596 44.9285C105.279 49.946 104.61 55.0344 102.331 59.5788C100.503 63.2208 97.3663 66.5186 93.5253 68.0069C91.3134 68.8632 88.9565 69.1791 86.5949 68.9302C85.3497 68.7996 84.1122 68.5592 82.9077 68.2162L82.6183 68.1335C81.5212 67.8177 80.3844 67.4562 79.4617 66.7898C78.5149 66.1049 79.2136 64.8347 80.2774 65.0294C81.5586 65.2649 82.7664 65.8449 84.0343 66.1683C85.2743 66.4857 86.5342 66.6731 87.8157 66.6807C90.083 66.6958 92.1702 66.0721 94.0867 64.8739C101.414 60.2907 102.623 50.6036 103.084 42.7573C103.309 38.9237 103.304 35.032 102.552 31.2526C101.83 27.6189 100.495 24.0188 98.5366 20.8682C98.0754 21.0224 97.6151 21.1485 97.1288 21.1763C96.2466 21.6656 95.2186 21.6434 94.2195 21.6087L94.0803 21.6039C93.0406 21.5663 92.0029 21.4686 90.9715 21.3391C87.3212 20.8864 83.5822 19.9311 79.8831 20.327L79.732 20.3437C78.2084 20.5187 76.3136 20.9315 75.1629 21.983C73.9196 23.1177 74.6476 25.3725 75.5744 26.113C76.1736 26.5923 76.3294 27.6299 75.5079 28.0173C73.8856 28.784 70.0442 28.1928 69.5948 28.6329C69.0553 29.159 69.0627 29.9897 69.0231 30.6955L69.0204 30.7424C68.8965 32.751 68.8764 34.7569 68.9765 36.7682C69.0725 38.7128 69.3768 40.6685 69.392 42.6155C69.3978 43.2572 68.6172 43.4246 68.2062 43.0581C68.1255 42.9861 68.0421 42.9179 67.9584 42.8561C67.2088 42.2844 66.3433 42.0237 65.4109 41.8451C65.362 41.8356 65.3243 41.8098 65.2978 41.7762L65.2871 41.7614L65.1845 41.8398C65.3704 42.0883 65.5271 42.3678 65.6481 42.6794C65.6729 42.7417 65.6126 42.8177 65.5462 42.7744C64.2763 41.9579 62.8758 41.5812 61.3723 41.8411C60.0196 42.0743 58.7749 42.8837 58.3334 44.2333C57.9276 45.4753 58.1431 46.9311 58.9192 47.9916C60.0667 49.5631 62.022 49.4931 63.7691 49.6245C64.1114 49.6506 64.488 49.8302 64.6364 50.1632C64.8109 50.556 64.789 50.819 64.6003 51.1979C64.5741 51.252 64.5404 51.3008 64.5017 51.3442C64.6456 51.472 64.781 51.611 64.9129 51.7525L65.3536 52.2286C65.6551 52.5551 65.9547 52.8842 66.243 53.2208C67.0894 54.2108 67.8812 55.2603 68.6237 56.3298L68.6923 56.4297C69.561 57.7095 70.4444 59.5449 72.0121 59.9939C72.5496 60.1484 73.0442 60.4333 73.1848 61.0259C73.3255 61.6186 72.9257 62.1745 72.4069 62.4022C71.507 62.7972 70.4017 62.2515 69.6902 61.6889C68.1558 60.4737 67.193 58.5452 66.2838 56.8453L66.0349 56.3807C65.5667 55.5037 65.1104 54.6169 64.7268 53.6993C64.5082 53.1756 64.2715 52.6551 64.0698 52.1244C64.0112 51.9699 63.9526 51.8129 63.9083 51.6526C63.8374 51.6655 63.7654 51.6732 63.6975 51.6747C61.5811 51.7391 59.1616 51.3191 57.6917 49.6633C55.665 47.3811 55.5561 43.423 58.02 41.3988C58.2798 41.1851 58.5705 40.9993 58.8833 40.8425C58.4814 40.105 58.228 39.2574 58.047 38.4635C57.7827 37.3044 57.6535 36.1282 57.6104 34.941C57.5247 32.5191 57.8932 30.0695 58.5558 27.7429C60.958 19.3101 67.6681 12.485 76.3736 10.7811ZM59.8485 45.5449C59.5153 43.1069 64.3021 45.0683 65.3538 45.2741L65.3845 45.2798C66.5916 45.4905 65.8412 47.5946 64.6696 46.9191L64.6339 46.8978C64.0011 46.5052 63.2999 46.215 62.6336 45.8779L62.4914 45.8049C61.962 45.5278 60.2235 44.3056 59.9867 45.5497C59.974 45.6184 59.8577 45.6131 59.8485 45.5449Z"
    fill="#2B2B2B" />
  <path fill-rule="evenodd" clip-rule="evenodd"
    d="M92.9995 50.6947C92.0478 50.9347 91.0356 50.9238 90.0851 50.6084C89.2229 50.3224 88.3482 49.7286 87.7331 48.9618C87.1867 48.2806 86.8459 47.4641 86.8904 46.6068C86.8954 46.5089 86.9333 46.4283 86.9894 46.3667C87.0498 46.3004 87.1325 46.2563 87.22 46.239C87.31 46.2212 87.4041 46.2319 87.4832 46.2712C87.5548 46.3068 87.6151 46.3651 87.6512 46.4485C87.7452 46.5813 87.8389 46.7123 87.9331 46.8397C88.6912 47.8455 89.4328 48.6034 90.6148 48.9071C91.2562 49.072 91.9039 49.0314 92.5037 48.835C93.1458 48.6248 93.7332 48.2362 94.2006 47.729C94.4118 47.4998 94.6548 47.4118 94.8891 47.4183C95.1547 47.4258 95.4129 47.5583 95.6037 47.7624C95.7912 47.963 95.9122 48.231 95.9144 48.5069C95.9163 48.7491 95.8285 48.999 95.6108 49.217C94.8936 49.9352 93.9787 50.4478 92.9995 50.6947ZM93.3982 38.4424C94.3435 39.0631 95.7672 40.4834 94.6774 41.9025C93.4097 43.143 91.7003 41.6102 90.8558 40.9145C90.0693 40.3707 89.119 41.6655 89.8444 42.2937C95.9522 47.1546 98.7921 38.7844 93.9108 37.7692C93.3733 37.6573 93.1515 38.2519 93.3982 38.4424ZM84.4539 35.5438C84.1505 35.3344 83.7877 35.2535 83.3766 35.4235C83.0553 35.5563 82.4839 36.0163 82.0759 36.6331C81.7968 37.055 81.5919 37.5543 81.6124 38.0825C81.6172 38.2052 81.5689 38.2938 81.4952 38.358C81.4371 38.4088 81.3544 38.4446 81.2584 38.4534C81.1769 38.4608 81.0864 38.4484 81.0134 38.4228C80.8744 38.374 80.8033 38.2803 80.7779 38.205C80.5327 37.4778 80.6771 36.6809 81.0052 35.9688C81.4481 35.0079 82.219 34.2169 82.7145 33.9705C83.5626 33.5488 84.5452 33.5623 85.3626 34.0507C86.0585 34.4664 86.4801 35.113 86.8988 35.7717C86.9879 35.9117 87.0762 36.0507 87.1678 36.1875C87.3513 36.4614 87.3612 36.7271 87.2786 36.9518C87.1871 37.2007 86.9687 37.4058 86.7011 37.5078C86.4537 37.602 86.1703 37.6066 85.9236 37.4923C85.7152 37.3957 85.5271 37.215 85.4146 36.9157C85.2251 36.4115 84.8996 35.8512 84.4539 35.5438ZM100.18 37.1999C99.964 37.3032 99.7965 37.3308 99.5632 37.2519C99.4341 37.2082 99.3079 37.1286 99.2105 37.0242C99.114 36.9207 99.0461 36.7938 99.0229 36.6548C98.9658 36.3119 98.7907 35.9867 98.5324 35.7697C98.3117 35.5841 98.0286 35.48 97.709 35.522C97.3642 35.5673 97.0299 35.7757 96.7959 36.0271C96.7177 36.1112 96.6553 36.2076 96.5927 36.3034C96.4755 36.4825 96.3618 36.6488 96.2042 36.7779C96.1445 36.827 96.056 36.8594 95.9714 36.8564C95.937 36.8552 95.9023 36.8484 95.8695 36.8369C95.5402 36.4825 95.4837 36.2204 95.5037 35.9631C95.5246 35.6933 95.6407 35.4234 95.8218 35.1742C96.2466 34.5895 97.0305 34.1253 97.5518 34.0321C98.2657 33.9046 98.963 34.112 99.5134 34.5275C100.08 34.955 100.488 35.6022 100.597 36.3194C100.623 36.4922 100.603 36.6769 100.532 36.8352C100.463 36.9899 100.347 37.1205 100.18 37.1999ZM86.2397 29.2141C85.8 29.6136 85.2944 29.6602 84.7832 29.6995C84.4992 29.7216 84.2724 29.7396 84.0484 29.7819C83.4328 29.8985 82.8217 30.0851 82.2603 30.365C81.6736 30.6575 81.0328 31.0127 80.5645 31.48C80.4531 31.5912 80.3477 31.7083 80.2421 31.8256C80.1458 31.9326 80.0531 32.0357 79.9557 32.1347C79.8439 32.2485 79.7373 32.3681 79.6312 32.4874C79.5646 32.5888 79.5513 32.6139 79.5377 32.64C79.5173 32.6792 79.4935 32.7231 79.4665 32.7701C79.4295 32.8345 79.3864 32.9048 79.3415 32.9684C79.2666 33.0849 79.2274 33.1163 79.1941 33.1299C79.1387 33.1522 79.0866 33.1624 79.0367 33.1541C78.9899 33.1464 78.9464 33.1223 78.904 33.0838C78.6921 32.8917 78.6383 32.5868 78.6561 32.2657C78.6832 31.7784 78.8819 31.2448 79.0593 30.9187C79.4717 30.1609 80.0344 29.3779 80.6974 28.8248C81.4539 28.1935 82.2739 27.7241 83.2077 27.4136C83.7881 27.2205 84.4582 27.0481 85.0815 27.0946C85.5301 27.1281 85.9543 27.2766 86.2969 27.6225C86.5072 27.8348 86.6014 28.1296 86.5913 28.4206C86.5809 28.7174 86.462 29.0121 86.2397 29.2141ZM101.174 33.5343C101.146 33.5777 101.107 33.6069 101.065 33.6238C101.021 33.6415 100.972 33.6453 100.925 33.6358C100.879 33.6264 100.835 33.6037 100.801 33.5702C100.769 33.5381 100.745 33.4962 100.735 33.4456C100.496 32.1957 99.9799 31.254 98.8306 30.6182C98.2652 30.3054 97.6099 30.0963 96.9885 29.9262C96.8079 29.8768 96.6165 29.8421 96.4237 29.8071C95.8196 29.6972 95.2115 29.5743 94.8328 29.0696C94.6046 28.7657 94.5177 28.384 94.5864 28.0402C94.651 27.7165 94.8517 27.4246 95.2038 27.2577C96.0804 26.8426 97.1352 27.3168 97.9917 27.7193C98.0553 27.7492 98.1176 27.7785 98.1787 27.8068C99.0165 28.1954 99.7755 28.6963 100.389 29.3961C100.876 29.9513 101.317 30.7623 101.477 31.5864C101.611 32.272 101.55 32.965 101.174 33.5343Z"
    fill="#2B2B2B" />
</svg>
