<svg width="245" height="250" viewBox="0 0 245 250" fill="none" xmlns="http://www.w3.org/2000/svg">
  <path fill-rule="evenodd" clip-rule="evenodd"
    d="M18.9812 114.349C18.9955 115.317 19.0926 117.539 19.3359 118.476C16.6258 114.139 12.5651 109.399 11.9475 104.088C12.14 104.035 12.9939 103.956 13.143 103.845C14.5451 104.495 14.2799 102.493 14.4871 101.568C15.0467 99.6079 16.2224 97.6802 16.7332 95.7073C18.076 95.1276 15.3795 94.882 14.9877 94.8705C16.6164 93.0601 17.3656 90.5712 18.5253 88.4592C20.2293 84.8699 21.7555 81.2007 23.1181 77.4739C23.416 79.809 23.4694 82.1694 23.2879 84.5174C22.7276 94.5748 18.9432 104.245 18.9812 114.349ZM113.038 96.4839C112.195 96.6253 110.79 96.7593 109.948 96.8281C111.053 96.1707 114.317 94.9184 112.26 93.793C111.626 93.5618 110.945 93.8916 110.305 93.9937C107.649 94.4301 104.369 94.4071 101.682 94.1871C102.662 93.3845 103.952 92.2284 104.908 91.3977C105.416 90.9563 105.908 90.789 105.337 90.1299C104.329 89.1933 102.528 89.8831 101.363 90.2947C98.1506 92.0917 94.523 94.0409 91.0748 95.4236C91.0387 94.9413 91.061 94.3177 90.5953 93.9937C89.2289 93.3508 88.223 93.5387 86.7691 93.3676C85.0747 93.114 83.5685 92.8256 81.8904 92.3782C80.7929 91.5424 80.1236 89.0778 78.3685 89.3533C79.9229 85.4479 77.5538 81.3733 76.6637 77.6338C75.5531 73.8068 74.9695 69.8322 74.9537 65.853C74.9428 59.4821 71.2467 54.5938 65.9061 51.3247C63.8007 49.9052 62.3869 46.4525 59.7803 45.761C59.4488 44.491 59.4287 43.9332 59.1376 42.6536C58.9915 42.286 58.8829 40.2915 58.5153 40.3594C58.1101 38.3837 56.0446 37.5914 54.2573 37.1776C51.9335 36.6968 48.6905 36.1144 46.6015 37.4711C45.9964 37.9738 45.7306 38.8155 45.6862 39.5674C45.4541 40.5686 44.9713 41.6059 44.4085 42.4746C43.448 42.1506 43.9916 41.5468 43.0416 41.4062C34.3677 40.1226 24.7396 46.4759 19.1118 52.6737C8.91046 63.1326 0.76094 77.4107 2.09495 92.3171C1.73618 92.2642 0.145996 92.0153 0.168947 92.517C0.246828 94.6984 0.648802 96.5178 0.759759 98.6975C0.649477 101.585 3.65425 101.933 5.82486 102.645C5.6912 111.023 8.73968 119.403 13.5111 126.29C14.6702 127.645 16.4096 132.347 18.5254 130.474C18.7748 130.183 16.8411 128.166 16.4971 127.667C15.3224 126.191 12.2107 118.88 14.4098 117.42C14.8987 118.998 19.6327 126.587 20.4765 122.28C21.5973 122.929 23.4494 123.372 24.7892 123.305C27.308 124.667 29.7589 126.139 32.1777 127.667C33.3044 129.877 34.957 131.998 36.3416 134.12C26.7596 156.218 17.4068 192.589 5.076 213.403C4.00086 214.763 9.91542 217.073 10.9601 217.572C8.96229 220.81 8.71216 224.564 7.19227 228.051C6.90277 228.004 6.61074 228.066 6.34959 228.205C4.47472 229.473 3.76722 234.011 3.66031 236.249C3.74688 237.247 3.3763 238.757 4.18514 239.492C4.07207 239.614 3.9877 239.763 3.92762 239.916C3.35841 240.358 3.42853 241.336 3.73279 241.942C4.80337 244.16 12.6286 243.954 15.1681 244.429C24.1632 245.19 31.713 245.309 40.707 244.478C41.8109 244.247 40.9761 242.528 40.431 242.061C40.6828 241.908 40.8438 241.629 40.7336 241.27C38.6889 235.432 31.299 235.827 26.8273 232.709C28.0031 232.03 27.2442 232.247 26.5055 232.511C25.7215 232.019 24.9588 231.465 24.2523 230.854C24.7949 230.519 24.5273 230.298 23.9402 230.578C23.015 229.837 22.2945 228.692 21.1159 228.333C19.9615 228.051 19.9615 227.558 19.9615 227.248C20.6485 224.489 21.399 221.661 21.7846 218.864C22.1961 219.47 25.7459 214.615 26.5055 213.403C29.4568 208.737 29.4488 204.138 31.5141 199.063C35.7552 188.011 44.4428 164.847 49.7408 154.277C62.1371 174.445 56.0993 201.722 63.7464 223.229C64.0863 223.875 64.7253 226.298 65.6105 225.599C65.9545 225.679 66.3203 225.722 66.6479 225.769C66.5533 228.12 66.3769 230.465 65.9856 232.791C65.6212 232.887 65.3115 233.078 65.151 233.412C64.5373 232.962 63.3621 239.601 63.2616 240.277C63.26 241.149 62.5069 243.092 63.1947 243.61C62.2037 244.015 62.0417 245.512 62.7388 246.281C64.8084 249.058 74.8966 248.295 78.6184 248.761C83.3248 248.644 103.014 250.404 104.381 245.946C104.652 244.928 104.187 243.643 103.239 243.252C103.618 242.368 102.71 241.515 102.155 240.895C98.879 237.493 93.8421 236.957 89.4808 235.476C89.6434 235.31 83.7878 232.314 82.5183 231.574C82.6021 230.568 80.5085 231.576 80.5027 231.574C79.5045 229.812 78.7975 227.072 78.1282 225.172C79.3634 224.789 82.3395 224.45 82.8911 223.229C84.6638 222.635 82.8856 220.068 82.5183 218.864C72.1266 192.904 81.9856 160.159 66.6479 135.657C69.4593 134.049 72.6848 130.531 69.9077 127.579C69.3519 126.87 67.9924 124.661 68.0147 125.047C67.4983 122.943 66.345 119.321 65.9856 117.194C64.6662 109.386 65.531 102.073 66.6479 94.1871C68.1985 100.121 73.5429 105.064 78.9797 107.775C81.1015 108.65 83.9033 110.454 86.2328 109.885C88.3353 109.264 92.1536 104.954 92.6036 102.885C98.7325 103.612 105.096 103.028 110.953 101.105C111.705 100.821 112.595 100.845 112.363 99.7793C112.131 98.8751 110.477 99.1057 109.767 99.2736C110.853 98.6722 113.674 98.5148 113.652 96.9425C113.616 96.6147 113.373 96.4276 113.038 96.4839Z"
    fill="white" />
  <path fill-rule="evenodd" clip-rule="evenodd"
    d="M111.418 97.974C109.459 98.8062 107.437 99.6061 105.301 99.8182C104.814 99.8669 104.808 100.633 105.301 100.585C107.075 100.413 108.854 100.249 110.604 99.9045C110.824 99.8611 111.97 99.4562 112.033 99.8395C111.781 100.757 107.169 101.694 106.144 101.881C100.071 103.38 93.9688 102.197 87.8709 102.13C87.2622 101.949 86.6363 101.959 86.05 102.147C85.7262 102.157 85.4025 102.171 85.0788 102.191C86.2661 99.6578 87.9641 97.4004 89.9752 95.4683C91.442 96.1371 95.4769 94.1265 96.991 93.4783C99.5199 92.3784 101.784 89.9822 104.747 90.471C103.319 91.7518 101.761 92.8684 100.308 94.1205C99.9357 94.4444 100.247 95.0492 100.697 95.0568C103.852 95.2735 107.014 95.2945 110.139 94.7267C112.354 94.3029 112.389 94.372 110.48 95.6043C109.471 96.2473 108.29 96.8564 107.053 96.72C106.378 96.7012 106.423 97.6571 107.053 97.7385C108.885 97.8037 110.75 97.7504 112.56 97.4432C112.178 97.6909 111.627 97.8818 111.418 97.974ZM84.6311 103.408C84.6052 103.436 84.5793 103.462 84.5534 103.488C84.5412 103.493 84.5291 103.498 84.517 103.504C84.5676 103.375 84.6173 103.248 84.6646 103.125C84.6663 103.125 84.6679 103.124 84.6695 103.124C84.6371 103.217 84.6252 103.313 84.6311 103.408ZM70.0744 143.867C79.2249 169.2 71.8764 197.656 82.4235 222.565C82.3089 222.661 82.2247 222.827 82.2191 223.004C80.8517 223.136 79.52 223.764 78.1534 224.004C74.1789 224.93 70.0887 225.122 66.0204 225.17C66.0193 225.169 66.0183 225.169 66.0172 225.168C65.9063 225.133 65.7446 225.157 65.5859 225.172C64.7258 221.82 63.426 218.576 62.7864 215.159C56.2021 171.265 62.9013 166.775 32.3217 128.7C42.1971 135.467 55.341 143.418 67.102 136.397C68.1717 138.853 69.2059 141.332 70.0744 143.867ZM79.1526 230.832C79.2999 231.227 79.4265 231.637 79.6459 231.97C75.1056 237.212 72.8382 234.589 67.3813 233.016C67.5199 230.626 67.2553 228.258 66.8325 225.904C70.4823 226.467 74.2176 226.205 77.8335 225.523C78.0066 227.346 78.5252 229.118 79.1526 230.832ZM82.5183 231.574C83.4357 232.481 84.4276 233.332 85.5381 234.007C84.8271 234.592 83.2352 235.017 83.1344 236.021C83.1507 236.928 84.6079 237.002 84.2583 236.149C84.8732 235.519 85.6505 235.069 86.3073 234.478C86.9759 234.872 87.6612 235.226 88.3599 235.552C87.7088 236.071 86.7419 236.478 86.5986 237.372C86.5481 237.809 87.0273 238.012 87.372 237.96C88.2598 237.644 88.7505 236.585 89.5476 236.076C94.3736 238.018 99.9092 239.215 103.148 243.644C103.031 243.703 102.947 243.79 102.893 243.891C101.63 243.694 100.336 244.183 99.0715 244.302C95.1602 244.888 91.2135 245.241 87.2612 245.383C80.622 245.587 73.9631 245.211 67.3745 244.402C66.4197 244.243 65.4658 243.992 64.5465 243.662C64.7301 241.359 64.9932 239.016 65.0903 236.682C65.1992 236.595 65.2635 236.443 65.2388 236.289C65.1628 235.817 65.183 235.143 65.3405 234.585C65.3649 234.547 65.3901 234.509 65.418 234.474C65.7431 234.054 66.2929 233.937 66.7995 233.968C66.8406 233.97 66.882 233.975 66.9236 233.982C66.9924 234.017 67.0589 234.06 67.122 234.11C67.1487 234.114 67.1747 234.117 67.202 234.121C67.2202 234.124 67.2365 234.129 67.2518 234.135C67.2644 234.114 67.2755 234.092 67.2866 234.069C67.6003 234.165 67.9196 234.294 68.2256 234.308C70.6836 235.381 73.1609 236.735 75.9088 236.223C78.0004 235.884 79.2179 234.086 80.7313 232.807C81.2667 232.316 82.0192 232.088 82.5183 231.574ZM103.319 244.9C109.642 249.498 72.2555 247.556 70.2031 247.338C68.2783 247.162 62.2812 247.358 63.3866 244.222C63.7192 244.327 64.0948 244.231 64.3115 244.011C71.0915 248.035 95.9012 247.723 103.319 244.9ZM48.408 155.498C47.9787 156.316 47.5238 157.119 47.1019 157.94C47.0032 158.133 46.9061 158.325 46.8099 158.518C46.6793 158.713 46.5495 158.908 46.4212 159.102C44.0681 162.715 42.7865 167.117 40.8368 171.892C35.9816 183.783 31.3716 197.989 27.8887 208.085C26.6015 210.867 25.1827 213.605 23.4027 216.109C23.0084 216.87 22.0235 217.488 21.987 218.356C21.9764 218.366 21.9657 218.377 21.955 218.387C21.8953 218.446 21.8357 218.504 21.7758 218.563C20.8485 218.078 18.2284 218.064 17.3121 217.758C13.3664 216.987 9.55246 215.565 6.07403 213.555C15.3061 194.285 24.6635 167.028 32.2865 146.694C32.8011 145.431 33.3103 144.167 33.8242 142.904C34.5814 141.044 35.4271 139.196 36.0874 137.299C36.2935 136.707 36.4456 136.072 36.4253 135.443C40.6765 141.67 45.1307 147.798 48.8686 154.354C48.7725 154.757 48.591 155.15 48.408 155.498ZM20.9206 220.797C20.219 222.949 19.4693 225.109 18.9309 227.308C18.9076 227.409 18.9024 227.504 18.9112 227.592C18.9056 227.606 18.9001 227.621 18.8946 227.636C18.8014 227.88 18.6781 228.089 18.7099 228.322C13.3943 230.647 14.3504 233.424 8.81407 229.271C8.63013 229.166 8.43506 229.061 8.23298 228.971C8.24184 228.948 8.24985 228.923 8.25584 228.896C8.38452 228.319 8.46821 227.736 8.50711 227.147C8.70877 226.279 8.90173 225.408 9.12077 224.545C9.40992 223.713 9.70304 222.883 9.98266 222.051C10.0114 221.982 10.04 221.913 10.0691 221.844C10.493 220.843 10.9029 219.768 10.9915 218.684C11.0442 218.473 11.0935 218.263 11.1413 218.052C11.2753 218.011 11.3683 217.917 11.4198 217.803C14.5916 218.901 17.9254 219.797 21.2959 219.84C21.163 220.157 21.0329 220.473 20.9206 220.797ZM21.4937 228.745C22.4932 229.008 23.0201 229.991 23.6513 230.782C22.9245 231.283 22.3253 232.007 21.9092 232.791C21.6331 233.046 21.3752 233.318 21.1462 233.613C20.8603 234.041 21.512 234.543 21.8605 234.163C22.5856 233.211 23.3262 232.23 24.3342 231.548C24.8203 232.079 25.3392 232.579 25.8781 233.059C25.3906 233.407 24.9673 233.83 24.6317 234.327C23.9935 234.803 23.4766 235.346 23.7414 235.776C23.9985 236.191 24.4915 235.965 24.7315 235.666C25.2599 234.93 25.8479 234.197 26.5937 233.674C28.3135 235.133 30.2679 236.268 32.3908 237.029C35.2005 238.072 38.8789 238.908 39.9588 242.074C35.2121 242.132 30.4572 242.189 25.7113 241.939C18.7769 241.711 11.9156 240.635 5.01408 240.068C5.05863 240.01 5.07322 239.934 5.02167 239.867C4.87933 239.68 4.66797 239.596 4.51973 239.418C4.7083 238.65 4.35393 237.499 4.48673 236.795C4.46438 234.723 5.20459 230.493 5.24923 230.416C5.7321 229.589 6.67322 229.033 7.56076 229.63C7.62218 229.671 11.4539 233.361 14.0096 232.593C14.7477 232.353 15.3605 231.875 16.0026 231.458C17.7304 230.344 19.5443 229.414 21.4937 228.745ZM40.8928 244.106C28.9506 244.79 16.8955 244.637 5.06747 242.752C4.67909 242.639 4.32953 242.452 4.05616 242.206C4.03017 241.908 4.01144 241.609 4.00258 241.31C3.99811 241.156 3.91196 240.638 4.07809 240.542C4.17167 240.488 4.23486 240.419 4.27359 240.343C8.5038 241.788 13.136 242.029 17.557 242.609C25.1194 243.233 32.8506 243.904 40.4003 243.263C40.6057 243.528 40.8378 243.789 40.8928 244.106ZM4.31846 239.846C4.36609 239.913 4.4205 239.975 4.48228 240.026C4.42304 240.022 4.36372 240.017 4.3044 240.012C4.2949 239.976 4.28202 239.94 4.26524 239.906C4.28406 239.886 4.30168 239.866 4.31846 239.846ZM9.72848 219.852C9.80121 219.537 9.88516 219.207 9.96127 218.871C9.90769 219.293 9.80062 219.711 9.66486 220.124C9.68587 220.034 9.70747 219.943 9.72848 219.852ZM31.6873 128.347C31.6995 128.337 31.7106 128.327 31.7204 128.314C31.8162 128.375 31.9124 128.436 32.0081 128.498C32.314 129.109 32.6594 129.713 33.0268 130.312C32.5786 129.663 32.1438 128.994 31.6873 128.347ZM20.4642 121.787C20.4452 121.603 20.4144 121.416 20.3778 121.232C20.4787 121.382 20.589 121.525 20.7067 121.658C20.8077 121.773 20.9155 121.88 21.0287 121.982C20.8419 121.913 20.6541 121.847 20.4642 121.787ZM20.4858 122.223C20.4873 122.125 20.4839 122.025 20.4767 121.924C20.5803 121.992 20.6846 122.059 20.7901 122.124C20.6862 122.15 20.5846 122.182 20.4858 122.223ZM19.044 110.098C18.8152 112.663 18.554 115.307 19.2096 117.83C16.4995 113.412 13.0713 109.89 12.4537 104.48C12.6462 104.426 12.8251 104.346 12.9742 104.232C14.3763 104.895 14.6173 102.856 14.8245 101.913C15.3841 99.917 16.0535 97.9534 16.5644 95.944C17.907 95.3535 15.2106 95.1033 14.8188 95.0916C14.8347 95.0787 14.8502 95.065 14.8656 95.0501C16.4488 93.1935 17.2122 90.7006 18.3563 88.5611C20.0602 84.9051 21.5864 81.1676 22.949 77.3717C24.273 88.4514 20.1638 99.1838 19.044 110.098ZM16.5524 120.37C15.8827 119.467 15.3172 118.481 14.8822 117.445C14.8179 117.292 14.6713 117.11 14.4763 117.137C13.3707 117.284 13.0068 118.338 13.027 119.335C13.5161 123.052 15.1972 126.601 17.359 129.64C10.4129 122.572 7.92006 112.626 6.1757 103.172C7.97397 103.668 9.7428 104.375 11.6068 104.572C12.6963 113.422 19.3486 116.071 19.5676 122.496C19.2527 123.834 16.8925 120.817 16.5524 120.37ZM82.8872 93.0364C82.8709 93.0405 82.855 93.0461 82.8398 93.0552C82.8259 93.0634 82.8125 93.0722 82.7987 93.0805C82.7735 93.0437 82.7471 93.0077 82.7193 92.9733C82.7753 92.9943 82.8311 93.0158 82.8872 93.0364ZM90.7072 95.4023C90.4867 95.4364 90.273 95.4327 90.0793 95.3678C90.1235 95.3255 90.1668 95.2822 90.2114 95.2404C90.244 95.2098 90.3248 95.1247 90.4244 95.0313C90.4752 95.1836 90.5741 95.3193 90.7072 95.4023ZM113.902 96.7732C113.865 96.4394 113.623 96.2487 113.287 96.306C112.444 96.4501 111.604 96.5546 110.763 96.6246C111.867 95.955 114.247 94.6169 112.19 93.4706C111.556 93.235 110.802 93.4836 110.162 93.5875C107.506 94.0321 104.811 94.2181 102.123 93.9941C103.103 93.1764 104.117 92.4003 105.073 91.5543C105.581 91.1047 106.158 90.5054 105.586 89.834C104.579 88.88 102.356 89.5826 101.191 90.0019C97.9785 91.8323 94.8818 93.7779 91.4339 95.1863C91.3976 94.695 91.5642 94.0996 91.0985 93.7696C89.7323 93.1147 88.0514 93.3062 86.5975 93.1319C84.9031 92.8736 83.3972 92.4941 81.719 92.0383C80.6215 91.187 80.4585 88.9338 78.7034 89.2145C80.2578 85.2367 77.3824 81.3435 76.4925 77.5346C75.3818 73.6363 74.7983 69.5881 74.7825 65.5348C74.7721 59.0468 71.0753 54.0657 65.7352 50.7367C65.6454 50.6632 65.5567 50.588 65.4676 50.5133C65.2367 50.2706 65.0108 50.0216 64.7902 49.7647C64.3252 49.2235 63.8752 48.6681 63.4032 48.1327C63.1885 47.7984 62.9611 47.4733 62.6953 47.1763C62.46 46.886 62.1962 46.624 61.858 46.4185C61.8317 46.4025 61.804 46.3885 61.7772 46.3731C61.2136 45.9887 60.5763 45.7205 59.9024 45.5873C59.5835 44.3612 59.2439 43.1407 58.967 41.9044C58.8401 41.5936 58.6756 39.3397 58.3344 39.5902C57.906 40.673 58.297 50.4712 60.3869 49.1913C60.5927 51.7397 60.633 55.4015 57.8182 56.5279C52.8859 58.0617 46.5405 47.0501 44.4988 43.3261C45.0624 43.5432 45.5406 42.2343 45.7801 40.8876C45.8803 40.5688 45.9623 40.2437 46.0294 39.9165C46.101 39.5669 46.2033 39.1992 46.1216 38.8471C46.0949 38.7318 46.0059 38.6553 45.9022 38.623C45.8645 38.4103 45.8008 38.2687 45.7076 38.231C45.6328 38.3972 45.5726 38.5702 45.52 38.7468C45.5158 38.7536 45.511 38.7596 45.5071 38.767C45.3609 39.0472 45.3456 39.3684 45.2848 39.6769C45.231 39.8933 45.172 40.1073 45.0966 40.3138C44.9054 40.8393 44.6346 41.3076 44.3707 41.7842C43.8625 41.2346 43.0614 40.9569 42.3049 40.8712C41.575 40.7884 40.8291 40.7834 40.0953 40.7601C39.3903 40.7377 38.6321 40.7093 37.9461 40.8872C37.9121 40.896 37.9058 40.9293 37.9191 40.954C22.7611 41.7709 7.36075 64.3985 3.62093 76.9529C2.19643 81.8594 1.39774 87.0425 1.92635 92.1476C1.5675 92.0937 -0.0226214 91.8403 0.000244126 92.3512C0.0781219 94.5731 0.480083 96.7695 0.591035 98.9897C0.480758 101.931 3.48551 102.285 5.65596 103.011C5.52231 111.544 8.57085 120.08 13.3419 127.094C14.501 128.475 16.7221 132.664 18.838 130.756C19.0872 130.46 19.0305 130.107 18.725 129.881C18.2261 129.513 17.872 128.916 17.5281 128.408C16.3533 126.904 12.7166 119.548 14.2407 118.06C15.0077 119.696 17.7906 124.597 19.9739 123.515C20.3022 123.226 20.4431 122.835 20.4776 122.405C20.5637 122.426 20.6504 122.446 20.7374 122.464C21.4994 123.138 23.7362 124.135 24.5458 124.065C24.8161 124.198 25.086 124.331 25.3558 124.465C26.1031 124.885 26.8445 125.315 27.5813 125.752C28.1647 126.139 28.764 126.496 29.3731 126.837C29.7258 127.054 30.0772 127.274 30.4279 127.495C30.6999 128.2 31.1763 128.876 31.5511 129.486C31.7849 129.867 32.0469 130.339 32.3605 130.752C32.7057 131.31 33.091 131.841 33.4862 132.338C34.0088 132.995 34.662 133.573 35.1256 134.273C35.6436 135.054 35.5704 135.909 35.2977 136.768C35.0147 137.66 34.6099 138.518 34.2508 139.381C33.8624 140.314 33.474 141.248 33.0857 142.181C32.3305 143.996 31.5753 145.811 30.8202 147.626C30.389 148.662 29.9652 149.701 29.5479 150.743C29.4051 151.1 29.275 151.459 29.1519 151.822C21.2774 170.285 12.878 195.639 4.29719 213.448C3.44956 214.549 7.55507 216.246 9.82306 217.16C9.83318 217.191 9.84204 217.222 9.85124 217.253C9.51188 217.983 9.34322 218.843 9.14713 219.607C8.90093 220.564 8.64924 221.521 8.39198 222.475C8.13455 223.431 7.87755 224.392 7.63117 225.356C7.29916 226.203 6.96495 227.047 6.61311 227.876C6.59935 227.911 6.58501 227.946 6.57092 227.981C6.11833 228.007 5.72253 228.198 5.42132 228.5C5.38613 228.511 5.35204 228.534 5.32386 228.57C3.59891 230.877 3.02634 233.899 2.88164 236.718C2.9623 237.563 2.63805 239.239 3.29727 239.904C3.13451 240.094 3.04296 240.337 2.99647 240.604C2.59586 241.099 2.68024 241.961 2.95403 242.517C4.00163 245.579 27.6789 245.694 31.6838 245.654C34.9498 245.595 38.1938 245.403 41.4457 245.1C41.9498 244.993 42.0495 244.571 41.9578 244.099C42.0576 243.539 41.8532 242.809 41.4101 242.403C41.5052 242.251 41.54 242.057 41.4723 241.833C39.4277 235.886 31.8693 236.288 27.3977 233.113C27.4589 233.077 27.5135 233.044 27.5644 233.013C27.6625 232.979 27.7612 232.947 27.8608 232.918C28.3303 232.784 28.1263 232.042 27.6589 232.188C27.2969 232.3 26.9488 232.441 26.6197 232.609C25.9965 232.186 25.3913 231.724 24.8228 231.223C24.9913 231.117 25.1622 231.016 25.3339 230.915C25.5812 230.87 25.8369 230.846 26.1026 230.844C26.4409 230.842 26.5344 230.507 26.4034 230.287C26.4302 230.271 26.457 230.256 26.4837 230.239C26.4447 230.233 26.4036 230.23 26.3613 230.23C26.3015 230.162 26.2155 230.113 26.1026 230.102C25.3652 230.03 24.6752 230.202 24.0596 230.533C23.3312 229.818 22.6674 228.96 21.6865 228.656C22.4745 228.368 22.8437 227.498 21.8467 227.246C21.4075 227.207 20.9568 227.37 20.5321 227.55C21.1437 225.049 21.6037 222.491 21.9695 219.95C22.0738 219.968 22.1771 219.979 22.2784 219.982C22.6911 219.992 22.9687 219.678 23.1687 219.305C23.191 219.302 23.2131 219.298 23.2342 219.295C23.9835 218.98 24.3308 218.117 24.8483 217.531C26.4673 215.302 27.8293 212.889 28.988 210.392C33.2468 198.179 39.5973 177.862 44.7414 166.328C46.3886 162.634 47.8592 159.269 49.5704 155.601C61.9663 176.145 55.9287 201.355 63.5755 223.261C63.9075 223.904 64.525 226.272 65.3784 225.719C65.3835 225.722 65.3883 225.726 65.3943 225.73C65.5541 225.82 65.7143 225.93 65.8884 225.989C65.9703 226.017 66.0435 225.989 66.0949 225.936C66.172 226.246 66.1546 226.607 66.1695 226.91C66.1896 227.322 66.2005 227.735 66.2053 228.147C66.2145 228.965 66.1941 229.781 66.1404 230.597C66.0641 231.29 65.9752 231.983 65.867 232.674C65.4631 232.748 65.0908 232.954 64.8222 233.288C64.4279 233.778 64.2885 234.405 64.1943 235.013C64.1714 235.161 64.1524 235.307 64.1427 235.45C63.6385 237.38 63.1538 240.195 63.0909 240.627C63.0892 241.515 62.3362 243.494 63.024 244.022C62.0329 244.434 61.8711 245.959 62.5679 246.742C64.6376 249.571 74.7255 248.794 78.4471 249.268C83.1532 249.149 104.107 250.941 105.474 246.401C105.746 245.364 105.28 244.056 104.332 243.657C104.711 242.757 103.804 241.888 103.248 241.256C99.9726 237.791 95.1758 236.61 90.8147 235.102C90.9772 234.932 91.9623 234.318 91.8335 234.158C91.1168 234.19 90.4217 234.418 89.7704 234.731C88.913 234.416 88.061 234.081 87.2302 233.697C89.5961 231.754 88.2133 232.353 86.5753 233.382C86.395 233.288 86.2141 233.194 86.033 233.1C86.0509 233.021 86.0326 232.935 85.9601 232.867C85.7308 232.653 85.4321 232.567 85.1511 232.437C84.8491 232.297 84.5559 232.137 84.2738 231.961C83.7522 231.635 83.3136 231.118 82.7682 230.847C82.6849 230.806 82.5995 230.782 82.5138 230.771C82.1614 230.453 81.3089 230.755 80.9113 231.047C80.9048 231.044 80.8991 231.041 80.8933 231.039C79.8951 229.244 79.151 227.33 78.4818 225.395C79.7169 225.005 82.4964 224.859 83.0479 223.615C84.8207 223.01 83.5338 220.327 83.1665 219.101C72.7752 192.658 82.6811 161.207 67.3439 136.249C70.1078 134.639 73.1981 130.792 70.6627 127.805C70.5916 127.667 70.5139 127.531 70.4352 127.401C70.0543 126.77 69.6441 126.16 69.2698 125.525C69.2507 125.444 69.2337 125.362 69.2221 125.278C69.2 125.125 69.1039 125.049 68.9903 125.031C68.6144 124.341 68.2803 123.634 67.9636 122.915C66.0076 113.695 65.4809 104.247 66.7839 94.8758C68.3344 100.92 73.3717 105.475 78.8083 108.236C80.9301 109.127 83.7318 110.965 86.0612 110.385C88.1636 109.752 91.982 105.363 92.4318 103.255C98.5605 103.996 104.924 103.401 110.781 101.441C111.533 101.152 112.998 100.714 112.765 99.6285C112.534 98.7076 111.435 98.9026 110.724 99.0736C111.811 98.4611 113.923 98.3747 113.902 96.7732Z"
    fill="#2B2B2B" />
  <path fill-rule="evenodd" clip-rule="evenodd"
    d="M58.4382 12.2241C48.7275 11.8704 39.4486 18.384 36.3245 27.5905C36.0975 28.3127 36.8039 28.9873 37.5168 28.8652C36.7877 32.5288 38.381 37.4601 42.5313 37.9798C43.3814 38.0869 44.2359 38.0252 45.0872 38.1031C45.8459 38.1725 49.9766 40.4916 51.5233 41.035C54.7798 42.1703 62.9744 41.9624 66.2342 41.035C66.3529 41.3044 68.8845 30.9428 69.461 27.7302C69.6712 26.3383 67.7502 25.3078 67.8919 23.8734C68.0738 22.0309 70.2332 19.7844 69.5717 18.0304C67.8278 13.5659 62.767 12.3202 58.4382 12.2241Z"
    fill="white" />
  <path fill-rule="evenodd" clip-rule="evenodd"
    d="M53.6155 4.10839C54.0517 4.1446 54.4905 4.20607 54.9216 4.28691C56.232 4.07302 57.5879 4.31049 58.8586 4.72228C61.8345 5.68647 64.699 7.36056 66.9417 9.54579C68.0959 10.6708 69.0401 11.9668 69.6214 13.4742C69.9167 14.2388 70.0829 15.0548 70.131 15.8725L70.1364 15.9715C70.1499 16.2428 70.156 16.5681 70.1235 16.8904C70.2274 17.5409 70.3199 18.1967 70.3269 18.8546C70.3302 19.1594 70.3104 19.4637 70.2733 19.7659L70.286 19.7946C70.2322 20.1554 70.1679 20.5148 70.0947 20.8722L70.0763 20.8959C70.0663 20.9686 70.0547 21.0411 70.0439 21.1136C70.004 21.2973 69.9624 21.4806 69.9183 21.6633C69.8228 22.0588 69.7171 22.4517 69.6032 22.8423C69.5833 22.9108 69.6024 22.9647 69.6398 23.0002C69.5568 23.2975 69.4661 23.5925 69.3655 23.8844C69.4148 24.1398 69.4647 24.3951 69.5176 24.6496C69.7935 25.9734 70.0272 27.3056 70.3411 28.6218C70.9773 31.2929 71.9442 33.9211 72.21 36.6671C72.4167 38.7968 72.0733 41.1252 70.747 42.865C69.6037 44.3639 67.8841 45.2489 66.027 45.4847C65.1386 45.5984 64.2273 45.5462 63.3583 45.3222L63.2636 45.2973C62.8282 45.1803 62.2745 44.9972 61.8699 44.7024C61.4311 44.5483 61.0169 44.2637 60.7671 43.9858C60.4262 43.606 60.0542 42.9567 60.147 42.417C59.6399 42.4582 59.1294 42.47 58.6274 42.4683C57.3904 42.4658 56.1425 42.3681 54.9529 42.0094C53.8914 41.6894 52.6545 41.1547 52.0267 40.1896C51.9972 40.1442 52.0462 40.0785 52.0976 40.0962C52.6047 40.2738 53.0789 40.5138 53.602 40.6494C54.1167 40.7825 54.6314 40.9079 55.1621 40.9627C56.1997 41.0694 57.2529 41.055 58.294 41.0038L58.6513 40.9853C59.7653 40.9257 60.9166 40.8408 61.9585 40.4246C62.3673 40.2614 62.7456 40.0336 63.0906 39.7628L63.1448 39.7197C63.3296 39.5698 63.5203 39.4435 63.7143 39.324C63.7422 39.2886 63.77 39.2532 63.7979 39.217C64.2391 38.652 64.7133 38.1071 65.1107 37.5101C65.9005 36.3253 66.2051 35.0941 66.2464 33.6811C66.2897 32.1896 66.2947 30.696 66.3125 29.2041L66.319 28.7068C66.3418 27.0007 66.3451 25.2888 66.4767 23.5869C66.5374 22.7962 66.6237 22.0092 66.7564 21.2279L66.7856 21.0606L66.9999 19.8556C67.0514 19.5653 67.0816 19.2662 67.1474 18.9772C67.0734 18.8559 66.9877 18.7392 66.8884 18.628C66.7969 18.5256 66.7039 18.4261 66.6111 18.3273L66.5442 18.2684C66.3913 18.1322 66.2599 18.0023 66.1368 17.8149L66.1071 17.7686C65.9749 17.6094 65.8502 17.4428 65.74 17.2598L65.7197 17.2243C65.6922 17.1898 65.6648 17.1553 65.6364 17.1213C65.548 17.0153 65.4554 16.9151 65.3596 16.8192C65.0237 17.4668 64.5486 18.0277 63.876 18.3784C63.6327 18.5052 63.336 18.3965 63.2563 18.1267C63.055 17.4457 62.7494 16.8123 62.345 16.2388C61.6698 17.3603 60.599 18.2375 59.3372 18.6655C59.0219 18.7725 58.7442 18.4424 58.8183 18.1475C59.046 17.2414 59.0913 16.3199 58.9575 15.4089C58.4812 15.7486 57.99 16.0685 57.4856 16.3651C56.3632 17.231 55.1739 18.0103 53.8658 18.5699C53.5635 18.6992 53.1087 18.4819 53.246 18.0944C53.3617 17.7682 53.4567 17.4365 53.5176 17.0959L53.5311 17.0171C53.5315 17.0148 53.5317 17.0124 53.532 17.01C50.5024 21.181 43.1555 25.2004 42.5916 25.2391L42.5763 25.2392C42.9285 25.575 43.2127 25.9898 43.3987 26.4665C43.594 26.9672 42.7976 27.1852 42.5916 26.7065L42.5851 26.6904C42.2682 25.8781 41.4846 25.2959 40.632 25.1582C40.1166 25.2516 39.6295 25.4996 39.2971 25.8757C38.6432 26.6159 38.6373 27.5085 39.0837 28.3506L39.1492 28.4733C39.3908 28.9232 39.6453 29.374 39.7815 29.8681C39.9477 30.4744 39.822 31.0891 39.9308 31.6946L39.9367 31.7267C39.9883 31.9959 40.0997 32.3021 40.421 32.2285C40.4458 32.2227 40.4698 32.2151 40.4937 32.2069C40.5614 32.2608 40.6429 32.3053 40.7445 32.3349C40.9932 32.4072 41.2681 32.3721 41.5156 32.3137C41.7547 32.2573 41.9869 32.1688 42.2104 32.0652C42.2352 32.1261 42.2504 32.1899 42.2519 32.2512C42.2595 32.5645 42.1296 32.8221 41.9296 33.0318C42.2486 33.4343 42.5211 33.8773 42.8282 34.2882C43.2695 34.8777 43.7209 35.4545 44.201 36.0128C44.7005 36.5947 45.2447 37.1446 45.8092 37.6642C46.2049 38.028 46.8588 38.417 47.1069 38.945C47.392 39.0334 47.6342 39.2515 47.7228 39.6103C47.884 40.2604 47.9312 41.7837 47.8046 42.4448C47.6789 43.0999 47.1997 43.5083 46.6698 43.8536C46.523 43.9496 46.3568 43.9395 46.2218 43.8679C46.1028 43.9833 45.9686 44.0894 45.8151 44.1837C45.2481 44.5332 44.5891 44.6603 43.9361 44.7336C43.0543 45.0148 42.1034 45.0889 41.1635 44.9138C40.8564 44.95 40.5493 44.9828 40.2413 45.0098C37.0907 45.2835 33.8879 45.0502 30.815 44.3016C29.4051 43.958 28.0737 43.3336 26.8333 42.5315C24.6954 41.149 23.7906 37.2687 25.0311 33.559L25.1293 33.2665C25.6883 31.6092 26.2911 29.9607 27.0991 28.4146L27.1956 28.2307C27.9383 26.8205 28.7553 25.4119 29.8404 24.2353C30.3838 23.6467 31.0149 23.1119 31.7279 22.7381C31.9986 22.5962 32.3146 22.4979 32.6234 22.3863L32.6297 22.3092L32.6364 22.2321C32.6567 21.9851 32.6826 21.7384 32.716 21.4923C32.8407 20.5721 33.0167 19.6654 33.2667 18.7702C33.5171 17.8738 33.8249 16.9924 34.1952 16.1382C34.813 14.7131 35.5889 13.3612 36.4845 12.0926C36.5485 11.9616 36.6134 11.8311 36.6798 11.7016C37.435 10.2287 38.4129 8.82412 39.6743 7.73698C41.1222 6.48899 42.8662 5.71426 44.6862 5.17027C46.5736 4.60691 48.5429 4.22123 50.5097 4.09155C51.545 4.02334 52.5819 4.02249 53.6155 4.10839ZM39.8118 27.7696C40.7594 27.1507 42.0503 27.575 42.5304 28.5806C42.8772 29.309 41.7305 29.7191 41.5491 28.9932C41.3686 28.2656 40.5931 27.7444 39.8481 27.8555C39.7967 27.8639 39.7646 27.7999 39.8118 27.7696Z"
    fill="#2B2B2B" />
  <path fill-rule="evenodd" clip-rule="evenodd"
    d="M54.6198 31.3661C56.0661 31.1909 57.4681 31.6328 58.882 31.8556C59.6286 31.9731 60.376 32.0609 61.1315 32.0935C61.2835 32.1002 61.4355 32.104 61.5876 32.1071C61.6017 31.9735 61.6767 31.8509 61.839 31.7774C62.1717 31.6268 62.438 31.559 62.8033 31.5735C63.1378 31.5867 63.4734 31.621 63.8026 31.6811C64.4006 31.7905 65.0012 32.0388 65.4386 32.4702C66.4508 33.4683 66.2968 35.0716 65.5146 36.1588C63.8987 38.4053 60.9493 38.5096 58.4233 38.4802L58.1902 38.4772C55.8902 38.4444 52.5996 38.7866 51.5547 36.175C51.1704 35.2146 51.2238 34.1014 51.6943 33.1803C52.2554 32.0816 53.4367 31.5094 54.6198 31.3661ZM61.8041 35.1065L61.7835 35.1074C60.7231 35.1481 59.6628 35.1768 58.6018 35.1955C58.6336 35.4675 58.666 35.7395 58.703 36.0109C58.7321 36.2244 58.7632 36.4377 58.7957 36.6507C58.8094 36.7409 58.8597 36.881 58.8455 36.9703L58.8404 37.0057C58.8948 37.0302 58.9443 37.0698 58.981 37.1273C58.9938 37.1472 59.0031 37.1673 59.0124 37.1872C59.8361 37.1937 60.7226 37.1777 61.5623 37.0283L61.564 37.0101C61.5793 36.903 61.6239 36.831 61.6831 36.7815C61.7422 36.4401 61.7368 36.0763 61.7596 35.7376C61.7738 35.5271 61.7892 35.3169 61.8041 35.1065ZM57.7915 35.21C57.0272 35.223 56.2625 35.2329 55.4983 35.2236L55.1514 35.2183C55.2247 35.6105 55.3044 36.0015 55.3707 36.3963C55.4398 36.8079 55.0768 37.0695 54.7627 37.0589C54.798 37.0647 54.8332 37.0707 54.8685 37.0756C55.8499 37.2142 56.869 37.1774 57.865 37.1763C57.8114 36.8642 57.8331 36.512 57.8251 36.2514L57.8236 36.2111C57.8083 35.8772 57.7976 35.5436 57.7915 35.21ZM52.5998 35.138C52.6263 35.342 52.6779 35.5416 52.7551 35.7274C53.0814 36.5126 53.8293 36.879 54.6208 37.0333C54.4834 36.986 54.3744 36.8723 54.3469 36.6776C54.2783 36.1934 54.2536 35.7011 54.2517 35.2094C53.7002 35.2043 53.1449 35.1925 52.5998 35.138ZM64.6804 34.9703C64.2878 35.0628 63.8314 35.0204 63.4462 35.0379C63.0852 35.0542 62.7241 35.0685 62.3632 35.0831C62.3802 35.329 62.3968 35.5749 62.4148 35.8206C62.438 36.1383 62.4402 36.474 62.5012 36.7903C63.2276 36.5429 63.8785 36.1461 64.3668 35.5116C64.4885 35.3535 64.5974 35.168 64.6804 34.9703ZM54.4538 32.6544C53.8001 32.8088 53.1815 33.1351 52.849 33.7321C52.6516 34.0864 52.5648 34.5063 52.5815 34.92C53.134 34.8558 53.696 34.8315 54.2553 34.8113C54.2571 34.7108 54.2595 34.6104 54.2625 34.5102L54.2711 34.2534C54.2864 33.7636 54.2941 33.1485 54.4538 32.6544ZM57.8372 32.7141L57.5494 32.6818C56.7502 32.591 55.9513 32.4955 55.152 32.5502C55.0363 32.5582 54.9189 32.5708 54.8012 32.588C54.9425 33.0968 54.9306 33.6944 54.9896 34.1981C55.0124 34.3928 55.0412 34.586 55.0731 34.7784L55.2118 34.7719C56.0695 34.7255 56.928 34.697 57.7863 34.663C57.7863 34.5021 57.7872 34.3412 57.7897 34.1802L57.7929 34.0192C57.8027 33.608 57.7761 33.1447 57.8372 32.7141ZM61.8509 32.6488C61.0137 32.7837 60.1486 32.8124 59.3262 32.8134C58.9978 32.8138 58.6695 32.7936 58.3414 32.7646C58.3628 32.939 58.3739 33.1153 58.39 33.2873C58.4224 33.6347 58.4594 33.9816 58.4997 34.3282L58.5356 34.6314C59.5906 34.5837 60.6456 34.5321 61.7003 34.4787L61.8492 34.4707L61.8909 33.8879C61.9193 33.4992 61.9505 33.1107 61.9947 32.7238L61.9616 32.7119C61.9227 32.696 61.8858 32.674 61.8509 32.6488ZM62.2144 32.7935C62.2605 33.343 62.2861 33.8947 62.32 34.4452L63.0153 34.4081C63.1312 34.4018 63.2471 34.3954 63.363 34.3887C63.8136 34.3628 64.3926 34.2266 64.838 34.3536C64.8721 33.9495 64.7563 33.5557 64.3908 33.2842C63.7492 32.8072 62.9322 32.9771 62.2144 32.7935ZM59.8387 27.8812C60.8741 27.2894 63.4721 26.6845 63.6366 28.5443C63.7123 29.4001 63.0748 30.1092 62.3304 30.4257L62.3024 30.4373C61.6042 30.7238 60.3667 31.0473 59.7625 30.4261C59.2596 29.9091 59.9266 28.982 60.5515 29.4056C60.8726 29.6232 61.5485 29.4629 61.9069 29.3593L61.9293 29.3528C62.316 29.2394 62.8315 28.8763 62.6716 28.4011C62.5301 27.9808 61.928 27.904 61.551 27.8903C60.9881 27.8702 60.4404 28.0006 59.8826 28.0431C59.7943 28.0498 59.767 27.9222 59.8387 27.8812ZM64.1279 24.8907C65.5332 24.8251 66.4074 26.3565 66.0843 27.6113C66.0284 27.8278 65.7857 28.0403 65.5515 28.016L65.4925 28.0106C65.4625 28.0077 65.4324 28.0039 65.4047 27.9963C65.1823 27.9348 64.9829 27.7039 64.9991 27.4646L65.0034 27.3949C65.0362 26.8021 64.9718 26.1192 64.266 25.9756C63.6673 25.8538 63.3331 26.4289 63.3261 26.9582C63.3247 27.0522 63.2189 27.1178 63.1356 27.0673C62.7029 26.8045 62.6279 26.2816 62.7932 25.8314C63.0027 25.2608 63.527 24.9188 64.1279 24.8907ZM53.6989 25.2192C54.7216 24.8786 55.825 25.4227 56.3202 26.3251C56.4939 26.3753 56.6674 26.5089 56.6432 26.7136C56.6084 27.008 56.5559 27.1936 56.3514 27.4168C56.0315 27.766 55.4324 27.5875 55.2994 27.1576L55.2938 27.1382C55.1427 26.5825 54.5298 26.2158 53.9715 26.4103C53.3193 26.6375 53.3382 27.325 52.8807 27.7255C52.827 27.7726 52.7625 27.7801 52.698 27.749C52.2121 27.5147 52.2995 26.8093 52.4727 26.4056C52.6999 25.8759 53.1415 25.4047 53.6989 25.2192ZM52.3061 22.1197C53.1348 21.2757 55.2958 20.459 55.8627 22.0175C55.9707 22.3144 55.7408 22.7146 55.4312 22.7762C54.9241 22.8769 54.4742 22.6572 53.9705 22.6966C53.5627 22.7287 53.1373 22.8647 52.8113 23.1168C51.9083 23.8151 51.7097 24.9961 51.0805 25.8848C51.0499 25.9281 50.9904 25.9099 50.9848 25.8589C50.8415 24.565 51.3984 23.0439 52.3061 22.1197ZM63.1141 21.2889C63.664 21.095 64.2868 21.1116 64.8396 21.2836C65.3965 21.4569 65.9077 21.7859 66.3016 22.2159C66.4803 22.4111 66.6457 22.6265 66.7783 22.8558C66.8488 22.9773 66.9228 23.2284 67.0029 23.3778C67.4361 23.6275 67.6213 24.1963 67.2334 24.601L67.216 24.6188L67.1641 24.6701C66.9556 24.8761 66.6412 24.9654 66.3566 24.8831C65.7197 24.6992 65.6424 24.1985 65.4219 23.6672C65.2763 23.3162 65.0268 23.0056 64.7243 22.7775C64.0094 22.2386 62.8372 22.0669 61.9765 22.3208C61.9306 22.3344 61.8768 22.2761 61.9095 22.2339C62.0726 22.023 62.1666 21.8499 62.3849 21.6798C62.6066 21.5072 62.8485 21.3825 63.1141 21.2889Z"
    fill="#2B2B2B" />
  <path fill-rule="evenodd" clip-rule="evenodd"
    d="M68.2665 26.5624C68.0279 27.2105 67.6647 27.8851 67.2207 28.4306C65.424 29.949 63.6782 29.1083 62.7918 27.0503C62.4549 25.5959 63.3492 24.0293 64.2968 22.9594C65.6654 21.5904 67.8989 22.3089 68.5281 23.9363C68.5664 24.1472 68.5895 24.3575 68.6005 24.5672C68.5874 25.2485 68.5052 25.8309 68.2665 26.4782M50.9967 25.2554C53.3636 22.4455 57.7915 22.2953 57.6786 26.6199C57.1701 32.0939 48.6085 30.7503 50.9967 25.2554ZM69.0109 22.9114C68.928 22.7712 68.8359 22.6355 68.7354 22.5058C68.6983 22.4837 68.677 22.288 68.5405 22.2735C66.7157 20.2644 63.51 21.4043 62.3517 23.4063C62.1402 23.6594 61.9677 23.9558 61.8404 24.2689C60.6992 24.0599 59.3687 24.1005 58.3072 24.5307C57.2547 21.7879 54.0683 21.543 51.9685 22.7149C50.6625 23.356 49.8156 24.6986 48.5454 25.4361C45.5595 25.6506 42.3549 24.9829 39.4228 25.7304C37.1105 26.2102 39.0435 27.3788 39.4313 26.5989C42.1956 25.7838 45.4706 26.4726 48.3408 26.289C48.6393 26.7928 49.2116 27.2051 49.7819 27.1875C50.398 32.6376 58.3616 31.7339 58.6363 26.889C58.9479 26.3973 59.3354 25.9268 59.8901 25.6204C60.1025 25.5765 60.3076 25.5195 60.4951 25.4313C60.8155 25.3861 61.3093 25.5217 61.6041 25.788C62.614 31.8356 68.432 31.1313 69.4718 25.8333C69.4925 25.8122 69.5502 25.7333 69.5946 25.6065C69.9505 25.1369 70.8218 24.9623 70.6826 24.1695C70.5586 23.3765 69.5552 23.3859 69.0109 22.9114Z"
    fill="#2B2B2B" />
  <path fill-rule="evenodd" clip-rule="evenodd"
    d="M208.376 206.81C206.501 206.468 205.826 208.645 205.745 210.021C204.99 209.684 204.203 209.301 203.519 208.86C202.395 208.142 201.181 206.902 199.854 206.935L199.793 206.599C199.725 206.008 198.522 206.401 198.198 206.609C197.677 206.513 197.106 205.99 196.757 205.512C198.161 204.993 198.777 204.973 198.555 203.172C198.555 202.894 198.485 202.634 198.562 202.386C196.885 194.925 196.558 187.461 196.347 179.856L197.208 179.683C199.935 187.302 202.527 195.297 204.852 203.443C204.91 203.809 205.119 203.813 205.323 203.615C206.029 203.653 206.711 203.622 207.429 203.518L207.419 203.485C207.636 203.487 207.851 203.476 208.049 203.462C208.218 204.555 208.414 205.681 208.376 206.81ZM207.245 202.653C207.293 202.63 207.834 202.391 207.895 202.363L207.909 202.498C207.676 202.588 207.441 202.676 207.205 202.755L207.183 202.681L207.245 202.653ZM184.11 218.97C183.196 219.19 182.227 219.468 181.329 219.729L181.681 218.879C179.655 213.485 178.106 207.789 176.978 202.222C176.18 198.597 175.352 194.849 174.245 191.256C172.847 185.615 169.831 179.811 163.457 179.328C163.457 179.328 163.35 179.144 163.35 179.144L163.224 179.027C162.913 175.071 162.492 171.129 162.085 167.343C165.496 168.279 168.433 167.974 171.693 167.949C172.75 167.803 174.156 168.109 174.999 167.628C174.999 167.628 175.556 167.063 175.556 167.063C179.257 181.683 180.22 196.749 181.542 211.554C181.587 211.89 181.843 212.004 182.112 211.865C182.423 212.205 183.07 212.074 183.513 212.124C183.142 214.343 183.579 216.987 184.658 218.836L184.11 218.97ZM175.422 217.722C173.141 215.805 170.439 214.854 167.617 214.961C166.627 213.494 165.227 211.736 163.655 211.073C162.919 208.612 163.009 205.913 163.165 203.596C163.529 201.228 162.713 200.952 160.782 201.125C161.612 200.123 161.538 199.881 161.369 198.565C161.921 198.651 163.59 199.741 163.818 198.97C164.095 197.47 164.284 196.165 164.394 194.984C164.453 193.974 163.737 192.913 163.826 191.885C163.563 189.243 163.832 186.286 162.614 183.852C167.549 184.511 168.751 189.891 170.028 193.855C172.656 202.018 174.492 210.354 176.447 218.584L175.422 217.722ZM160.222 199.033C160.105 199.296 160.088 199.546 160.047 199.802C157.726 199.376 158.139 202.783 157.922 204.647C157.486 204.502 157.178 204.457 156.722 204.547C156.655 203.933 157.055 203.66 155.652 203.592C149.114 203.714 146.627 210.546 144.378 215.774C143.333 218.288 141.851 218.679 139.647 218.636C138.168 218.664 136.657 219.064 135.146 219.016C140.638 208.202 142.636 192.671 140.406 179.198H140.407C140.272 178.345 140.11 177.457 139.944 176.598C144.651 176.648 150.128 176.761 154.661 176.565C155.258 177.113 155.994 177.358 156.745 177.363C156.749 177.961 156.813 178.619 156.87 179.215C152.633 179.11 147.932 179.175 143.641 179.237C147.932 179.299 152.655 179.375 156.876 179.254C156.869 180.396 156.984 181.435 158 181.988C158.389 184.878 157.887 187.898 158.238 191.26C158.52 193.547 158.288 197.925 160.377 198.651L160.222 199.033ZM130.393 216.609L130.23 216.896C129.884 216.778 129.672 216.804 129.335 217.065C126.883 218.389 123.36 217.16 120.679 217.073C121.189 215.4 121.209 212.733 118.887 212.7C119.657 205.369 119.138 198.098 119.257 190.773C123.485 189.968 123.343 189.534 119.236 188.78C119.21 184.683 119.18 180.538 119.182 176.403C119.182 174.413 119.163 172.473 118.981 170.548C119.364 169.758 119.278 168.948 119.476 168.114C120.309 167.648 121.753 168.19 122.271 167.387C124.515 167.354 126.799 167.333 129.065 167.212C129.271 167.219 129.347 167.028 129.436 166.889C129.83 166.785 130.496 167.022 130.824 166.854C130.824 166.854 131.267 166.283 131.267 166.283C133.112 170.046 134.544 174.481 135.39 178.972C132.723 179 129.671 178.992 126.92 178.979C129.599 179.177 132.49 179.296 135.453 179.338C137.751 190.756 136.105 206.776 130.393 216.609ZM126.705 222.025C121.15 229.014 112.079 231.343 104.631 225.725C84.7551 210.624 85.6468 159.439 111.751 152.359C111.042 155.035 108.584 166.142 113.028 166.459L113.014 166.423L113.241 166.298C114.174 166.62 115.486 166.173 115.792 167.467C115.804 167.469 116.294 167.512 116.323 167.515C116.005 169.123 116.097 170.791 116.002 172.425C115.627 172.282 115.16 172.197 114.753 172.231C113.221 172.159 113.26 170.487 113.319 169.323C113.376 168.754 113.204 168.102 113.232 167.568C113.248 167.197 113.223 166.907 113.082 166.6C112.61 168.106 112.165 170.08 112.445 171.612C112.857 173.044 114.681 173.727 116.001 173.026C115.944 178.177 115.928 183.289 115.899 188.396C115.032 187.941 114.24 188.229 113.343 188.472C112.211 188.71 110.868 188.373 109.733 188.647C109.602 188.087 109.073 187.401 108.517 187.854C107.809 187.86 107.419 188.516 107.068 189.95C106.849 191.087 106.977 192.604 108.058 193.151C108.669 193.48 109.28 193.246 109.581 192.573C109.752 192.641 110.024 192.85 110.218 192.782C112.024 192.345 113.972 191.902 115.883 191.489C115.982 198.703 115.662 205.864 116.259 213.097C113.532 213.327 108.338 212.598 107.151 214.994C106.06 215.464 105.276 216.545 105.279 217.633C105.243 219.396 107.203 219.989 108.735 220.009C114.933 220.478 121.073 221.314 127.319 221.302L126.705 222.025ZM137.938 167.028C141.881 167.566 145.84 167.562 149.791 167.737C148.502 176.482 150.304 171.401 154.312 176.317C149.732 176.312 144.202 176.257 139.896 176.364C139.227 173.068 138.324 169.922 137.201 166.917L137.938 167.028ZM168.46 122.651C170.198 125.076 172.482 127.194 175.045 128.642C172.831 128.805 170.578 128.954 168.396 129.26C168.152 127.16 167.905 125.059 167.658 122.96L168.46 122.651ZM243.751 214.418C243.546 212.353 241.207 211.592 239.497 212.161C238.536 209.612 235.254 209.922 233.141 208.798C228.9 206.747 224.56 202.735 219.651 204.314C219.212 203.106 218.719 201.947 218.188 200.935C218.396 201.04 218.662 201.029 218.849 200.843L218.851 200.844C219.033 200.635 219.21 200.402 219.234 200.144C219.871 199.43 220.138 198.301 220.302 197.459C219.524 194.803 218.58 192.258 217.739 189.629C214.475 179.605 212.179 170.293 209.716 160.707C206.977 153.579 206.242 134.875 196.322 134.839C196.29 134.341 196.273 133.767 196.114 133.314C195.83 133.702 195.713 134.276 195.674 134.769C191.428 134.701 187.758 135.489 184.958 136.703C179.594 136.466 174.894 136.785 168.724 137.513C169.471 136.225 168.972 134.774 168.902 133.354C177.847 133.776 186.939 132.952 195.842 132.46C197.279 132.334 198.804 132.413 200.19 132.053C201.695 131.701 203.123 129.82 201.589 128.387C200.551 127.743 199.261 128.092 198.123 128.035C192.357 128.034 186.456 128.147 180.906 128.351C187.74 124.878 191.188 117.624 195.275 111.438C197.351 108.058 198.901 105.214 200.156 102.485C200.37 102.031 200.43 101.539 200.301 101.289C200.253 101.039 199.478 101.012 199.269 100.95C204.952 92.0766 213.682 95.9834 218.349 90.8421C217.465 90.8821 216.581 90.9235 215.697 90.9659L215.494 90.1187C217.162 89.3683 218.742 88.203 220.468 86.4489C220.468 86.4452 220.466 86.4413 220.464 86.4373C217.602 87.3316 214.934 87.9826 212.309 88.4276L211.992 87.619C214.351 86.0844 216.45 83.9974 218.062 81.5826C215.055 82.9098 212.226 84.7952 209.106 86.0032L208.637 85.2687C210.415 83.5695 214.403 81.0224 213.268 78.6439C208.836 80.7746 204.792 83.5326 200.523 85.9401C200.519 83.9867 201.894 80.9148 201.059 79.2862C200.178 78.1996 199.762 79.1241 199.316 79.9934C199.316 79.9934 197.462 83.1063 197.009 83.8681C195.306 86.8941 192.915 89.8851 192.97 93.4626C191.49 92.7528 190.327 95.33 189.365 96.7373C186.663 101.325 177.518 108.526 175.499 109.507C167.277 102.065 168.502 89.4628 159.762 82.434C156.959 79.5776 154.888 79.2466 151.583 78.1968C150.798 78.0083 149.909 77.3434 149.206 77.9814C148.163 77.1175 147.148 74.328 146.718 73.1363C146.452 71.9834 146.008 69.1458 145.386 68.6137C144.765 68.0817 134.643 67.6383 133.755 67.9043C132.867 68.1704 133.222 70.2986 133.222 70.2986L132.287 74.1574L132.207 74.1349C132.192 74.1405 132.067 74.2369 132.052 74.2477C131.386 74.2428 130.747 73.9286 130.108 73.929C129.434 73.9433 128.889 74.4022 128.373 74.7951C127.45 75.4918 126.496 76.2123 125.374 76.6472C112.366 80.7977 110.647 87.045 106.755 99.0481C103.552 99.1388 100.856 98.7391 98.0681 98.5839C97.0869 98.7084 97.4059 100.612 97.4358 101.7C97.3432 104.376 99.3462 104.1 101.333 104.077C102.647 104.092 103.969 104.223 105.269 104.069C103.869 110.524 101.053 120.616 104.135 126.638C106.63 131.357 108.747 132.253 110.766 132.391C111.284 136.908 110.769 140.953 110.862 145.321C81.0922 153.335 79.7222 199.846 93.0292 222.493C103.714 240.999 123.809 239.985 133.77 221.567C136.178 222.879 140.954 222.788 144.134 222.501C146.637 222.354 147.458 221.294 148.352 218.973C149.351 216.716 150.301 214.489 151.318 212.233C152.288 209.846 154.228 207.104 157.727 207.211C157.711 208.617 157.449 210.202 158.402 211.318C154.852 212.523 156.986 218.139 158.017 220.762C153.143 227.403 154.785 239.043 161.603 243.861C172.865 251.411 183.736 237.131 180.446 226.191C180.985 226.446 181.986 226.799 182.417 226.243C182.592 226.113 182.35 225.538 182.307 225.351C189.859 224.907 197.269 224.02 204.758 223.319C204.504 230.267 211.403 237.115 218.326 236.96C227.36 237.379 232.773 225.489 230.04 217.79C233.495 217.693 237.002 217.404 240.604 216.916C242.574 216.72 243.829 216.254 243.751 214.418Z"
    fill="white" />
  <path fill-rule="evenodd" clip-rule="evenodd"
    d="M132.901 70.6535C132.687 70.7235 132.711 70.2651 133.01 70.3113C133.258 70.3499 133.35 70.683 133.395 70.8944L133.402 70.9285C133.817 72.869 133.339 74.9191 132.365 76.6223C132.12 77.0207 131.866 77.5674 131.382 77.674C131.612 79.3154 131.927 80.9434 132.317 82.5538C133.711 83.0415 135.022 83.7643 136.412 84.2645C139.088 85.2149 141.952 85.469 144.768 85.6708C146.705 85.7763 148.697 85.691 150.537 85.0279C151.315 84.8157 151.975 84.1213 152.791 84.1234C152.244 82.6293 151.637 81.1571 150.964 79.7118C148.871 79.7112 147.29 77.6828 146.669 75.8801C146.442 75.1619 146.376 74.409 146.233 73.673L146.179 73.3981C146.132 73.1532 146.09 72.9068 146.071 72.6585C146.065 72.5663 146.201 71.7567 146.17 71.6414C146.166 71.675 146.122 71.6483 146.102 71.6466C146.047 71.5785 146.095 71.4419 146.204 71.4471C146.381 71.4419 146.469 71.8259 146.509 71.9305C147.358 73.6709 147.681 75.8099 149.197 77.1165C149.953 76.6396 150.885 77.2641 151.654 77.4555L151.877 77.5259C155.472 78.6574 157.136 78.9316 160.024 81.8055C164.957 85.6496 166.411 90.5557 168.353 96.2073L168.468 96.5144C170.334 101.49 171.841 104.577 175.556 108.653C176.904 108.025 185.28 101.334 188.155 97.4029L188.241 97.2847C189.069 96.1579 190.954 92.2146 192.497 92.5893C192.636 89.1224 194.945 86.2526 196.573 83.3325L198.884 79.452C199.107 79.0777 199.32 78.5617 199.636 78.2574C200.173 77.7405 201.066 78.2159 201.387 78.7399C202.271 80.228 201.158 83.0722 200.994 84.8107C204.957 82.5182 208.815 80.0106 212.91 77.9569C213.255 77.7911 213.684 77.9179 213.794 78.3161C214.486 81.1744 210.712 83.5669 208.89 85.277C211.871 84.0805 214.667 82.3773 217.552 80.9513L217.745 80.8566C218.136 80.6536 218.666 81.0854 218.389 81.5004C216.756 83.9504 214.646 86.0743 212.184 87.6758C214.931 87.2103 217.634 86.5275 220.302 85.693C220.736 85.5573 221.046 86.1328 220.738 86.4414L220.592 86.5881C219.134 88.0505 217.524 89.3541 215.625 90.2084C216.512 90.1657 217.399 90.1242 218.287 90.0842C218.728 90.0647 218.874 90.6039 218.624 90.8956C217.637 92.0421 216.31 92.7862 214.893 93.2751C208.964 94.8676 203.986 94.7311 199.987 100.323C200.988 100.503 200.842 101.618 200.526 102.317L200.506 102.36C199.078 105.468 197.388 108.45 195.598 111.363C191.765 117.051 188.617 123.887 182.549 127.535C186.467 127.402 190.386 127.325 194.307 127.293C195.393 127.283 196.479 127.278 197.565 127.277L198.38 127.277C199.457 127.277 200.878 127.051 201.807 127.719C203.591 129.153 202.199 131.796 200.223 132.173C198.978 132.508 197.633 132.457 196.355 132.555C196.599 133.024 196.659 133.603 196.69 134.107C201.178 134.386 203.798 137.903 205.021 141.924C207.475 149.624 209.355 157.496 211.389 165.314L211.62 166.221C213.583 173.928 215.647 181.612 218.11 189.177C218.949 191.797 219.906 194.381 220.677 197.02C220.746 197.255 220.695 197.47 220.578 197.641C220.432 198.672 219.773 200.402 218.664 200.675C219.119 201.569 219.528 202.537 219.876 203.467C224.88 202.137 229.083 206.065 233.289 208.087C235.407 209.195 238.496 208.885 239.687 211.329C241.608 210.849 243.948 211.917 244.143 214.063C244.312 216.272 242.431 216.911 240.585 217.043C237.265 217.494 233.927 217.789 230.578 217.899C232.469 224.269 229.335 233.542 222.872 236.161C214.37 239.745 204.493 232.409 204.275 223.49C197.135 224.166 189.993 225.008 182.837 225.445C183.133 226.463 181.782 226.885 181.006 226.587C182.898 235.169 177.313 246.066 168.015 246.031C156.034 245.95 151.191 229.298 157.466 220.387L157.406 220.232C156.408 217.655 154.53 212.351 157.702 210.824C157.033 209.802 157.201 208.516 157.223 207.361C154.284 207.494 152.765 209.604 151.674 212.096C150.667 214.327 149.708 216.58 148.716 218.818C147.781 221.244 146.859 222.468 144.11 222.629L143.828 222.65C140.76 222.872 136.681 223.056 133.912 221.824C127.341 233.833 113.554 240.957 101.62 232.348C77.1229 215.456 78.0255 152.152 110.371 144.654C110.384 143.447 110.402 142.241 110.423 141.034C110.354 140.265 110.369 139.498 110.438 138.719L110.453 138.4C110.542 136.433 110.562 134.444 110.32 132.489C106.394 132.171 104.017 127.153 103.621 126.394C100.595 120.591 103.394 109.854 104.653 104.244C103.432 104.341 102.315 104.192 101.121 104.206L100.707 104.213C98.4877 104.248 96.9971 104.155 96.941 101.39C96.9437 100.267 96.4439 98.1849 97.9221 97.8362C98.5898 97.7024 99.3782 97.9391 100.047 98.0049C102.158 98.1756 104.271 98.3052 106.388 98.2921C108.225 93.0326 109.663 87.4046 113.161 82.952C116.133 79.1847 120.886 77.7012 125.158 75.9209C126.318 75.4723 127.297 74.6952 128.296 73.9442L128.365 73.8907C128.861 73.5099 129.401 73.1884 130.045 73.1712C130.671 73.1544 131.254 73.4382 131.867 73.4796C131.975 73.3991 132.116 73.3487 132.238 73.3828C132.564 72.4806 132.806 71.5429 132.925 70.5924L132.915 70.5486C132.896 70.4762 132.889 70.4945 132.895 70.6047C132.923 70.6047 132.927 70.6447 132.901 70.6535ZM168.014 215.97C166.665 215.97 165.369 216.256 164.165 216.779C163.885 218.332 165.163 220.51 165.593 222.074C165.61 222.72 165.728 223.378 165.879 224.017C165.986 225.882 166.776 227.591 167.142 229.356C167.21 229.691 167.723 229.55 167.655 229.215C167.334 227.632 166.905 226.075 166.536 224.504C166.709 224.608 167.003 224.467 166.939 224.209C166.802 223.653 166.803 223.091 166.825 222.527C175.963 223.681 175.428 238.86 166.106 239.069C160.056 239.221 156.684 230.933 160.104 225.97C159.543 224.764 158.935 223.58 158.359 222.371C153.461 230.559 158.591 244.513 168.014 244.257C183.211 243.828 183.217 216.402 168.014 215.97ZM222.879 217.754C224.683 221.114 224.491 225.629 222.203 228.726C219.615 232.247 213.968 231.835 211.433 228.456C210.431 227.252 209.659 225.776 209.613 224.184C209.61 223.832 209.837 223.211 209.531 222.935L207.571 223.145C206.592 223.249 205.612 223.352 204.632 223.453C207.471 231.034 214.449 237.9 222.968 234.103C228.247 231.193 230.203 224.242 229.433 218.57C229.39 218.299 229.488 218.077 229.648 217.927C227.392 217.979 225.126 217.99 222.879 217.754ZM130.332 160.217C115.275 136.42 95.4398 151.827 90.3624 173.668C86.5495 188.707 87.9027 207.067 95.864 220.378C105.213 236.231 120.992 236.212 130.332 220.378C137.401 208.561 139.26 192.76 136.919 178.84C136.92 178.965 136.876 179.09 136.786 179.19C139.538 195.9 136.442 216.575 123.181 226.727C113.392 233.946 101.946 228.044 96.4505 218.155C85.8146 200.224 86.6338 167.346 104.081 153.868C109.061 150.321 114.91 149.647 120.304 152.183C120.359 151.848 120.567 152.218 120.648 152.35C129.929 157.274 134.516 167.849 136.637 178.375C136.765 178.446 136.851 178.555 136.891 178.676C136.601 176.975 136.248 175.302 135.834 173.668C134.536 168.617 132.685 164.092 130.332 160.217ZM164.446 230.256C163.644 229.743 164.026 231.28 164.305 231.565C164.505 231.848 164.903 231.609 164.765 231.297C164.593 231.046 164.898 230.285 164.446 230.256ZM111.078 152.68C88.5522 159.003 87.0774 200.561 97.9746 217.244C102.991 226.229 113.183 231.887 122.156 225.28C123.627 224.241 125.016 222.951 126.315 221.423C120.546 221.376 114.788 220.604 109.031 220.169L108.9 220.158C108.028 220.082 107.134 220.041 106.331 219.665C103.895 218.473 104.559 215.413 106.772 214.345C107.984 211.958 113.336 212.491 115.73 212.364C115.192 205.503 115.472 198.601 115.394 191.724C113.682 192.096 111.976 192.486 110.272 192.899C110.069 192.948 109.864 192.919 109.691 192.833C109.275 193.489 108.46 193.563 107.806 193.231C106.484 192.564 106.333 190.826 106.583 189.543L106.609 189.432C106.827 188.525 107.263 187.174 108.326 187.104C108.996 186.687 109.725 187.179 109.97 187.834C111.092 187.647 112.11 187.943 113.205 187.723C113.93 187.576 114.662 187.205 115.407 187.461C115.433 182.751 115.45 178.04 115.5 173.33C114.093 173.801 112.376 172.827 111.968 171.421C111.692 170.486 111.936 169.413 112.065 168.474L112.09 168.298C112.173 167.709 112.277 167.094 112.477 166.523C109.309 166.086 109.957 159.453 110.198 157.109C110.493 155.572 110.677 154.237 111.078 152.68ZM163.391 179.424C161.984 179.411 160.979 180.933 161.791 182.144C163.426 183.988 165.788 182.326 168.321 187.297C172.524 197.245 174.463 208.006 177.078 218.446C178.393 219.813 179.192 221.55 180.158 223.173C180.515 223.783 180.623 224.644 181.271 225.03C181.396 225.089 181.496 225.099 181.595 225.084C180.252 224.34 180.533 220.666 180.81 219.33L180.798 219.331C180.676 219.339 180.23 219.437 180.434 219.226L180.652 219.156L180.869 219.087L180.885 219.032C177.106 210.267 176.284 200.48 173.576 191.351L173.335 190.541C172.399 187.421 171.319 184.158 168.951 181.841C168.861 181.836 168.769 181.803 168.684 181.732L168.599 181.657C167.202 180.449 165.484 179.474 163.572 179.65C163.496 179.656 163.484 179.539 163.555 179.52C163.599 179.508 163.644 179.499 163.689 179.489C163.59 179.469 163.49 179.447 163.391 179.424ZM156.671 204.197C156.268 204.357 155.857 204.245 155.402 204.256C154.925 204.267 154.462 204.346 154.004 204.476C146.477 206.652 147.587 217.954 142.107 219.265C140.737 219.531 139.358 219.326 137.984 219.142C137.108 219.173 136.302 219.146 135.463 218.965C135.069 219.756 134.656 220.528 134.226 221.281C135.225 221.125 136.242 221.166 137.252 221.148C139.625 221.185 141.998 221.088 144.355 220.793C145.194 220.698 145.968 220.465 146.464 219.737C147.585 217.845 148.352 215.742 149.36 213.786L149.492 213.487C150.935 210.245 152.843 206.355 156.902 206.346C156.925 206.112 157.108 205.924 157.315 205.866C157.338 205.529 157.361 205.192 157.386 204.854C157.152 204.629 156.979 204.339 156.671 204.197ZM106.576 215.229C106.137 215.967 106.183 217.262 106.97 217.773C107.503 218.076 108.264 218.043 108.856 218.085L109.874 218.16C110.214 218.185 110.553 218.21 110.892 218.237L111.401 218.278C116.256 218.665 121.106 219.087 125.955 219.527L125.977 219.519C126.044 219.495 126.15 219.461 126.15 219.461L126.225 219.426C126.333 219.374 126.203 219.421 126.19 219.428L126.189 219.428C126.73 219.08 127.312 219.479 127.44 220.006C127.925 219.357 128.395 218.673 128.849 217.953C128.21 218.14 127.532 218.168 126.871 218.126C126.417 218.642 125.601 218.453 124.994 218.441C120.705 218.098 116.427 217.604 112.152 217.125C111.066 216.998 109.979 216.871 108.893 216.743L108.648 216.721C107.688 216.63 106.533 216.446 106.576 215.229ZM199.946 206.83C199.496 207.319 198.634 207.452 198.059 207.738C197.396 208.069 196.763 208.469 196.194 208.945C193.621 211.328 191.001 215.116 186.972 213.442C186.125 213.115 185.336 212.594 184.807 211.847C184.572 211.963 184.299 211.741 184.06 211.71C184.267 212.822 184.354 213.877 184.667 214.962C184.803 215.438 184.956 215.908 185.146 216.365C185.34 216.833 185.691 217.306 185.678 217.829C188.731 217.178 191.817 216.759 194.912 216.38C196.073 216.338 198.036 215.714 198.998 216.307C200.137 217.015 199.626 218.327 200.234 218.814C201.161 219.266 202.359 218.925 203.363 218.898C207.737 218.526 212.151 218.28 216.518 217.914C219.14 217.434 217.424 216.63 218.554 215.986C218.549 211.958 213.702 212.383 210.859 212.027C210.002 212.369 209.135 212.684 208.258 212.972C207.825 213.114 207.526 212.535 207.826 212.231L208.435 211.612C208.019 211.519 207.606 211.413 207.198 211.292C206.622 211.553 206.017 211.747 205.454 212.035L205.349 212.091C204.965 212.298 204.512 211.876 204.742 211.484C204.92 211.18 205.061 210.869 205.171 210.545C204.633 210.302 204.11 210.024 203.613 209.707L203.514 209.643L201.9 210.544C201.584 210.72 201.108 210.423 201.248 210.043C201.413 209.52 201.902 209.298 202.274 208.947C202.232 208.857 202.208 208.739 202.228 208.647C201.501 208.012 200.867 207.201 199.946 206.83ZM221.46 218.97L221.408 218.978C221.412 218.984 221.414 218.989 221.418 218.995L221.44 218.992L221.419 218.995C221.433 219.017 221.453 219.033 221.478 219.039C221.473 219.024 221.468 219.008 221.465 218.993L221.46 218.97ZM162.543 167.613L162.673 168.825C163.018 172.056 163.346 175.271 163.602 178.506C163.636 178.537 163.664 178.574 163.688 178.614L164.452 178.752C165.785 178.995 166.89 179.247 168.099 180.162C172.127 182.315 173.477 187.056 174.713 191.123C177.421 200.04 178.353 209.458 182.014 218.082C182.121 218.331 182.115 218.554 182.041 218.734C182.674 218.551 183.312 218.382 183.953 218.225C183.092 216.568 182.72 214.086 182.96 212.234L182.866 212.231C182.567 212.223 182.206 212.222 181.967 212.038C181.495 212.17 181.096 211.721 181.051 211.295L181.049 211.274C179.744 196.665 178.797 181.906 175.264 167.624C174.805 168.09 173.975 167.983 173.357 168.01L173.324 168.012C172.767 168.038 172.21 168.06 171.652 168.078L171.41 168.081C168.465 168.123 165.431 168.336 162.543 167.613ZM140.876 179.332C142.911 192.117 141.111 207.464 135.815 218.243C137.095 218.217 138.341 217.874 139.62 217.878C141.894 217.915 143.004 217.451 143.918 215.287C146.115 210.283 148.309 203.858 154.504 202.908L154.794 202.88C155.66 202.799 157.114 202.71 157.115 203.735C157.227 203.722 157.355 203.734 157.47 203.765C157.488 203.526 157.507 203.286 157.527 203.048L157.543 202.576C157.597 201.086 157.756 199.024 159.615 199.04C159.64 198.876 159.694 198.713 159.76 198.552C157.889 197.629 157.954 192.892 157.744 190.983C157.573 188.268 157.586 185.543 157.648 182.824C157.655 182.555 157.707 182.196 157.602 181.976C156.637 181.344 156.426 180.521 156.394 179.393C151.228 179.524 146.046 179.385 140.876 179.332ZM163.335 184.183C163.786 185.2 163.817 186.375 163.948 187.471C164.056 188.775 164.133 190.08 164.209 191.386L164.226 191.685C164.252 192.141 164.289 192.584 164.456 193.02L164.494 193.122C164.69 193.646 164.839 194.132 164.785 194.71C164.659 196.062 164.446 197.429 164.199 198.763C163.854 199.894 162.569 199.173 161.837 198.909L161.845 198.984C161.894 199.473 161.892 199.961 161.62 200.338C163.639 200.273 163.783 201.724 163.554 203.343L163.54 203.556C163.4 205.838 163.353 208.229 163.975 210.435C165.024 210.888 165.785 211.738 166.516 212.579C166.945 213.079 167.483 213.609 167.821 214.199C170.669 214.148 173.385 215.159 175.657 217.068L175.388 215.93C173.631 208.468 171.91 200.987 169.558 193.684C168.367 190.23 167.438 185.187 163.335 184.183ZM119.577 178.336C119.583 181.585 119.606 184.832 119.627 188.08C120.603 188.218 121.545 188.499 122.453 188.906C123.029 189.163 122.765 189.943 122.294 190.121C121.436 190.446 120.54 190.633 119.644 190.82C119.551 197.88 120.02 204.975 119.32 212.009C121.425 212.324 121.578 214.696 121.18 216.361C123.511 216.567 125.861 217.155 128.198 216.744C128.887 216.706 129.326 215.93 129.957 216.075C135.464 206.422 137.26 191.383 135.032 179.461C129.87 179.377 124.689 179.06 119.577 178.336ZM118.165 191.131C117.677 191.234 117.189 191.338 116.701 191.442C116.629 198.419 116.923 205.427 116.372 212.387C116.578 212.376 116.535 212.513 116.359 212.525C116.349 212.643 116.337 212.762 116.326 212.881C116.293 213.234 115.81 213.233 115.777 212.881C115.77 212.809 115.764 212.738 115.757 212.666C114.827 212.87 113.882 213.015 112.944 213.172C111.563 213.513 108.243 213.291 107.994 215.087L109.069 215.181C112.693 215.497 115.878 215.795 119.472 216.174C119.652 215.071 120.506 213.442 119.159 212.742C118.964 212.926 118.59 212.844 118.558 212.493C117.815 205.402 118.269 198.25 118.165 191.131ZM224.976 205.502C220.682 203.787 218.45 205.786 215.01 207.982C213.233 208.986 210.809 209.422 209.021 208.256C208.2 208.303 207.816 207.402 207.884 206.682C207.883 206.633 207.882 206.584 207.882 206.535C206.882 207.137 207.501 208.807 207.288 209.793C209.329 210.433 211.453 210.59 213.573 210.743C216.32 210.804 219.633 212.153 219.956 215.219L219.964 215.313L220.175 215.306C220.175 214.996 220.371 214.677 220.76 214.646L220.785 214.644C226.46 214.287 232.195 214.306 237.841 213.73C238.52 213.537 238.762 213.09 238.58 212.427C238.142 210.83 235.901 210.752 234.581 210.38C232.99 209.933 231.563 209.148 230.162 208.307C229.565 208.474 228.962 208.615 228.353 208.733C228.058 208.79 227.672 208.53 227.807 208.187L227.906 207.938C228.005 207.689 228.127 207.406 228.282 207.166C227.826 206.893 227.367 206.629 226.899 206.381C226.106 206.661 225.355 207.028 224.642 207.482C224.211 207.757 223.771 207.152 224.093 206.798L224.104 206.786C224.476 206.404 224.765 205.975 224.976 205.502ZM196.464 206.027C192.637 207.896 188.577 209.289 184.662 210.978L184.741 211.007C184.878 211.059 185.035 211.129 185.085 211.253C186.557 212.418 188.628 212.893 190.375 212.065C192.896 210.714 194.147 207.805 196.725 206.49C196.62 206.344 196.531 206.188 196.464 206.027ZM160.082 200.871C159.956 200.849 159.584 200.686 159.484 200.73C159.231 201.363 159.223 202.111 159.153 202.787C158.917 205.422 158.432 208.028 158.163 210.655C159.493 210.29 160.86 210.073 162.228 210.043C162.117 209.229 162.027 208.419 161.979 207.599C161.892 206.005 161.956 204.397 162.195 202.817L162.212 202.731C162.471 201.357 162.265 201.296 160.968 200.811C160.689 200.906 160.379 200.922 160.082 200.871ZM189.296 138.706C187.08 136.592 183.776 136.848 180.932 136.837C174.87 136.836 168.821 137.387 162.842 138.364C162.672 138.661 162.197 138.728 161.967 138.508C160.321 138.782 158.68 139.084 157.043 139.406C157.496 142.267 157.857 145.143 158.261 148.011L158.287 148.188C158.465 149.432 158.552 150.825 157.705 151.852C157.681 155.03 157.56 158.219 157.548 161.401C158.014 160.957 158.767 161.008 159.367 160.898C160.596 160.616 161.767 160.412 163.013 160.343C164.268 160.152 165.522 159.96 166.778 159.769C166.971 159.739 167.127 159.823 167.223 159.948C168.83 159.758 170.429 159.436 172.042 159.331L171.946 159.045C171.469 157.606 171.034 156.045 171.719 154.614C171.882 154.279 172.413 154.299 172.582 154.614C173.172 155.721 173.198 156.983 173.425 158.193C173.555 158.887 173.824 159.625 173.95 160.357C174.616 161.457 174.949 162.748 175.382 163.954C180.12 178.891 180.691 194.707 182.475 210.171C185.242 209.024 188.045 207.949 190.822 206.827C192.817 205.852 197.345 205.089 197.122 202.274C197.132 202.043 197.119 201.815 197.093 201.587C197.147 201.497 197.223 201.421 197.312 201.364C196.396 197.763 196.008 194.044 195.774 190.344C195.164 180.172 194.864 169.981 194.553 159.797L194.538 159.366C194.304 152.301 194.228 144.269 189.296 138.706ZM196.739 179.518C197.102 186.304 196.941 193.187 198.565 199.831L198.615 200.033C198.772 200.67 199.189 201.568 198.924 202.235C198.914 203.05 199.202 204.32 198.501 204.896C198.201 205.114 197.815 205.249 197.454 205.387C197.629 205.591 197.875 205.732 198.117 205.815L198.157 205.796C198.83 205.481 200.011 205.267 200.179 206.205C201.451 206.306 202.681 207.521 203.706 208.171C204.231 208.504 204.774 208.797 205.333 209.053C205.51 207.705 206.3 205.996 207.881 206.04C207.881 205.224 207.742 204.42 207.62 203.616C206.885 203.733 206.15 203.782 205.407 203.75C204.914 204.106 204.425 203.714 204.361 203.181C202.082 195.262 199.535 187.311 196.739 179.518ZM217.41 200.138C214.375 201.09 211.043 201.11 208.129 202.422C209.003 203.675 209.34 205.189 209.554 206.677C209.754 206.833 209.888 207.08 209.898 207.347C209.904 207.44 209.895 207.535 209.867 207.623C213.11 208.301 215.488 205.555 218.096 204.168C217.741 202.87 217.57 201.48 217.41 200.138ZM209.563 206.798L209.564 206.816C209.559 206.967 209.677 206.919 209.563 206.798ZM207.463 202.703C207.414 202.725 207.364 202.749 207.315 202.771C207.366 202.763 207.418 202.756 207.469 202.748C207.467 202.733 207.465 202.718 207.463 202.703ZM199.922 136.956C196.383 134.565 189.325 135.682 185.131 135.963C193.416 136.59 194.787 147.957 195.445 154.499C195.974 161.527 196.171 168.579 196.558 175.617C199.857 184.419 202.534 193.448 205.356 202.412C207.648 201.129 210.153 200.313 212.748 199.89L213.122 199.836C215.295 199.518 217.504 199.121 219.294 197.766C212.885 182.132 210.202 165.256 205.329 149.123C203.899 145.086 203.426 139.789 199.922 136.956ZM218.856 199.494C218.735 199.567 218.609 199.635 218.482 199.698C218.549 199.683 218.62 199.68 218.693 199.691C218.748 199.627 218.808 199.555 218.856 199.494ZM160.665 165.729C160.079 164.751 158.786 163.864 157.639 164.289C159.367 165.342 158.992 168.389 159.119 170.17L159.116 170.271C159.074 171.952 159.217 175.5 158.291 176.698C158.356 177.471 158.357 178.272 158.436 179.05C158.46 179.335 158.404 179.867 158.572 180.119C160.424 181.156 159.526 183.642 159.636 185.368C159.552 188.673 159.784 191.971 159.88 195.272C159.874 196.125 159.79 197.035 160.075 197.852C160.439 197.075 161.476 197.128 161.702 197.914C161.883 197.676 162.248 197.657 162.561 197.7C162.671 196.652 162.841 195.606 162.877 194.558C162.895 194.036 162.588 193.607 162.475 193.109C162.248 191.218 162.506 189.286 162.529 187.384L162.535 187.327C162.607 186.541 162.664 184.594 163.109 184.117C160.232 183.601 159.322 179.982 162.129 178.646C162.091 178.469 162.128 178.283 162.249 178.149C162.01 175.287 161.701 172.427 161.43 169.566C161.313 168.278 161.318 166.886 160.665 165.729ZM108.49 190.121C108.708 189.827 108.239 189.51 108.048 189.822C107.85 190.155 107.736 190.562 107.816 190.946C107.861 191.159 108.209 191.218 108.303 191.01C108.384 190.839 108.412 190.655 108.452 190.472C108.56 190.389 108.561 190.232 108.49 190.121ZM110.128 188.393C110.137 188.444 110.145 188.495 110.152 188.547C110.232 188.517 110.315 188.493 110.4 188.472C110.309 188.447 110.219 188.421 110.128 188.393ZM117.105 167.322C116.887 167.458 116.628 167.545 116.358 167.584C116.852 174.347 116.572 181.157 116.69 187.936C117.178 188.048 117.685 187.955 118.18 187.993C118.3 182.076 118.074 176.164 118.454 170.252C118.122 169.406 117.911 168.378 118.156 167.477C117.801 167.442 117.45 167.392 117.105 167.322ZM154.458 176.7C150.078 176.872 145.667 176.796 141.281 176.742C141.004 176.734 140.719 176.732 140.43 176.73C140.543 177.322 140.649 177.918 140.746 178.516C145.939 178.456 151.142 178.334 156.332 178.446L156.309 178.204C156.288 177.959 156.268 177.709 156.261 177.46C155.617 177.411 154.986 177.135 154.458 176.7ZM131.124 166.811C130.805 167.222 130.107 166.958 129.644 166.997C129.526 167.186 129.323 167.325 129.038 167.341C126.836 167.458 124.631 167.481 122.426 167.513C121.783 168.257 120.64 167.828 119.812 168.13C119.711 168.645 119.706 169.179 119.589 169.697C119.539 169.908 119.465 170.107 119.383 170.303C119.562 172.26 119.575 174.244 119.575 176.206C120.665 175.889 121.843 175.943 122.969 175.87C125.41 175.808 127.851 175.833 130.292 175.828C131.371 175.808 132.59 175.873 133.642 175.86C133.912 175.762 134.293 175.917 134.348 176.228C134.55 177.02 133.652 177.079 133.116 177.039C132.468 177.025 131.821 177.011 131.175 176.997C128.527 176.932 125.879 176.883 123.233 176.764C122.02 176.664 120.746 176.697 119.575 176.333L119.576 177.811C119.576 177.958 119.576 178.094 119.577 178.207C124.65 178.187 129.726 178.265 134.8 178.218C134.022 174.27 132.749 170.243 131.124 166.811ZM196.642 177.397C196.621 177.657 196.714 177.875 196.836 178.099C196.771 177.865 196.705 177.631 196.642 177.397ZM137.822 167.152C138.795 169.831 139.591 172.66 140.205 175.598C144.572 175.503 148.932 175.55 153.299 175.557C151.69 173.668 149.983 174.187 149.181 172.987C148.601 172.056 149.085 169.006 149.237 167.845C145.837 167.701 142.421 167.684 139.036 167.299C138.653 167.248 138.235 167.214 137.822 167.152ZM113.777 166.131C113.697 166.198 113.609 166.259 113.515 166.31C113.749 166.923 113.51 167.54 113.716 168.165C113.725 168.902 113.687 169.644 113.724 170.345C113.721 171.012 114.136 171.431 114.734 171.474C114.951 171.486 115.238 171.436 115.534 171.523C115.592 170.218 115.541 168.891 115.756 167.6C115.619 167.587 115.484 167.564 115.355 167.531C115.335 166.916 114.734 166.324 114.117 166.638C113.994 166.474 113.882 166.301 113.777 166.131ZM153.54 165.667C153.354 165.689 153.174 165.73 153 165.801C153.041 167.468 155.45 166.298 155.78 168.343C155.835 168.825 155.775 169.31 155.759 169.793C155.751 170.04 155.557 170.428 155.827 170.572C155.965 170.773 156.345 170.734 156.311 170.444C156.305 170.391 156.301 170.337 156.297 170.282C156.416 170.072 156.488 169.852 156.527 169.625C156.67 169.551 156.627 169.361 156.563 169.228C156.526 168.938 156.647 168.428 156.33 168.274C156.297 166.35 155.583 166.044 153.795 165.888C153.673 165.875 153.596 165.935 153.562 166.018C153.514 165.916 153.516 165.792 153.54 165.667ZM151.955 140.353C150.676 140.76 149.247 140.845 147.918 141.099C139.337 142.299 131.092 145.835 122.341 145.74C122.042 145.726 121.761 145.681 121.498 145.61C121.499 145.746 121.518 145.886 121.547 146.022C121.712 146.162 121.814 146.383 121.846 146.606C128.414 149.933 133.372 156.693 136.482 163.809C140.335 163.286 144.184 162.691 148.046 162.21L148.746 162.119L150.148 161.939C150.831 161.853 151.592 161.637 152.27 161.781C152.58 158.687 152.581 155.67 152.814 152.556C152.132 152.011 152.292 150.847 152.265 150.043C152.109 146.814 152.096 143.581 151.955 140.353ZM156.383 152.73C156.15 152.791 155.911 152.814 155.686 152.781C155.086 153.073 154.199 152.922 153.535 152.854C153.612 153.572 153.678 154.292 153.707 155.014C153.819 157.828 153.774 160.701 153.521 163.514C154.431 163.578 155.341 163.69 156.249 163.763C156.257 160.092 156.429 156.406 156.383 152.73ZM121.72 155.017C122.443 158.03 125.723 162.64 129.019 162.916C127.012 159.672 124.706 157.115 122.156 155.316C122.011 155.213 121.866 155.115 121.72 155.017ZM151.161 132.27C151.056 132.273 150.952 132.274 150.847 132.272C151.478 133.188 151.365 134.614 150.603 135.421C153.265 137.069 153.181 140.755 153.27 143.52C153.376 146.197 153.518 148.867 153.631 151.54C153.631 151.492 153.79 151.56 153.847 151.57C154.207 151.616 154.572 151.632 154.936 151.617C155.485 151.398 156.209 151.394 156.588 150.864C157.037 150.262 156.934 149.363 156.857 148.667C156.67 146.982 156.417 145.304 156.204 143.622C155.617 140.03 155.691 133.042 151.161 132.27ZM150.169 135.807C148.032 137.148 145.22 136.626 142.805 136.774C141.041 136.8 139.276 136.808 137.511 136.801C131.566 136.768 125.624 136.531 119.684 136.286L119.698 136.533C119.807 138.505 120.009 140.48 120.584 142.375C120.911 143.673 121.398 144.154 122.765 144.039C130.07 143.931 137.001 141.328 144.121 140.02C146.666 139.597 149.254 139.235 151.809 138.935L151.78 138.776C151.576 137.641 151.245 136.359 150.169 135.807ZM151.723 78.5351C151.825 78.7251 151.883 78.8962 151.838 79.0733C160.394 97.3791 158.134 118.201 162.652 137.507C162.74 137.56 162.791 137.642 162.837 137.729C164.298 137.436 165.769 137.183 167.246 136.963C167.077 136.528 167.337 136.134 167.634 135.851C167.639 135.807 167.698 135.671 167.702 135.671C167.145 128.823 166.335 121.976 165.637 115.136C165.202 110.369 164.408 105.558 164.623 100.766C164.631 100.71 164.703 100.727 164.72 100.766C165.871 104.907 166.538 111.192 167.689 119.55C175.999 129.292 180.896 130.996 188.888 119.706L189.298 119.103C193.034 113.605 196.679 108.001 199.513 101.98C195.967 101.866 194.053 98.1421 192.537 95.4101C192.281 95.2717 192.11 95.0625 191.97 94.7814C190.769 96.2776 189.819 98.1231 188.603 99.6425C185.585 103.607 178.651 108.522 178.5 108.68L178.471 108.706C178.015 109.123 176.642 110.697 176.218 110.655C174.369 112.368 170.257 104.39 169.763 102.886C168.557 99.9583 167.585 99.0583 166.539 96.0717L166.358 95.5337C164.918 91.2184 163.47 86.6725 159.864 83.6562L159.722 83.5061C157.414 81.0646 155.17 79.1599 151.723 78.5351ZM195.819 132.588C194.794 132.651 193.769 132.712 192.744 132.773L191.796 132.829C184.317 133.277 176.821 133.83 169.327 133.504C169.397 134.557 169.766 135.648 169.36 136.672C174.53 136.068 179.735 135.696 184.928 135.946C188.014 134.488 191.76 134.031 195.229 134.012C195.288 133.528 195.489 132.981 195.819 132.588ZM143.22 124.313C138.187 122.067 133.265 124.354 131.493 129.786C131.618 129.888 131.703 130.068 131.724 130.249C132.19 130.871 133.045 130.852 133.745 130.94C135.153 131.126 136.519 131.58 137.764 132.267C138.451 132.643 139.042 133.185 139.751 133.513L140.133 133.871C140.77 134.467 141.424 135.041 142.268 135.356C143.143 135.401 142.013 133.698 141.829 133.367L141.761 133.257C141.392 132.672 140.919 132.007 141.423 131.343C142.341 131.783 143.082 132.418 143.82 133.127L143.954 133.256C144.673 133.959 145.5 134.842 146.532 134.956C146.706 134.976 146.833 134.771 146.789 134.62C146.326 133.084 144.971 132.01 143.71 131.088C143.721 130.65 144.025 130.316 144.423 130.22C146.193 131.239 147.429 132.853 149.16 133.899C149.346 134.009 149.542 133.863 149.561 133.669C149.55 132.309 148.164 131.268 147.208 130.463C147.01 130.309 146.806 130.16 146.599 130.017C146.646 129.745 146.895 129.506 147.207 129.462C147.774 129.623 151.178 132.265 151.188 131.044L151.181 131.011C151.09 130.581 150.597 129.65 150.121 129.765C148.357 127.586 145.823 125.322 143.22 124.313ZM129.987 74.3842C128.208 75.4049 126.502 76.5101 124.721 77.5206C122.452 78.8206 120.014 79.8298 117.833 81.2847C111.192 86.1774 109.267 96.4898 106.851 104.011L106.509 105.471C105.125 111.393 103.047 120.827 105.555 125.654L105.572 125.692C105.885 126.356 107.375 129.049 108.142 129.527C110.39 130.929 115.092 131.406 119.178 131.131C123.068 130.951 126.898 130.207 130.694 129.424C130.781 128.117 131.421 127.025 132.094 125.96L132.164 125.85L132.242 125.734C133.194 124.336 134.268 123.203 135.842 122.586C130.586 121.013 121.933 123.037 116.074 118.92C115.606 118.591 116.014 117.895 116.522 118.154C116.827 118.31 117.137 118.453 117.451 118.586C117.175 117.589 117.896 116.995 118.326 116.129L118.344 116.095C122.043 108.632 124.954 100.243 127.535 92.6399C126.784 97.9591 125.573 103.227 123.854 108.316C125.429 109.525 126.743 111.048 128.163 112.43C129.684 114.042 131.529 115.413 132.689 117.329C132.943 117.775 132.444 118.226 132.012 118.006C130.993 117.488 130.147 116.667 129.364 115.85L129.046 115.504C127.105 113.385 125.191 111.203 123.709 108.734C122.721 111.595 121.502 113.968 120.198 116.666L120.031 117.012C119.742 117.609 119.473 118.275 118.998 118.716C119.312 119.345 120.117 119.492 120.737 119.675C125.775 121.089 131.125 119.908 136.184 121.195L136.517 121.281C136.851 121.368 137.188 121.472 137.386 121.777C141.799 121.938 146.095 123.744 149.535 126.529L149.623 126.6C151.072 127.759 152.557 129.29 152.817 131.209C152.866 131.57 152.732 132.082 152.3 132.164C153.137 132.267 153.892 132.698 154.513 133.294C148.595 112.769 131.257 96.4269 129.987 74.3842ZM148.724 132.732C148.806 132.857 148.881 132.987 148.935 133.122C148.909 133.104 148.883 133.083 148.856 133.065C148.864 132.998 148.814 132.923 148.766 132.868L148.766 132.868C148.744 132.841 148.722 132.812 148.7 132.784C148.71 132.768 148.718 132.75 148.724 132.732ZM168.048 122.594C168.278 124.545 168.507 126.495 168.734 128.446C170.352 128.233 171.982 128.104 173.611 127.984L173.521 127.928C172.697 127.413 171.937 126.811 171.225 126.153C170.442 125.429 169.695 124.647 169.008 123.832C168.671 123.432 168.351 123.019 168.048 122.594ZM129.483 101.692C129.734 103.928 131.128 105.823 132.423 107.582C132.762 108.043 131.991 108.485 131.656 108.03L131.521 107.846C130.16 105.988 128.858 104.036 128.595 101.692C128.532 101.125 129.42 101.132 129.483 101.692ZM212.79 79.4795C208.776 81.9982 204.576 84.2063 200.471 86.5708C199.968 86.8556 199.459 86.3873 199.553 85.8668C199.763 84.7119 199.971 83.5569 200.175 82.4016L200.333 81.506C200.392 81.1828 200.638 80.0166 200.403 79.5788C199.385 81.3008 198.333 83.0037 197.276 84.7025L196.123 86.5549C194.888 88.5394 193.505 90.5533 193.014 92.8642C193.314 93.1485 193.468 93.5612 193.505 93.9665C193.85 94.1046 194.086 94.489 193.992 94.8948C195.47 96.6621 196.48 99.2012 198.845 99.9441C201.528 96.0842 205.936 93.8258 210.547 93.2642L211.365 93.1211C213.363 92.7681 215.447 92.3368 217.039 91.0943C215.458 91.1704 213.878 91.2432 212.297 91.3115C211.767 91.3346 211.655 90.501 212.171 90.3902C214.468 89.8962 216.802 88.8454 218.638 87.2918C215.574 88.3719 212.359 89.013 209.118 89.2649C208.451 89.2726 208.335 88.3098 208.963 88.1218C211.82 86.9461 214.38 85.0758 216.344 82.7017L216.407 82.6257L212.291 84.7938C210.575 85.6982 208.739 86.8157 206.735 86.813C206.152 86.8121 206.023 86.0841 206.455 85.7818L207.019 85.3629C208.919 83.9474 212.519 81.1892 212.79 79.4795Z"
    fill="#2B2B2B" />
  <path fill-rule="evenodd" clip-rule="evenodd"
    d="M155.485 49.1705C156.52 48.4815 155.098 46.0461 154.611 45.3193C154.199 44.3789 153.786 43.4384 153.373 42.4979C153.454 41.7413 152.736 41.0405 151.995 41.2457C151.373 40.7668 150.298 40.9481 149.949 41.6518C143.006 38.3391 130.764 39.1889 129.802 48.6292C128.345 51.2757 126.898 53.9457 125.591 56.6703C123.91 56.7017 123.025 58.7101 123.978 60.0613C124.037 62.2034 125.388 62.42 127.202 62.3881C127.923 62.6049 128.674 62.7349 129.2 63.315C129.599 63.7527 129.862 64.2991 130.116 64.8293C131.288 67.2753 132.81 69.409 134.913 71.1462C138.187 73.7761 142.675 75.7389 146.909 74.6622C156.044 71.4425 158.307 57.3792 155.485 49.1705Z"
    fill="white" />
  <path fill-rule="evenodd" clip-rule="evenodd"
    d="M137.159 34.7484C143.094 33.5884 149.645 35.652 153.573 40.31C153.85 40.6373 153.804 41.0492 153.542 41.308C153.657 41.4079 153.769 41.5103 153.882 41.6127C154.001 41.7207 153.976 41.9283 153.868 42.0302C153.76 42.1302 153.544 42.144 153.45 42.0156L153.31 41.8272C153.241 41.7331 153.173 41.6387 153.107 41.5422C153.021 41.5702 152.938 41.6002 152.854 41.6292C154.073 42.5014 155.076 43.6384 155.743 44.9882C156.465 46.4482 156.904 47.995 157.169 49.5979C157.641 52.4571 157.622 55.3719 157.445 58.2565L157.435 58.411C157.215 61.8877 156.752 65.4137 155.17 68.5625C153.902 71.0861 151.726 73.3712 149.061 74.4023C147.526 74.9956 145.891 75.2144 144.253 75.0418C143.389 74.9513 142.53 74.7847 141.694 74.547L141.494 74.4897C140.732 74.2708 139.944 74.0203 139.303 73.5585C138.647 73.0839 139.131 72.2038 139.869 72.3387C140.758 72.5019 141.596 72.9039 142.476 73.128C143.336 73.3479 144.21 73.4778 145.1 73.4832C146.673 73.4937 148.121 73.0616 149.45 72.2314C154.534 69.0558 155.372 62.3433 155.692 56.9065C155.848 54.25 155.844 51.5534 155.323 48.9345C154.822 46.4166 153.895 43.9219 152.536 41.7388C152.216 41.8456 151.897 41.9329 151.56 41.9522C150.948 42.2912 150.234 42.2758 149.541 42.2517L149.445 42.2484C148.723 42.2223 148.003 42.1545 147.288 42.0648C144.755 41.751 142.161 41.089 139.594 41.3631L139.49 41.3747C138.433 41.4959 137.118 41.7819 136.32 42.5105C135.457 43.2967 135.962 44.8591 136.605 45.3723C137.021 45.7044 137.129 46.4234 136.559 46.6919C135.434 47.2231 132.768 46.8132 132.456 47.1182C132.082 47.4828 132.087 48.0584 132.06 48.5474L132.058 48.5799C131.972 49.9717 131.958 51.3617 132.028 52.7554C132.094 54.1029 132.306 55.458 132.316 56.8071C132.32 57.2518 131.779 57.3677 131.494 57.1138C131.438 57.0639 131.38 57.0166 131.322 56.9738C130.802 56.5776 130.201 56.397 129.554 56.2732C129.52 56.2666 129.494 56.2487 129.476 56.2255L129.468 56.2152L129.397 56.2695C129.526 56.4417 129.635 56.6354 129.719 56.8513C129.736 56.8945 129.694 56.9471 129.648 56.9171C128.767 56.3513 127.795 56.0902 126.752 56.2703C125.814 56.4319 124.95 56.9926 124.644 57.9278C124.362 58.7884 124.512 59.7972 125.05 60.532C125.846 61.6211 127.203 61.5726 128.415 61.6637C128.653 61.6818 128.914 61.8063 129.017 62.037C129.138 62.3092 129.123 62.4915 128.992 62.754C128.974 62.7915 128.95 62.8253 128.924 62.8554C129.023 62.9439 129.117 63.0402 129.209 63.1383L129.515 63.4682C129.724 63.6944 129.932 63.9225 130.132 64.1558C130.719 64.8418 131.268 65.569 131.784 66.3101L131.831 66.3793C132.434 67.2662 133.047 68.538 134.135 68.8492C134.508 68.9563 134.851 69.1537 134.948 69.5644C135.046 69.9751 134.769 70.3602 134.409 70.518C133.784 70.7917 133.017 70.4135 132.524 70.0236C131.459 69.1816 130.791 67.8452 130.16 66.6673L129.987 66.3454C129.663 65.7376 129.346 65.1231 129.08 64.4873C128.928 64.1244 128.764 63.7637 128.624 63.3959C128.583 63.2889 128.543 63.1801 128.512 63.069C128.463 63.078 128.413 63.0833 128.366 63.0843C126.897 63.1289 125.219 62.8378 124.199 61.6904C122.792 60.1089 122.717 57.3663 124.426 55.9637C124.606 55.8156 124.808 55.6869 125.025 55.5782C124.746 55.0672 124.57 54.4799 124.445 53.9298C124.261 53.1266 124.172 52.3116 124.142 51.4889C124.082 49.8107 124.338 48.1133 124.798 46.5012C126.464 40.6579 131.119 35.9288 137.159 34.7484ZM125.695 58.8367C125.464 57.1473 128.785 58.5066 129.515 58.6492L129.536 58.6532C130.373 58.7993 129.853 60.2572 129.04 59.7891L129.015 59.7743C128.576 59.5022 128.09 59.3012 127.627 59.0676L127.529 59.017C127.161 58.8249 125.955 57.978 125.791 58.8401C125.782 58.8877 125.701 58.884 125.695 58.8367Z"
    fill="#2B2B2B" />
  <path fill-rule="evenodd" clip-rule="evenodd"
    d="M148.695 62.4062C148.035 62.5724 147.333 62.5648 146.673 62.3463C146.075 62.148 145.468 61.7366 145.042 61.2052C144.662 60.7332 144.426 60.1674 144.457 59.5734C144.46 59.5055 144.487 59.4497 144.526 59.407C144.567 59.3611 144.625 59.3305 144.685 59.3185C144.748 59.3062 144.813 59.3136 144.868 59.3408C144.918 59.3655 144.96 59.4059 144.985 59.4637C145.05 59.5558 145.115 59.6465 145.18 59.7348C145.706 60.4318 146.221 60.9569 147.041 61.1675C147.486 61.2817 147.935 61.2536 148.351 61.1175C148.797 60.9719 149.205 60.7026 149.529 60.3512C149.675 60.1924 149.844 60.1314 150.006 60.1359C150.191 60.1411 150.37 60.2329 150.502 60.3744C150.632 60.5134 150.716 60.6991 150.718 60.8903C150.719 61.0581 150.658 61.2312 150.507 61.3823C150.01 61.88 149.375 62.2351 148.695 62.4062ZM148.972 53.9162C149.628 54.3464 150.615 55.3306 149.859 56.3139C148.98 57.1734 147.794 56.1112 147.208 55.6291C146.662 55.2523 146.003 56.1494 146.506 56.5848C150.744 59.9533 152.714 54.1534 149.327 53.4498C148.954 53.3722 148.801 53.7842 148.972 53.9162ZM142.766 51.9074C142.555 51.7623 142.304 51.7063 142.019 51.824C141.796 51.916 141.399 52.2348 141.116 52.6621C140.923 52.9545 140.78 53.3005 140.795 53.6665C140.798 53.7515 140.764 53.8129 140.713 53.8574C140.673 53.8925 140.616 53.9174 140.549 53.9235C140.492 53.9286 140.43 53.92 140.379 53.9022C140.283 53.8685 140.233 53.8035 140.216 53.7513C140.045 53.2474 140.146 52.6952 140.373 52.2018C140.681 51.536 141.215 50.9879 141.559 50.8172C142.148 50.525 142.829 50.5344 143.396 50.8728C143.879 51.1609 144.172 51.609 144.462 52.0654C144.524 52.1625 144.585 52.2588 144.649 52.3535C144.776 52.5434 144.783 52.7275 144.726 52.8832C144.662 53.0556 144.511 53.1977 144.325 53.2684C144.154 53.3337 143.957 53.3369 143.786 53.2576C143.641 53.1907 143.511 53.0655 143.433 52.8581C143.301 52.5087 143.075 52.1205 142.766 51.9074ZM153.677 53.0554C153.527 53.1271 153.411 53.1462 153.249 53.0915C153.16 53.0612 153.072 53.006 153.004 52.9337C152.937 52.862 152.89 52.774 152.874 52.6778C152.835 52.4401 152.713 52.2148 152.534 52.0644C152.381 51.9358 152.184 51.8636 151.963 51.8927C151.723 51.9241 151.491 52.0685 151.329 52.2427C151.275 52.301 151.232 52.3678 151.188 52.4342C151.107 52.5583 151.028 52.6735 150.919 52.7629C150.877 52.7969 150.816 52.8194 150.757 52.8173C150.733 52.8165 150.709 52.8118 150.686 52.8038C150.458 52.5582 150.419 52.3766 150.432 52.1983C150.447 52.0114 150.528 51.8244 150.653 51.6516C150.948 51.2465 151.492 50.9249 151.853 50.8604C152.349 50.772 152.833 50.9157 153.214 51.2036C153.607 51.4999 153.891 51.9484 153.966 52.4454C153.985 52.5651 153.971 52.6931 153.921 52.8028C153.873 52.91 153.793 53.0004 153.677 53.0554ZM144.005 47.5215C143.7 47.7983 143.349 47.8305 142.994 47.8578C142.797 47.8731 142.64 47.8855 142.485 47.9149C142.057 47.9956 141.633 48.1249 141.244 48.3188C140.837 48.5215 140.392 48.7676 140.067 49.0914C139.99 49.1684 139.917 49.2496 139.844 49.3309C139.777 49.405 139.713 49.4764 139.645 49.545C139.567 49.6239 139.493 49.7067 139.42 49.7894C139.374 49.8597 139.364 49.8771 139.355 49.8952C139.341 49.9223 139.324 49.9527 139.306 49.9853C139.28 50.0299 139.25 50.0786 139.219 50.1227C139.167 50.2034 139.14 50.2252 139.117 50.2346C139.078 50.2501 139.042 50.2571 139.007 50.2514C138.975 50.2461 138.945 50.2293 138.915 50.2027C138.768 50.0696 138.731 49.8582 138.743 49.6357C138.762 49.2981 138.9 48.9283 139.023 48.7024C139.309 48.1773 139.699 47.6348 140.159 47.2515C140.684 46.8141 141.253 46.4889 141.901 46.2737C142.304 46.14 142.769 46.0205 143.201 46.0528C143.512 46.076 143.807 46.1789 144.044 46.4186C144.19 46.5657 144.256 46.77 144.249 46.9716C144.242 47.1773 144.159 47.3815 144.005 47.5215ZM154.367 50.5155C154.347 50.5456 154.32 50.5658 154.291 50.5775C154.26 50.5898 154.226 50.5924 154.194 50.5859C154.162 50.5793 154.132 50.5636 154.108 50.5404C154.085 50.5181 154.069 50.4891 154.062 50.454C153.896 49.5879 153.538 48.9354 152.741 48.4948C152.348 48.278 151.894 48.1331 151.462 48.0152C151.337 47.981 151.204 47.957 151.071 47.9327C150.651 47.8565 150.23 47.7713 149.967 47.4216C149.808 47.211 149.748 46.9465 149.796 46.7083C149.841 46.484 149.98 46.2817 150.224 46.1661C150.832 45.8785 151.564 46.2071 152.158 46.4861C152.203 46.5068 152.246 46.5271 152.288 46.5467C152.869 46.816 153.396 47.1631 153.822 47.648C154.16 48.0327 154.466 48.5947 154.577 49.1657C154.67 49.6408 154.627 50.121 154.367 50.5155Z"
    fill="#2B2B2B" />
</svg>
