<svg width="224" height="325" viewBox="0 0 224 325" fill="none" xmlns="http://www.w3.org/2000/svg">
  <path fill-rule="evenodd" clip-rule="evenodd"
    d="M173.909 268.518C171.287 268.033 170.342 271.116 170.23 273.066C169.172 272.588 168.071 272.046 167.115 271.422C165.543 270.404 163.845 268.648 161.988 268.695L161.903 268.218C161.809 267.382 160.125 267.939 159.671 268.233C158.943 268.097 158.144 267.357 157.656 266.68C159.621 265.945 160.482 265.916 160.171 263.366C160.171 262.972 160.074 262.604 160.181 262.253C157.835 251.687 157.377 241.116 157.082 230.347L158.287 230.102C162.102 240.891 165.728 252.214 168.98 263.749C169.061 264.268 169.354 264.274 169.639 263.994C170.626 264.046 171.58 264.003 172.585 263.856L172.571 263.809C172.874 263.812 173.174 263.796 173.451 263.777C173.688 265.324 173.963 266.919 173.909 268.518ZM172.327 262.63C172.394 262.597 173.151 262.26 173.237 262.22L173.256 262.411C172.93 262.539 172.602 262.663 172.271 262.775L172.241 262.671L172.327 262.63ZM139.964 285.738C138.686 286.05 137.331 286.444 136.074 286.814L136.567 285.609C133.732 277.971 131.566 269.905 129.989 262.02C128.872 256.887 127.714 251.579 126.165 246.492C124.21 238.503 119.99 230.283 111.074 229.599C111.074 229.599 110.924 229.339 110.925 229.339L110.749 229.173C110.314 223.571 109.725 217.988 109.155 212.626C113.926 213.952 118.035 213.521 122.596 213.484C124.074 213.278 126.041 213.711 127.219 213.03C127.219 213.03 127.998 212.23 127.998 212.23C133.176 232.934 134.524 254.27 136.373 275.236C136.436 275.712 136.794 275.873 137.171 275.676C137.605 276.158 138.511 275.973 139.13 276.043C138.61 279.185 139.222 282.931 140.732 285.548L139.964 285.738ZM127.811 283.971C124.621 281.256 120.841 279.909 116.894 280.062C115.509 277.984 113.551 275.493 111.352 274.555C110.321 271.07 110.448 267.248 110.666 263.966C111.175 260.612 110.034 260.222 107.332 260.466C108.494 259.048 108.39 258.705 108.154 256.842C108.925 256.963 111.26 258.507 111.58 257.416C111.968 255.291 112.231 253.444 112.385 251.77C112.467 250.34 111.467 248.837 111.59 247.382C111.223 243.64 111.599 239.453 109.896 236.006C116.799 236.939 118.48 244.558 120.267 250.171C123.942 261.732 126.51 273.537 129.246 285.192L127.811 283.971ZM106.549 257.505C106.385 257.877 106.362 258.231 106.304 258.593C103.057 257.99 103.635 262.815 103.332 265.455C102.721 265.25 102.291 265.186 101.653 265.313C101.559 264.443 102.12 264.057 100.157 263.961C91.0101 264.133 87.5321 273.809 84.3855 281.212C82.9246 284.772 80.8503 285.327 77.7673 285.265C75.6993 285.305 73.5845 285.872 71.4716 285.804C79.1537 270.49 81.9486 248.494 78.8291 229.415H78.8311C78.6415 228.207 78.416 226.95 78.1831 225.733C84.7683 225.803 92.4289 225.963 98.7698 225.687C99.6055 226.463 100.635 226.809 101.686 226.817C101.691 227.664 101.781 228.595 101.86 229.439C95.9336 229.29 89.3577 229.382 83.3546 229.471C89.3575 229.558 95.9642 229.666 101.868 229.494C101.858 231.112 102.019 232.583 103.441 233.365C103.985 237.459 103.283 241.735 103.773 246.497C104.168 249.735 103.843 255.935 106.766 256.964L106.549 257.505ZM64.823 282.395L64.5943 282.801C64.1105 282.634 63.8135 282.67 63.3422 283.041C59.9129 284.916 54.9842 283.175 51.2347 283.051C51.9476 280.683 51.9752 276.906 48.7273 276.859C49.8044 266.478 49.0788 256.18 49.245 245.807C55.1593 244.667 54.9604 244.052 49.216 242.985C49.1801 237.183 49.1369 231.313 49.1405 225.457C49.1398 222.639 49.1141 219.891 48.8594 217.165C49.3944 216.046 49.2753 214.9 49.5514 213.718C50.717 213.058 52.7366 213.826 53.4617 212.688C56.5997 212.642 59.7957 212.612 62.9651 212.442C63.2526 212.45 63.3593 212.18 63.4842 211.983C64.0359 211.836 64.9664 212.172 65.4257 211.934C65.4257 211.934 66.0455 211.125 66.0455 211.125C68.6269 216.455 70.6296 222.735 71.8125 229.094C68.0828 229.135 63.8129 229.124 59.9649 229.105C63.7118 229.385 67.7563 229.554 71.9003 229.613C75.1154 245.783 72.8127 268.47 64.823 282.395ZM59.6632 290.064C51.8934 299.962 39.2048 303.261 28.785 295.304C0.982203 273.919 2.22958 201.434 38.7453 191.407C37.7543 195.197 34.3153 210.926 40.5317 211.374L40.5125 211.323L40.8292 211.146C42.1343 211.603 43.9708 210.969 44.3983 212.802C44.4149 212.805 45.1003 212.866 45.1404 212.87C44.6963 215.148 44.8253 217.509 44.6924 219.823C44.1677 219.621 43.5142 219.5 42.9454 219.548C40.8019 219.447 40.8558 217.078 40.9394 215.431C41.0188 214.625 40.7778 213.702 40.8176 212.945C40.8389 212.419 40.8042 212.01 40.6071 211.575C39.9477 213.707 39.3243 216.502 39.7159 218.673C40.2919 220.699 42.8438 221.667 44.6909 220.674C44.6104 227.97 44.5878 235.209 44.5477 242.441C43.3344 241.796 42.2273 242.205 40.9725 242.549C39.3889 242.886 37.5101 242.408 35.9221 242.796C35.7391 242.003 34.9997 241.032 34.2212 241.673C33.2305 241.682 32.686 242.611 32.1942 244.642C31.8876 246.252 32.0667 248.401 33.5794 249.174C34.4338 249.64 35.289 249.309 35.71 248.356C35.9489 248.453 36.3297 248.748 36.6012 248.653C39.1278 248.033 41.8522 247.406 44.5251 246.821C44.6643 257.037 44.2165 267.178 45.051 277.422C41.2373 277.747 33.9715 276.715 32.3104 280.107C30.784 280.774 29.6875 282.304 29.6917 283.845C29.6417 286.342 32.3836 287.182 34.5262 287.21C43.1969 287.874 51.7857 289.058 60.5224 289.041L59.6632 290.064ZM75.3776 212.18C80.8927 212.942 86.4311 212.936 91.9577 213.185C90.1543 225.569 92.6755 218.374 98.2821 225.335C91.8758 225.327 84.1402 225.25 78.1165 225.402C77.1802 220.734 75.9166 216.278 74.3458 212.023L75.3776 212.18ZM118.073 149.336C120.505 152.77 123.7 155.769 127.284 157.819C124.188 158.051 121.035 158.262 117.983 158.695C117.641 155.721 117.297 152.746 116.951 149.774L118.073 149.336ZM223.394 279.291C223.106 276.367 219.835 275.289 217.442 276.096C216.099 272.486 211.507 272.925 208.552 271.334C202.62 268.429 196.549 262.747 189.682 264.983C189.067 263.273 188.377 261.631 187.636 260.197C187.926 260.346 188.298 260.331 188.56 260.067L188.562 260.069C188.818 259.774 189.065 259.443 189.098 259.078C189.989 258.067 190.363 256.468 190.592 255.276C189.504 251.514 188.184 247.909 187.007 244.186C182.441 229.992 179.229 216.804 175.784 203.229C171.953 193.135 170.924 166.647 157.048 166.596C157.003 165.891 156.979 165.078 156.757 164.436C156.36 164.986 156.195 165.798 156.141 166.496C150.202 166.401 145.068 167.517 141.15 169.236C133.648 168.899 127.073 169.352 118.442 170.383C119.488 168.559 118.789 166.504 118.691 164.492C131.204 165.091 143.922 163.924 156.377 163.226C158.386 163.049 160.519 163.161 162.459 162.65C164.563 162.153 166.561 159.487 164.415 157.459C162.963 156.547 161.158 157.041 159.567 156.96C151.501 156.959 143.247 157.119 135.482 157.407C145.043 152.489 149.866 142.217 155.584 133.456C158.487 128.67 160.656 124.643 162.41 120.777C162.711 120.134 162.795 119.438 162.614 119.084C162.547 118.73 161.463 118.691 161.169 118.603C169.12 106.038 181.331 111.57 187.86 104.289C186.623 104.346 185.387 104.405 184.151 104.465L183.866 103.265C186.2 102.202 188.41 100.552 190.825 98.0679C190.824 98.0628 190.822 98.0571 190.819 98.0516C186.815 99.318 183.083 100.24 179.411 100.87L178.968 99.725C182.268 97.5518 185.203 94.5963 187.458 91.1765C183.252 93.0561 179.296 95.726 174.931 97.4368L174.274 96.3966C176.762 93.9903 182.34 90.3831 180.753 87.0149C174.553 90.0323 168.895 93.938 162.924 97.3474C162.918 94.5811 164.843 90.2308 163.675 87.9244C162.441 86.3857 161.859 87.6949 161.236 88.9259C161.236 88.9259 158.643 93.3344 158.008 94.4131C155.627 98.6985 152.282 102.934 152.359 108C150.289 106.995 148.661 110.645 147.316 112.638C143.536 119.134 130.744 129.333 127.919 130.722C116.417 120.183 118.131 102.336 105.906 92.3822C101.985 88.3371 99.0872 87.8684 94.4647 86.3817C93.3659 86.1148 92.1231 85.1731 91.1398 86.0767C89.6809 84.8533 88.2609 80.9029 87.6589 79.2153C87.2865 77.5826 86.6655 73.5641 85.7961 72.8106C84.9267 72.0572 70.7674 71.4293 69.5254 71.806C68.2834 72.1827 68.7802 75.1966 68.7802 75.1966L67.4726 80.6613L67.36 80.6294C67.3397 80.6373 67.1649 80.7738 67.1429 80.7892C66.212 80.7823 65.3176 80.3373 64.4239 80.3378C63.4818 80.3581 62.7192 81.0079 61.9967 81.5644C60.706 82.551 59.3714 83.5714 57.8023 84.1872C39.6054 90.0651 37.2012 98.9122 31.7569 115.91C27.2766 116.039 23.5045 115.473 19.605 115.253C18.2326 115.429 18.6787 118.125 18.7206 119.666C18.591 123.456 21.3929 123.065 24.172 123.031C26.01 123.054 27.8597 123.239 29.6779 123.021C27.7196 132.162 23.7805 146.453 28.0911 154.982C31.5815 161.665 34.5437 162.934 37.3683 163.129C38.0919 169.526 37.3714 175.254 37.5024 181.441C-4.14169 192.788 -6.05803 258.656 12.5565 290.728C27.503 316.934 55.6133 315.499 69.5463 289.416C72.9157 291.274 79.5961 291.146 84.0449 290.739C87.546 290.531 88.6947 289.029 89.9453 285.743C91.3426 282.547 92.6711 279.392 94.0934 276.198C95.451 272.818 98.1638 268.934 103.059 269.086C103.036 271.077 102.67 273.321 104.003 274.902C99.0377 276.609 102.022 284.561 103.465 288.276C96.6461 297.681 98.9435 314.165 108.482 320.987C124.235 331.68 139.441 311.457 134.839 295.965C135.594 296.325 136.994 296.825 137.596 296.037C137.842 295.854 137.503 295.039 137.442 294.774C148.008 294.147 158.373 292.89 168.849 291.897C168.493 301.736 178.144 311.434 187.828 311.215C200.465 311.808 208.037 294.97 204.214 284.067C209.047 283.93 213.953 283.52 218.992 282.829C221.747 282.551 223.503 281.892 223.394 279.291Z"
    fill="white" />
  <path fill-rule="evenodd" clip-rule="evenodd"
    d="M68.3307 75.6992C68.0313 75.7984 68.0648 75.1492 68.4834 75.2146C68.8305 75.2693 68.9592 75.7411 69.0224 76.0404L69.0324 76.0886C69.6126 78.8368 68.9441 81.7399 67.5805 84.1521C67.2384 84.7162 66.8836 85.4903 66.2055 85.6414C66.5272 87.9659 66.9681 90.2714 67.5146 92.5519C69.4633 93.2426 71.2978 94.2662 73.2429 94.9746C76.986 96.3204 80.9917 96.6803 84.9304 96.9661C87.64 97.1154 90.4273 96.9946 93.0012 96.0555C94.0898 95.7552 95.0126 94.7718 96.1547 94.7748C95.3884 92.6588 94.54 90.574 93.5986 88.5272C90.6709 88.5263 88.4592 85.6539 87.5896 83.101C87.2729 82.0838 87.181 81.0176 86.9798 79.9753L86.9051 79.5861C86.8396 79.2393 86.7799 78.8903 86.7537 78.5387C86.745 78.4081 86.9363 77.2615 86.8916 77.0983C86.8867 77.1459 86.8255 77.1081 86.7972 77.1057C86.7202 77.0093 86.7873 76.8157 86.94 76.8231C87.1872 76.8157 87.3102 77.3595 87.366 77.5077C88.5537 79.9723 89.0061 83.0015 91.1261 84.8519C92.1845 84.1765 93.4878 85.0609 94.5638 85.332L94.8751 85.4317C99.9048 87.034 102.233 87.4223 106.272 91.4923C113.173 96.936 115.206 103.884 117.923 111.887L118.083 112.322C120.694 119.369 122.803 123.74 127.999 129.512C129.885 128.622 141.601 119.147 145.623 113.581L145.743 113.413C146.901 111.817 149.538 106.233 151.697 106.764C151.891 101.854 155.121 97.79 157.398 93.6546L160.631 88.1593C160.943 87.6292 161.241 86.8985 161.683 86.4676C162.435 85.7356 163.683 86.4087 164.133 87.1509C165.37 89.2582 163.813 93.286 163.584 95.748C169.127 92.5015 174.523 88.9503 180.252 86.042C180.734 85.8072 181.335 85.9868 181.488 86.5506C182.456 90.5985 177.177 93.9866 174.628 96.4084C178.798 94.714 182.709 92.3019 186.745 90.2825L187.015 90.1484C187.562 89.8609 188.304 90.4724 187.916 91.0601C185.632 94.5298 182.68 97.5375 179.236 99.8055C183.079 99.1462 186.859 98.1792 190.592 96.9975C191.199 96.8054 191.632 97.6204 191.201 98.0573L190.998 98.2651C188.958 100.336 186.706 102.182 184.05 103.392C185.291 103.332 186.532 103.273 187.774 103.216C188.389 103.189 188.594 103.952 188.244 104.365C186.864 105.989 185.007 107.043 183.025 107.735C174.732 109.99 167.769 109.797 162.174 117.715C163.574 117.97 163.37 119.55 162.928 120.54L162.9 120.6C160.903 125.002 158.538 129.224 156.035 133.35C150.673 141.405 146.269 151.086 137.781 156.252C143.262 156.063 148.744 155.955 154.229 155.909C155.748 155.896 157.267 155.889 158.786 155.887L159.926 155.886C161.432 155.886 163.421 155.566 164.72 156.513C167.216 158.543 165.269 162.286 162.504 162.821C160.763 163.294 158.881 163.223 157.094 163.361C157.434 164.026 157.518 164.846 157.562 165.559C163.84 165.954 167.505 170.935 169.216 176.63C172.649 187.534 175.278 198.681 178.124 209.754L178.447 211.038C181.193 221.952 184.081 232.834 187.526 243.547C188.699 247.256 190.038 250.916 191.117 254.654C191.213 254.987 191.142 255.291 190.977 255.533C190.774 256.993 189.852 259.443 188.3 259.83C188.937 261.095 189.509 262.466 189.995 263.784C196.996 261.9 202.874 267.462 208.759 270.326C211.722 271.895 216.042 271.456 217.709 274.918C220.396 274.238 223.669 275.75 223.941 278.789C224.179 281.918 221.547 282.823 218.965 283.01C214.321 283.648 209.651 284.066 204.967 284.222C207.612 293.242 203.228 306.374 194.186 310.083C182.293 315.158 168.477 304.77 168.173 292.14C158.184 293.096 148.194 294.289 138.184 294.907C138.598 296.349 136.708 296.947 135.623 296.525C138.269 308.679 130.456 324.11 117.45 324.061C100.69 323.947 93.9158 300.364 102.694 287.744L102.61 287.526C101.214 283.875 98.5869 276.364 103.024 274.202C102.088 272.754 102.323 270.934 102.354 269.298C98.2427 269.486 96.1183 272.475 94.591 276.004C93.1831 279.163 91.8416 282.353 90.4536 285.523C89.1463 288.958 87.8562 290.691 84.0101 290.92L83.616 290.95C79.3239 291.265 73.6188 291.524 69.7453 289.78C60.5534 306.787 41.2667 316.875 24.5735 304.683C-9.69429 280.761 -8.43177 191.113 36.8152 180.495C36.8336 178.786 36.8577 177.078 36.8872 175.369C36.7904 174.28 36.8115 173.194 36.9085 172.09L36.9294 171.638C37.0535 168.853 37.0825 166.037 36.7428 163.268C31.2521 162.817 27.9265 155.712 27.3726 154.636C23.1399 146.419 27.055 131.213 28.8165 123.269C27.1078 123.406 25.546 123.195 23.8756 123.215L23.2962 123.225C20.1918 123.274 18.1068 123.142 18.0282 119.226C18.032 117.636 17.3329 114.688 19.4006 114.194C20.3346 114.005 21.4376 114.34 22.3728 114.433C25.3254 114.675 28.2818 114.858 31.2434 114.84C33.8128 107.392 35.8242 99.4214 40.7177 93.1159C44.8744 87.7808 51.523 85.6798 57.5001 83.1587C59.1223 82.5234 60.4921 81.423 61.8895 80.3593L61.986 80.2836C62.6799 79.7443 63.4345 79.2891 64.3359 79.2647C65.2121 79.2409 66.0271 79.6428 66.8846 79.7014C67.0357 79.5875 67.2325 79.5161 67.4033 79.5644C67.8599 78.2866 68.1977 76.9588 68.3641 75.6127L68.35 75.5507C68.3243 75.4482 68.3145 75.4741 68.3219 75.6301C68.3618 75.6301 68.3679 75.6868 68.3307 75.6992ZM117.449 281.489C115.562 281.489 113.749 281.895 112.064 282.636C111.672 284.835 113.461 287.919 114.061 290.134C114.086 291.049 114.25 291.981 114.462 292.886C114.612 295.526 115.716 297.948 116.229 300.447C116.324 300.922 117.042 300.721 116.947 300.246C116.498 298.005 115.898 295.8 115.381 293.575C115.624 293.723 116.035 293.524 115.946 293.158C115.754 292.371 115.754 291.575 115.785 290.776C128.568 292.41 127.82 313.906 114.779 314.202C106.316 314.416 101.6 302.679 106.384 295.652C105.599 293.944 104.748 292.267 103.943 290.555C97.0908 302.15 104.267 321.911 117.449 321.549C138.707 320.941 138.716 282.102 117.449 281.489ZM194.197 284.016C196.72 288.775 196.451 295.168 193.251 299.555C189.631 304.541 181.731 303.957 178.185 299.172C176.783 297.466 175.703 295.377 175.64 293.122C175.635 292.624 175.953 291.744 175.524 291.353L172.784 291.65C171.413 291.798 170.043 291.944 168.672 292.087C172.644 302.823 182.404 312.546 194.321 307.169C201.706 303.048 204.442 293.205 203.365 285.172C203.304 284.788 203.442 284.473 203.665 284.261C200.509 284.334 197.34 284.35 194.197 284.016ZM64.7378 202.535C43.6745 168.835 15.9283 190.654 8.82582 221.584C3.49202 242.881 5.38501 268.881 16.5217 287.733C29.6001 310.183 51.6722 310.156 64.7374 287.733C74.6257 270.998 77.2265 248.621 73.952 228.909C73.9531 229.085 73.892 229.262 73.7658 229.404C77.6145 253.067 73.2838 282.347 54.7342 296.724C41.0408 306.947 25.0292 298.588 17.3421 284.583C2.46404 259.191 3.60994 212.63 28.0154 193.544C34.9821 188.52 43.1642 187.567 50.7099 191.158C50.7869 190.683 51.0776 191.206 51.1906 191.394C64.1732 198.367 70.59 213.343 73.5572 228.25C73.7362 228.351 73.8557 228.505 73.9129 228.675C73.5066 226.266 73.0125 223.897 72.4331 221.584C70.6186 214.431 68.0288 208.023 64.7378 202.535ZM112.458 301.72C111.335 300.995 111.87 303.17 112.26 303.575C112.54 303.975 113.097 303.637 112.903 303.195C112.664 302.84 113.09 301.762 112.458 301.72ZM37.8039 191.861C6.29361 200.816 4.23059 259.668 19.4741 283.293C26.4915 296.018 40.7478 304.031 53.3008 294.674C55.3576 293.203 57.3014 291.376 59.1185 289.212C51.048 289.146 42.9931 288.052 34.9398 287.437L34.7571 287.42C33.5376 287.313 32.2865 287.254 31.1629 286.722C27.7565 285.034 28.6848 280.701 31.78 279.189C33.4756 275.809 40.9623 276.562 44.3109 276.383C43.5593 266.666 43.9501 256.892 43.8414 247.153C41.4468 247.681 39.0596 248.233 36.6762 248.817C36.393 248.888 36.1061 248.846 35.8639 248.724C35.2823 249.653 34.1415 249.758 33.227 249.288C31.3776 248.343 31.1665 245.883 31.5155 244.065L31.5521 243.908C31.8569 242.624 32.4665 240.71 33.9536 240.611C34.8915 240.02 35.9117 240.718 36.2539 241.645C37.824 241.38 39.2475 241.799 40.7786 241.487C41.7932 241.28 42.8167 240.754 43.8601 241.117C43.8962 234.446 43.9191 227.775 43.9893 221.105C42.0212 221.772 39.6196 220.393 39.0484 218.402C38.6622 217.077 39.0037 215.558 39.1851 214.228L39.2193 213.979C39.3358 213.145 39.4813 212.273 39.7614 211.465C35.3297 210.846 36.2363 201.452 36.5729 198.134C36.9855 195.957 37.2429 194.066 37.8039 191.861ZM110.982 229.735C109.014 229.716 107.608 231.871 108.744 233.587C111.03 236.199 114.335 233.845 117.878 240.884C123.757 254.973 126.469 270.212 130.128 284.996C131.968 286.932 133.086 289.392 134.437 291.69C134.935 292.554 135.088 293.774 135.993 294.321C136.168 294.404 136.308 294.418 136.446 294.396C134.568 293.343 134.961 288.14 135.348 286.249L135.332 286.249C135.161 286.261 134.537 286.399 134.823 286.1L135.127 286.001L135.432 285.903L135.453 285.827C130.167 273.413 129.018 259.554 125.23 246.626L124.892 245.479C123.583 241.06 122.072 236.439 118.76 233.158C118.634 233.151 118.505 233.104 118.386 233.003L118.267 232.898C116.312 231.187 113.91 229.806 111.235 230.056C111.129 230.063 111.111 229.898 111.211 229.871C111.273 229.854 111.336 229.842 111.399 229.827C111.26 229.799 111.121 229.768 110.982 229.735ZM101.581 264.817C101.017 265.045 100.443 264.885 99.8063 264.9C99.1393 264.917 98.491 265.028 97.8503 265.213C87.322 268.294 88.8743 284.299 81.208 286.156C79.292 286.532 77.3631 286.242 75.4414 285.981C74.2153 286.025 73.0887 285.987 71.9151 285.731C71.3638 286.851 70.7861 287.944 70.185 289.011C71.582 288.79 73.005 288.848 74.4167 288.823C77.7367 288.876 81.0564 288.738 84.3529 288.319C85.5266 288.185 86.6096 287.855 87.3042 286.825C88.8717 284.145 89.9445 281.166 91.3544 278.396L91.5398 277.973C93.5575 273.382 96.2269 267.874 101.904 267.86C101.936 267.529 102.192 267.262 102.483 267.181C102.515 266.704 102.547 266.226 102.582 265.748C102.254 265.43 102.013 265.019 101.581 264.817ZM31.5068 280.441C30.8922 281.486 30.9558 283.319 32.057 284.043C32.8035 284.473 33.8679 284.425 34.6951 284.485L36.1199 284.591C36.5948 284.627 37.0696 284.663 37.5442 284.7L38.256 284.758C45.0473 285.306 51.8318 285.904 58.6142 286.527L58.645 286.516C58.7393 286.481 58.8875 286.433 58.8875 286.433L58.9929 286.384C59.1436 286.311 58.9611 286.378 58.9432 286.386L58.9421 286.387C59.6985 285.895 60.5133 286.458 60.6922 287.205C61.3703 286.286 62.0273 285.318 62.6633 284.298C61.7695 284.563 60.8201 284.602 59.896 284.543C59.2606 285.274 58.1194 285.006 57.2703 284.989C51.2704 284.504 45.2866 283.804 39.3055 283.126C37.7865 282.946 36.2663 282.765 34.7473 282.584L34.4044 282.553C33.0613 282.424 31.446 282.163 31.5068 280.441ZM162.117 268.546C161.487 269.239 160.281 269.427 159.477 269.832C158.55 270.3 157.664 270.868 156.869 271.542C153.269 274.915 149.604 280.281 143.968 277.91C142.784 277.447 141.68 276.709 140.94 275.651C140.61 275.815 140.229 275.5 139.895 275.457C140.184 277.031 140.305 278.526 140.744 280.063C140.934 280.736 141.149 281.403 141.413 282.049C141.686 282.711 142.177 283.381 142.158 284.122C146.429 283.2 150.746 282.607 155.074 282.071C156.7 282.01 159.445 281.128 160.79 281.967C162.384 282.97 161.669 284.827 162.519 285.517C163.817 286.158 165.493 285.674 166.897 285.636C173.015 285.11 179.19 284.761 185.298 284.243C188.966 283.563 186.566 282.424 188.146 281.513C188.14 275.808 181.36 276.41 177.383 275.906C176.183 276.39 174.971 276.837 173.744 277.244C173.138 277.445 172.72 276.625 173.139 276.195L173.992 275.319C173.41 275.186 172.832 275.037 172.261 274.865C171.456 275.234 170.61 275.51 169.822 275.918L169.675 275.996C169.137 276.289 168.503 275.692 168.825 275.137C169.074 274.707 169.272 274.266 169.425 273.807C168.673 273.462 167.942 273.069 167.247 272.621L167.108 272.53L164.85 273.806C164.408 274.055 163.743 273.634 163.938 273.097C164.169 272.355 164.853 272.041 165.373 271.544C165.315 271.417 165.281 271.249 165.309 271.12C164.292 270.22 163.405 269.072 162.117 268.546ZM192.211 285.738L192.139 285.749C192.144 285.758 192.148 285.765 192.153 285.773L192.184 285.769L192.154 285.774C192.174 285.804 192.201 285.827 192.236 285.835C192.229 285.814 192.223 285.792 192.218 285.77L192.211 285.738ZM109.796 213.008L109.978 214.725C110.46 219.3 110.919 223.854 111.278 228.435C111.325 228.479 111.364 228.532 111.397 228.588L112.465 228.784C114.331 229.128 115.876 229.485 117.568 230.78C123.203 233.829 125.091 240.543 126.819 246.302C130.608 258.931 131.911 272.268 137.033 284.481C137.183 284.833 137.174 285.149 137.07 285.404C137.957 285.145 138.848 284.905 139.745 284.683C138.54 282.336 138.02 278.822 138.356 276.198L138.225 276.194C137.806 276.184 137.301 276.182 136.966 275.921C136.307 276.108 135.748 275.472 135.685 274.869L135.683 274.84C133.858 254.15 132.533 233.25 127.591 213.025C126.948 213.685 125.787 213.533 124.923 213.571L124.877 213.574C124.098 213.611 123.318 213.641 122.538 213.667L122.2 213.671C118.079 213.731 113.835 214.032 109.796 213.008ZM79.4866 229.605C82.3328 247.71 79.8152 269.444 72.407 284.709C74.1984 284.672 75.9413 284.186 77.7291 284.192C80.9104 284.244 82.4629 283.587 83.742 280.522C86.8148 273.437 89.8843 264.337 98.5507 262.991L98.9563 262.952C100.167 262.837 102.201 262.712 102.202 264.163C102.359 264.145 102.538 264.162 102.699 264.206C102.725 263.867 102.751 263.528 102.778 263.19L102.801 262.522C102.877 260.412 103.1 257.491 105.7 257.515C105.735 257.283 105.81 257.052 105.902 256.823C103.285 255.517 103.377 248.807 103.083 246.105C102.843 242.26 102.862 238.401 102.949 234.55C102.959 234.168 103.031 233.66 102.884 233.349C101.534 232.455 101.238 231.288 101.194 229.692C93.9672 229.877 86.7183 229.68 79.4866 229.605ZM110.904 236.474C111.535 237.915 111.578 239.578 111.761 241.131C111.912 242.978 112.019 244.825 112.126 246.675L112.149 247.099C112.186 247.744 112.239 248.372 112.471 248.989L112.525 249.134C112.799 249.875 113.008 250.564 112.932 251.383C112.756 253.297 112.458 255.233 112.112 257.122C111.63 258.723 109.831 257.702 108.809 257.329L108.82 257.435C108.888 258.127 108.886 258.818 108.504 259.352C111.328 259.26 111.53 261.315 111.209 263.608L111.191 263.91C110.994 267.141 110.928 270.527 111.798 273.652C113.266 274.292 114.331 275.496 115.353 276.688C115.954 277.395 116.705 278.146 117.179 278.981C121.163 278.909 124.962 280.342 128.14 283.045L127.764 281.433C125.306 270.866 122.899 260.271 119.608 249.93C117.942 245.037 116.643 237.897 110.904 236.474ZM49.6927 228.195C49.7014 232.795 49.7337 237.393 49.7622 241.993C51.1272 242.188 52.445 242.587 53.7156 243.162C54.5217 243.527 54.1516 244.632 53.4933 244.884C52.2935 245.344 51.0391 245.609 49.7858 245.874C49.6567 255.872 50.312 265.919 49.3325 275.881C52.2775 276.327 52.4917 279.686 51.9346 282.044C55.1955 282.335 58.4827 283.168 61.7527 282.585C62.7162 282.532 63.3297 281.433 64.2121 281.639C71.9156 267.969 74.4289 246.671 71.3116 229.787C64.0912 229.669 56.8441 229.219 49.6927 228.195ZM47.7178 246.315C47.0347 246.46 46.3528 246.607 45.6697 246.754C45.5686 256.635 45.9801 266.559 45.2089 276.416C45.4976 276.401 45.4376 276.594 45.1915 276.611C45.1766 276.779 45.1605 276.947 45.1443 277.115C45.0984 277.615 44.4227 277.614 44.3768 277.115C44.3668 277.013 44.3581 276.913 44.3494 276.811C43.0478 277.1 41.7263 277.305 40.4146 277.527C38.4821 278.01 33.8377 277.696 33.4903 280.24L34.9931 280.372C40.0636 280.82 44.5184 281.242 49.5461 281.779C49.797 280.217 50.9922 277.91 49.1077 276.918C48.8357 277.179 48.3115 277.063 48.2667 276.566C47.2275 266.524 47.8623 256.396 47.7178 246.315ZM197.13 266.666C191.124 264.237 188.001 267.068 183.189 270.178C180.704 271.6 177.313 272.217 174.812 270.565C173.663 270.633 173.126 269.356 173.221 268.337C173.219 268.267 173.218 268.198 173.218 268.129C171.819 268.981 172.685 271.346 172.387 272.743C175.242 273.649 178.214 273.871 181.179 274.088C185.022 274.174 189.656 276.085 190.107 280.426L190.12 280.559L190.414 280.55C190.414 280.111 190.688 279.659 191.232 279.614L191.267 279.612C199.206 279.106 207.228 279.133 215.127 278.317C216.076 278.045 216.415 277.412 216.16 276.472C215.548 274.211 212.413 274.1 210.566 273.574C208.341 272.94 206.344 271.829 204.385 270.638C203.55 270.875 202.706 271.074 201.855 271.241C201.441 271.322 200.901 270.953 201.091 270.468L201.229 270.115C201.368 269.762 201.538 269.361 201.755 269.021C201.117 268.636 200.474 268.261 199.82 267.91C198.711 268.307 197.661 268.827 196.663 269.47C196.061 269.858 195.445 269.002 195.895 268.501L195.911 268.484C196.431 267.943 196.835 267.335 197.13 266.666ZM157.245 267.409C151.892 270.055 146.213 272.028 140.737 274.42L140.848 274.462C141.039 274.535 141.258 274.634 141.329 274.81C143.388 276.46 146.284 277.132 148.729 275.96C152.255 274.047 154.005 269.926 157.612 268.065C157.464 267.858 157.34 267.636 157.245 267.409ZM106.353 260.107C106.177 260.077 105.656 259.846 105.517 259.907C105.162 260.803 105.151 261.864 105.054 262.821C104.723 266.553 104.045 270.243 103.669 273.963C105.529 273.446 107.441 273.139 109.355 273.097C109.199 271.943 109.073 270.796 109.007 269.636C108.884 267.377 108.974 265.101 109.309 262.863L109.332 262.742C109.694 260.796 109.406 260.708 107.593 260.023C107.203 260.157 106.768 260.18 106.353 260.107ZM147.218 172.072C144.119 169.078 139.497 169.441 135.52 169.425C127.039 169.423 118.577 170.204 110.213 171.588C109.977 172.009 109.311 172.104 108.99 171.791C106.687 172.18 104.392 172.607 102.102 173.063C102.735 177.114 103.241 181.188 103.806 185.249L103.842 185.5C104.091 187.262 104.213 189.235 103.028 190.689C102.995 195.189 102.825 199.705 102.808 204.212C103.461 203.583 104.514 203.655 105.353 203.5C107.073 203.1 108.71 202.812 110.453 202.714C112.208 202.442 113.963 202.171 115.719 201.901C115.99 201.858 116.207 201.976 116.343 202.153C118.59 201.886 120.827 201.429 123.083 201.281L122.949 200.876C122.282 198.838 121.673 196.626 122.632 194.601C122.859 194.126 123.603 194.154 123.838 194.601C124.665 196.168 124.7 197.955 125.017 199.669C125.2 200.651 125.577 201.696 125.752 202.733C126.684 204.291 127.149 206.119 127.756 207.827C134.384 228.981 135.181 251.378 137.677 273.277C141.549 271.653 145.468 270.131 149.354 268.542C152.145 267.162 158.478 266.08 158.167 262.095C158.181 261.768 158.162 261.444 158.125 261.121C158.201 260.993 158.308 260.887 158.433 260.805C157.151 255.706 156.608 250.44 156.28 245.199C155.428 230.795 155.007 216.363 154.573 201.94L154.552 201.329C154.224 191.325 154.119 179.95 147.218 172.072ZM157.631 229.868C158.139 239.479 157.914 249.225 160.185 258.635L160.255 258.92C160.475 259.823 161.058 261.095 160.687 262.039C160.674 263.193 161.076 264.991 160.095 265.807C159.676 266.116 159.136 266.308 158.631 266.503C158.876 266.792 159.219 266.991 159.558 267.109L159.615 267.082C160.555 266.636 162.207 266.333 162.443 267.662C164.222 267.803 165.942 269.525 167.377 270.446C168.111 270.917 168.871 271.331 169.652 271.694C169.9 269.785 171.005 267.366 173.217 267.427C173.217 266.272 173.022 265.133 172.852 263.994C171.823 264.16 170.796 264.23 169.756 264.185C169.066 264.688 168.382 264.134 168.292 263.379C165.105 252.164 161.542 240.904 157.631 229.868ZM186.546 259.07C182.3 260.417 177.64 260.446 173.563 262.303C174.787 264.078 175.258 266.222 175.557 268.33C175.836 268.551 176.024 268.9 176.039 269.278C176.046 269.41 176.034 269.544 175.995 269.67C180.531 270.63 183.858 266.741 187.506 264.776C187.009 262.938 186.77 260.97 186.546 259.07ZM175.569 268.501L175.571 268.527C175.564 268.74 175.729 268.673 175.569 268.501ZM172.632 262.701C172.562 262.732 172.494 262.766 172.424 262.798C172.496 262.787 172.568 262.776 172.639 262.764C172.637 262.743 172.634 262.722 172.632 262.701ZM162.083 169.593C157.133 166.207 147.259 167.789 141.393 168.188C152.983 169.076 154.901 185.173 155.821 194.438C156.561 204.39 156.836 214.377 157.377 224.343C161.993 236.809 165.738 249.595 169.684 262.289C172.89 260.472 176.395 259.317 180.024 258.718L180.548 258.641C183.588 258.191 186.678 257.629 189.182 255.71C180.217 233.571 176.464 209.67 169.648 186.824C167.646 181.107 166.985 173.606 162.083 169.593ZM188.57 258.158C188.399 258.26 188.224 258.356 188.045 258.446C188.14 258.424 188.24 258.421 188.341 258.435C188.418 258.346 188.501 258.243 188.57 258.158ZM107.168 210.341C106.349 208.955 104.541 207.699 102.936 208.301C105.353 209.793 104.828 214.107 105.006 216.63L105.002 216.773C104.943 219.153 105.142 224.178 103.848 225.875C103.938 226.97 103.94 228.104 104.05 229.206C104.084 229.609 104.006 230.362 104.24 230.719C106.832 232.187 105.575 235.709 105.73 238.153C105.612 242.833 105.936 247.503 106.07 252.178C106.061 253.387 105.945 254.675 106.343 255.832C106.852 254.732 108.303 254.806 108.619 255.92C108.873 255.582 109.384 255.556 109.821 255.616C109.975 254.133 110.212 252.651 110.263 251.167C110.288 250.429 109.858 249.821 109.7 249.115C109.383 246.437 109.744 243.701 109.776 241.007L109.784 240.927C109.886 239.813 109.965 237.057 110.587 236.381C106.563 235.65 105.289 230.525 109.217 228.633C109.163 228.383 109.215 228.119 109.385 227.93C109.05 223.876 108.618 219.827 108.238 215.775C108.076 213.95 108.082 211.979 107.168 210.341ZM34.184 244.884C34.4881 244.467 33.8319 244.018 33.5647 244.46C33.289 244.932 33.1287 245.509 33.2411 246.052C33.3033 246.353 33.7909 246.437 33.9221 246.142C34.0348 245.9 34.0747 245.64 34.1307 245.38C34.2811 245.263 34.2829 245.04 34.184 244.884ZM36.4749 242.437C36.4874 242.508 36.4985 242.581 36.5085 242.654C36.6203 242.612 36.7358 242.579 36.855 242.548C36.7283 242.513 36.6016 242.476 36.4749 242.437ZM46.2349 212.597C45.9293 212.79 45.5679 212.912 45.1891 212.968C45.8803 222.545 45.4886 232.189 45.6548 241.79C46.3361 241.948 47.0466 241.816 47.7377 241.87C47.9068 233.491 47.5905 225.119 48.1215 216.746C47.6579 215.547 47.3616 214.093 47.7054 212.816C47.2086 212.767 46.7168 212.696 46.2349 212.597ZM98.486 225.878C92.3585 226.121 86.1891 226.013 80.0529 225.937C79.6654 225.926 79.2667 225.923 78.8631 225.921C79.0208 226.758 79.1686 227.602 79.3052 228.45C86.5685 228.365 93.8477 228.192 101.107 228.35L101.076 228.007C101.045 227.661 101.018 227.306 101.009 226.954C100.107 226.885 99.225 226.494 98.486 225.878ZM65.8454 211.873C65.3993 212.455 64.4222 212.082 63.7749 212.137C63.6097 212.405 63.3265 212.602 62.9266 212.623C59.8476 212.789 56.7623 212.821 53.6784 212.867C52.7786 213.921 51.1798 213.313 50.0218 213.741C49.8799 214.47 49.8725 215.227 49.7088 215.96C49.6393 216.259 49.5362 216.541 49.4207 216.819C49.6716 219.59 49.6902 222.399 49.6902 225.178C51.2143 224.729 52.8629 224.805 54.4373 224.702C57.8515 224.614 61.2666 224.649 64.6816 224.642C66.1903 224.614 67.8961 224.707 69.3678 224.687C69.7446 224.55 70.2778 224.769 70.3552 225.208C70.6375 226.33 69.3816 226.414 68.6312 226.358C67.7258 226.338 66.8204 226.317 65.9162 226.298C62.2123 226.206 58.5078 226.137 54.8074 225.968C53.1101 225.827 51.3274 225.873 49.6902 225.358L49.691 227.451C49.6913 227.66 49.6919 227.851 49.6927 228.011C56.7891 227.983 63.8894 228.093 70.9874 228.028C69.899 222.437 68.1179 216.733 65.8454 211.873ZM157.495 226.865C157.466 227.232 157.595 227.541 157.766 227.858C157.675 227.527 157.584 227.196 157.495 226.865ZM75.2141 212.356C76.5752 216.151 77.6893 220.156 78.5476 224.317C84.6572 224.182 90.7561 224.249 96.8651 224.259C94.6142 221.584 92.2255 222.319 91.1045 220.619C90.2924 219.3 90.9706 214.982 91.1828 213.338C86.4263 213.133 81.6481 213.109 76.9131 212.564C76.3765 212.492 75.7928 212.443 75.2141 212.356ZM41.5797 210.91C41.4667 211.006 41.3437 211.091 41.2133 211.164C41.5401 212.032 41.2052 212.906 41.4939 213.79C41.5061 214.834 41.4536 215.885 41.5052 216.878C41.5011 217.823 42.0816 218.415 42.9186 218.476C43.2217 218.494 43.6229 218.422 44.0364 218.547C44.1187 216.697 44.0473 214.818 44.347 212.99C44.1553 212.972 43.9669 212.94 43.7864 212.893C43.7589 212.022 42.918 211.184 42.055 211.628C41.8826 211.396 41.7255 211.152 41.5797 210.91ZM97.2019 210.253C96.9416 210.284 96.6893 210.343 96.4468 210.443C96.5036 212.804 99.8741 211.146 100.335 214.043C100.412 214.725 100.329 215.411 100.306 216.095C100.295 216.445 100.023 216.995 100.4 217.199C100.594 217.484 101.126 217.428 101.078 217.019C101.07 216.943 101.064 216.866 101.059 216.789C101.225 216.492 101.326 216.18 101.38 215.858C101.58 215.753 101.52 215.485 101.431 215.296C101.379 214.885 101.548 214.163 101.105 213.944C101.059 211.22 100.059 210.787 97.5581 210.566C97.3882 210.548 97.2805 210.633 97.2322 210.751C97.1661 210.605 97.1679 210.43 97.2019 210.253ZM94.9847 174.404C93.1948 174.981 91.1959 175.101 89.3372 175.46C77.3333 177.16 65.7998 182.168 53.5591 182.033C53.1405 182.013 52.748 181.95 52.3804 181.849C52.3816 182.042 52.4077 182.24 52.4487 182.433C52.6785 182.631 52.8213 182.944 52.866 183.26C62.054 187.971 68.9898 197.545 73.3397 207.622C78.7296 206.88 84.1146 206.039 89.516 205.357L90.4963 205.229L92.4572 204.974C93.4123 204.852 94.4763 204.545 95.4256 204.75C95.8586 200.369 95.8597 196.095 96.1857 191.686C95.2319 190.914 95.4567 189.265 95.4183 188.126C95.2006 183.554 95.1815 178.975 94.9847 174.404ZM101.179 191.933C100.853 192.019 100.518 192.051 100.204 192.004C99.365 192.418 98.1233 192.204 97.1943 192.107C97.3023 193.124 97.3955 194.144 97.4352 195.166C97.5917 199.152 97.5296 203.221 97.1756 207.204C98.4481 207.295 99.721 207.453 100.991 207.557C101.003 202.359 101.243 197.138 101.179 191.933ZM52.6897 195.171C53.702 199.438 58.2893 205.966 62.9005 206.357C60.0935 201.763 56.8667 198.142 53.3008 195.594C53.0971 195.449 52.8946 195.309 52.6897 195.171ZM93.8743 162.958C93.7278 162.962 93.5812 162.963 93.4346 162.96C94.317 164.257 94.1599 166.278 93.0931 167.42C96.8164 169.753 96.6994 174.973 96.8242 178.89C96.9724 182.68 97.1715 186.462 97.3284 190.247C97.3284 190.178 97.552 190.275 97.6315 190.289C98.1354 190.355 98.6455 190.378 99.1542 190.355C99.9228 190.046 100.936 190.04 101.466 189.289C102.094 188.438 101.95 187.164 101.842 186.179C101.58 183.793 101.226 181.415 100.928 179.034C100.107 173.947 100.21 164.051 93.8743 162.958ZM92.487 167.967C89.4968 169.865 85.563 169.126 82.1855 169.336C79.7176 169.372 77.2484 169.384 74.7794 169.375C66.4632 169.327 58.152 168.992 49.8429 168.645L49.8614 168.994C50.0142 171.788 50.297 174.584 51.1012 177.267C51.558 179.106 52.2405 179.787 54.1528 179.625C64.3714 179.471 74.0665 175.785 84.0262 173.933C87.5866 173.333 91.2057 172.821 94.7798 172.396L94.7404 172.171C94.4541 170.564 93.9916 168.748 92.487 167.967ZM94.6605 86.8608C94.8021 87.1299 94.8837 87.3721 94.8207 87.6229C106.789 113.547 103.629 143.034 109.947 170.374C110.071 170.448 110.142 170.566 110.207 170.688C112.25 170.274 114.308 169.915 116.374 169.603C116.137 168.987 116.502 168.429 116.918 168.029C116.924 167.967 117.007 167.774 117.012 167.774C116.234 158.077 115.1 148.38 114.124 138.693C113.515 131.942 112.404 125.129 112.705 118.343C112.716 118.264 112.818 118.288 112.84 118.343C114.451 124.208 115.383 133.108 116.994 144.945C128.619 158.74 135.468 161.153 146.649 145.166L147.223 144.312C152.448 136.526 157.546 128.59 161.512 120.063C156.551 119.901 153.873 114.627 151.753 110.758C151.395 110.562 151.156 110.266 150.96 109.868C149.28 111.987 147.95 114.6 146.25 116.752C142.028 122.366 132.329 129.328 132.116 129.551L132.076 129.588C131.438 130.178 129.518 132.408 128.924 132.348C126.338 134.773 120.587 123.475 119.895 121.346C118.208 117.199 116.848 115.925 115.385 111.695L115.133 110.933C113.118 104.822 111.092 98.3846 106.048 94.1131L105.85 93.9005C102.621 90.443 99.4813 87.7456 94.6605 86.8608ZM156.344 163.407C154.91 163.497 153.476 163.583 152.043 163.67L150.716 163.749C140.254 164.383 129.769 165.166 119.285 164.705C119.384 166.196 119.899 167.742 119.331 169.192C126.564 168.336 133.845 167.809 141.109 168.163C145.426 166.099 150.665 165.452 155.519 165.425C155.601 164.739 155.882 163.964 156.344 163.407ZM82.7655 151.69C75.7252 148.509 68.8396 151.747 66.362 159.44C66.5356 159.585 66.6551 159.839 66.685 160.096C67.337 160.977 68.5324 160.949 69.5118 161.074C71.4817 161.338 73.392 161.981 75.1332 162.954C76.0946 163.485 76.9209 164.254 77.9134 164.718L78.4474 165.225C79.3387 166.069 80.2527 166.882 81.4338 167.327C82.6572 167.392 81.077 164.98 80.8198 164.511L80.7241 164.355C80.2088 163.527 79.5464 162.585 80.2515 161.645C81.5366 162.268 82.5719 163.168 83.6055 164.171L83.7924 164.355C84.7981 165.35 85.9547 166.599 87.3992 166.762C87.6426 166.79 87.8199 166.5 87.7587 166.285C87.1102 164.11 85.2148 162.59 83.4507 161.284C83.4658 160.664 83.8916 160.19 84.4486 160.055C86.9248 161.498 88.6534 163.784 91.0744 165.264C91.3355 165.42 91.6096 165.214 91.6352 164.939C91.6201 163.014 89.6812 161.538 88.3448 160.398C88.0668 160.181 87.7824 159.97 87.4927 159.767C87.5586 159.381 87.9071 159.044 88.3425 158.981C89.1367 159.21 93.8978 162.951 93.9111 161.222L93.9021 161.175C93.7753 160.566 93.0851 159.247 92.4185 159.41C89.9509 156.325 86.4074 153.118 82.7655 151.69ZM64.2543 80.9824C61.7665 82.428 59.3798 83.9931 56.889 85.4242C53.7143 87.2652 50.3037 88.6942 47.2528 90.7546C37.9627 97.6834 35.27 112.287 31.8914 122.938L31.4131 125.006C29.4767 133.393 26.5692 146.753 30.0773 153.588L30.102 153.642C30.5401 154.583 32.6234 158.396 33.6965 159.074C36.8413 161.059 43.4181 161.734 49.1338 161.345C54.5756 161.089 59.933 160.036 65.2442 158.928C65.3657 157.077 66.2605 155.53 67.2023 154.022L67.2999 153.866L67.409 153.702C68.7411 151.722 70.2435 150.117 72.4442 149.243C65.0921 147.016 52.9878 149.883 44.7918 144.052C44.1373 143.586 44.7085 142.6 45.4187 142.968C45.8459 143.189 46.2799 143.391 46.7192 143.579C46.332 142.167 47.3408 141.326 47.9433 140.1L47.9672 140.051C53.1428 129.482 57.2148 117.603 60.8251 106.835C59.7745 114.368 58.0795 121.829 55.6755 129.035C57.8785 130.747 59.7172 132.904 61.7032 134.861C63.8305 137.145 66.4114 139.086 68.035 141.799C68.389 142.431 67.6922 143.069 67.0873 142.757C65.6615 142.024 64.4778 140.861 63.3836 139.704L62.939 139.214C60.2234 136.213 57.5453 133.124 55.4731 129.627C54.0908 133.679 52.3849 137.039 50.5608 140.86L50.3273 141.351C49.9237 142.196 49.5473 143.139 48.8829 143.763C49.3225 144.655 50.4474 144.862 51.3149 145.122C58.3629 147.123 65.8464 145.451 72.923 147.273L73.3898 147.395C73.8559 147.518 74.3273 147.667 74.605 148.097C80.7773 148.326 86.788 150.884 91.5989 154.828L91.7229 154.928C93.7499 156.57 95.8268 158.737 96.1907 161.455C96.259 161.967 96.0715 162.692 95.4666 162.807C96.6378 162.954 97.6948 163.564 98.563 164.408C90.2842 135.342 66.0316 112.198 64.2543 80.9824ZM90.4653 163.613C90.5801 163.788 90.6843 163.972 90.7603 164.164C90.723 164.137 90.6871 164.109 90.6501 164.082C90.6604 163.988 90.5906 163.882 90.5237 163.805L90.5243 163.804C90.4923 163.766 90.4623 163.725 90.4311 163.686C90.4452 163.663 90.4562 163.638 90.4653 163.613ZM117.496 149.255C117.818 152.018 118.138 154.78 118.455 157.543C120.719 157.24 122.999 157.059 125.278 156.888L125.152 156.809C124 156.08 122.937 155.228 121.94 154.295C120.845 153.27 119.801 152.163 118.839 151.008C118.367 150.442 117.921 149.857 117.496 149.255ZM63.5498 119.655C63.9009 122.821 65.8504 125.504 67.6618 127.996C68.1361 128.648 67.0578 129.274 66.5893 128.63L66.4008 128.37C64.4972 125.738 62.6759 122.974 62.3078 119.655C62.2187 118.852 63.4618 118.861 63.5498 119.655ZM180.084 88.1982C174.469 91.765 168.594 94.8921 162.851 98.2406C162.148 98.6439 161.436 97.9808 161.568 97.2437C161.861 95.6081 162.152 93.9725 162.437 92.3363L162.658 91.068C162.741 90.6104 163.085 88.9589 162.756 88.3389C161.333 90.7774 159.861 93.189 158.382 95.5948L156.769 98.2181C155.041 101.028 153.107 103.88 152.42 107.153C152.839 107.556 153.055 108.14 153.107 108.714C153.59 108.91 153.92 109.454 153.788 110.029C155.856 112.531 157.268 116.127 160.577 117.179C164.329 111.713 170.497 108.515 176.945 107.719L178.09 107.517C180.886 107.017 183.8 106.406 186.027 104.647C183.816 104.754 181.605 104.857 179.393 104.954C178.653 104.987 178.497 103.806 179.218 103.649C182.431 102.95 185.695 101.462 188.264 99.2617C183.978 100.791 179.48 101.699 174.947 102.056C174.014 102.067 173.852 100.703 174.731 100.437C178.726 98.7721 182.308 96.1234 185.055 92.7613L185.143 92.6537L179.386 95.7241C176.985 97.0049 174.417 98.5873 171.613 98.5836C170.799 98.5823 170.617 97.5513 171.222 97.1232L172.011 96.5301C174.669 94.5254 179.704 90.6195 180.084 88.1982Z"
    fill="#2B2B2B" />
  <path fill-rule="evenodd" clip-rule="evenodd"
    d="M70.0469 29.9469C88.4525 29.0316 100.941 43.7102 101.478 49.5635C101.851 53.6267 101.598 59.0455 101.598 62.6763C101.598 64.5296 102.523 70.1628 101.478 72.864C99.1529 78.8761 96.5262 83.5854 89.2478 83.5854C81.9695 83.5854 70.874 79.7706 67.064 74.8504C66.3683 73.952 57.7241 67.376 57.7241 62.2071C57.7241 51.179 56.9138 30.6 70.0469 29.9469Z"
    fill="white" />
  <path fill-rule="evenodd" clip-rule="evenodd"
    d="M57.4905 18.0359C58.5394 17.7044 59.2089 18.1817 59.6865 18.9212C59.7918 18.9005 59.8937 18.9018 60.0071 18.9294C60.0351 18.9363 60.103 18.9622 60.1544 18.9826C60.1941 18.9994 60.2299 19.0198 60.2644 19.0414L60.2849 19.0305C60.3636 18.9437 60.4463 18.8645 60.5356 18.8006C60.7362 18.6572 60.9428 18.6154 61.139 18.6449L61.2298 18.6111C62.0062 18.3375 62.848 18.4645 63.3744 19.1409C63.4763 19.2716 63.5586 19.4171 63.6289 19.5706C63.7868 19.6229 63.9349 19.6985 64.0626 19.7916C64.1522 19.749 64.2469 19.7131 64.3483 19.6867C64.9211 19.5382 65.5229 19.6784 65.9897 20.0335C66.217 20.2063 66.3842 20.4227 66.511 20.6698C66.6554 20.704 66.7981 20.7657 66.9318 20.8484C67.0467 20.7906 67.1634 20.7363 67.283 20.6991C67.7203 20.5633 68.1893 20.5133 68.6445 20.5476C69.6252 20.6211 70.5737 21.7539 69.9183 22.7267L69.8979 22.7561C69.8147 22.8734 69.7424 22.9946 69.6753 23.1178C69.9101 23.221 70.1362 23.3592 70.345 23.5323C71.3667 24.3791 71.4586 25.6844 71.2675 26.9158L71.2594 26.9671H71.2618C71.8047 27.0192 72.2733 27.5925 71.9526 28.1317L71.937 28.157C71.5029 28.8352 71.1308 29.5844 70.7161 30.2981C69.5685 30.7165 68.4618 31.2318 67.4198 31.8561C66.7708 32.431 66.1528 33.0389 65.6091 33.7152C65.3377 34.0529 65.0884 34.4103 64.8593 34.781C65.0425 34.87 65.2691 34.8654 65.4605 34.6861C67.1629 33.0909 69.2196 31.9713 71.4095 31.221C71.5672 31.1668 71.6707 31.0649 71.7288 30.9443C72.7009 30.6642 73.6903 30.447 74.6894 30.2932C74.9648 30.0279 75.2533 29.7741 75.5275 29.5099C75.8776 29.1727 76.3161 29.1776 76.6437 29.3894C76.8065 29.3144 76.9729 29.2482 77.1418 29.1887L77.2467 29.1525C77.2904 29.138 77.3322 29.1212 77.3751 29.108C78.5476 28.7455 79.6197 28.8801 80.7729 29.1779L80.9206 29.2168C81.4582 29.361 81.7965 29.3379 82.3171 29.2052L82.3757 29.19C82.9289 29.0441 83.5205 28.936 84.0859 29.0897C84.6775 29.2504 85.0699 29.608 85.4729 30.04L85.5132 30.0835C85.7012 30.2869 85.8099 30.3091 86.056 30.3041L86.3197 30.2962C87.3147 30.2686 88.2891 30.3111 89.0344 31.0893C89.3099 31.3772 89.6055 31.7845 89.7829 32.1563L89.8087 32.2117C89.8169 32.2298 89.8242 32.2449 89.831 32.2584C89.9379 32.241 90.1042 32.1726 90.1834 32.157C91.2678 31.9443 92.1726 32.272 92.869 33.1362C93.0213 33.3253 93.2514 33.6966 93.4108 33.9007C93.4667 33.9486 93.5194 33.9999 93.5693 34.0539C93.8308 34.2227 94.2012 34.212 94.4944 34.2712C95.2933 34.4321 96.1472 34.7393 96.5534 35.5082C96.7232 35.829 96.7859 36.1801 96.8576 36.5309C97.1262 36.7093 97.3366 36.9664 97.5001 37.2448C97.6988 37.5828 97.7833 37.9967 98.0121 38.3159C98.1782 38.5477 98.4321 38.6715 98.6736 38.8132L98.7658 38.868C99.4816 39.299 100.042 39.7773 100.278 40.6218L100.298 40.6969C100.336 40.8263 100.471 41.1955 100.354 41.14C100.454 41.1961 100.625 41.2159 100.717 41.2466C101.214 41.4128 101.645 41.6812 101.91 42.1526C102.111 42.5114 102.148 42.8855 102.205 43.281L102.23 43.4407C102.236 43.4793 102.244 43.5242 102.251 43.5677L102.259 43.6105L102.261 43.6115C102.35 43.6508 102.439 43.6934 102.526 43.7393C102.937 43.9843 103.218 44.4096 103.218 44.9019C103.218 45.1409 103.145 45.327 103.037 45.4932C103.124 45.6263 103.191 45.7681 103.242 45.9262C103.342 46.2348 103.349 46.5722 103.316 46.8915C103.275 47.2746 103.178 47.6235 103.063 47.9894C103.019 48.1307 103.001 48.328 102.935 48.4628C103.058 48.6209 103.131 48.814 103.108 49.0046C103.076 49.2772 102.953 49.5959 102.708 49.7488C102.589 50.3444 102.332 50.953 102.079 51.4399C102.05 51.4964 102.015 51.5467 101.976 51.5885C102.011 53.5324 101.87 55.4899 101.861 57.4313C101.85 59.5447 101.893 61.6594 101.966 63.7702C102.089 67.2688 102.527 70.8865 101.506 74.298C100.67 77.0903 98.997 79.4874 96.753 81.3048C94.4555 83.164 91.6858 84.2399 88.7445 84.4081C87.2485 84.4927 85.7269 84.3208 84.2794 83.9291L84.1248 83.8867C82.7244 83.4976 81.1022 82.9032 80.0718 81.8624C79.5278 81.3122 80.0779 80.147 80.8757 80.4673C81.6662 80.7855 82.3755 81.2557 83.1598 81.5873C83.8605 81.8832 84.5917 82.1104 85.3323 82.2774C86.8174 82.6151 88.3924 82.6889 89.9018 82.4788C95.3517 81.7248 99.5982 77.1482 100.436 71.7215C100.668 70.2187 100.664 68.6912 100.648 67.1727L100.631 65.5088C100.618 64.1169 100.613 62.7241 100.663 61.3328C100.728 59.5423 100.853 57.753 101.02 55.9701L101.107 55.0423C101.211 53.9568 101.328 52.863 101.529 51.7923C101.364 51.801 100.064 49.5518 99.3425 48.295C99.0791 48.0838 98.8567 47.8213 98.7709 47.4818C98.753 47.4109 98.7438 47.3395 98.7382 47.2679C98.5816 47.019 98.4163 46.7764 98.2419 46.5411L98.2039 46.5239C98.1746 46.5104 98.1518 46.4992 98.1385 46.4915C97.7579 46.2733 97.4401 45.9427 97.2226 45.5596C97.1493 45.4304 97.0892 45.2956 97.0403 45.1577C96.7301 44.8498 96.4055 44.5561 96.0645 44.2806C96.031 44.2536 95.9964 44.2283 95.9626 44.2017C95.5285 44.0379 95.1475 43.791 94.8696 43.4355C94.7535 43.3628 94.6366 43.2916 94.5187 43.2219C94.1648 43.2185 93.8073 43.1352 93.4595 42.9906C92.8232 42.7264 92.315 42.2041 91.6758 41.962C90.9998 41.7063 90.2876 42.2876 89.5693 42.1827C89.3859 42.156 89.2042 42.0996 89.0351 42.0178C88.6306 42.451 88.2014 42.8595 87.7281 43.2169C87.0412 43.7359 86.3388 43.973 85.5426 44.2074C85.1481 44.586 84.7063 44.9531 84.1736 45.007C82.9407 46.0036 81.622 46.8443 80.2345 47.6248C80.0113 47.7504 79.7895 47.807 79.5789 47.8084C79.1437 48.0847 78.6686 48.2973 78.1668 48.4444C78.0095 48.4905 77.8474 48.5002 77.688 48.4804L77.2525 48.8391C76.9494 49.0886 76.6261 49.2079 76.3169 49.2156C76.1286 49.3614 75.9336 49.4993 75.7329 49.6319C75.5178 49.7742 75.2389 49.8332 74.9586 49.816C74.5306 50.2394 73.9755 50.2838 73.5107 50.0888C73.4468 50.1267 73.3811 50.1625 73.3073 50.1978C73.207 50.2458 73.1023 50.2863 72.9955 50.3191C72.5108 50.8474 71.8013 51.1244 71.0903 51.052C70.5594 51.3808 69.9414 51.5519 69.3373 51.5134C69.2451 51.9815 69.1688 52.4514 69.1043 52.9228L69.0977 53.2682C69.097 53.3241 69.0969 53.3677 69.0977 53.3965L69.098 53.4079C69.1572 54.9219 69.1895 56.4366 69.2479 57.9509L69.2532 58.0704C69.3197 59.3933 69.6416 61.8053 67.7187 61.7527C67.0021 61.7332 66.2912 61.1996 65.7332 60.7608L65.6546 60.6989C65.6118 60.6652 65.568 60.6307 65.5239 60.5956C65.1069 60.5408 64.6957 60.4383 64.2746 60.4227C63.7549 60.4043 63.2084 60.4583 62.702 60.5774C61.8083 60.7874 60.9437 61.1989 60.3608 61.9442C60.3098 62.0093 60.2625 62.078 60.2175 62.1468C60.1762 62.288 60.1058 62.4182 60.0123 62.5312C59.461 63.785 59.7793 65.4417 60.3887 66.5885C61.115 67.9546 62.2641 68.899 63.7091 69.3748L63.7816 69.3982C64.7688 69.7101 65.1465 70.3142 65.6832 71.1542C66.1859 71.9426 66.7628 72.6769 67.3821 73.3744C68.5806 74.724 70.2626 75.8379 70.9595 77.5459C71.1003 77.8899 70.6972 78.214 70.3851 78.1257C69.1623 77.7781 68.305 76.8977 67.4161 76.0221C66.8009 75.4157 66.2093 74.785 65.6542 74.1225C65.5377 74.1769 65.4096 74.2135 65.2762 74.23C64.6872 74.3027 64.0798 74.2724 63.5642 73.9515C63.3266 73.9733 63.079 73.8899 62.8951 73.7196C62.7264 73.5629 62.581 73.3934 62.4581 73.2131C62.2713 73.2296 62.088 73.2347 61.913 73.2053C61.8286 73.1973 61.7468 73.1749 61.6719 73.138C61.5328 73.0824 61.4008 72.9967 61.2796 72.8652C61.034 72.5987 60.9399 72.2222 60.9852 71.8643C60.9366 71.854 60.8884 71.8414 60.8408 71.8251C60.5139 71.7132 60.2623 71.491 60.1016 71.1887C59.8139 71.0255 59.5549 70.8042 59.3587 70.5692C59.1199 70.2832 58.9397 69.9608 58.8338 69.6048C58.7244 69.5534 58.6181 69.4938 58.5164 69.4241C57.7872 68.9251 57.3697 67.9884 57.656 67.1223L57.6657 67.0951C57.6803 67.0561 57.7066 66.9896 57.7388 66.9146C57.7342 66.8536 57.7294 66.7926 57.7261 66.7314L57.716 66.547L57.5699 66.4842C56.8413 66.1912 56.3488 65.7957 56.2612 64.9667C56.243 64.7952 56.3088 64.6204 56.4127 64.4742L56.4122 64.4283C56.3648 64.4035 56.3198 64.3781 56.2801 64.3525C55.8829 64.096 55.6388 63.6363 55.6661 63.1608C55.6912 62.7273 55.9286 62.3818 56.1956 62.0623L56.2718 61.9727C56.2781 61.9654 56.2852 61.9573 56.2928 61.9486L56.1163 61.8925C56.0018 61.8556 55.897 61.8189 55.8215 61.7762C55.5296 61.6108 55.2821 61.3872 55.1295 61.103C55.1073 61.0678 55.0847 61.0331 55.0643 60.9956C54.8672 60.6319 54.8414 60.166 54.9686 59.7757C54.9836 59.7296 55.0031 59.6863 55.023 59.6432C54.4863 59.4518 54.073 59.0564 54.0232 58.3277C54.0037 58.0411 54.0657 57.7556 54.2006 57.5111C54.1708 57.3464 54.1646 57.1757 54.1839 57.0069C53.9951 56.8265 53.8484 56.6091 53.7828 56.344C53.6588 55.8431 53.8858 55.3665 54.2231 54.9295C54.0983 54.5839 54.0918 54.194 54.2344 53.8461C54.1795 53.6725 54.1483 53.4889 54.1466 53.3004C54.1428 52.883 54.27 52.5344 54.4753 52.2378C54.1867 51.881 54.0496 51.4067 54.2201 50.9623C54.3414 50.6465 54.4801 50.3575 54.6399 50.0898C54.556 49.8862 54.5071 49.6582 54.5071 49.4029C54.5071 48.9436 54.6774 48.5797 54.9379 48.282C54.8248 47.7381 55.0547 47.0757 55.5557 46.8362C55.7445 46.7458 55.9974 46.6515 56.2759 46.5781C56.3805 46.2478 56.4897 45.9188 56.6049 45.5921C56.7864 45.078 56.9817 44.5709 57.1886 44.0698C57.0695 44.1753 56.9445 44.2736 56.8153 44.3628C56.4067 44.8881 55.865 45.3432 55.4098 45.6155C54.5073 46.1553 53.4751 45.835 53.0295 44.9318C52.6108 45.2479 52.1084 45.4351 51.5722 45.3711C50.9643 45.2985 50.4085 44.9004 50.2567 44.2794C50.2348 44.1895 50.2215 44.0924 50.2202 43.9946C49.8716 44.2456 49.5068 44.4766 49.1067 44.6089C48.597 44.7774 48.0768 44.3732 48.0095 43.8697C47.9829 43.6702 48.0198 43.4939 48.0984 43.3449L48.0486 43.3251C48.0404 43.3216 48.0321 43.318 48.024 43.3141C47.7567 43.1875 47.5492 42.9554 47.4506 42.6877C46.8718 42.9141 46.2093 42.6487 46.0257 42.0052C45.8071 41.2401 45.7938 40.4652 45.9649 39.72C45.3517 39.2693 44.9522 38.5116 44.8842 37.7196C44.8345 37.151 44.9687 36.6261 45.2051 36.1408C44.6252 35.9215 44.4258 35.1528 44.7014 34.599C44.3353 34.387 44.0966 33.9377 44.0912 33.5003C43.9277 33.2498 43.8753 32.9272 44.011 32.5656C44.1898 32.0893 44.5541 31.6908 44.9713 31.3783C44.7894 31.058 44.6542 30.7088 44.5703 30.3479C44.2247 30.2456 43.9458 29.9629 43.8889 29.5384C43.8178 29.0062 44.1642 28.555 44.6305 28.4359C44.6822 28.2738 44.7454 28.1152 44.8235 27.963C44.5928 27.4104 44.6268 26.7116 44.9243 26.1075C45.1878 25.5733 45.6164 25.2466 46.1325 25.0207C46.0014 24.5663 46.175 24.1132 46.6122 23.7755C47.1459 23.3628 47.7312 23.0473 48.3462 22.8244C48.2916 22.0848 48.5974 21.3273 49.32 21.0695C49.5132 21.0006 49.7143 20.9752 49.9187 20.976C50.0671 20.6497 50.3147 20.3845 50.6378 20.1497C51.1268 19.7946 52.0406 20.0115 52.3118 20.5684L52.325 20.5971C52.3388 20.6286 52.3538 20.6575 52.368 20.6881C52.4226 20.4176 52.5504 20.1622 52.7557 19.9528C53.269 19.4294 53.811 19.4195 54.3325 19.6434C54.4282 19.4034 54.5441 19.1753 54.6849 18.9666C55.1963 18.2097 56.0411 18.1133 56.6597 18.5232C56.9076 18.3028 57.1844 18.1328 57.4905 18.0359ZM61.1466 63.5541C62.1762 63.1464 63.4257 63.2669 64.4434 63.6585L64.5179 63.6878C65.4167 64.0472 66.877 64.8465 67.0529 65.8689C67.144 66.3983 66.6463 66.8562 66.141 66.5776C65.7014 66.3355 65.4549 65.848 65.1052 65.4944C64.7592 65.1445 64.3717 64.8633 63.9492 64.6163C63.0676 64.1018 62.141 63.9016 61.1466 63.7532C61.0349 63.7372 61.0652 63.586 61.1466 63.5541Z"
    fill="#2B2B2B" />
  <path fill-rule="evenodd" clip-rule="evenodd"
    d="M89.0027 74.5306C88.1864 74.1938 87.458 73.6321 86.9255 72.9145C86.7404 72.665 86.6924 72.4016 86.7312 72.1607C86.7749 71.8897 86.9334 71.6442 87.1495 71.4795C87.3664 71.3143 87.6376 71.2328 87.8998 71.2744C88.1276 71.3104 88.3544 71.4366 88.5339 71.6982L88.5714 71.7506C88.888 72.1837 89.3005 72.539 89.7706 72.7681C90.2236 72.9888 90.7303 73.0919 91.2547 73.032C92.2533 72.9179 92.9416 72.3717 93.6732 71.6301C93.7639 71.5364 93.8547 71.4398 93.9459 71.3417C94.0034 71.2528 94.0833 71.1956 94.1721 71.1656C94.2706 71.1323 94.382 71.1342 94.4841 71.1702C94.5825 71.2049 94.6705 71.2708 94.7296 71.3584C94.7856 71.4417 94.8174 71.5446 94.8071 71.6629C94.7402 72.4315 94.3428 73.1175 93.7783 73.6561C93.1514 74.2543 92.3205 74.6682 91.5381 74.8133C90.6762 74.9732 89.7979 74.8587 89.0027 74.5306ZM91.9447 62.6731C92.8617 63.2367 94.2589 64.5511 93.2724 65.9485C92.1113 67.1806 90.4395 65.7679 89.6156 65.129C88.8517 64.6338 87.9934 65.9073 88.7022 66.4855C94.6553 70.9425 97.0712 62.8205 92.4085 62.0104C91.8951 61.9211 91.7045 62.4987 91.9447 62.6731ZM81.2767 57.4884C81.378 56.2166 83.2933 55.9278 83.4839 57.1863C83.6545 58.3136 83.4536 59.3492 82.9515 60.3641C82.4717 61.3337 81.2658 60.8814 81.1746 59.9984C81.0524 58.8149 81.2137 58.2795 81.2767 57.4884ZM95.8564 56.9254C96.1234 56.5717 96.509 56.3303 96.9709 56.4667C98.4141 56.8932 97.9888 58.9652 97.4819 59.9737C97.2065 60.5214 96.3163 60.6603 95.914 60.1781C95.2582 59.3917 94.9442 57.8212 95.7778 57.0466C95.8004 57.0065 95.8255 56.9661 95.8564 56.9254ZM82.9312 51.9236L83.1592 51.8832C83.8644 51.7599 84.7413 51.6414 85.2402 52.2147C85.5048 52.5188 85.5959 53.0839 85.2402 53.375C84.6146 53.887 83.9229 53.6886 83.1732 53.7319C82.5553 53.7678 81.9615 53.8712 81.3664 54.0432C80.0608 54.4206 78.9969 55.1095 77.8818 55.866C77.7354 55.9652 77.5861 55.7759 77.6559 55.6375C78.2996 54.3625 79.5471 53.3152 80.7966 52.6767C81.4635 52.3359 82.1934 52.0533 82.9312 51.9236ZM94.5408 51.3524L94.7153 51.3885C96.6141 51.7899 99.0812 52.5917 99.9804 54.4779C100.015 54.7446 99.9785 54.8017 99.949 54.8391L99.9392 54.8515C99.915 54.8834 99.8956 54.9274 99.7813 54.9637C99.7496 54.956 99.7176 54.9479 99.6852 54.9393C99.273 54.8301 98.9469 54.6796 98.6312 54.5235L98.2889 54.3529C97.8917 54.156 97.491 53.9662 97.0664 53.8262C96.1603 53.5273 95.2282 53.3167 94.2817 53.2043C94.0766 53.18 93.8791 53.1099 93.7232 52.9899C93.5753 52.876 93.4623 52.7183 93.4107 52.5087C93.344 52.2375 93.3632 52.0321 93.5071 51.7874C93.6153 51.6036 93.7702 51.4762 93.948 51.403C94.1293 51.3285 94.3356 51.3109 94.5408 51.3524Z"
    fill="#2B2B2B" />
</svg>
