<svg width="217" height="287" viewBox="0 0 217 287" fill="none" xmlns="http://www.w3.org/2000/svg">
<path fill-rule="evenodd" clip-rule="evenodd" d="M49.1473 235.139C51.6705 234.689 52.5789 237.551 52.6875 239.361C53.7047 238.918 54.764 238.415 55.6839 237.835C57.1965 236.891 58.8301 235.26 60.6166 235.304L60.6983 234.861C60.7896 234.085 62.4089 234.602 62.8459 234.875C63.5461 234.748 64.3151 234.061 64.7845 233.433C62.8946 232.751 62.066 232.724 62.3647 230.357C62.3651 229.991 62.4584 229.649 62.3551 229.323C64.6121 219.515 65.053 209.702 65.3368 199.705L64.1777 199.477C60.5069 209.493 57.0189 220.004 53.8895 230.712C53.8118 231.194 53.5301 231.199 53.2561 230.939C52.3065 230.988 51.3886 230.948 50.4211 230.812L50.4344 230.768C50.1437 230.77 49.8542 230.756 49.5876 230.738C49.3596 232.175 49.0959 233.655 49.1473 235.139V235.139ZM50.6691 229.674C50.6051 229.643 49.8763 229.329 49.7939 229.293L49.776 229.47C50.0895 229.589 50.4049 229.704 50.7232 229.808L50.7525 229.711L50.6691 229.674ZM81.8063 251.125C83.0364 251.414 84.3396 251.78 85.5491 252.123L85.0746 251.005C87.8022 243.915 89.8868 236.427 91.4038 229.107C92.4782 224.342 93.593 219.414 95.0829 214.692C96.9641 207.276 101.024 199.646 109.602 199.01C109.602 199.01 109.746 198.769 109.746 198.769L109.915 198.615C110.334 193.414 110.9 188.232 111.449 183.254C106.858 184.485 102.905 184.085 98.5167 184.051C97.0951 183.859 95.2027 184.262 94.0684 183.629C94.0684 183.629 93.3189 182.887 93.3189 182.887C88.3371 202.106 87.0407 221.913 85.2615 241.376C85.2009 241.818 84.8564 241.967 84.4942 241.784C84.0758 242.232 83.2049 242.06 82.6088 242.125C83.1092 245.042 82.5203 248.519 81.0679 250.948L81.8063 251.125ZM93.4991 249.485C96.5684 246.964 100.205 245.714 104.003 245.855C105.336 243.926 107.219 241.615 109.335 240.744C110.327 237.508 110.205 233.96 109.995 230.913C109.505 227.8 110.603 227.438 113.203 227.665C112.085 226.348 112.185 226.03 112.412 224.3C111.669 224.413 109.423 225.845 109.115 224.833C108.743 222.86 108.489 221.146 108.341 219.592C108.262 218.265 109.225 216.869 109.106 215.518C109.459 212.045 109.097 208.158 110.736 204.958C104.095 205.824 102.477 212.897 100.758 218.108C97.2219 228.84 94.7506 239.798 92.1185 250.618L93.4991 249.485ZM113.956 224.916C114.113 225.261 114.136 225.59 114.191 225.926C117.315 225.366 116.76 229.845 117.051 232.296C117.639 232.105 118.052 232.046 118.666 232.164C118.756 231.357 118.218 230.998 120.106 230.909C128.906 231.069 132.252 240.051 135.28 246.923C136.685 250.228 138.681 250.743 141.647 250.686C143.637 250.723 145.672 251.249 147.705 251.186C140.313 236.97 137.624 216.551 140.626 198.84H140.624C140.806 197.718 141.023 196.551 141.247 195.422C134.912 195.487 127.541 195.635 121.44 195.378C120.636 196.099 119.646 196.42 118.635 196.428C118.63 197.214 118.544 198.078 118.467 198.862C124.169 198.724 130.496 198.809 136.272 198.891C130.496 198.973 124.14 199.073 118.459 198.913C118.469 200.415 118.314 201.78 116.946 202.507C116.423 206.307 117.098 210.277 116.626 214.697C116.247 217.703 116.559 223.458 113.747 224.414L113.956 224.916ZM154.101 248.022L154.321 248.398C154.787 248.243 155.072 248.277 155.526 248.621C158.825 250.362 163.567 248.745 167.175 248.631C166.489 246.432 166.462 242.926 169.587 242.882C168.551 233.245 169.249 223.685 169.089 214.057C163.399 212.998 163.59 212.427 169.117 211.437C169.152 206.051 169.193 200.602 169.19 195.166C169.19 192.55 169.215 189.998 169.46 187.468C168.945 186.429 169.06 185.365 168.794 184.268C167.673 183.655 165.73 184.368 165.032 183.312C162.013 183.269 158.938 183.241 155.889 183.083C155.612 183.091 155.509 182.84 155.389 182.658C154.859 182.521 153.963 182.833 153.521 182.612C153.521 182.612 152.925 181.861 152.925 181.861C150.441 186.809 148.515 192.639 147.377 198.542C150.965 198.58 155.073 198.569 158.775 198.552C155.17 198.812 151.279 198.969 147.292 199.023C144.199 214.034 146.414 235.095 154.101 248.022V248.022ZM159.066 255.141C166.541 264.329 178.749 267.391 188.774 260.005C215.524 240.153 214.324 172.864 179.191 163.556C180.145 167.075 183.453 181.676 177.472 182.092L177.491 182.045L177.186 181.881C175.931 182.305 174.164 181.716 173.752 183.418C173.736 183.421 173.077 183.477 173.038 183.481C173.466 185.595 173.341 187.787 173.469 189.935C173.974 189.747 174.603 189.636 175.15 189.68C177.212 189.586 177.161 187.387 177.08 185.858C177.004 185.11 177.236 184.253 177.197 183.55C177.177 183.062 177.21 182.682 177.4 182.278C178.034 184.257 178.634 186.852 178.257 188.867C177.703 190.749 175.248 191.647 173.471 190.726C173.548 197.498 173.57 204.218 173.609 210.931C174.776 210.333 175.841 210.712 177.048 211.032C178.572 211.345 180.38 210.901 181.907 211.261C182.084 210.525 182.795 209.624 183.544 210.218C184.497 210.227 185.021 211.089 185.494 212.975C185.789 214.47 185.617 216.464 184.161 217.182C183.339 217.615 182.517 217.307 182.111 216.422C181.882 216.512 181.515 216.786 181.254 216.698C178.823 216.123 176.202 215.541 173.63 214.998C173.496 224.481 173.927 233.895 173.124 243.405C176.794 243.707 183.784 242.748 185.382 245.898C186.851 246.516 187.906 247.937 187.902 249.367C187.95 251.685 185.312 252.465 183.25 252.491C174.908 253.108 166.645 254.207 158.239 254.191L159.066 255.141ZM143.946 182.84C138.64 183.547 133.312 183.542 127.994 183.773C129.73 195.27 127.304 188.59 121.91 195.052C128.073 195.045 135.516 194.973 141.311 195.114C142.212 190.781 143.428 186.645 144.939 182.695L143.946 182.84ZM102.868 124.501C100.529 127.689 97.4549 130.473 94.0059 132.377C96.9851 132.591 100.018 132.788 102.955 133.189C103.284 130.429 103.615 127.668 103.948 124.908L102.868 124.501ZM1.53659 245.14C1.81359 242.426 4.96107 241.425 7.26309 242.174C8.55535 238.823 12.9736 239.23 15.8167 237.753C21.5243 235.057 27.3654 229.782 33.9719 231.858C34.5639 230.27 35.2272 228.746 35.9409 227.415C35.6616 227.554 35.3032 227.539 35.0513 227.294L35.0493 227.296C34.8036 227.022 34.5654 226.715 34.5335 226.376C33.6763 225.437 33.317 223.953 33.0961 222.846C34.1428 219.354 35.4135 216.008 36.5455 212.552C40.9384 199.375 44.029 187.133 47.3437 174.531C51.0297 165.16 52.0189 140.572 65.3699 140.524C65.4131 139.869 65.4363 139.115 65.65 138.519C66.0316 139.029 66.1901 139.783 66.242 140.431C71.9565 140.343 76.8957 141.379 80.6651 142.975C87.8833 142.662 94.2094 143.082 102.513 144.04C101.507 142.346 102.179 140.439 102.274 138.571C90.2349 139.127 77.9981 138.044 66.0155 137.396C64.0821 137.231 62.0301 137.335 60.1637 136.861C58.1391 136.399 56.2167 133.925 58.2815 132.042C59.6786 131.195 61.415 131.654 62.9463 131.579C70.7065 131.578 78.6478 131.727 86.1184 131.994C76.9201 127.428 72.2795 117.893 66.7787 109.76C63.985 105.317 61.8986 101.579 60.2107 97.9903C59.9216 97.3934 59.8409 96.747 60.0144 96.4185C60.0791 96.0897 61.1221 96.0534 61.4044 95.9722C53.7548 84.3073 42.0064 89.4433 35.7246 82.6843C36.915 82.7369 38.1043 82.7913 39.2935 82.847L39.5674 81.7334C37.3224 80.7468 35.1959 79.2149 32.8724 76.9089C32.8735 76.9041 32.8754 76.8989 32.8778 76.8937C36.7299 78.0693 40.3207 78.9252 43.854 79.5102L44.28 78.4471C41.105 76.4298 38.2808 73.6861 36.1113 70.5115C40.1581 72.2563 43.9649 74.7349 48.1645 76.323L48.7964 75.3574C46.4023 73.1235 41.0361 69.775 42.5625 66.6482C48.528 69.4493 53.9711 73.0751 59.7167 76.24C59.7217 73.672 57.8704 69.6336 58.9942 67.4926C60.1807 66.0642 60.7408 67.2795 61.3401 68.4223C61.3401 68.4223 63.8352 72.5147 64.4461 73.5161C66.7369 77.4942 69.9552 81.4262 69.8813 86.1294C71.8728 85.1962 73.4386 88.5843 74.7327 90.4344C78.3696 96.4649 90.6777 105.932 93.3954 107.222C104.461 97.4385 102.812 80.8711 114.575 71.6308C118.347 67.8756 121.135 67.4406 125.582 66.0604C126.64 65.8127 127.835 64.9385 128.781 65.7773C130.185 64.6416 131.551 60.9745 132.13 59.4078C132.489 57.8922 133.086 54.1618 133.923 53.4623C134.759 52.7628 148.382 52.18 149.577 52.5297C150.772 52.8794 150.294 55.6772 150.294 55.6772L151.552 60.7502L151.66 60.7206C151.68 60.7279 151.848 60.8546 151.869 60.8688C152.765 60.8624 153.625 60.4494 154.485 60.4499C155.392 60.4686 156.125 61.0719 156.821 61.5885C158.062 62.5044 159.346 63.4516 160.856 64.0233C178.364 69.4797 180.677 77.6926 185.915 93.4723C190.225 93.5914 193.855 93.066 197.606 92.862C198.927 93.0256 198.498 95.5282 198.457 96.9583C198.582 100.477 195.886 100.114 193.212 100.083C191.444 100.103 189.664 100.275 187.915 100.073C189.799 108.559 193.589 121.826 189.442 129.743C186.084 135.946 183.234 137.125 180.516 137.306C179.82 143.244 180.513 148.562 180.387 154.305C220.454 164.839 222.297 225.985 204.388 255.757C190.008 280.085 162.962 278.752 149.557 254.54C146.315 256.264 139.888 256.145 135.607 255.767C132.239 255.574 131.134 254.18 129.931 251.129C128.586 248.162 127.308 245.234 125.94 242.268C124.633 239.131 122.023 235.526 117.314 235.666C117.336 237.515 117.688 239.598 116.406 241.066C121.183 242.65 118.311 250.032 116.923 253.481C123.484 262.212 121.273 277.514 112.096 283.847C96.9398 293.773 82.3097 275 86.737 260.618C86.0114 260.953 84.6643 261.417 84.0848 260.686C83.8486 260.515 84.1749 259.759 84.2329 259.513C74.0678 258.931 64.0953 257.764 54.016 256.842C54.3585 265.976 45.073 274.979 35.7558 274.776C23.5971 275.326 16.3121 259.695 19.9901 249.573C15.3401 249.447 10.6205 249.066 5.7726 248.425C3.12176 248.167 1.43251 247.554 1.53659 245.14V245.14Z" fill="white"/>
<path fill-rule="evenodd" clip-rule="evenodd" d="M150.726 56.1438C151.014 56.2359 150.982 55.6332 150.579 55.6939C150.245 55.7447 150.122 56.1827 150.061 56.4606L150.051 56.5053C149.493 59.0564 150.136 61.7515 151.448 63.9906C151.777 64.5143 152.119 65.233 152.771 65.3732C152.461 67.5311 152.037 69.6713 151.511 71.7883C149.637 72.4295 147.872 73.3797 146 74.0373C142.399 75.2866 138.545 75.6207 134.755 75.8861C132.148 76.0247 129.467 75.9125 126.99 75.0408C125.943 74.7619 125.055 73.849 123.956 73.8518C124.694 71.8875 125.51 69.9522 126.416 68.0522C129.232 68.0513 131.36 65.3848 132.197 63.0149C132.502 62.0706 132.59 61.0809 132.784 60.1133L132.855 59.752C132.918 59.4301 132.976 59.1061 133.001 58.7797C133.009 58.6585 132.825 57.5941 132.868 57.4426C132.873 57.4868 132.932 57.4517 132.959 57.4494C133.033 57.3599 132.969 57.1803 132.822 57.1872C132.584 57.1803 132.466 57.685 132.412 57.8226C131.269 60.1105 130.834 62.9226 128.794 64.6403C127.776 64.0134 126.522 64.8343 125.487 65.086L125.187 65.1785C120.348 66.6659 118.109 67.0264 114.222 70.8046C107.583 75.8581 105.626 82.3078 103.013 89.7376L102.858 90.1413C100.346 96.6825 98.3178 100.74 93.318 106.099C91.5036 105.273 80.2312 96.4769 76.3614 91.3094L76.2464 91.1539C75.1318 89.6727 72.5947 84.4887 70.5175 84.9812C70.331 80.4236 67.224 76.6509 65.0327 72.812L61.9221 67.7106V67.7106C61.6222 67.2185 61.3354 66.5402 60.91 66.1402C60.187 65.4607 58.9859 66.0855 58.5533 66.7745C57.3632 68.7307 58.861 72.4698 59.0816 74.7553C53.7484 71.7416 48.5569 68.4449 43.0449 65.7451C42.5812 65.5271 42.0029 65.6938 41.8556 66.2172C40.9243 69.975 46.0034 73.1202 48.4558 75.3683C44.4438 73.7954 40.6802 71.5563 36.7972 69.6816L36.5382 69.5572C36.0112 69.2902 35.2978 69.8579 35.6706 70.4035C37.8682 73.6244 40.7087 76.4165 44.0224 78.5218C40.3251 77.9098 36.6876 77.0122 33.0966 75.9152C32.5122 75.7368 32.0952 76.4934 32.5099 76.899L32.7055 77.0919C34.6685 79.0145 36.8348 80.7282 39.3906 81.8513C38.1968 81.7952 37.0029 81.7405 35.8079 81.6879C35.2153 81.6624 35.0182 82.3712 35.355 82.7547C36.6828 84.2619 38.4693 85.2401 40.3762 85.8828C48.3558 87.9764 55.0549 87.797 60.4379 95.1478C59.091 95.3844 59.2875 96.8509 59.7126 97.7701L59.7389 97.8257C61.661 101.912 63.9357 105.832 66.3444 109.662C71.5032 117.139 75.7405 126.126 83.9063 130.921C78.6338 130.746 73.3587 130.646 68.0823 130.603C66.6206 130.591 65.1588 130.584 63.697 130.583L62.6007 130.582C61.1513 130.582 59.2382 130.285 57.9882 131.164C55.5866 133.049 57.4603 136.523 60.1201 137.02C61.7957 137.459 63.6063 137.393 65.3254 137.521C64.9978 138.138 64.917 138.899 64.8749 139.561C58.8349 139.928 55.3092 144.552 53.6622 149.838C50.3598 159.961 47.8301 170.309 45.0918 180.588L44.7815 181.78C42.1392 191.911 39.361 202.014 36.0459 211.958C34.9178 215.402 33.6296 218.799 32.5911 222.269C32.4985 222.578 32.5671 222.86 32.7255 223.085C32.9214 224.44 33.8084 226.715 35.3013 227.074C34.6889 228.249 34.1383 229.521 33.6702 230.745C26.9352 228.996 21.279 234.159 15.6175 236.818C12.7665 238.274 8.60991 237.866 7.00648 241.08C4.42136 240.449 1.27209 241.853 1.01003 244.674C0.781784 247.579 3.31409 248.418 5.79835 248.592C10.2659 249.185 14.7594 249.573 19.2658 249.717C16.7206 258.091 20.9391 270.282 29.6381 273.725C41.0807 278.436 54.3733 268.792 54.6661 257.067C64.2762 257.956 73.8878 259.063 83.5191 259.637C83.1205 260.975 84.9388 261.53 85.9832 261.138C83.4375 272.421 90.9541 286.746 103.468 286.7C119.593 286.594 126.11 264.702 117.665 252.987L117.745 252.784C119.089 249.396 121.616 242.423 117.347 240.416C118.248 239.072 118.022 237.382 117.992 235.863C121.947 236.038 123.991 238.813 125.461 242.089C126.815 245.021 128.106 247.982 129.441 250.925C130.699 254.114 131.94 255.723 135.641 255.936L136.02 255.963C140.149 256.255 145.639 256.496 149.365 254.877C158.209 270.664 176.765 280.029 192.826 268.712C225.796 246.505 224.581 163.283 181.048 153.427C181.03 151.84 181.007 150.255 180.979 148.668C181.072 147.657 181.052 146.649 180.958 145.624L180.938 145.205C180.819 142.619 180.791 140.005 181.118 137.435C186.4 137.016 189.6 130.42 190.133 129.422C194.205 121.793 190.438 107.678 188.744 100.303C190.388 100.43 191.89 100.235 193.497 100.253L194.055 100.262C197.042 100.308 199.048 100.186 199.123 96.5503C199.12 95.0741 199.792 92.3374 197.803 91.879C196.904 91.7031 195.843 92.0142 194.943 92.1007C192.103 92.3252 189.258 92.4956 186.409 92.4783C183.937 85.5641 182.001 78.1654 177.293 72.3118C173.294 67.3592 166.897 65.4089 161.147 63.0685C159.586 62.4788 158.268 61.4572 156.923 60.4698L156.831 60.3995C156.163 59.8989 155.437 59.4763 154.57 59.4536C153.727 59.4316 152.943 59.8046 152.118 59.8591C151.972 59.7533 151.783 59.687 151.619 59.7319C151.179 58.5457 150.854 57.3131 150.694 56.0635L150.708 56.0059C150.732 55.9108 150.742 55.9348 150.735 56.0797C150.696 56.0797 150.691 56.1323 150.726 56.1438ZM103.468 247.181C105.285 247.181 107.028 247.557 108.65 248.245C109.026 250.286 107.306 253.149 106.728 255.205C106.704 256.055 106.546 256.92 106.343 257.76C106.198 260.211 105.136 262.459 104.643 264.779C104.551 265.22 103.86 265.033 103.951 264.593C104.383 262.513 104.961 260.466 105.458 258.4C105.225 258.537 104.829 258.352 104.915 258.013C105.099 257.282 105.099 256.543 105.07 255.802C92.7708 257.318 93.4901 277.273 106.037 277.548C114.179 277.747 118.717 266.851 114.114 260.328C114.87 258.743 115.688 257.185 116.462 255.596C123.056 266.36 116.151 284.705 103.468 284.368C83.0162 283.804 83.007 247.749 103.468 247.181ZM29.6276 249.526C27.1999 253.944 27.459 259.879 30.538 263.951C34.0207 268.58 41.6212 268.038 45.0333 263.596C46.382 262.012 47.421 260.073 47.4819 257.979C47.4866 257.517 47.1806 256.7 47.593 256.338L50.23 256.613C51.5486 256.75 52.8672 256.886 54.1857 257.018C50.3648 266.985 40.9742 276.011 29.5089 271.019C22.4036 267.194 19.7709 258.056 20.8074 250.6C20.8658 250.243 20.7333 249.95 20.5182 249.753C23.5546 249.822 26.6038 249.837 29.6276 249.526ZM154.183 173.887C174.449 142.603 201.144 162.857 207.977 191.57C213.109 211.34 211.288 235.476 200.573 252.976C187.99 273.817 166.754 273.792 154.183 252.977C144.67 237.441 142.167 216.669 145.318 198.369C145.317 198.534 145.376 198.698 145.497 198.83C141.794 220.796 145.961 247.976 163.808 261.323C176.982 270.813 192.388 263.054 199.783 250.053C214.098 226.481 212.995 183.258 189.514 165.54C182.812 160.877 174.94 159.991 167.68 163.325C167.606 162.885 167.326 163.37 167.217 163.544C154.726 170.017 148.553 183.92 145.698 197.758C145.526 197.852 145.411 197.995 145.356 198.153C145.746 195.917 146.222 193.718 146.779 191.57C148.525 184.93 151.017 178.981 154.183 173.887ZM108.27 265.961C109.351 265.288 108.837 267.307 108.461 267.683C108.191 268.054 107.656 267.74 107.842 267.33C108.072 267.001 107.662 266 108.27 265.961ZM180.097 163.978C210.413 172.291 212.398 226.924 197.732 248.855C190.981 260.668 177.264 268.106 165.187 259.42C163.208 258.055 161.338 256.359 159.59 254.35C167.354 254.288 175.104 253.273 182.852 252.702L183.028 252.686C184.201 252.587 185.405 252.532 186.486 252.038C189.764 250.471 188.87 246.449 185.892 245.045C184.261 241.907 177.058 242.607 173.836 242.441C174.559 233.42 174.183 224.347 174.288 215.306C176.592 215.796 178.889 216.309 181.182 216.851C181.454 216.916 181.73 216.878 181.963 216.765C182.523 217.627 183.62 217.724 184.5 217.288C186.28 216.41 186.483 214.127 186.147 212.44L186.112 212.294C185.818 211.101 185.232 209.325 183.801 209.233C182.899 208.684 181.917 209.332 181.588 210.193C180.077 209.947 178.708 210.335 177.235 210.046C176.259 209.854 175.274 209.366 174.27 209.702C174.235 203.51 174.213 197.317 174.146 191.125C176.039 191.744 178.35 190.464 178.899 188.616C179.271 187.386 178.942 185.976 178.768 184.741L178.735 184.51C178.623 183.736 178.483 182.927 178.213 182.177C182.477 181.602 181.605 172.882 181.281 169.801C180.884 167.78 180.636 166.025 180.097 163.978ZM109.69 199.136C111.584 199.119 112.937 201.12 111.844 202.713C109.644 205.137 106.465 202.952 103.056 209.487C97.3994 222.565 94.7899 236.712 91.2698 250.436C89.4996 252.233 88.4242 254.516 87.1244 256.65C86.6447 257.453 86.4982 258.585 85.6271 259.092C85.4586 259.169 85.3235 259.182 85.1909 259.162C86.9984 258.184 86.6197 253.355 86.2473 251.599L86.2634 251.599C86.4276 251.61 87.028 251.738 86.7527 251.461L86.46 251.369V251.369L86.1672 251.278L86.1469 251.207C91.2326 239.683 92.3381 226.818 95.9827 214.817L96.3078 213.752C97.567 209.65 99.0207 205.36 102.207 202.315C102.329 202.308 102.453 202.264 102.567 202.17L102.681 202.073C104.562 200.485 106.873 199.203 109.447 199.434C109.55 199.442 109.566 199.288 109.471 199.263C109.41 199.248 109.35 199.236 109.289 199.222C109.424 199.196 109.557 199.167 109.69 199.136ZM118.735 231.704C119.278 231.915 119.83 231.767 120.443 231.781C121.085 231.796 121.709 231.9 122.325 232.071C132.454 234.931 130.961 249.789 138.337 251.513C140.18 251.862 142.036 251.593 143.885 251.351C145.065 251.392 146.149 251.356 147.278 251.119C147.808 252.158 148.364 253.173 148.942 254.163C147.598 253.958 146.229 254.012 144.871 253.989C141.677 254.037 138.483 253.91 135.311 253.521C134.182 253.396 133.14 253.09 132.472 252.134C130.963 249.646 129.931 246.881 128.575 244.309L128.396 243.917C126.455 239.655 123.887 234.541 118.425 234.528C118.394 234.221 118.147 233.974 117.868 233.898C117.837 233.455 117.806 233.012 117.772 232.568C118.088 232.272 118.32 231.891 118.735 231.704ZM186.155 246.207C186.747 247.177 186.685 248.879 185.626 249.552C184.908 249.95 183.884 249.906 183.088 249.962L181.717 250.06C181.26 250.093 180.803 250.126 180.347 250.161L179.662 250.215C173.128 250.724 166.6 251.279 160.075 251.858L160.045 251.847C159.954 251.815 159.812 251.77 159.812 251.77L159.71 251.725C159.565 251.657 159.741 251.719 159.758 251.727L159.759 251.727C159.031 251.27 158.248 251.794 158.075 252.487C157.423 251.634 156.791 250.735 156.179 249.788C157.039 250.034 157.952 250.071 158.841 250.016C159.453 250.694 160.551 250.445 161.368 250.43C167.14 249.979 172.898 249.329 178.652 248.7C180.113 248.533 181.576 248.365 183.038 248.197L183.367 248.168C184.66 248.048 186.214 247.806 186.155 246.207ZM60.4929 235.165C61.0988 235.809 62.2591 235.983 63.0323 236.359C63.9249 236.794 64.7768 237.321 65.5419 237.946C69.0056 241.078 72.5313 246.059 77.9541 243.858C79.0934 243.428 80.1554 242.743 80.8676 241.761C81.1845 241.913 81.5518 241.621 81.8729 241.581C81.5951 243.042 81.4781 244.43 81.0563 245.856C80.8734 246.481 80.6667 247.1 80.4122 247.701C80.1501 248.315 79.6775 248.937 79.6952 249.625C75.5867 248.769 71.4333 248.218 67.2685 247.72C65.7047 247.664 63.0636 246.845 61.7692 247.624C60.2354 248.555 60.9233 250.279 60.1057 250.919C58.8575 251.514 57.2446 251.065 55.8934 251.03C50.0071 250.542 44.0663 250.218 38.1897 249.737C34.6603 249.105 36.9694 248.049 35.4494 247.203C35.4552 241.907 41.9786 242.465 45.8052 241.997C46.9591 242.447 48.1258 242.862 49.3064 243.24C49.8888 243.426 50.2911 242.665 49.8878 242.266L49.0676 241.453V241.453C49.6273 241.329 50.1832 241.191 50.7332 241.031C51.5076 241.374 52.3214 241.63 53.0797 242.009L53.2212 242.081C53.7385 242.353 54.3482 241.799 54.0387 241.284C53.7988 240.884 53.6088 240.475 53.461 240.049C54.1853 239.729 54.8884 239.364 55.5573 238.948L55.6906 238.864L57.8633 240.048C58.2886 240.28 58.9286 239.889 58.7411 239.39C58.5184 238.702 57.8602 238.41 57.3597 237.949C57.4157 237.831 57.4487 237.674 57.4217 237.555C58.3997 236.72 59.253 235.654 60.4929 235.165ZM31.538 251.124L31.6076 251.135C31.6028 251.143 31.5992 251.15 31.5944 251.157L31.5644 251.153L31.5932 251.158C31.574 251.186 31.5476 251.207 31.514 251.215C31.5208 251.195 31.5269 251.175 31.5317 251.155L31.538 251.124ZM110.832 183.609L110.657 185.203C110.193 189.45 109.752 193.677 109.406 197.929C109.36 197.971 109.323 198.02 109.292 198.072L108.263 198.253C106.469 198.573 104.982 198.904 103.355 200.107C97.9327 202.937 96.1158 209.17 94.4532 214.516C90.8083 226.24 89.554 238.62 84.6269 249.957C84.4823 250.285 84.4906 250.578 84.591 250.814C83.7378 250.574 82.8798 250.351 82.017 250.145C83.1764 247.967 83.6768 244.705 83.3538 242.269L83.4801 242.265C83.8827 242.256 84.3688 242.254 84.6904 242.011C85.3252 242.186 85.8629 241.595 85.9231 241.035L85.9256 241.008C87.6815 221.802 88.9562 202.4 93.7111 183.624C94.3296 184.237 95.4466 184.096 96.2779 184.132L96.3222 184.134C97.0714 184.169 97.8219 184.197 98.5724 184.22L98.8979 184.224C102.862 184.28 106.945 184.559 110.832 183.609ZM139.993 199.016C137.255 215.823 139.677 235.999 146.804 250.17C145.081 250.135 143.404 249.684 141.684 249.689C138.623 249.738 137.129 249.128 135.899 246.283C132.942 239.705 129.989 231.258 121.651 230.009L121.261 229.972C120.096 229.866 118.139 229.75 118.138 231.097C117.987 231.08 117.815 231.095 117.66 231.136C117.635 230.821 117.61 230.507 117.583 230.193L117.562 229.573C117.489 227.614 117.274 224.903 114.773 224.925C114.739 224.709 114.666 224.495 114.578 224.283C117.096 223.07 117.008 216.842 117.291 214.333C117.521 210.763 117.503 207.181 117.42 203.607C117.41 203.252 117.341 202.78 117.482 202.491C118.78 201.661 119.065 200.578 119.108 199.096C126.061 199.268 133.035 199.085 139.993 199.016ZM109.766 205.393C109.159 206.731 109.117 208.274 108.941 209.715C108.795 211.43 108.693 213.145 108.59 214.862L108.567 215.256C108.532 215.855 108.482 216.437 108.258 217.011L108.206 217.145C107.943 217.833 107.741 218.473 107.814 219.233C107.984 221.009 108.271 222.807 108.603 224.56C109.068 226.047 110.798 225.099 111.782 224.753L111.771 224.851C111.705 225.493 111.708 226.135 112.075 226.631C109.357 226.545 109.163 228.452 109.472 230.581L109.49 230.862C109.679 233.861 109.742 237.004 108.905 239.905C107.493 240.499 106.468 241.617 105.485 242.724C104.907 243.38 104.184 244.077 103.729 244.853C99.8952 244.786 96.2406 246.115 93.183 248.625L93.5442 247.129C95.9092 237.319 98.2248 227.484 101.391 217.884C102.994 213.342 104.244 206.713 109.766 205.393ZM168.658 197.707C168.65 201.977 168.619 206.246 168.591 210.516C167.278 210.697 166.01 211.068 164.788 211.601C164.012 211.94 164.368 212.966 165.002 213.2C166.156 213.626 167.363 213.872 168.569 214.118C168.693 223.399 168.062 232.726 169.005 241.974C166.171 242.389 165.965 245.506 166.501 247.696C163.364 247.966 160.201 248.739 157.055 248.198C156.128 248.149 155.538 247.129 154.689 247.319C147.277 234.629 144.859 214.858 147.858 199.185C154.805 199.075 161.778 198.658 168.658 197.707ZM170.558 214.528C171.216 214.663 171.872 214.799 172.529 214.936C172.626 224.108 172.23 233.321 172.972 242.471C172.694 242.457 172.752 242.636 172.989 242.652C173.003 242.808 173.019 242.964 173.034 243.12C173.079 243.584 173.729 243.583 173.773 243.12C173.782 243.026 173.791 242.933 173.799 242.838C175.051 243.106 176.323 243.296 177.585 243.503C179.444 243.951 183.913 243.659 184.247 246.021L182.801 246.143C177.923 246.56 173.637 246.951 168.799 247.45C168.558 246 167.408 243.858 169.221 242.937C169.483 243.18 169.987 243.071 170.03 242.611C171.03 233.288 170.419 223.886 170.558 214.528ZM26.8058 233.42C32.5844 231.165 35.5891 233.793 40.2187 236.68C42.61 238 45.872 238.574 48.2789 237.04C49.3843 237.102 49.9009 235.917 49.8096 234.971C49.8109 234.906 49.8121 234.842 49.8121 234.778C51.1582 235.569 50.3247 237.765 50.6114 239.061C47.8644 239.903 45.0054 240.109 42.1522 240.31C38.4551 240.39 33.9967 242.164 33.5626 246.194L33.5507 246.317L33.2675 246.308C33.2675 245.901 33.004 245.481 32.4803 245.44L32.4465 245.438C24.8085 244.968 17.0905 244.993 9.49082 244.236C8.57773 243.983 8.25162 243.395 8.49659 242.523C9.0856 240.424 12.1019 240.321 13.8788 239.833C16.0195 239.244 17.9412 238.213 19.8257 237.107C20.6291 237.327 21.4412 237.512 22.2603 237.667C22.6578 237.742 23.178 237.4 22.9954 236.95L22.8626 236.622C22.7286 236.295 22.5646 235.922 22.3562 235.607C22.9699 235.249 23.5884 234.901 24.2178 234.575C25.2846 234.943 26.2952 235.426 27.2549 236.023C27.8349 236.383 28.4275 235.589 27.9943 235.123L27.9789 235.107C27.4781 234.606 27.0895 234.041 26.8058 233.42ZM65.1796 234.11C70.3301 236.566 75.7941 238.398 81.0626 240.618L80.9563 240.657C80.7717 240.725 80.5613 240.817 80.4934 240.98C78.5119 242.511 75.7255 243.136 73.3735 242.048C69.9807 240.272 68.2975 236.446 64.8271 234.718C64.9693 234.526 65.0888 234.321 65.1796 234.11ZM114.144 227.331C114.314 227.303 114.815 227.089 114.948 227.146C115.29 227.978 115.3 228.962 115.394 229.85C115.712 233.315 116.365 236.741 116.727 240.194C114.937 239.714 113.097 239.429 111.256 239.39C111.406 238.319 111.527 237.254 111.591 236.177C111.709 234.08 111.622 231.967 111.3 229.89L111.278 229.777C110.929 227.971 111.206 227.89 112.952 227.253C113.327 227.378 113.745 227.399 114.144 227.331ZM74.8268 145.608C77.8091 142.828 82.2554 143.166 86.0823 143.15C94.2417 143.149 102.383 143.873 110.43 145.158C110.658 145.549 111.298 145.637 111.607 145.347C113.823 145.708 116.031 146.104 118.235 146.528C117.625 150.288 117.139 154.07 116.595 157.84L116.56 158.073C116.321 159.709 116.203 161.54 117.343 162.89C117.375 167.068 117.539 171.26 117.555 175.443C116.927 174.86 115.914 174.927 115.106 174.782C113.452 174.411 111.877 174.143 110.2 174.052C108.511 173.801 106.823 173.549 105.133 173.298C104.872 173.258 104.663 173.368 104.533 173.532C102.371 173.284 100.218 172.86 98.0482 172.722L98.1768 172.346C98.8183 170.454 99.4045 168.402 98.4822 166.521C98.2633 166.08 97.548 166.106 97.3214 166.521C96.5263 167.976 96.4922 169.635 96.1868 171.226C96.0115 172.138 95.6487 173.108 95.4797 174.07C94.5832 175.517 94.1356 177.214 93.552 178.799C87.1752 198.436 86.408 219.228 84.0067 239.558C80.2819 238.049 76.5105 236.636 72.7725 235.162C70.0868 233.88 63.9934 232.876 64.2934 229.177C64.2794 228.873 64.2976 228.572 64.3331 228.273C64.26 228.154 64.1574 228.055 64.0372 227.979C65.2706 223.245 65.7928 218.357 66.1081 213.492C66.928 200.12 67.333 186.723 67.751 173.334L67.7707 172.767C68.0864 163.48 68.1881 152.921 74.8268 145.608ZM64.8087 199.26C64.3201 208.182 64.5365 217.229 62.3511 225.965L62.2842 226.23C62.0729 227.068 61.5115 228.248 61.8681 229.124C61.881 230.196 61.4942 231.865 62.4379 232.622C62.8412 232.91 63.3603 233.088 63.8468 233.269C63.6107 233.537 63.2804 233.722 62.9545 233.831L62.8999 233.806C61.9953 233.392 60.4058 233.111 60.1786 234.344C58.4674 234.476 56.8123 236.074 55.4321 236.929C54.7259 237.366 53.9946 237.751 53.2429 238.088C53.0043 236.316 51.9417 234.07 49.8133 234.126C49.8133 233.054 50.0003 231.997 50.1647 230.94C51.1542 231.094 52.1424 231.158 53.143 231.117C53.8071 231.584 54.4648 231.069 54.5512 230.368C57.6181 219.958 61.0457 209.505 64.8087 199.26ZM36.9886 226.368C41.0737 227.619 45.5578 227.646 49.4799 229.37C48.3027 231.017 47.8494 233.008 47.5619 234.965C47.293 235.17 47.1126 235.494 47.0983 235.845C47.091 235.968 47.1026 236.092 47.1401 236.208C42.776 237.1 39.5753 233.49 36.0649 231.665C36.5435 229.959 36.7732 228.133 36.9886 226.368ZM47.5501 235.123L47.5487 235.148V235.148C47.5548 235.345 47.3963 235.282 47.5501 235.123ZM50.3761 229.739C50.4428 229.768 50.5089 229.799 50.5756 229.828C50.5066 229.818 50.4377 229.809 50.3688 229.798C50.3712 229.778 50.3741 229.759 50.3761 229.739ZM60.5251 143.307C65.2879 140.163 74.7873 141.632 80.4312 142.002C69.2811 142.826 67.4356 157.77 66.5502 166.37C65.8381 175.609 65.5734 184.88 65.0527 194.131C60.6124 205.703 57.009 217.572 53.2118 229.357C50.1276 227.67 46.7553 226.598 43.2636 226.042L42.7599 225.97C39.8353 225.553 36.8619 225.031 34.4529 223.25C43.0786 202.697 46.6891 180.51 53.2473 159.302C55.1732 153.995 55.8092 147.032 60.5251 143.307ZM35.042 225.522C35.2059 225.617 35.3745 225.706 35.5463 225.789C35.4557 225.769 35.3594 225.766 35.2624 225.78C35.1877 225.696 35.1076 225.601 35.042 225.522ZM113.36 181.133C114.148 179.846 115.888 178.68 117.432 179.239C115.106 180.625 115.612 184.629 115.441 186.971L115.444 187.104C115.501 189.313 115.309 193.978 116.555 195.554C116.467 196.57 116.466 197.623 116.36 198.645C116.327 199.02 116.403 199.719 116.177 200.05C113.684 201.413 114.893 204.682 114.744 206.951C114.857 211.295 114.546 215.631 114.417 219.971C114.425 221.093 114.537 222.289 114.154 223.363C113.664 222.342 112.268 222.41 111.965 223.444C111.72 223.131 111.228 223.106 110.808 223.162C110.66 221.786 110.431 220.41 110.382 219.032C110.359 218.347 110.772 217.782 110.924 217.127C111.229 214.641 110.882 212.101 110.851 209.601L110.843 209.526C110.745 208.493 110.669 205.934 110.071 205.306C113.943 204.627 115.167 199.87 111.389 198.114C111.44 197.881 111.391 197.636 111.227 197.461C111.549 193.697 111.965 189.939 112.33 186.178C112.487 184.484 112.481 182.653 113.36 181.133ZM183.58 213.2C183.287 212.813 183.918 212.396 184.175 212.806C184.441 213.244 184.595 213.779 184.487 214.284C184.427 214.563 183.958 214.641 183.832 214.368C183.723 214.143 183.685 213.901 183.631 213.66C183.486 213.551 183.484 213.345 183.58 213.2ZM181.375 210.928C181.363 210.994 181.353 211.062 181.343 211.129C181.236 211.091 181.124 211.06 181.01 211.032C181.132 210.999 181.253 210.964 181.375 210.928ZM171.985 183.227C172.279 183.406 172.627 183.52 172.991 183.572C172.326 192.462 172.703 201.415 172.543 210.327C171.888 210.474 171.204 210.352 170.539 210.402C170.377 202.623 170.681 194.851 170.17 187.079C170.616 185.966 170.901 184.616 170.57 183.431C171.048 183.385 171.521 183.319 171.985 183.227ZM121.713 195.556C127.609 195.781 133.544 195.682 139.448 195.611C139.821 195.6 140.204 195.598 140.593 195.596C140.441 196.373 140.299 197.157 140.167 197.943C133.179 197.865 126.176 197.704 119.192 197.851L119.222 197.533C119.251 197.211 119.277 196.882 119.286 196.555C120.154 196.491 121.002 196.128 121.713 195.556ZM153.117 182.555C153.547 183.096 154.487 182.749 155.11 182.8C155.268 183.049 155.541 183.232 155.926 183.251C158.888 183.405 161.856 183.436 164.824 183.478C165.689 184.457 167.228 183.892 168.342 184.289C168.478 184.966 168.485 185.669 168.643 186.349C168.71 186.626 168.809 186.889 168.92 187.146C168.679 189.719 168.661 192.327 168.661 194.907C167.194 194.489 165.608 194.56 164.093 194.465C160.809 194.383 157.523 194.415 154.237 194.409C152.786 194.383 151.144 194.469 149.729 194.451C149.366 194.323 148.853 194.526 148.778 194.935C148.507 195.976 149.715 196.054 150.437 196.001C151.308 195.983 152.179 195.964 153.049 195.946C156.613 195.86 160.177 195.797 163.737 195.64C165.37 195.509 167.085 195.551 168.661 195.073L168.66 197.016C168.66 197.21 168.659 197.388 168.658 197.537C161.831 197.51 154.999 197.612 148.17 197.552C149.217 192.361 150.931 187.067 153.117 182.555ZM64.9394 196.472C64.9672 196.813 64.8429 197.1 64.6789 197.394C64.7664 197.087 64.8544 196.78 64.9394 196.472ZM144.104 183.003C142.794 186.526 141.722 190.245 140.896 194.107C135.018 193.982 129.15 194.044 123.273 194.053C125.438 191.57 127.737 192.252 128.815 190.674C129.596 189.45 128.944 185.441 128.74 183.915C133.316 183.725 137.913 183.703 142.469 183.197C142.985 183.13 143.547 183.085 144.104 183.003ZM176.464 181.661C176.573 181.75 176.691 181.829 176.816 181.897C176.502 182.703 176.824 183.514 176.547 184.335C176.535 185.304 176.585 186.28 176.536 187.201C176.54 188.078 175.981 188.628 175.176 188.685C174.884 188.701 174.498 188.635 174.1 188.75C174.021 187.034 174.09 185.289 173.802 183.592C173.986 183.576 174.167 183.545 174.341 183.502C174.367 182.694 175.176 181.915 176.007 182.328C176.172 182.113 176.324 181.885 176.464 181.661ZM122.949 181.051C123.199 181.08 123.442 181.135 123.675 181.228C123.621 183.419 120.378 181.88 119.934 184.569C119.86 185.203 119.941 185.84 119.962 186.475C119.973 186.8 120.234 187.31 119.871 187.5C119.685 187.764 119.174 187.712 119.219 187.332C119.227 187.262 119.233 187.191 119.238 187.119C119.078 186.843 118.981 186.553 118.929 186.254C118.737 186.157 118.794 185.908 118.88 185.732C118.93 185.352 118.767 184.681 119.194 184.478C119.238 181.949 120.2 181.547 122.606 181.342C122.77 181.325 122.873 181.404 122.92 181.513C122.983 181.378 122.981 181.216 122.949 181.051ZM125.082 147.773C126.804 148.308 128.727 148.419 130.516 148.753C142.065 150.331 153.161 154.98 164.938 154.855C165.341 154.836 165.719 154.778 166.072 154.683C166.071 154.863 166.046 155.047 166.007 155.225C165.786 155.41 165.648 155.7 165.605 155.994C156.765 160.367 150.092 169.254 145.907 178.609C140.721 177.921 135.54 177.139 130.343 176.506L129.4 176.387V176.387L127.514 176.151C126.595 176.037 125.571 175.753 124.658 175.943C124.241 171.875 124.24 167.909 123.926 163.816C124.844 163.099 124.628 161.568 124.665 160.511C124.874 156.267 124.893 152.016 125.082 147.773ZM119.123 164.044C119.436 164.125 119.758 164.154 120.061 164.111C120.868 164.495 122.062 164.296 122.956 164.206C122.852 165.151 122.762 166.097 122.724 167.046C122.574 170.746 122.633 174.523 122.974 178.221C121.75 178.305 120.525 178.452 119.303 178.549C119.292 173.723 119.061 168.876 119.123 164.044ZM165.775 167.051C164.801 171.012 160.387 177.072 155.951 177.434C158.651 173.17 161.756 169.809 165.187 167.444C165.383 167.308 165.578 167.179 165.775 167.051ZM126.15 137.147C126.291 137.15 126.432 137.151 126.573 137.149C125.724 138.353 125.876 140.229 126.902 141.289C123.32 143.455 123.432 148.301 123.312 151.937C123.169 155.455 122.978 158.966 122.827 162.48C122.827 162.416 122.612 162.506 122.535 162.518C122.051 162.58 121.56 162.601 121.07 162.58C120.331 162.293 119.356 162.287 118.847 161.59C118.242 160.8 118.38 159.618 118.484 158.703C118.737 156.488 119.077 154.281 119.364 152.071C120.154 147.348 120.054 138.161 126.15 137.147ZM127.485 141.797C130.362 143.559 134.147 142.873 137.396 143.068C139.771 143.101 142.146 143.112 144.522 143.104C152.523 143.06 160.519 142.748 168.514 142.427L168.496 142.751C168.349 145.344 168.077 147.939 167.303 150.43C166.864 152.137 166.207 152.77 164.367 152.619C154.536 152.477 145.208 149.055 135.625 147.335C132.2 146.778 128.718 146.303 125.279 145.909L125.317 145.699C125.592 144.208 126.037 142.522 127.485 141.797ZM125.394 66.5052C125.258 66.755 125.179 66.9799 125.24 67.2127C113.724 91.2781 116.765 118.651 110.686 144.032C110.567 144.1 110.499 144.209 110.436 144.323C108.47 143.938 106.49 143.605 104.503 143.316C104.73 142.744 104.38 142.226 103.98 141.854C103.974 141.797 103.894 141.617 103.889 141.617C104.638 132.616 105.729 123.615 106.667 114.622C107.253 108.355 108.323 102.03 108.033 95.7307C108.022 95.6572 107.924 95.6795 107.903 95.7307C106.353 101.175 105.456 109.437 103.907 120.425C92.7216 133.231 86.1317 135.471 75.3751 120.63L74.8229 119.837C69.7954 112.609 64.8903 105.243 61.0748 97.3267C65.8477 97.177 68.4242 92.2811 70.4639 88.6896C70.8087 88.5076 71.0388 88.2326 71.2274 87.8631C72.8434 89.83 74.1225 92.2561 75.759 94.2536C79.8211 99.4652 89.1524 105.927 89.3567 106.135L89.3958 106.169C90.0092 106.717 91.8568 108.787 92.4278 108.731C94.9164 110.983 100.45 100.494 101.115 98.5181C102.738 94.6688 104.047 93.4856 105.454 89.5594L105.697 88.852C107.636 83.1791 109.585 77.2029 114.438 73.2376L114.628 73.0402C117.735 69.8306 120.756 67.3266 125.394 66.5052ZM66.0472 137.564C67.4262 137.647 68.8064 137.727 70.1854 137.808L71.4614 137.882C81.5279 138.47 91.6156 139.197 101.702 138.768C101.607 140.153 101.111 141.588 101.658 142.934C94.6989 142.139 87.6939 141.65 80.7049 141.979C76.5515 140.063 71.5106 139.462 66.8407 139.437C66.7619 138.801 66.4913 138.081 66.0472 137.564ZM136.838 126.687C143.612 123.734 150.237 126.74 152.62 133.881C152.453 134.016 152.338 134.252 152.31 134.49C151.682 135.308 150.532 135.282 149.59 135.398C147.695 135.643 145.857 136.24 144.181 137.143C143.257 137.637 142.461 138.35 141.507 138.78L140.993 139.252C140.135 140.035 139.256 140.789 138.119 141.203C136.942 141.263 138.463 139.024 138.71 138.588L138.802 138.444C139.298 137.676 139.935 136.801 139.257 135.928C138.021 136.507 137.025 137.342 136.03 138.273L135.85 138.443C134.883 139.367 133.77 140.527 132.38 140.678C132.146 140.704 131.975 140.435 132.034 140.236C132.658 138.217 134.482 136.805 136.179 135.593C136.164 135.018 135.755 134.577 135.219 134.452C132.837 135.792 131.173 137.914 128.844 139.288C128.593 139.433 128.329 139.241 128.305 138.986C128.319 137.199 130.185 135.829 131.47 134.771C131.738 134.569 132.011 134.373 132.29 134.185C132.227 133.827 131.891 133.513 131.472 133.455C130.708 133.667 126.128 137.141 126.115 135.535L126.123 135.491C126.246 134.927 126.91 133.702 127.551 133.853C129.925 130.99 133.334 128.013 136.838 126.687ZM154.648 61.0483C157.042 62.3902 159.338 63.8431 161.735 65.1716C164.789 66.8806 168.07 68.2072 171.006 70.1199C179.944 76.5519 182.535 90.1089 185.785 99.9963L186.245 101.916C188.109 109.702 190.906 122.104 187.531 128.449L187.507 128.499C187.085 129.372 185.081 132.912 184.049 133.541C181.023 135.384 174.695 136.011 169.196 135.65C163.96 135.412 158.806 134.434 153.696 133.406C153.579 131.687 152.718 130.251 151.812 128.851L151.718 128.707L151.613 128.555C150.331 126.717 148.886 125.227 146.769 124.416C153.842 122.348 165.488 125.009 173.374 119.596C174.003 119.164 173.454 118.249 172.77 118.59C172.359 118.795 171.942 118.983 171.519 119.157C171.892 117.847 170.921 117.066 170.341 115.928L170.318 115.882C165.339 106.071 161.421 95.0435 157.948 85.0478C158.958 92.0406 160.589 98.9664 162.902 105.656C160.783 107.245 159.013 109.247 157.103 111.064C155.056 113.184 152.573 114.986 151.011 117.505C150.67 118.091 151.341 118.683 151.923 118.394C153.294 117.714 154.433 116.634 155.486 115.56L155.914 115.105C158.527 112.32 161.103 109.452 163.097 106.205C164.427 109.967 166.068 113.086 167.823 116.633L168.048 117.089C168.436 117.873 168.798 118.749 169.437 119.328C169.014 120.156 167.932 120.348 167.098 120.589C160.317 122.447 153.117 120.895 146.308 122.587L145.859 122.7C145.41 122.814 144.957 122.952 144.69 123.352C138.751 123.564 132.968 125.939 128.339 129.6L128.22 129.692C126.27 131.217 124.272 133.229 123.922 135.751C123.856 136.227 124.036 136.9 124.618 137.007C123.491 137.143 122.474 137.71 121.639 138.493C129.604 111.511 152.938 90.0263 154.648 61.0483ZM129.43 137.755C129.32 137.918 129.219 138.089 129.146 138.266C129.182 138.242 129.217 138.215 129.252 138.191C129.242 138.103 129.31 138.004 129.374 137.933L129.373 137.933C129.404 137.897 129.433 137.859 129.463 137.823C129.45 137.801 129.439 137.778 129.43 137.755ZM103.423 124.426C103.114 126.991 102.806 129.555 102.5 132.12C100.322 131.839 98.1284 131.67 95.9357 131.513L96.0573 131.439V131.439C97.1659 130.762 98.1884 129.971 99.1475 129.105C100.202 128.154 101.206 127.125 102.132 126.054C102.585 125.529 103.015 124.985 103.423 124.426ZM155.326 96.9485C154.988 99.8871 153.113 102.378 151.37 104.691C150.913 105.297 151.951 105.878 152.402 105.28L152.583 105.038C154.415 102.595 156.167 100.03 156.521 96.9485C156.607 96.2029 155.411 96.2113 155.326 96.9485ZM43.2062 67.7467C48.6084 71.0578 54.2612 73.9607 59.7867 77.0692C60.463 77.4435 61.1477 76.828 61.0211 76.1437C60.7391 74.6254 60.4593 73.107 60.1844 71.5882L59.972 70.4108C59.8921 69.986 59.5616 68.4528 59.8774 67.8773C61.2471 70.141 62.6631 72.3797 64.0857 74.6131L65.6384 77.0483C67.3007 79.6572 69.1613 82.3046 69.8222 85.3427C69.419 85.7165 69.211 86.259 69.1613 86.7918C68.6968 86.9734 68.3792 87.4786 68.5064 88.0122C66.5167 90.3354 65.158 93.6735 61.9747 94.6501C58.3643 89.5757 52.4304 86.6069 46.2259 85.8685L45.1247 85.6804C42.4347 85.2163 39.6312 84.6494 37.4882 83.0159C39.6153 83.116 41.7423 83.2117 43.8706 83.3015C44.5828 83.3318 44.7334 82.236 44.039 82.0902C40.9477 81.4408 37.8073 80.0595 35.336 78.0171C39.4599 79.437 43.787 80.2797 48.1487 80.6109C49.046 80.621 49.2022 79.3552 48.3566 79.1082C44.5125 77.5625 41.0664 75.1038 38.4231 71.9827L38.339 71.8828L43.8778 74.7331C46.1877 75.9221 48.6589 77.3911 51.356 77.3876C52.1398 77.3864 52.3143 76.4293 51.7323 76.0319L50.9737 75.4813C48.416 73.6203 43.5719 69.9944 43.2062 67.7467Z" fill="#2B2B2B"/>
<path fill-rule="evenodd" clip-rule="evenodd" d="M120.331 27.8995C118.938 26.9937 120.852 23.7922 121.507 22.8368C122.063 21.6005 122.618 20.3641 123.173 19.1278C123.065 18.1331 124.031 17.2119 125.028 17.4817C125.865 16.8521 127.312 17.0906 127.782 18.0157C137.126 13.6611 153.603 14.7789 154.897 27.1895C156.859 30.6687 158.806 34.1788 160.565 37.7607C162.829 37.8021 164.019 40.4425 162.736 42.2187C162.658 45.0348 160.84 45.3194 158.397 45.2775C157.427 45.5624 156.417 45.7332 155.709 46.4959C155.171 47.0712 154.817 47.7895 154.476 48.4865C152.899 51.702 150.851 54.5069 148.02 56.7906C143.614 60.2478 137.575 62.8279 131.876 61.4122C119.581 57.1789 116.534 38.6908 120.331 27.8995V27.8995Z" fill="white"/>
<path fill-rule="evenodd" clip-rule="evenodd" d="M144.995 8.94105C137.007 7.41565 128.191 10.1282 122.904 16.2515C122.532 16.6818 122.593 17.2233 122.946 17.5635C122.792 17.6948 122.641 17.8294 122.488 17.9641C122.328 18.106 122.362 18.379 122.508 18.5128C122.653 18.6443 122.944 18.6624 123.07 18.4936L123.258 18.246C123.351 18.1223 123.444 17.9982 123.532 17.8713C123.647 17.9082 123.76 17.9476 123.873 17.9857C122.231 19.1323 120.882 20.627 119.984 22.4015C119.013 24.3207 118.422 26.3542 118.066 28.4613C117.431 32.2201 117.456 36.052 117.695 39.8441L117.708 40.0472C118.004 44.6179 118.628 49.2532 120.756 53.3928C122.463 56.7104 125.393 59.7146 128.979 61.0703C131.045 61.8503 133.246 62.1381 135.451 61.9114C136.613 61.7924 137.769 61.5734 138.894 61.261L139.164 61.1856C140.188 60.8979 141.25 60.5687 142.112 59.9616C142.996 59.3377 142.343 58.1806 141.35 58.358C140.153 58.5725 139.026 59.1009 137.842 59.3955C136.684 59.6845 135.507 59.8553 134.311 59.8622C132.194 59.876 130.245 59.3078 128.455 58.2163C121.613 54.0413 120.484 45.2169 120.054 38.0695C119.844 34.5772 119.848 31.0321 120.55 27.5893C121.225 24.2792 122.471 20.9998 124.3 18.1298C124.73 18.2703 125.16 18.3851 125.614 18.4105C126.438 18.8561 127.398 18.836 128.331 18.8044L128.461 18.7999C129.432 18.7657 130.401 18.6767 131.364 18.5587C134.772 18.1463 138.264 17.2762 141.718 17.6367L141.859 17.652C143.282 17.8114 145.051 18.1874 146.126 19.1453C147.287 20.1789 146.607 22.2329 145.741 22.9074C145.182 23.3441 145.036 24.2892 145.803 24.6422C147.318 25.3406 150.905 24.802 151.325 25.203C151.829 25.6822 151.822 26.4389 151.859 27.0819L151.861 27.1245C151.977 28.9543 151.996 30.7815 151.902 32.6137C151.813 34.3851 151.529 36.1667 151.514 37.9402C151.509 38.5248 152.238 38.6773 152.622 38.3434C152.697 38.2779 152.775 38.2157 152.853 38.1594C153.553 37.6386 154.361 37.4011 155.232 37.2385C155.278 37.2298 155.313 37.2063 155.337 37.1757L155.347 37.1622L155.443 37.2336C155.27 37.46 155.123 37.7146 155.01 37.9984C154.987 38.0552 155.044 38.1244 155.105 38.085C156.291 37.3412 157.599 36.9981 159.003 37.2348C160.266 37.4473 161.428 38.1846 161.841 39.414C162.22 40.5454 162.018 41.8715 161.294 42.8375C160.222 44.2691 158.396 44.2053 156.765 44.3251C156.445 44.3488 156.094 44.5124 155.955 44.8158C155.792 45.1736 155.813 45.4132 155.989 45.7583C156.013 45.8076 156.045 45.852 156.081 45.8916C155.947 46.008 155.82 46.1346 155.697 46.2636L155.285 46.6972C155.004 46.9946 154.724 47.2945 154.455 47.6011C153.665 48.5029 152.925 49.4589 152.232 50.4332L152.168 50.5241C151.357 51.69 150.532 53.3619 149.068 53.7709C148.566 53.9117 148.104 54.1712 147.973 54.7111C147.841 55.251 148.215 55.7573 148.699 55.9648C149.539 56.3246 150.572 55.8275 151.236 55.315C152.669 54.2081 153.568 52.4513 154.417 50.9028L154.649 50.4796C155.086 49.6806 155.512 48.8728 155.871 48.0369C156.075 47.5599 156.296 47.0858 156.484 46.6023C156.539 46.4616 156.594 46.3186 156.635 46.1725C156.701 46.1843 156.768 46.1913 156.832 46.1927C158.808 46.2513 161.067 45.8687 162.44 44.3604C164.332 42.2814 164.434 38.6759 162.133 36.8319C161.891 36.6372 161.619 36.468 161.327 36.3251C161.702 35.6533 161.939 34.8812 162.108 34.1581C162.355 33.1022 162.476 32.0307 162.516 30.9492C162.596 28.743 162.252 26.5116 161.633 24.3922C159.39 16.7104 153.124 10.4931 144.995 8.94105ZM160.426 40.6088C160.737 38.3879 156.267 40.1746 155.285 40.3621L155.257 40.3673C154.129 40.5593 154.83 42.4759 155.924 41.8606L155.957 41.8411C156.548 41.4835 157.203 41.2192 157.825 40.9121L157.958 40.8456C158.452 40.5932 160.076 39.4799 160.297 40.6132C160.309 40.6757 160.417 40.6709 160.426 40.6088Z" fill="#2B2B2B"/>
<path fill-rule="evenodd" clip-rule="evenodd" d="M129.47 45.2999C130.359 45.5185 131.304 45.5086 132.192 45.2213C132.997 44.9607 133.813 44.4198 134.388 43.7213C134.898 43.1008 135.216 42.357 135.175 41.5761C135.17 41.4869 135.135 41.4135 135.082 41.3574C135.026 41.297 134.949 41.2569 134.867 41.2411C134.783 41.2248 134.695 41.2346 134.621 41.2704C134.554 41.3028 134.498 41.3559 134.464 41.4319C134.376 41.5529 134.289 41.6722 134.201 41.7883C133.493 42.7045 132.801 43.3948 131.697 43.6716C131.098 43.8218 130.493 43.7848 129.933 43.6059C129.333 43.4144 128.785 43.0604 128.349 42.5984C128.151 42.3896 127.924 42.3094 127.706 42.3153C127.458 42.3221 127.217 42.4429 127.038 42.6288C126.863 42.8115 126.75 43.0556 126.748 43.307C126.747 43.5276 126.828 43.7552 127.032 43.9538C127.701 44.6081 128.556 45.075 129.47 45.2999ZM129.098 34.1388C128.215 34.7043 126.886 35.9981 127.903 37.2907C129.087 38.4208 130.683 37.0245 131.472 36.3907C132.206 35.8954 133.094 37.0748 132.416 37.6471C126.713 42.0752 124.061 34.4504 128.619 33.5256C129.121 33.4237 129.328 33.9653 129.098 34.1388ZM137.45 31.4983C137.733 31.3076 138.072 31.2339 138.456 31.3888C138.756 31.5097 139.289 31.9288 139.67 32.4906C139.931 32.875 140.122 33.3298 140.103 33.811C140.099 33.9227 140.144 34.0035 140.213 34.062C140.267 34.1082 140.344 34.1409 140.434 34.1488C140.51 34.1556 140.594 34.1443 140.663 34.1209C140.792 34.0765 140.859 33.9912 140.882 33.9225C141.111 33.2601 140.977 32.5342 140.67 31.8855C140.257 31.0102 139.537 30.2897 139.074 30.0652C138.282 29.681 137.365 29.6933 136.601 30.1382C135.951 30.5169 135.558 31.1059 135.167 31.706C135.084 31.8335 135.001 31.9602 134.916 32.0847C134.744 32.3343 134.735 32.5763 134.812 32.781C134.898 33.0077 135.102 33.1945 135.351 33.2874C135.582 33.3733 135.847 33.3775 136.077 33.2733C136.272 33.1853 136.448 33.0207 136.553 32.748C136.73 32.2888 137.034 31.7784 137.45 31.4983V31.4983ZM122.765 33.0069C122.967 33.1011 123.123 33.1262 123.341 33.0544C123.462 33.0145 123.58 32.942 123.67 32.8469C123.761 32.7526 123.824 32.637 123.846 32.5105C123.899 32.1981 124.062 31.9018 124.304 31.7041C124.51 31.5351 124.774 31.4403 125.072 31.4785C125.394 31.5197 125.707 31.7096 125.925 31.9386C125.998 32.0152 126.056 32.1031 126.115 32.1903C126.224 32.3535 126.33 32.505 126.478 32.6225C126.533 32.6673 126.616 32.6968 126.695 32.6941C126.727 32.693 126.76 32.6868 126.79 32.6763C127.098 32.3535 127.15 32.1147 127.132 31.8803C127.112 31.6345 127.004 31.3887 126.835 31.1616C126.438 30.629 125.706 30.2062 125.219 30.1213C124.553 30.0052 123.902 30.1941 123.388 30.5725C122.859 30.962 122.478 31.5516 122.376 32.2049C122.351 32.3623 122.37 32.5306 122.436 32.6748C122.501 32.8157 122.609 32.9346 122.765 33.0069ZM135.782 25.7324C136.193 26.0963 136.665 26.1388 137.142 26.1746C137.408 26.1947 137.619 26.211 137.828 26.2497C138.403 26.3558 138.974 26.5258 139.498 26.7808C140.046 27.0473 140.644 27.3708 141.082 27.7965C141.186 27.8978 141.284 28.0045 141.383 28.1113C141.473 28.2088 141.559 28.3027 141.65 28.3929C141.755 28.4965 141.854 28.6055 141.953 28.7142C142.015 28.8066 142.028 28.8294 142.04 28.8532C142.06 28.8889 142.082 28.9289 142.107 28.9717C142.141 29.0303 142.182 29.0944 142.224 29.1523C142.294 29.2585 142.33 29.2871 142.361 29.2994C142.413 29.3198 142.462 29.329 142.508 29.3215C142.552 29.3145 142.593 29.2925 142.632 29.2575C142.83 29.0825 142.88 28.8047 142.864 28.5122C142.838 28.0683 142.653 27.5822 142.487 27.2851C142.102 26.5949 141.577 25.8816 140.958 25.3778C140.251 24.8026 139.485 24.3751 138.613 24.0922C138.072 23.9163 137.446 23.7593 136.864 23.8017C136.445 23.8321 136.049 23.9674 135.729 24.2825C135.532 24.4759 135.444 24.7445 135.454 25.0096C135.464 25.2799 135.575 25.5484 135.782 25.7324ZM121.837 29.6678C121.863 29.7073 121.899 29.734 121.939 29.7494C121.98 29.7655 122.026 29.769 122.069 29.7603C122.113 29.7517 122.153 29.7311 122.185 29.7005C122.215 29.6713 122.238 29.6331 122.247 29.587C122.47 28.4484 122.952 27.5906 124.025 27.0114C124.553 26.7265 125.165 26.5361 125.745 26.3811C125.914 26.336 126.093 26.3045 126.273 26.2725C126.837 26.1725 127.405 26.0605 127.758 25.6008C127.971 25.3239 128.053 24.9762 127.988 24.663C127.928 24.3681 127.741 24.1022 127.412 23.9503C126.593 23.5721 125.608 24.0041 124.809 24.3707C124.749 24.3979 124.691 24.4246 124.634 24.4504C123.852 24.8044 123.143 25.2607 122.57 25.8982C122.115 26.4039 121.703 27.1427 121.554 27.8934C121.429 28.5179 121.486 29.1492 121.837 29.6678Z" fill="#2B2B2B"/>
</svg>
